<?xml version="1.0" encoding="UTF-8" standalone="no"?>
<!-- Created with Inkscape (http://www.inkscape.org/) -->

<svg
   xmlns:dc="http://purl.org/dc/elements/1.1/"
   xmlns:cc="http://creativecommons.org/ns#"
   xmlns:rdf="http://www.w3.org/1999/02/22-rdf-syntax-ns#"
   xmlns:svg="http://www.w3.org/2000/svg"
   xmlns="http://www.w3.org/2000/svg"
   xmlns:sodipodi="http://sodipodi.sourceforge.net/DTD/sodipodi-0.dtd"
   xmlns:inkscape="http://www.inkscape.org/namespaces/inkscape"
   width="81.816101mm"
   height="81.751534mm"
   viewBox="0 0 289.89957 289.67079"
   id="svg2"
   version="1.1"
   inkscape:version="0.91 r13725"
   sodipodi:docname="bloch.svg">
  <defs
     id="defs4" />
  <sodipodi:namedview
     id="base"
     pagecolor="#ffffff"
     bordercolor="#666666"
     borderopacity="1.0"
     inkscape:pageopacity="0.0"
     inkscape:pageshadow="2"
     inkscape:zoom="2.8"
     inkscape:cx="-17.244876"
     inkscape:cy="96.145996"
     inkscape:document-units="px"
     inkscape:current-layer="layer1"
     showgrid="false"
     inkscape:window-width="1855"
     inkscape:window-height="1056"
     inkscape:window-x="65"
     inkscape:window-y="24"
     inkscape:window-maximized="1"
     fit-margin-top="0"
     fit-margin-left="0"
     fit-margin-right="0"
     fit-margin-bottom="0" />
  <metadata
     id="metadata7">
    <rdf:RDF>
      <cc:Work
         rdf:about="">
        <dc:format>image/svg+xml</dc:format>
        <dc:type
           rdf:resource="http://purl.org/dc/dcmitype/StillImage" />
        <dc:title />
      </cc:Work>
    </rdf:RDF>
  </metadata>
  <g
     inkscape:label="Layer 1"
     inkscape:groupmode="layer"
     id="layer1"
     transform="translate(-88.240269,-199.77438)">
    <path
       style="color:#000000;display:inline;overflow:visible;visibility:visible;fill:#000000;fill-opacity:1;fill-rule:nonzero;stroke:#000000;stroke-width:0.66000003;stroke-linecap:butt;stroke-miterlimit:4;stroke-dasharray:none;stroke-dashoffset:0;stroke-opacity:1;marker:none;enable-background:accumulate"
       id="path4148"
       d="m 131.23419,214.4699 c -0.48484,5.83799 0.51409,11.59916 1.71998,17.28587 1.26496,5.89345 3.8241,11.29483 6.6034,16.59068 1.75474,2.88016 3.18017,6.04838 5.34975,8.65402 1.32384,0.34309 4.15993,3.1872 -2.62668,-0.0292 -0.32596,-0.15449 0.3648,-0.62519 0.50091,-0.95925 0.17471,-0.42877 0.87739,-2.8034 0.95982,-3.0767 1.38808,-5.89665 2.82142,-11.78439 4.34946,-17.64675 1.86526,-7.12919 3.28807,-14.36196 4.99577,-21.52731 1.05433,-4.20782 1.83143,-8.47182 2.47168,-12.75903 -0.0862,-0.5953 0.1031,-0.54172 -0.25341,-0.53313 0,0 4.2621,-0.36593 4.2621,-0.36593 l 0,0 c 0.28769,0.50154 0.16697,0.19223 0.2423,0.96618 -0.72514,4.28816 -1.46739,8.57366 -2.55371,12.79019 -1.73332,7.16223 -3.13954,14.40246 -5.00472,21.53474 -1.51704,5.86531 -2.94919,11.75481 -4.28701,17.66316 -0.14371,0.48999 -0.76664,3.95216 -1.43529,4.1864 -3.25715,1.14108 -4.04144,1.60883 -5.86009,0.0441 -2.09179,-2.69211 -3.58905,-5.80821 -5.30572,-8.73942 -2.77312,-5.33506 -5.31248,-10.78428 -6.58518,-16.70569 -1.20982,-5.7354 -2.19442,-11.53843 -1.78208,-17.42564 0,0 4.23872,0.0527 4.23872,0.0527 z"
       inkscape:connector-curvature="0" />
    <path
       style="color:#000000;display:inline;overflow:visible;visibility:visible;fill:#000000;fill-opacity:1;fill-rule:nonzero;stroke:#000000;stroke-width:0.66000003;stroke-linecap:butt;stroke-miterlimit:4;stroke-dasharray:none;stroke-dashoffset:0;stroke-opacity:1;marker:none;enable-background:accumulate"
       id="path4150"
       d="m 346.20315,392.04396 c 2.26346,4.93823 4.92887,9.67031 7.55072,14.42256 3.42445,5.70519 7.17293,11.21257 10.95891,16.6827 3.10299,4.17998 6.21409,8.38593 9.71976,12.24094 0.74222,0.94652 1.6615,1.62389 2.6787,2.22889 0,0 -4.23593,0.42773 -4.23593,0.42773 l 0,0 c -0.99194,-0.66645 -1.90488,-1.40446 -2.65873,-2.34741 -3.46243,-3.89808 -6.57804,-8.10125 -9.66492,-12.29809 -3.78989,-5.48508 -7.55451,-10.9993 -10.97556,-16.72382 -2.63491,-4.76891 -5.29394,-9.52678 -7.6111,-14.46181 0,0 4.23815,-0.17169 4.23815,-0.17169 z"
       inkscape:connector-curvature="0" />
    <path
       style="color:#000000;display:inline;overflow:visible;visibility:visible;fill:#000000;fill-opacity:1;fill-rule:nonzero;stroke:#000000;stroke-width:0.66000003;stroke-linecap:butt;stroke-miterlimit:4;stroke-dasharray:none;stroke-dashoffset:0;stroke-opacity:1;marker:none;enable-background:accumulate"
       id="path4152"
       d="m 370.19736,394.69679 c -5.1928,2.94309 -9.33183,7.31506 -13.26534,11.72691 -4.41135,5.02275 -8.68395,10.15975 -12.94687,15.30786 -3.19431,3.46174 -6.36175,6.9614 -9.84758,10.13497 -1.13365,0.97979 -0.60318,0.5335 -1.58647,1.34476 0,0 -4.23931,-0.37822 -4.23931,-0.37822 l 0,0 c 0.99843,-0.79454 0.46029,-0.35652 1.60883,-1.32086 3.52083,-3.129 6.67954,-6.62988 9.88982,-10.07038 4.28057,-5.14248 8.55201,-10.28951 12.96452,-15.32049 3.9245,-4.43843 8.0529,-8.84069 13.20677,-11.86953 0,0 4.21563,0.44498 4.21563,0.44498 z"
       inkscape:connector-curvature="0" />
    <path
       style="color:#000000;display:inline;overflow:visible;visibility:visible;fill:#000000;fill-opacity:1;fill-rule:nonzero;stroke:#000000;stroke-width:0.66000003;stroke-linecap:butt;stroke-miterlimit:4;stroke-dasharray:none;stroke-dashoffset:0;stroke-opacity:1;marker:none;enable-background:accumulate"
       id="path4230"
       d="m 88.831756,378.48316 c 2.025996,-0.47279 4.045184,-0.98139 6.077724,-1.42645 2.267484,-0.61127 4.591445,-0.94566 6.90436,-1.33005 3.0057,-0.41547 6.02275,-0.74456 9.03154,-1.13695 3.84941,-0.48204 7.67889,-1.12148 11.50033,-1.78798 3.99717,-0.6781 7.97532,-1.46056 11.98759,-2.04684 3.7919,-0.67592 7.621,-1.05166 11.46346,-1.26699 3.97265,-0.15938 7.95635,-0.25253 11.9241,0.0518 2.74939,0.25768 5.50567,0.39856 8.26551,0.46911 2.80033,-0.0536 5.58099,0.28128 8.36861,0.48981 2.88601,0.15748 5.76772,0.22236 8.64744,0.47536 3.2419,0.31213 6.49761,0.40848 9.75209,0.47046 3.47926,0.0504 6.95901,0.0462 10.43855,0.0461 -0.0721,-1.7e-4 -0.28844,-4.5e-4 -0.21633,-5e-4 3.33021,-0.002 6.65265,-0.20738 9.96858,-0.50941 4.26624,-0.43968 8.51911,-1.00728 12.7747,-1.5416 4.28088,-0.61696 8.56835,-1.20209 12.86851,-1.66859 4.11567,-0.3027 8.2222,-0.71559 12.34057,-0.98343 4.11962,-0.12034 8.22483,-0.47908 12.33763,-0.72415 3.7222,-0.2116 7.45072,-0.25767 11.17793,-0.28649 4.10586,0.0328 8.21805,-0.13676 12.31954,0.0807 3.51409,0.28342 7.03413,0.4552 10.5579,0.55014 3.6671,0.0779 7.33524,0.0797 11.003,0.0828 3.73139,0.003 7.45265,0.34884 11.17938,0.51925 3.6654,0.14972 7.33417,0.17352 11.00208,0.18933 3.11716,0.15823 6.2272,0.38321 9.31965,0.80482 2.03053,0.30603 4.07565,0.49055 6.12623,0.58391 0.81888,0.13044 0.66144,0.13228 1.47486,0.15813 0.20817,0.007 0.83309,0.006 0.62481,0.004 -3.73985,-0.0203 -1.48158,0.27215 -1.25565,-0.20491 -0.2787,-1.14119 -1.50237,-1.90767 -2.3112,-2.67778 -1.97103,-1.87873 -4.31275,-3.22504 -6.75201,-4.38865 -2.91393,-1.2911 -5.99089,-2.17593 -9.07145,-2.971 -2.1493,-0.59177 -4.37544,-0.94433 -6.50958,-1.58345 -0.32099,0.0885 -1.83946,-0.9346 -0.8798,-1.0047 0.8517,-0.0622 1.70794,0.005 2.56192,0.008 2.32589,0.43408 4.66634,0.80761 6.98415,1.29528 3.72096,0.62183 7.31619,1.75581 10.93586,2.7839 3.01667,0.98453 5.93579,2.30824 8.48736,4.20667 1.53127,1.28316 2.66097,2.39347 2.01088,4.47736 -1.15566,2.1772 -3.42744,3.23114 -5.58302,4.17557 -3.05292,1.29562 -6.21518,2.31936 -9.37624,3.3155 -1.8784,0.59577 -3.8095,0.96976 -5.76035,1.22088 0,0 -2.09189,-0.30488 -2.09189,-0.30488 l 0,0 c 1.95725,-0.23434 3.89622,-0.58991 5.78142,-1.17985 3.1599,-0.98341 6.31617,-2.01201 9.36896,-3.29397 2.11447,-0.91131 4.35731,-1.90461 5.54494,-4.00028 0.6748,-1.95458 -0.57345,-3.03395 -1.98661,-4.21409 -2.55083,-1.86434 -5.45166,-3.17559 -8.45591,-4.13496 -3.61903,-1.03464 -7.22161,-2.1421 -10.94226,-2.76778 -2.3287,-0.47812 -4.67729,-0.87602 -7.02085,-1.26101 0.55255,-0.018 1.10652,-0.0105 1.65764,-0.0541 0.0865,-0.007 -0.16939,-0.038 -0.25408,-0.057 -0.002,0.004 -0.0104,0.0102 -0.007,0.0132 0.32606,0.25754 0.73696,0.37367 1.1228,0.50406 2.13912,0.5994 4.33579,1.00896 6.48345,1.58104 3.0837,0.80968 6.16613,1.69781 9.07862,3.01077 2.44918,1.18321 4.7929,2.56222 6.77535,4.45148 0.87773,0.81947 2.15691,1.63857 2.34247,2.91236 -0.0256,0.10775 -0.007,0.23752 -0.0768,0.32326 -0.4734,0.57891 -3.88928,0.0742 -4.99268,-0.0229 -2.04518,-0.10387 -4.08402,-0.29936 -6.10954,-0.60481 -3.08598,-0.41543 -6.19147,-0.63452 -9.30171,-0.78005 -3.66743,-0.0176 -7.33573,-0.0436 -11.00048,-0.19836 -3.72658,-0.17464 -7.4484,-0.51817 -11.18043,-0.50956 -3.66812,-0.004 -7.33663,-0.007 -11.00403,-0.0882 -3.52471,-0.0989 -7.04502,-0.28009 -10.56072,-0.55444 -3.15541,-0.14824 -4.67884,-0.061 -8.20104,-0.072 -3.72963,0.026 -7.46058,0.0685 -11.18547,0.27447 -4.11354,0.24053 -8.21845,0.61019 -12.33886,0.72286 -4.11938,0.26192 -8.2254,0.68245 -12.34249,0.97414 -4.30068,0.45872 -8.58815,1.0445 -12.86813,1.665 -4.25574,0.53181 -8.50785,1.10235 -12.77318,1.54854 -4.60632,0.43529 -9.23029,0.6366 -13.85795,0.53035 -3.48088,-3.1e-4 -6.96201,0.005 -10.44257,-0.0496 -3.25743,-0.0655 -6.51563,-0.16918 -9.76032,-0.48336 -2.88054,-0.24724 -5.76501,-0.29832 -8.65035,-0.47255 -2.78741,-0.21278 -5.56931,-0.52842 -8.36962,-0.47927 -2.75819,-0.0753 -5.51219,-0.2256 -8.26018,-0.48022 -0.51537,-0.0379 -1.03719,-0.0241 -1.54612,-0.11378 -0.15736,-0.0277 0.63296,-0.0666 0.47341,-0.0752 -2.23518,-0.12026 -4.49099,0.14063 -6.72587,0.14016 -3.84378,0.20563 -7.67622,0.56512 -11.46824,1.24756 -4.01393,0.57614 -7.991,1.36342 -11.98837,2.0405 -3.81775,0.67291 -7.64531,1.31016 -11.49123,1.79815 -3.00202,0.4015 -6.01398,0.72631 -9.01533,1.13236 -2.30935,0.38089 -4.631914,0.70678 -6.894372,1.32125 -2.02971,0.42941 -4.038182,0.95846 -6.061933,1.41441 0,0 -2.104089,-0.27347 -2.104089,-0.27347 z"
       inkscape:connector-curvature="0" />
    <path
       style="color:#000000;display:inline;overflow:visible;visibility:visible;fill:#000000;fill-opacity:1;fill-rule:nonzero;stroke:#000000;stroke-width:0.66000003;stroke-linecap:butt;stroke-miterlimit:4;stroke-dasharray:none;stroke-dashoffset:0;stroke-opacity:1;marker:none;enable-background:accumulate"
       id="path4232"
       d="m 103.85488,480.97757 c -0.31218,-2.36983 -0.34704,-4.76519 -0.62599,-7.13687 -0.37941,-2.28238 -0.54465,-4.58481 -0.63093,-6.89397 -0.15798,-3.75048 0.18715,-7.49517 0.36447,-11.23925 0.36234,-5.41686 0.82904,-10.82569 1.19976,-16.24182 0.36845,-6.54575 0.79605,-13.08797 1.24269,-19.62885 0.59118,-7.19765 0.52158,-14.41043 0.36468,-21.62194 -0.18746,-7.32075 -0.61529,-14.63173 -0.83494,-21.9521 -0.19191,-7.26772 -0.21555,-14.53834 -0.23305,-21.80812 -0.1931,-7.00786 -0.45545,-14.01279 -0.58858,-21.0223 -0.11287,-6.84891 -0.12013,-13.69886 -0.13028,-20.54849 -0.005,-6.47806 -0.003,-12.95611 -0.004,-19.43417 0.213,-5.73433 0.34298,-11.47516 0.66517,-17.20464 0.24606,-4.93071 0.6243,-9.85009 0.99752,-14.77209 0.26746,-3.52789 0.38263,-7.06417 0.43583,-10.60095 0.0257,-2.11295 0.0196,-4.22612 0.0159,-6.33917 -0.003,-1.38596 -0.006,-2.77193 -0.0142,-4.15787 -0.0727,-0.16037 -2.63645,-2.28056 1.65455,0.23907 0.18426,0.1082 -0.18132,0.38798 -0.24966,0.59044 -0.0406,0.12032 -0.45947,1.71304 -0.46413,1.73067 -0.89098,3.00786 -1.96469,5.96183 -3.13646,8.87065 -1.5565,3.96909 -3.21708,7.8816 -5.087938,11.71266 -1.266539,2.54296 -2.594372,5.05639 -4.014723,7.51706 -0.730859,1.25846 -0.971538,1.5396 -2.929757,0.28312 -0.06127,-0.0393 0.0661,-1.21084 0.112761,-1.69488 0.552449,-3.13114 1.664525,-6.13144 2.649715,-9.14523 1.50716,-4.52226 3.394689,-8.89771 5.422992,-13.20657 1.58038,-2.99841 3.20201,-6.08076 5.65699,-8.46475 0.48096,-0.33492 0.71447,-0.62443 1.32766,-0.61685 3.23264,0.04 3.0913,0.0769 4.70884,2.37921 1.81175,2.92568 3.4532,5.95088 5.10143,8.97012 2.14961,3.90007 4.39701,7.7455 6.41061,11.71881 1.45845,3.03474 2.94968,6.05483 4.82491,8.85618 0.79254,1.2813 1.70529,2.50779 2.86494,3.47752 0,0 -2.1124,0.18185 -2.1124,0.18185 l 0,0 c -1.13724,-1.01223 -2.05622,-2.23835 -2.84692,-3.53637 -1.85829,-2.81609 -3.33982,-5.84411 -4.79856,-8.88205 -2.015,-3.97056 -4.25487,-7.81834 -6.41201,-11.71224 -1.65282,-3.01351 -3.29777,-6.03476 -5.13186,-8.94342 -0.43371,-0.59717 -0.76692,-1.13752 -1.3274,-1.62194 -0.19435,-0.16798 -0.85163,-0.2748 -0.64304,-0.42472 0.39785,-0.28596 0.97525,-0.0975 1.46081,-0.16306 0.46678,-0.063 -2.18703,0.10916 -1.32612,0.48795 -2.50275,2.3156 -4.10475,5.41474 -5.69724,8.38467 -2.03217,4.29668 -3.917611,8.6635 -5.410359,13.18094 -0.972431,2.99897 -2.069641,5.98511 -2.611616,9.09967 -0.02773,0.30525 -0.06435,0.60982 -0.0832,0.91575 -0.01464,0.23758 0.190397,0.59745 -0.01721,0.71388 -0.595326,0.33387 -1.340914,0.25863 -2.004181,0.41975 -0.04897,0.0119 0.105286,0.058 0.147926,0.0312 0.169426,-0.10669 0.509599,-0.73154 0.55125,-0.80022 1.446468,-2.44681 2.78014,-4.95902 4.053335,-7.49978 1.877323,-3.82303 3.542375,-7.72769 5.085455,-11.69759 1.16376,-2.89941 2.22478,-5.84573 3.10267,-8.84521 0.05,-0.19349 0.54517,-2.31494 0.70022,-2.38286 1.39245,-0.60989 2.27796,-1.21865 2.59584,-0.12361 -0.005,1.38593 -0.004,2.77188 -0.003,4.15782 0.002,2.11439 0.003,4.22887 -0.0299,6.34309 -0.0701,3.54088 -0.19173,7.08132 -0.46725,10.61302 -0.37748,4.9206 -0.76454,9.83834 -1.01145,14.76801 -0.32878,5.72537 -0.46076,11.46267 -0.67954,17.19305 -0.004,6.47796 -0.008,12.95592 -0.006,19.43387 0.006,6.84842 0.0179,13.69718 0.12754,20.54488 0.13403,7.01052 0.39165,14.01676 0.58422,21.02569 0.0167,7.2679 0.0388,14.53667 0.22932,21.80254 0.21941,7.32097 0.65299,14.63229 0.83672,21.95377 0.15633,7.21731 0.22745,14.43623 -0.35661,21.64009 -0.44302,6.54082 -0.87055,13.08284 -1.22839,19.62889 -0.36337,5.41466 -0.82479,10.82195 -1.17539,16.23763 -0.17131,3.73803 -0.50097,7.47795 -0.33221,11.22154 0.0918,2.30341 0.26547,4.59986 0.63624,6.87757 0.27581,2.37188 0.29697,4.7687 0.64186,7.135 0,0 -2.11936,0.0264 -2.11936,0.0264 z"
       inkscape:connector-curvature="0" />
    <path
       style="color:#000000;display:inline;overflow:visible;visibility:visible;fill:#000000;fill-opacity:1;fill-rule:nonzero;stroke:#000000;stroke-width:0.66000003;stroke-linecap:butt;stroke-miterlimit:4;stroke-dasharray:none;stroke-dashoffset:0;stroke-opacity:1;marker:none;enable-background:accumulate"
       id="path4244"
       d="m 104.36964,428.91882 c 1.60423,-1.74206 3.34782,-3.34227 5.22171,-4.78839 2.00361,-1.38796 4.09452,-2.64229 6.14051,-3.96555 2.23901,-1.39655 4.47604,-2.79585 6.70615,-4.20673 2.23903,-1.45261 4.4838,-2.89372 6.63021,-4.48127 2.37821,-1.66945 4.62285,-3.51024 6.84458,-5.37881 2.47007,-2.01429 4.83305,-4.14773 7.19055,-6.29075 2.13919,-1.9065 4.31624,-3.77046 6.47907,-5.65081 1.96439,-1.63678 3.99963,-3.19138 6.16865,-4.54712 1.87274,-1.17788 3.82127,-2.23005 5.68913,-3.41493 1.91263,-1.23213 3.7618,-2.55707 5.65089,-3.8255 2.43836,-1.56033 4.87608,-3.12178 7.30835,-4.69204 2.66442,-1.59804 5.08899,-3.54533 7.51014,-5.48152 2.66549,-2.14905 5.43282,-4.16132 8.2272,-6.13803 2.86586,-1.95108 5.81262,-3.77341 8.76892,-5.58218 3.06581,-1.87375 6.0562,-3.86924 9.0397,-5.87081 2.80971,-2.17734 5.89048,-3.92058 8.9478,-5.71138 3.13766,-1.887 6.42886,-3.49887 9.6574,-5.22166 3.01419,-1.61383 6.05806,-3.16932 9.04953,-4.82509 2.51213,-1.38257 4.97654,-2.85034 7.43422,-4.32698 2.41363,-1.54874 5.07246,-2.62714 7.65061,-3.85963 2.63231,-1.22818 5.18558,-2.6075 7.73067,-4.00425 2.44994,-1.43608 4.92104,-2.83474 7.37164,-4.26961 2.62397,-1.46942 5.08916,-3.1975 7.6291,-4.80321 2.74657,-1.59491 5.42632,-3.29994 8.16119,-4.91469 2.8289,-1.6133 5.57989,-3.36009 8.34489,-5.07987 2.51656,-1.52254 5.07087,-2.98183 7.5939,-4.49348 2.2949,-1.36467 4.54474,-2.80473 6.76883,-4.28163 1.98797,-1.28345 3.90419,-2.67065 5.88799,-3.96062 1.38587,-0.93177 2.84047,-1.75603 4.21962,-2.69749 0.80432,-0.54598 1.5968,-1.10412 2.33095,-1.74278 0.33826,-0.40603 0.71181,-0.73244 1.1905,-0.95729 0,0 2.12289,0.24944 2.12289,0.24944 l 0,0 c -0.49201,0.18629 -0.87366,0.45843 -1.19148,0.88497 -0.71181,0.67534 -1.54218,1.20861 -2.34377,1.77032 -1.37485,0.95663 -2.84312,1.76815 -4.23326,2.70212 -1.9882,1.28582 -3.90713,2.67059 -5.89435,3.95753 -2.22428,1.48204 -4.47739,2.92287 -6.77368,4.29095 -2.52172,1.51507 -5.07897,2.97068 -7.59835,4.48976 -2.76825,1.71786 -5.51877,3.46913 -8.34839,5.0844 -2.73528,1.60969 -5.40755,3.32188 -8.15615,4.90887 -2.54348,1.60143 -5.00541,3.33572 -7.62685,4.81041 -2.4519,1.43567 -4.92468,2.8343 -7.37359,4.27523 -2.54618,1.39823 -5.09696,2.7857 -7.73027,4.01596 -2.5731,1.23461 -5.23491,2.29739 -7.64784,3.84005 -2.46035,1.47785 -4.92546,2.95021 -7.44038,4.33378 -2.99463,1.65783 -6.04197,3.21433 -9.06102,4.82704 -3.2258,1.72305 -6.51482,3.3338 -9.65378,5.21356 -3.05057,1.79555 -6.14695,3.50981 -8.94538,5.69912 -2.98627,2.00149 -5.97577,4.0023 -9.04238,5.87905 -2.94997,1.81235 -5.8986,3.62427 -8.76473,5.569 -2.79414,1.97084 -5.55925,3.97999 -8.22273,6.12571 -2.41911,1.94409 -4.84228,3.90115 -7.50818,5.50317 -2.42894,1.56954 -4.8616,3.13264 -7.29855,4.68915 -1.88708,1.27003 -3.73825,2.58996 -5.64377,3.83125 -1.86364,1.19645 -3.82118,2.23823 -5.69642,3.41708 -2.17547,1.33382 -4.2016,2.89082 -6.1693,4.51312 -2.16497,1.87933 -4.34223,3.74387 -6.48675,5.64559 -2.36173,2.14048 -4.71705,4.28458 -7.18929,6.29881 -2.22373,1.86908 -4.4579,3.72616 -6.84185,5.39181 -2.14377,1.59648 -4.38716,3.04366 -6.6295,4.49706 -2.22976,1.40902 -4.46229,2.81302 -6.70284,4.20468 -2.04025,1.32537 -4.12617,2.57957 -6.13747,3.94944 -1.87494,1.42053 -3.60591,3.01195 -5.20006,4.74286 0,0 -2.11513,-0.14719 -2.11513,-0.14719 z"
       inkscape:connector-curvature="0" />
    <path
       style="color:#000000;display:inline;overflow:visible;visibility:visible;fill:#000000;fill-opacity:1;fill-rule:nonzero;stroke:#000000;stroke-width:0.66000003;stroke-linecap:butt;stroke-miterlimit:4;stroke-dasharray:none;stroke-dashoffset:0;stroke-opacity:1;marker:none;enable-background:accumulate"
       id="path4246"
       d="m 125.97275,460.48062 c 2.2193,-1.08463 4.31753,-2.38072 6.42315,-3.66496 2.10423,-1.20822 4.17853,-2.46756 6.21661,-3.78419 2.2434,-1.44404 4.53187,-2.81564 6.8035,-4.2142 2.35933,-1.36413 4.62936,-2.88305 7.01001,-4.20858 2.26609,-1.21935 4.54353,-2.41318 6.75242,-3.73475 2.25463,-1.19748 4.52081,-2.36993 6.74755,-3.61878 2.10294,-1.13137 4.26091,-2.15534 6.38146,-3.25189 1.92392,-0.96455 3.86812,-1.8899 5.77905,-2.88001 1.88613,-1.13653 3.82254,-2.18604 5.70791,-3.32373 2.07301,-1.20852 4.0083,-2.63131 5.98709,-3.98402 2.04481,-1.47302 4.3481,-2.5277 6.53384,-3.77001 2.28356,-1.29352 4.51012,-2.67945 6.83679,-3.89518 2.24112,-1.12045 4.32383,-2.51997 6.5133,-3.72958 2.29843,-1.09198 4.48092,-2.40051 6.71947,-3.6043 2.2697,-1.11428 4.43517,-2.42578 6.6864,-3.57325 2.36622,-1.07488 4.65447,-2.30401 6.87733,-3.64821 2.1764,-1.08606 4.2444,-2.36564 6.37042,-3.53997 1.86061,-1.05043 3.72035,-2.10151 5.61182,-3.09616 1.67313,-1.00953 3.4228,-1.87129 5.16756,-2.74783 1.65065,-0.96277 3.42648,-1.67933 5.09513,-2.60754 1.53285,-0.88417 3.08981,-1.70769 4.69258,-2.45618 1.65156,-0.68055 3.23823,-1.51688 4.74844,-2.46915 1.46844,-0.89983 2.92034,-1.83197 4.33314,-2.81748 1.36886,-0.95096 2.82623,-1.75473 4.28166,-2.56166 1.26372,-0.84521 2.4578,-1.78416 3.6983,-2.66187 1.44339,-1.06193 2.94988,-2.04161 4.4805,-2.97297 1.50915,-0.87204 2.90574,-1.90722 4.2195,-3.04813 1.26076,-0.98122 2.51705,-1.9659 3.71689,-3.02133 1.01835,-0.97706 2.10513,-1.8771 3.11162,-2.86581 1.0165,-0.88751 1.9371,-1.87467 2.94117,-2.77617 1.02432,-0.84541 2.13861,-1.59194 3.25806,-2.30723 0.99911,-0.69997 2.08019,-1.28988 3.05991,-2.0147 0.68348,-0.57911 1.39137,-1.10582 2.129,-1.61245 0.59024,-0.4215 1.25794,-0.6974 1.88858,-1.04705 0.49039,-0.33445 1.07071,-0.43593 1.61446,-0.63739 0.32582,-0.16905 0.17055,-0.0824 0.46675,-0.25835 0,0 2.12318,0.21738 2.12318,0.21738 l 0,0 c -0.29988,0.18991 -0.14312,0.0944 -0.47101,0.28547 -0.5125,0.26977 -1.13124,0.26655 -1.61517,0.62114 -0.63359,0.3366 -1.27487,0.63769 -1.8873,1.02025 -0.71119,0.53366 -1.47914,0.99032 -2.13172,1.60536 -0.95598,0.76152 -2.0804,1.30794 -3.06674,2.03416 -1.12301,0.69319 -2.21974,1.45613 -3.25405,2.27296 -1.01757,0.88395 -1.91746,1.88943 -2.94304,2.76392 -1.00199,0.99936 -2.09554,1.89486 -3.11464,2.87751 -1.19488,1.0622 -2.44784,2.05328 -3.71916,3.02233 -1.3133,1.15619 -2.71016,2.20635 -4.22741,3.08464 -1.53307,0.91711 -3.0312,1.90399 -4.47302,2.95816 -1.24431,0.88188 -2.451,1.8107 -3.70141,2.68449 -1.44876,0.81086 -2.91324,1.59332 -4.28133,2.53955 -1.40771,0.99622 -2.86464,1.92603 -4.33451,2.82685 -1.50438,0.97023 -3.09528,1.81795 -4.75272,2.49625 -1.59876,0.75073 -3.16396,1.54972 -4.69112,2.44048 -1.66202,0.94641 -3.4479,1.6459 -5.09648,2.61701 -1.74164,0.88299 -3.50579,1.71768 -5.16961,2.74468 -1.89791,0.9837 -3.75442,2.04284 -5.61656,3.09156 -2.13456,1.15564 -4.18272,2.47198 -6.37318,3.53012 -2.22049,1.3537 -4.50723,2.59456 -6.8792,3.66448 -2.25846,1.13005 -4.41082,2.46407 -6.68407,3.56863 -2.24461,1.19163 -4.41475,2.52323 -6.71962,3.60222 -2.20062,1.19144 -4.27091,2.61575 -6.5149,3.73377 -2.32973,1.20751 -4.5571,2.58731 -6.83569,3.88715 -2.17891,1.2478 -4.48352,2.29235 -6.53136,3.75325 -1.98154,1.35105 -3.91243,2.78241 -5.9841,3.99574 -1.88298,1.14684 -3.82853,2.18453 -5.70803,3.33733 -1.90611,1.00041 -3.85506,1.91828 -5.78081,2.88011 -2.11636,1.10561 -4.28044,2.11859 -6.38688,3.24443 -2.22384,1.25119 -4.48241,2.43523 -6.74606,3.61283 -2.20614,1.32955 -4.48293,2.52799 -6.75362,3.74242 -2.39026,1.30468 -4.64778,2.84364 -7.01079,4.19823 -2.2681,1.40035 -4.55751,2.76645 -6.79883,4.20996 -2.03546,1.32245 -4.10865,2.58642 -6.21646,3.79037 -2.10716,1.27352 -4.189,2.59134 -6.40614,3.67236 0,0 -2.10781,-0.22249 -2.10781,-0.22249 z"
       inkscape:connector-curvature="0" />
    <path
       style="color:#000000;display:inline;overflow:visible;visibility:visible;fill:#000000;fill-opacity:1;fill-rule:nonzero;stroke:#000000;stroke-width:0.66000003;stroke-linecap:butt;stroke-miterlimit:4;stroke-dasharray:none;stroke-dashoffset:0;stroke-opacity:1;marker:none;enable-background:accumulate"
       id="path4248"
       d="m 107.85403,468.93007 c 1.21692,-1.8434 2.70193,-3.48149 4.34809,-4.94726 1.29682,-1.17266 2.84277,-2.0003 4.46768,-2.61779 1.20657,-0.45684 2.40768,-0.9248 3.5818,-1.46036 0,0 2.10254,0.24004 2.10254,0.24004 l 0,0 c -1.17041,0.55115 -2.37619,1.01401 -3.5833,1.47739 -1.62337,0.58039 -3.1712,1.39116 -4.4687,2.53952 -1.65045,1.43392 -3.13445,3.05665 -4.32979,4.89316 0,0 -2.11832,-0.1247 -2.11832,-0.1247 z"
       inkscape:connector-curvature="0" />
    <path
       style="color:#000000;display:inline;overflow:visible;visibility:visible;fill:#000000;fill-opacity:1;fill-rule:nonzero;stroke:#000000;stroke-width:0.66000003;stroke-linecap:butt;stroke-miterlimit:4;stroke-dasharray:none;stroke-dashoffset:0;stroke-opacity:1;marker:none;enable-background:accumulate"
       id="path4250"
       d="m 139.85658,365.8453 c -0.42205,-0.34963 -0.86121,-0.70016 -1.16512,-1.16247 -0.27224,-0.54389 -0.29871,-0.3941 0.57185,-0.2795 0.0357,0.60209 0.16189,1.20042 0.25556,1.79695 0.24909,1.26323 0.41492,2.54198 0.55247,3.82167 0.14131,1.46489 0.17548,2.93706 0.19813,4.40767 0.0402,0.74072 -0.0742,1.50177 0.12982,2.22508 0.0225,0.0156 0.0449,0.0312 0.0674,0.0468 0,0 -0.75206,0.0595 -0.75206,0.0595 l 0,0 c -0.0224,-0.0289 -0.0448,-0.0577 -0.0672,-0.0866 -0.18646,-0.73354 -0.0807,-1.49569 -0.11343,-2.24371 -0.0192,-1.46838 -0.0511,-2.93836 -0.1946,-4.40083 -0.13917,-1.27876 -0.30979,-2.556 -0.5622,-3.8178 -0.0979,-0.60091 -0.22852,-1.20344 -0.26716,-1.81049 0.95535,-0.19726 0.63596,-0.29868 0.93142,0.2368 0.31075,0.45067 0.73996,0.79922 1.16189,1.14137 0,0 -0.74675,0.0656 -0.74675,0.0656 z"
       inkscape:connector-curvature="0" />
    <path
       style="color:#000000;display:inline;overflow:visible;visibility:visible;fill:#000000;fill-opacity:1;fill-rule:nonzero;stroke:#000000;stroke-width:0.66000003;stroke-linecap:butt;stroke-miterlimit:4;stroke-dasharray:none;stroke-dashoffset:0;stroke-opacity:1;marker:none;enable-background:accumulate"
       id="path4252"
       d="m 197.73846,368.43968 c -0.56429,0.91253 -0.77706,1.95942 -0.99538,2.99342 -0.19486,1.12599 -0.38804,2.25331 -0.53265,3.38717 -0.044,0.3349 -0.0778,0.66541 -0.0642,1.00255 0,0 -0.74885,0.003 -0.74885,0.003 l 0,0 c -0.01,-0.34137 0.0256,-0.67585 0.0715,-1.01466 0.14925,-1.13542 0.34392,-2.26458 0.53829,-3.39287 0.21784,-1.042 0.4323,-2.0938 0.98239,-3.02225 0,0 0.74894,0.0441 0.74894,0.0441 z"
       inkscape:connector-curvature="0" />
    <path
       style="color:#000000;display:inline;overflow:visible;visibility:visible;fill:#000000;fill-opacity:1;fill-rule:nonzero;stroke:#000000;stroke-width:0.66000003;stroke-linecap:butt;stroke-miterlimit:4;stroke-dasharray:none;stroke-dashoffset:0;stroke-opacity:1;marker:none;enable-background:accumulate"
       id="path4254"
       d="m 250.83189,363.18393 c -0.23027,0.93842 -0.32635,1.9026 -0.46449,2.85746 -0.16828,0.8387 -0.13219,1.68334 -0.069,2.52927 0.068,0.34645 0.0279,0.18447 0.11541,0.48712 0,0 -0.74972,0.0205 -0.74972,0.0205 l 0,0 c -0.085,-0.31213 -0.0461,-0.1451 -0.11191,-0.5022 -0.0606,-0.85131 -0.0938,-1.70182 0.0757,-2.54533 0.13821,-0.95702 0.23608,-1.92216 0.45499,-2.86519 0,0 0.74895,0.0183 0.74895,0.0183 z"
       inkscape:connector-curvature="0" />
    <path
       style="color:#000000;display:inline;overflow:visible;visibility:visible;fill:#000000;fill-opacity:1;fill-rule:nonzero;stroke:#000000;stroke-width:0.66000003;stroke-linecap:butt;stroke-miterlimit:4;stroke-dasharray:none;stroke-dashoffset:0;stroke-opacity:1;marker:none;enable-background:accumulate"
       id="path4256"
       d="m 296.94459,365.68671 c 0.36555,0.98283 0.44294,2.01313 0.46316,3.05063 -0.0381,0.79997 -0.16062,1.59231 -0.24231,2.38839 -0.0279,0.25985 -0.0384,0.52101 -0.0556,0.7816 -0.26206,-0.038 -0.53389,-0.0336 -0.78619,-0.11398 -0.0493,-0.0157 -0.0286,-0.0995 -0.0412,-0.14969 -0.0815,-0.32405 -0.10676,-0.65507 -0.13136,-0.98728 -0.0419,-0.83689 -0.041,-1.67528 -0.0436,-2.51302 0.0138,-0.83166 -0.10928,-1.65744 -0.18437,-2.48409 -0.005,-0.47019 -0.073,-0.9184 -0.18524,-1.37202 -0.064,-0.24279 -0.10244,-0.49162 -0.13348,-0.74053 -0.0123,-0.0761 -0.01,-0.15293 -0.009,-0.22964 -0.009,-0.15723 -10e-4,-0.28412 0.0746,-0.42355 0.0764,-0.10199 0.13591,-0.19706 0.16365,-0.32177 0.009,-0.04 0.0127,-0.0807 0.0166,-0.12133 0,0 0.75697,0.006 0.75697,0.006 l 0,0 c -0.004,0.044 -0.009,0.0879 -0.0181,0.13128 -0.0284,0.13438 -0.0732,0.24111 -0.16542,0.3451 -0.0773,0.12644 -0.0834,0.23582 -0.0722,0.38447 -4.3e-4,0.0736 -10e-4,0.14723 0.009,0.22031 0.0279,0.24605 0.0662,0.49148 0.12913,0.73124 0.11353,0.45721 0.1741,0.91038 0.18016,1.38363 0.0728,0.82892 0.193,1.65691 0.181,2.49049 0.003,0.83594 10e-4,1.67264 0.0483,2.50754 0.0212,0.26636 0.0413,0.53215 0.0935,0.79474 0.03,0.15123 0.0872,0.32756 0.0852,0.32832 -0.22755,0.0898 -0.48281,0.0789 -0.72422,0.11839 0.0365,-0.25522 0.0267,-0.5184 0.0647,-0.77428 0.0869,-0.79269 0.20971,-1.58216 0.25037,-2.37913 -0.0178,-1.03001 -0.0944,-2.0538 -0.47163,-3.02513 0,0 0.74839,-0.0269 0.74839,-0.0269 z"
       inkscape:connector-curvature="0" />
    <path
       style="color:#000000;display:inline;overflow:visible;visibility:visible;fill:#000000;fill-opacity:1;fill-rule:nonzero;stroke:#000000;stroke-width:0.66000003;stroke-linecap:butt;stroke-miterlimit:4;stroke-dasharray:none;stroke-dashoffset:0;stroke-opacity:1;marker:none;enable-background:accumulate"
       id="path5024"
       d="m 253.44559,382.69311 c -1.20131,-0.15499 -2.41059,-0.22577 -3.62028,-0.2705 -1.37272,-0.0396 -2.74617,-0.0392 -4.11933,-0.0408 0.10826,0.0132 0.43114,0.0154 0.32477,0.0395 -0.24642,0.0558 -0.50385,0.0386 -0.75576,0.0581 -1.05874,0.0821 -2.11599,0.14914 -3.17701,0.194 -1.74217,0.0604 -3.48561,0.0643 -5.22862,0.0688 -2.04648,0.003 -4.09297,7.5e-4 -6.13946,-1.5e-4 -1.56622,0.0179 -3.12691,0.0143 -4.68862,-0.10648 -1.52434,-0.13416 -3.05317,-0.1953 -4.58255,-0.22959 -1.52599,-0.13371 -3.05222,-0.25253 -4.58271,-0.31919 -1.49153,-0.16014 -2.98392,-0.28986 -4.48259,-0.35673 -1.51993,-0.0565 -3.04113,-0.0598 -4.5619,-0.0631 -0.70301,-0.009 -1.87185,-0.0198 -3.29105,0.099 -1.28581,0.12864 -2.57558,0.19892 -3.86691,0.23665 -1.17672,0.0269 -2.35383,0.0268 -3.53079,0.0272 -1.45506,4.1e-4 -2.91011,-10e-4 -4.36516,-0.002 -0.92819,-4.6e-4 -1.85638,-3.2e-4 -2.78457,-2.3e-4 -0.29219,1.8e-4 -1.64125,-1.1e-4 -0.091,9e-5 0.12114,1e-5 -0.2423,1e-5 -0.36344,1e-5 -0.29786,2e-5 -0.42014,2e-5 -0.71766,3e-5 -0.71253,1e-5 -1.42505,1e-5 -2.13757,1e-5 -1.00897,-2e-5 -2.01795,1.5e-4 -3.02693,1.6e-4 1.85873,-0.0749 -0.34993,0.24439 -0.69484,0.28642 -0.54992,0.0634 -1.10407,0.0668 -1.65687,0.0719 -0.59975,0.0994 -1.19231,0.22311 -1.79797,0.28705 -0.54764,0.0549 -1.09826,0.065 -1.64818,0.0702 -0.74445,0.004 -1.48892,0.002 -2.23338,2e-5 -0.4738,-8.6e-4 -0.9476,-9.2e-4 -1.4214,-10e-4 0.34476,-2.7e-4 -1.37901,-1.4e-4 -1.03426,-9e-5 0.65486,9e-5 1.16909,8e-5 0.60159,8e-5 -0.51851,-0.0144 -1.02551,-0.012 -1.53458,0.0907 -0.60457,0.12745 -1.21657,0.17751 -1.81535,0.33145 -0.45233,0.10667 -0.87994,0.27926 -1.13758,0.68037 -0.23587,0.30507 -0.38077,0.64898 -0.45672,1.02407 -0.0565,0.40098 -0.0576,0.80683 -0.0586,1.21094 -0.0157,0.33999 -0.013,0.64884 0.10501,0.96706 0.0895,0.30457 0.29639,0.50083 0.54852,0.68079 0.3739,0.2687 0.79011,0.48283 1.20746,0.67766 0.49445,0.21778 1.01689,0.36161 1.51968,0.55552 0.64566,0.19808 1.29679,0.39315 1.9574,0.53751 0.82495,0.10011 1.62778,0.31533 2.44922,0.43643 0.93137,0.0661 1.85278,0.18542 2.77809,0.30898 1.10206,0.13877 2.21321,0.16246 3.32236,0.18165 0.83452,0.0114 1.66913,0.0104 2.5037,0.0117 0.13542,2.2e-4 -0.54166,1.5e-4 -0.40625,-1.6e-4 0.20917,-4.7e-4 0.41834,-2.3e-4 0.62752,-3.4e-4 1.37593,0.0176 2.74705,0.006 4.11914,-0.0995 1.59628,-0.14237 3.19794,-0.20115 4.79962,-0.23547 1.90669,-0.041 3.81265,-0.0299 5.71887,0.0188 1.43654,0.0831 2.8612,0.26199 4.28784,0.44137 1.36896,0.17876 2.72988,0.38235 4.10802,0.48304 1.54311,0.0949 3.0897,0.1002 4.63512,0.10669 1.59086,0.0361 2.54294,-0.11222 4.3246,-0.21264 1.96041,-0.14192 3.91036,-0.38469 5.86434,-0.5907 1.73267,-0.2122 3.45727,-0.48242 5.18779,-0.70978 1.44019,-0.11836 2.86899,-0.33504 4.30644,-0.47893 1.17794,-0.11278 2.36146,-0.13862 3.54393,-0.15256 1.34129,-0.009 2.68263,-0.006 4.02395,-0.004 -1.41709,-0.32507 2.85978,0.33505 1.38055,10e-4 -0.19989,-0.0451 -0.42788,0.0492 -0.61359,-0.0374 -4.5e-4,-2.1e-4 0.24346,-0.0335 0.85241,-0.1167 0.84297,-0.1642 1.67674,-0.36552 2.4811,-0.66818 0.72785,-0.27325 1.47156,-0.51631 2.22573,-0.70666 0.81404,-0.158 1.61931,-0.35855 2.41368,-0.59578 0.65926,-0.17584 1.29024,-0.44532 1.92424,-0.69547 0.49183,-0.16759 0.97534,-0.33161 1.38778,-0.65542 0.37542,-0.39238 0.0545,-0.81805 -0.2067,-1.17043 -0.3703,-0.64162 -0.93754,-1.0451 -1.55956,-1.41125 -0.59166,-0.33295 -1.16158,-0.64691 -1.82744,-0.80064 -0.56282,-0.23961 -1.15256,-0.35867 -1.75739,-0.42356 -0.51944,-0.0372 -1.02506,-0.0288 -1.52802,-0.17131 -0.27986,-0.0825 -0.56537,-0.11813 -0.83122,-0.23825 0,0 1.05711,-0.12603 1.05711,-0.12603 l 0,0 c 0.27047,0.0963 0.55262,0.14551 0.82851,0.22529 0.501,0.1247 1.01157,0.10101 1.52291,0.15642 0.60535,0.0745 1.18966,0.21513 1.75923,0.43682 0.66183,0.1723 1.23642,0.49874 1.82956,0.8318 0.62859,0.37551 1.1839,0.81234 1.56464,1.45403 0.28926,0.40439 0.5857,0.87945 0.20844,1.33163 -0.41089,0.34383 -0.88695,0.52996 -1.39545,0.68755 -0.63718,0.24739 -1.26637,0.52773 -1.92736,0.70389 -0.79485,0.23806 -1.5982,0.45113 -2.41484,0.60106 -0.75504,0.1784 -1.49519,0.4294 -2.22396,0.69318 -0.80355,0.31763 -1.64138,0.51355 -2.48546,0.69242 -1.23055,0.1671 -2.46706,0.18761 -3.70814,0.16661 -0.30792,-4.8e-4 -1.23166,0.003 -0.92377,-10e-4 1.59607,-0.0237 -0.85819,0.0154 -1.01727,0.004 -1.18314,0.0122 -2.36738,0.0345 -3.54637,0.14293 -1.43947,0.13934 -2.8687,0.36302 -4.31105,0.47494 -1.73281,0.22368 -3.45874,0.4971 -5.19292,0.71168 -1.9547,0.20325 -3.90453,0.44954 -5.86504,0.59568 -2.12638,0.11829 -4.25125,0.2814 -6.38325,0.21885 -1.5463,-0.007 -3.09386,-0.0138 -4.63758,-0.11373 -1.37867,-0.10522 -2.74075,-0.31268 -4.11126,-0.48796 -1.42505,-0.18079 -2.8495,-0.35189 -4.28453,-0.43462 0.0968,-0.0132 0.38754,-0.0316 0.29023,-0.0397 -1.30536,-0.10902 -2.63626,0.0871 -3.94365,0.0243 -1.60063,0.0326 -3.2015,0.0873 -4.79672,0.22987 -1.37113,0.10922 -2.74048,0.13058 -4.11599,0.10821 -1.60035,9.7e-4 -3.20082,0.006 -4.80109,-0.0128 -1.11097,-0.0212 -2.22388,-0.0486 -3.32713,-0.19321 -0.92581,-0.12491 -1.85032,-0.22885 -2.78068,-0.31053 -0.82062,-0.12959 -1.62761,-0.3315 -2.45131,-0.44369 -0.66124,-0.1543 -1.31865,-0.33845 -1.96305,-0.55106 -0.50974,-0.18222 -1.02588,-0.3454 -1.52212,-0.56459 -0.41931,-0.20242 -0.83817,-0.42023 -1.2124,-0.69838 -0.25581,-0.19962 -0.46021,-0.42411 -0.55209,-0.74224 -0.11997,-0.33073 -0.1192,-0.65437 -0.10522,-1.00496 0.002,-0.41088 0.004,-0.82315 0.059,-1.23114 0.0735,-0.38575 0.21155,-0.74976 0.4581,-1.06079 0.24458,-0.43659 0.67011,-0.6507 1.1489,-0.76213 0.5993,-0.15958 1.20633,-0.2228 1.81557,-0.33663 0.51079,-0.11194 1.0119,-0.13965 1.53574,-0.11276 0.84456,-2e-5 1.68912,1.5e-4 2.53368,1.1e-4 0.47415,10e-5 0.9483,3.7e-4 1.42245,10e-4 0.23027,3.8e-4 0.17051,2.4e-4 0.3878,7.3e-4 0.0565,1.3e-4 0.22605,3.5e-4 0.16954,4e-4 -1.70291,0.002 -0.79021,2.8e-4 -0.42486,-2.3e-4 0.55005,-0.004 1.10086,-0.01 1.64903,-0.0601 0.60668,-0.0577 1.20331,-0.1619 1.79748,-0.29702 0.55226,-0.004 1.10585,-0.004 1.65584,-0.0606 0.93863,-0.1013 1.82815,-0.41251 2.79337,-0.29841 0.8225,10e-6 -0.29952,-1e-5 -0.45289,5e-5 -0.10499,3e-5 0.20997,9e-5 0.31497,1.1e-4 0.35674,6e-5 0.71349,-5e-5 1.07024,0 0.71253,0 1.42507,-1e-5 2.13761,-1e-5 1.08769,1e-5 2.17537,-2e-5 3.26306,1.3e-4 0.92702,1.8e-4 1.85404,4.9e-4 2.78106,8.4e-4 0.91764,6.3e-4 1.83541,-0.003 2.75304,0.002 0.15585,8.7e-4 -0.31171,1.8e-4 -0.46756,2.7e-4 1.17701,-2.8e-4 2.35415,5.4e-4 3.53097,-0.0242 1.29195,-0.035 2.58266,-0.10065 3.869,-0.23027 1.7836,-0.15548 3.5698,-0.11366 5.35969,-0.10723 1.52098,0.003 3.04241,0.008 4.56246,0.0676 1.49872,0.07 2.99053,0.20714 4.48319,0.35651 1.53043,0.0696 3.05613,0.1951 4.58307,0.31688 1.52927,0.0365 3.05774,0.10163 4.58201,0.23524 1.56052,0.11638 3.12079,0.11207 4.68529,0.099 1.73379,8.6e-4 2.51079,0.002 4.08064,5.7e-4 1.74208,-0.004 3.48456,-0.007 5.22587,-0.0651 1.89364,-0.0771 3.77839,-0.27695 5.67414,-0.29638 1.37407,0.002 2.74846,0.002 4.12202,0.0443 1.2136,0.0477 2.42632,0.12372 3.63167,0.27799 0,0 -1.04869,0.15275 -1.04869,0.15275 z"
       inkscape:connector-curvature="0" />
    <path
       style="color:#000000;display:inline;overflow:visible;visibility:visible;fill:#000000;fill-opacity:1;fill-rule:nonzero;stroke:#000000;stroke-width:0.66000003;stroke-linecap:butt;stroke-miterlimit:4;stroke-dasharray:none;stroke-dashoffset:0;stroke-opacity:1;marker:none;enable-background:accumulate"
       id="path5026"
       d="m 210.96783,378.20644 c -1.00656,0.45947 -1.99632,0.95397 -2.99514,1.42965 -0.74638,0.33173 -1.43557,0.7667 -2.14358,1.16936 -0.37502,0.29228 -0.94835,0.51115 -1.14386,0.97621 -0.027,0.44593 0.54374,0.68846 0.88224,0.84491 0.68478,0.34765 1.42862,0.55204 2.14713,0.81611 0.87131,0.32349 1.75019,0.63235 2.60395,1.00143 0.78667,0.3051 1.52232,0.72292 2.30919,1.02636 0.49086,0.27154 1.01525,0.46557 1.55209,0.62264 0.0832,0.0242 0.16727,0.0446 0.25202,0.0622 0,0 -1.05997,0.14307 -1.05997,0.14307 l 0,0 c -0.0834,-0.0216 -0.16666,-0.0442 -0.24909,-0.0695 -0.53325,-0.16611 -1.04992,-0.37356 -1.54566,-0.63223 -0.7816,-0.31471 -1.52158,-0.72289 -2.30703,-1.02964 -0.85615,-0.36141 -1.73194,-0.67549 -2.60398,-0.99546 -0.72361,-0.25861 -1.46681,-0.4748 -2.15289,-0.82657 -0.39482,-0.20103 -0.94385,-0.48213 -0.89317,-1.00128 0.16941,-0.50443 0.7624,-0.74299 1.15563,-1.05025 0.71479,-0.39632 1.39857,-0.84675 2.14966,-1.17611 1.00025,-0.46998 1.98836,-0.9656 2.98925,-1.43427 0,0 1.05321,0.12336 1.05321,0.12336 z"
       inkscape:connector-curvature="0" />
    <path
       style="color:#000000;display:inline;overflow:visible;visibility:visible;fill:#000000;fill-opacity:1;fill-rule:nonzero;stroke:#000000;stroke-width:0.66000003;stroke-linecap:butt;stroke-miterlimit:4;stroke-dasharray:none;stroke-dashoffset:0;stroke-opacity:1;marker:none;enable-background:accumulate"
       id="path5030"
       d="m 213.72758,388.57707 c 1.30875,-0.34445 2.70322,-0.35845 4.04043,-0.19618 0.80891,0.187 1.60366,0.42473 2.36493,0.75677 0.69198,0.27961 1.38302,0.5577 2.10112,0.76377 0.41864,0.16235 0.81818,0.35872 1.25009,0.48425 0.40343,0.14634 -0.11715,0.42657 -0.27935,0.49794 -0.51025,0.23953 -1.04106,0.42758 -1.56681,0.62888 -0.71259,0.26282 -1.40589,0.5774 -2.08677,0.91335 -0.7149,0.40573 -1.42066,0.8274 -2.1483,1.21012 -0.66393,0.37898 -1.3622,0.69148 -2.04126,1.04074 -0.34724,0.20536 -0.71588,0.37128 -1.09364,0.51154 -0.39987,-0.0552 -0.79975,-0.11046 -1.19962,-0.1657 0,0 1.06151,-0.0825 1.06151,-0.0825 l 0,0 c -0.30733,0.0391 -0.61465,0.0782 -0.92197,0.11727 0.38112,-0.12957 0.75426,-0.28862 1.09998,-0.49584 0.67517,-0.35789 1.38264,-0.65446 2.04353,-1.04069 0.73152,-0.37585 1.43693,-0.79971 2.14834,-1.21182 0.67829,-0.34317 1.37407,-0.65663 2.08591,-0.92307 0.5208,-0.20838 1.05474,-0.38244 1.56189,-0.62411 0.0807,-0.0372 0.61559,-0.1692 0.27853,-0.2404 -0.42555,-0.13532 -0.82133,-0.3396 -1.24367,-0.48396 -0.71623,-0.2141 -1.40849,-0.49482 -2.1003,-0.77652 -0.7609,-0.31788 -1.55003,-0.56208 -2.35857,-0.72685 -0.15445,-0.0169 -0.57675,0.0555 -0.46333,-0.0507 0.13355,-0.12503 0.36646,-0.007 0.54809,-0.0287 0.17258,-0.0208 -0.34745,0.0139 -0.52091,0.0254 -0.50795,0.0338 -1.02034,0.0765 -1.50781,0.23375 0,0 -1.05204,-0.13674 -1.05204,-0.13674 z"
       inkscape:connector-curvature="0" />
  </g>
</svg>
