<?xml version="1.0" encoding="UTF-8" standalone="no"?>
<!-- Created with Inkscape (http://www.inkscape.org/) -->

<svg
   xmlns:dc="http://purl.org/dc/elements/1.1/"
   xmlns:cc="http://creativecommons.org/ns#"
   xmlns:rdf="http://www.w3.org/1999/02/22-rdf-syntax-ns#"
   xmlns:svg="http://www.w3.org/2000/svg"
   xmlns="http://www.w3.org/2000/svg"
   xmlns:sodipodi="http://sodipodi.sourceforge.net/DTD/sodipodi-0.dtd"
   xmlns:inkscape="http://www.inkscape.org/namespaces/inkscape"
   width="78.604858mm"
   height="60.899937mm"
   viewBox="0 0 278.52115 215.78718"
   id="svg2"
   version="1.1"
   inkscape:version="0.91 r13725"
   sodipodi:docname="doping.svg">
  <sodipodi:namedview
     id="base"
     pagecolor="#ffffff"
     bordercolor="#666666"
     borderopacity="1.0"
     inkscape:pageopacity="0.0"
     inkscape:pageshadow="2"
     inkscape:zoom="0.98994949"
     inkscape:cx="-204.98301"
     inkscape:cy="260.53261"
     inkscape:document-units="px"
     inkscape:current-layer="layer1"
     showgrid="false"
     inkscape:window-width="1855"
     inkscape:window-height="1056"
     inkscape:window-x="65"
     inkscape:window-y="24"
     inkscape:window-maximized="1"
     fit-margin-top="0"
     fit-margin-left="0"
     fit-margin-right="0"
     fit-margin-bottom="0" />
  <defs
     id="defs4" />
  <metadata
     id="metadata7">
    <rdf:RDF>
      <cc:Work
         rdf:about="">
        <dc:format>image/svg+xml</dc:format>
        <dc:type
           rdf:resource="http://purl.org/dc/dcmitype/StillImage" />
        <dc:title></dc:title>
      </cc:Work>
    </rdf:RDF>
  </metadata>
  <g
     id="layer1"
     inkscape:groupmode="layer"
     inkscape:label="Layer 1"
     transform="translate(-83.334534,-226.89064)">
    <path
       inkscape:connector-curvature="0"
       d="m 211.13329,424.06046 c -0.7196,-1.60607 -1.15994,-3.29042 -1.56642,-4.99496 -0.43797,-2.00091 -0.70073,-4.04218 -0.92302,-6.07787 -0.2733,-3.0611 -0.317,-6.13837 -0.24052,-9.20881 0.21457,-4.93644 0.31984,-9.87598 0.38579,-14.81631 0.11447,-5.82975 -0.034,-11.66068 -0.29335,-17.48458 -0.22956,-6.01564 -0.76524,-12.01075 -1.30906,-18.00388 -0.53889,-5.64763 -1.28126,-11.27294 -1.79422,-16.92308 -0.53845,-4.9561 -0.81001,-9.93199 -0.95411,-14.91321 -0.13791,-4.78102 0.113,-9.56283 0.39818,-14.33394 0.28638,-4.65067 0.63811,-9.29505 0.82954,-13.95125 0.13232,-3.91177 0.12112,-7.82391 0.31312,-11.73347 0.16625,-3.17956 0.22872,-6.361 0.46044,-9.53669 0.19399,-2.41971 0.29649,-4.84488 0.35133,-7.2713 0.12965,-1.46424 -0.10265,-2.90295 -0.27477,-4.34995 -0.27735,-1.15635 -0.4348,-2.33543 -0.66557,-3.50007 -0.26186,-1.13124 -0.40814,-2.28105 -0.48815,-3.43789 -0.18715,-1.01477 -0.36941,-2.02679 -0.46673,-3.05473 -0.2155,-0.91288 -0.31724,-1.85395 -0.55913,-2.75948 -0.21321,-0.68985 -0.38254,-1.38792 -0.47786,-2.10354 -0.14667,-0.47132 -0.36892,-0.90534 -0.46789,-1.39143 -0.0967,-0.13582 0.0148,-0.40637 -0.074,-0.54042 -0.0127,-0.0192 -0.089,0.015 -0.0664,0.0195 1.38947,0.27483 1.5342,-0.15492 1.10757,0.51883 -0.48139,1.27341 -1.05586,2.50724 -1.63703,3.73732 -0.92642,1.90894 -1.84413,3.82314 -2.83618,5.69904 -0.62546,0.87741 -1.37327,2.7141 -2.33277,3.2537 -0.5673,-0.0139 -1.14524,0.0688 -1.70189,-0.0415 -0.29423,-0.0583 -0.10689,-2.42203 -0.0814,-2.65879 0.34937,-2.14315 0.95395,-4.22284 1.62381,-6.28387 0.82508,-2.41825 1.74316,-4.80374 2.8237,-7.11945 0.71338,-1.18368 1.14418,-2.72305 2.35217,-3.515 0.75704,-0.15518 0.85873,-0.20881 2.04043,0.14396 0.25107,0.075 1.18105,2.10233 1.29886,2.34809 0.90714,1.95055 1.83555,3.89095 2.77795,5.82468 0.68805,1.66172 1.47527,3.2845 2.09985,4.97174 0.0602,0.19935 0.12036,0.39869 0.18054,0.59805 0,0 -1.47899,0.0434 -1.47899,0.0434 l 0,0 c -0.0594,-0.19637 -0.11871,-0.39275 -0.17806,-0.58913 -0.62101,-1.68174 -1.39366,-3.30412 -2.08426,-4.95776 -0.94294,-1.93482 -1.8709,-3.87677 -2.78635,-5.82475 -0.21295,-0.43675 -0.48549,-1.0179 -0.7328,-1.44672 -0.0946,-0.16398 -0.19743,-0.32334 -0.30671,-0.4779 -0.0841,-0.11901 -0.40287,-0.2761 -0.27274,-0.34172 0.36441,-0.18374 0.81338,-0.0735 1.21694,-0.13437 0.0968,-0.0146 -0.19575,-0.004 -0.29362,-0.005 -1.25227,0.68997 -1.65719,2.28348 -2.37369,3.42628 -1.08797,2.3066 -2.00278,4.68779 -2.82611,7.1011 -0.66417,2.05133 -1.26501,4.1202 -1.606,6.25376 -0.0663,0.63426 -0.12042,1.2623 -0.0747,1.9008 0.009,0.12045 0.016,0.24297 0.0502,0.35879 0.0205,0.0691 0.18109,0.17022 0.1107,0.18575 -0.41037,0.0906 -0.83928,0.0451 -1.25892,0.0677 0.85003,-0.27405 1.8427,-2.43337 2.35097,-3.15346 0.99607,-1.87069 1.90821,-3.78474 2.83112,-5.69229 0.57957,-1.23362 1.15982,-2.46969 1.61868,-3.75466 0.53528,-0.89598 2.12084,-1.14367 2.01154,0.0531 0.10643,0.48633 0.33898,0.92279 0.46637,1.40294 0.0923,0.70943 0.26411,1.40064 0.47247,2.08484 0.23708,0.91495 0.3455,1.86189 0.55707,2.78366 0.098,1.0291 0.28417,2.04165 0.46566,3.05858 0.079,1.1506 0.22438,2.29416 0.48565,3.41909 0.23204,1.16812 0.39102,2.35066 0.66479,3.51144 0.17503,1.45377 0.39451,2.90059 0.26198,4.37105 -0.0604,2.42891 -0.17165,4.8563 -0.36554,7.27854 -0.23775,3.17421 -0.30417,6.35473 -0.47174,9.53317 -0.19869,3.90905 -0.19148,7.82083 -0.32752,11.73227 -0.19988,4.65669 -0.54897,9.30225 -0.83624,13.95378 -0.28761,4.76682 -0.53256,9.54446 -0.39958,14.32131 0.14428,4.97808 0.41169,9.95126 0.94655,14.90459 0.50856,5.6501 1.24247,11.27602 1.78181,16.92315 0.54401,5.99528 1.07966,11.99255 1.31012,18.0103 0.26038,5.82657 0.41064,11.6601 0.30152,17.49264 -0.0616,4.94059 -0.15992,9.88056 -0.3577,14.81784 -0.0667,3.06437 -0.0123,6.13514 0.26592,9.18936 0.22721,2.0295 0.49255,4.06411 0.92947,6.05953 0.40663,1.69779 0.84711,3.37675 1.58283,4.96928 0,0 -1.48398,0.0601 -1.48398,0.0601 z"
       id="path4138"
       style="color:#000000;display:inline;overflow:visible;visibility:visible;fill:#000000;fill-opacity:1;fill-rule:nonzero;stroke:#000000;stroke-width:0.4621954;stroke-linecap:butt;stroke-miterlimit:4;stroke-dasharray:none;stroke-dashoffset:0;stroke-opacity:1;marker:none;enable-background:accumulate" />
    <path
       inkscape:connector-curvature="0"
       d="m 91.123401,413.63256 c 1.666718,-1.12249 3.587981,-1.74334 5.527134,-2.19745 2.952175,-0.70589 5.988185,-0.88055 9.009525,-1.0099 4.16327,-0.20071 8.32572,0.0347 12.48515,0.19862 4.02856,0.10114 8.05612,-0.11244 12.08695,-0.10317 4.35621,-0.0241 8.69126,0.36713 13.01506,0.85423 4.44611,0.63395 8.90864,1.15276 13.38444,1.52207 4.8744,0.35241 9.76347,0.39678 14.64823,0.43309 4.66254,0.0962 9.31645,-0.0176 13.97149,-0.27171 5.36152,-0.26949 10.69357,-0.91759 16.03284,-1.45038 5.59458,-0.57378 11.19349,-1.10919 16.79704,-1.58831 6.02046,-0.50861 12.03664,-1.06025 18.04979,-1.64942 6.31359,-0.58933 12.64539,-0.93812 18.97344,-1.32557 6.37357,-0.31999 12.7433,-0.69644 19.11206,-1.10024 6.02844,-0.44987 12.05759,-0.8886 18.08531,-1.34734 5.11221,-0.42835 10.23888,-0.61152 15.36647,-0.71292 4.73718,-0.0739 9.47513,-0.0645 14.21274,-0.0642 3.51321,0.0835 7.02025,0.29183 10.50955,0.71057 2.80414,0.30083 5.58994,0.74303 8.39493,1.03478 1.7626,0.16839 3.53215,0.23757 5.3019,0.26313 -0.50391,-0.0372 1.45316,0.0395 1.09107,0.006 -0.33917,-0.032 -0.68643,0.0148 -1.02078,-0.0506 -0.14591,-0.0285 0.46551,0.0258 0.65241,-0.31155 -0.66968,-0.87829 -2.0716,-1.2035 -3.05659,-1.60562 -2.46379,-1.09984 -4.93675,-2.17443 -7.38898,-3.30002 -2.32674,-1.05569 -4.61933,-2.18165 -6.92611,-3.279 -0.46239,-0.32431 -2.45994,-0.75851 -2.0561,-1.64138 1.99439,-0.43738 4.60444,0.22459 6.60101,0.59413 3.70932,0.71727 7.37549,1.62256 11.00911,2.65249 3.65448,1.01327 7.23328,2.28419 10.69108,3.83927 1.52557,0.83214 3.64637,1.64511 4.39358,3.38029 0.0948,0.22009 0.12185,0.46351 0.18278,0.69527 -0.11117,2.11478 -2.0821,3.17202 -3.70716,4.14652 -2.82452,1.52506 -5.93622,2.36065 -9.03675,3.11252 -2.66043,0.63077 -5.35314,1.21302 -8.09245,1.31844 -1.45797,0.0785 -2.3335,0.0572 -3.49339,-0.5861 0,0 1.47159,-0.16015 1.47159,-0.16015 l 0,0 c 0.17581,0.0885 0.34271,0.19758 0.52745,0.26554 0.69397,0.25526 1.08258,0.12799 0.0456,0.25602 2.74502,-0.0708 5.44483,-0.66192 8.11004,-1.28587 3.09248,-0.73964 6.19551,-1.56775 9.01861,-3.07067 1.55991,-0.92456 3.53831,-1.93364 3.67995,-3.95767 -0.0593,-0.2178 -0.0856,-0.44732 -0.17772,-0.65337 -0.75755,-1.69451 -2.8618,-2.47221 -4.35781,-3.29513 -3.45247,-1.54832 -7.02614,-2.81115 -10.67373,-3.82018 -3.63973,-1.02701 -7.31305,-1.92678 -11.02906,-2.63605 -1.21459,-0.21993 -1.43791,-0.2718 -2.60621,-0.44289 -0.32311,-0.0473 -0.6471,-0.0884 -0.97103,-0.12973 -0.25431,-0.0324 -0.98154,0.0437 -0.76365,-0.0914 0.26821,-0.16627 0.6315,-0.002 0.94644,-0.0219 0.0921,-0.006 -0.18407,-0.0136 -0.27611,-0.0204 -0.49334,0.37339 1.8297,1.23903 2.02011,1.38765 2.30171,1.09707 4.58648,2.22863 6.91062,3.27867 2.45617,1.12624 4.93353,2.20093 7.40555,3.29178 0.92583,0.37703 2.71276,0.80684 3.09286,1.83956 -0.3433,0.95487 -2.69526,0.44216 -3.67712,0.52509 -1.7642,-0.0305 -3.52802,-0.10595 -5.28465,-0.279 -2.79979,-0.29899 -5.58188,-0.73758 -8.38164,-1.03868 -3.48502,-0.40955 -6.98699,-0.61981 -10.49521,-0.69556 -3.79798,-0.005 -7.59616,0.004 -11.39379,0.0594 -5.13211,0.0979 -10.26354,0.27587 -15.3804,0.70268 -6.03153,0.4601 -12.06508,0.89259 -18.09708,1.34737 -6.36907,0.40339 -12.73888,0.78349 -19.11293,1.10038 -6.32625,0.38935 -12.65664,0.73324 -18.96872,1.32114 -6.01094,0.59049 -12.02501,1.14264 -18.04331,1.65219 -5.60175,0.477 -11.19863,1.01364 -16.79123,1.58716 -5.33916,0.53062 -10.67025,1.18454 -16.03126,1.45689 -5.58385,0.31226 -11.17411,0.33714 -16.7655,0.27916 -4.88717,-0.0377 -9.77871,-0.0844 -14.65515,-0.44283 -4.47707,-0.37399 -8.94049,-0.89593 -13.38887,-1.52555 -4.32439,-0.48184 -8.65977,-0.866 -13.01592,-0.83865 -4.02976,-0.0631 -8.06519,0.37919 -12.0956,0.0994 -3.21277,-0.12727 -6.42344,-0.3693 -9.63859,-0.19793 -3.01359,0.12434 -6.04341,0.28784 -8.989332,0.9858 -1.925107,0.43495 -3.842977,1.03442 -5.495147,2.14752 0,0 -1.478848,-0.14581 -1.478848,-0.14581 z"
       id="path4142"
       style="color:#000000;display:inline;overflow:visible;visibility:visible;fill:#000000;fill-opacity:1;fill-rule:nonzero;stroke:#000000;stroke-width:0.4621954;stroke-linecap:butt;stroke-miterlimit:4;stroke-dasharray:none;stroke-dashoffset:0;stroke-opacity:1;marker:none;enable-background:accumulate" />
    <path
       inkscape:connector-curvature="0"
       d="m 261.86642,404.52183 c -0.22771,-0.55363 -0.40072,-1.11741 -0.59299,-1.67834 -0.13909,-0.46022 -0.305,-0.91602 -0.435,-1.3777 -0.12571,-0.47689 -0.26609,-0.94935 -0.33859,-1.43338 -0.1411,-0.5374 -0.23027,-1.07981 -0.27943,-1.62615 -0.082,-0.69811 -0.002,-1.39315 0.07,-2.08895 0.13805,-0.83848 0.27334,-1.67697 0.47898,-2.5077 0.24208,-0.87135 0.5647,-1.72439 0.94921,-2.56514 0.49357,-0.92392 1.08671,-1.81442 1.62198,-2.72459 0.60424,-0.98512 1.26238,-1.94706 1.9425,-2.90279 0.79807,-1.05147 1.66951,-2.06985 2.52234,-3.09605 0.89075,-1.06238 1.82345,-2.10611 2.84278,-3.09994 1.0828,-1.06225 2.24753,-2.07323 3.43593,-3.06761 1.35094,-1.13898 2.67697,-2.29571 4.06586,-3.40823 1.60507,-1.29354 3.41033,-2.42887 5.19689,-3.57258 2.01618,-1.25899 4.10484,-2.45076 6.19363,-3.63933 2.06349,-1.1267 4.14539,-2.23369 6.24483,-3.3214 1.9738,-0.982 4.0444,-1.84602 6.11793,-2.69922 1.7375,-0.7124 3.43126,-1.48335 5.16685,-2.19836 1.44342,-0.59805 2.89,-1.19143 4.3366,-1.78503 1.3506,-0.55168 2.739,-1.04484 4.12341,-1.54454 1.38221,-0.49947 2.80284,-0.93475 4.23075,-1.35241 1.32659,-0.38163 2.63872,-0.79254 3.98223,-1.13907 1.3027,-0.34292 2.64116,-0.58871 3.98205,-0.82608 1.26138,-0.19536 2.51852,-0.4079 3.78711,-0.57509 1.11493,-0.1641 2.2344,-0.30932 3.35068,-0.46764 0.91838,-0.1105 1.8252,-0.2678 2.74425,-0.3746 0.67493,-0.11129 1.35388,-0.20216 2.04123,-0.2538 0.48017,-0.0606 0.9555,-0.13952 1.43772,-0.19084 0.28274,-0.0282 0.56781,-0.0346 0.8526,-0.0372 0.57813,-0.0866 1.77785,0.1021 0.29384,-0.0309 -0.0399,-0.004 -0.0279,-0.0572 -0.0448,-0.0848 -0.23788,-0.14918 -0.60356,-0.13205 -0.89437,-0.14836 0,0 0.73204,-0.0834 0.73204,-0.0834 l 0,0 c 0.30605,0.0202 0.70293,0.005 0.90988,0.20894 0.0205,0.0396 0.0986,0.11116 0.0447,0.12301 -0.24981,0.055 -0.51144,0.0723 -0.76812,0.10421 -0.0221,0.003 -0.0896,-3e-4 -0.0672,-3.2e-4 0.0675,-7e-5 0.939,-3.8e-4 0.53163,-2.4e-4 -0.28479,10e-4 -0.56993,0.005 -0.85318,0.03 -0.48446,0.0482 -0.9624,0.12293 -1.44209,0.19263 -0.68858,0.0478 -1.3699,0.13346 -2.04418,0.25039 -0.92121,0.10326 -1.82857,0.26288 -2.74863,0.37206 -1.11628,0.16079 -2.23761,0.30122 -3.35243,0.46834 -1.26986,0.16389 -2.5268,0.37879 -3.78936,0.57156 -1.34002,0.23741 -2.67934,0.47814 -3.98151,0.82076 -1.34543,0.34271 -2.65663,0.75606 -3.98393,1.1366 -1.42774,0.41625 -2.84848,0.84981 -4.23049,1.34814 -1.38318,0.50084 -2.77342,0.99026 -4.12372,1.54171 -1.44808,0.59323 -2.89542,1.18718 -4.34045,1.78466 -1.73927,0.71313 -3.43477,1.48489 -5.17424,2.19775 -2.07406,0.85182 -4.1457,1.71377 -6.12102,2.69342 -2.10011,1.08735 -4.18284,2.19372 -6.24827,3.31876 -2.08768,1.18749 -4.17391,2.37946 -6.18989,3.63649 -1.78395,1.1423 -3.58662,2.2763 -5.19098,3.56691 -1.38838,1.11136 -2.71098,2.26893 -4.06059,3.40733 -1.18672,0.99342 -2.35074,2.00286 -3.43253,3.06372 -1.02059,0.99094 -1.95066,2.03424 -2.84136,3.09456 -0.85327,1.02437 -1.71999,2.0434 -2.52012,3.09237 -0.67791,0.95486 -1.33606,1.91494 -1.93925,2.89873 -0.5329,0.90922 -1.12578,1.79796 -1.61984,2.71995 -0.38405,0.83801 -0.70491,1.68849 -0.94718,2.55696 -0.20645,0.82862 -0.33993,1.66519 -0.47772,2.5017 -0.0708,0.69311 -0.14822,1.38554 -0.065,2.08075 0.0501,0.54551 0.1403,1.08689 0.28077,1.62357 0.0739,0.48209 0.2139,0.95276 0.33968,1.42785 0.13239,0.46045 0.29344,0.91609 0.43226,1.37549 0.18989,0.56136 0.36377,1.12464 0.5984,1.67681 0,0 -0.74319,0.0157 -0.74319,0.0157 z"
       id="path4158"
       style="color:#000000;display:inline;overflow:visible;visibility:visible;fill:#000000;fill-opacity:1;fill-rule:nonzero;stroke:#000000;stroke-width:0.40295351;stroke-linecap:butt;stroke-miterlimit:4;stroke-dasharray:none;stroke-dashoffset:0;stroke-opacity:1;marker:none;enable-background:accumulate" />
    <path
       inkscape:connector-curvature="0"
       d="m 173.94769,411.19979 c 0.0376,-0.76183 0.0243,-1.52256 -0.0822,-2.27775 -0.0895,-0.77203 -0.3078,-1.51794 -0.57283,-2.24583 -0.43024,-1.03451 -0.90263,-2.04924 -1.3182,-3.09019 -0.56684,-1.49479 -1.12025,-2.99451 -1.67919,-4.49227 -0.71314,-1.94006 -1.29306,-3.9253 -1.93154,-5.89062 -0.71391,-2.30854 -1.54378,-4.57783 -2.39912,-6.83692 -0.93967,-2.56303 -2.10606,-5.03023 -3.32997,-7.46703 -1.40072,-2.77636 -2.94536,-5.47418 -4.55742,-8.13209 -1.90641,-3.01703 -3.94594,-5.94517 -6.12458,-8.77118 -2.25094,-2.87987 -4.60626,-5.67045 -7.10344,-8.33903 -2.33969,-2.5329 -4.97493,-4.7632 -7.62427,-6.96061 -2.35992,-2.02108 -4.85143,-3.87839 -7.30048,-5.78798 -2.25816,-1.74263 -4.51099,-3.4924 -6.80023,-5.19423 -2.07803,-1.55667 -4.26346,-2.96726 -6.48319,-4.31214 -2.07445,-1.24594 -4.25585,-2.29614 -6.42794,-3.35729 -2.04213,-0.90796 -4.09142,-1.79956 -6.15285,-2.66292 -1.70155,-0.7386 -3.36293,-1.56736 -5.01503,-2.40984 -1.338994,-0.72182 -2.649227,-1.49121 -3.954474,-2.27159 -1.001432,-0.59675 -2.033536,-1.13884 -3.049272,-1.71034 -0.836353,-0.51496 -1.761581,-0.83034 -2.688637,-1.13237 -0.749237,-0.20109 -1.501318,-0.39737 -2.265771,-0.53231 -0.538791,-0.042 -1.061777,-0.17187 -1.590985,-0.27273 -0.309225,-0.0531 -0.621145,-0.0821 -0.934541,-0.0903 -0.18872,0.003 -0.347776,-0.12366 -0.517914,-0.19826 -0.204398,-0.1719 -0.278283,-0.38613 -0.343307,-0.64041 -0.01893,-0.0623 -0.03786,-0.12461 -0.05679,-0.18691 0,0 0.743313,-0.0221 0.743313,-0.0221 l 0,0 c 0.01947,0.0634 0.03894,0.12671 0.05841,0.19007 0.06048,0.2302 0.129165,0.44074 0.341261,0.57356 0.166951,0.0766 0.319829,0.18589 0.512213,0.16977 0.313147,0.0127 0.62475,0.0461 0.933244,0.10245 0.527039,0.10473 1.050959,0.22061 1.58687,0.27228 0.763273,0.14092 1.516296,0.33493 2.263731,0.54272 0.92871,0.30255 1.849329,0.63362 2.687235,1.14715 1.014772,0.5713 2.045683,1.11379 3.044712,1.71279 1.301787,0.78068 2.61008,1.54808 3.947226,2.26739 1.650356,0.84018 3.308426,1.66975 5.008576,2.40523 2.05987,0.86541 4.109,1.75594 6.14882,2.6675 2.17204,1.06228 4.35287,2.11476 6.42591,3.36397 2.21852,1.34769 4.40316,2.7599 6.47984,4.31915 2.28753,1.70289 4.53939,3.45271 6.79593,5.19623 2.44865,1.90883 4.93748,3.76838 7.29542,5.79056 2.64882,2.20007 5.28194,4.43454 7.62109,6.96964 2.49584,2.6715 4.84972,5.46511 7.10159,8.34574 2.17939,2.82962 4.22252,5.75929 6.13182,8.77844 1.61468,2.65949 3.16143,5.35931 4.56492,8.13728 1.2269,2.43854 2.393,4.90899 3.33514,7.47411 0.8571,2.26019 1.68985,4.53026 2.40521,6.84009 0.64028,1.96435 1.22127,3.949 1.93833,5.88729 0.56137,1.49724 1.11729,2.99642 1.68764,4.49028 0.41911,1.0411 0.89598,2.05564 1.32505,3.09228 0.2669,0.73292 0.48757,1.48369 0.57701,2.26127 0.1047,0.76203 0.1138,1.52869 0.0857,2.29719 0,0 -0.74209,-0.009 -0.74209,-0.009 z"
       id="path4166"
       style="color:#000000;display:inline;overflow:visible;visibility:visible;fill:#000000;fill-opacity:1;fill-rule:nonzero;stroke:#000000;stroke-width:0.4621954;stroke-linecap:butt;stroke-miterlimit:4;stroke-dasharray:none;stroke-dashoffset:0;stroke-opacity:1;marker:none;enable-background:accumulate" />
    <path
       inkscape:connector-curvature="0"
       d="m 247.10904,403.99629 c -0.38638,-0.74641 -0.67879,-1.52951 -0.9582,-2.31985 -0.30021,-0.83043 -0.46462,-1.69302 -0.63499,-2.55589 -0.20393,-0.97396 -0.25396,-1.96807 -0.28983,-2.95949 -0.0289,-1.04124 -0.0272,-2.083 -0.0271,-3.12455 0.001,-1.08856 0.004,-2.17713 0.004,-3.26571 0.0154,-1.27816 0.008,-2.55349 -0.0687,-3.82944 -0.11369,-1.40982 -0.11451,-2.82489 -0.19126,-4.2363 -0.12506,-1.53736 -0.14434,-3.08044 -0.23995,-4.61916 -0.091,-1.59302 -0.21738,-3.18301 -0.33266,-4.77435 -0.14329,-1.64917 -0.32791,-3.2943 -0.47486,-4.94304 -0.16968,-1.60566 -0.36962,-3.20788 -0.5689,-4.8101 -0.21878,-1.61922 -0.41953,-3.23707 -0.52291,-4.86822 -0.0905,-1.72385 -0.0946,-3.45066 -0.0996,-5.17641 0.0264,-1.73284 0.18527,-3.45782 0.31946,-5.18427 0.14409,-1.64813 0.37494,-3.28601 0.60258,-4.92402 0.25433,-1.44538 0.4125,-2.90401 0.58882,-4.36015 0.15744,-1.27481 0.20202,-2.55892 0.22832,-3.8419 0.0844,-1.23945 0.17123,-2.47812 0.21828,-3.71969 0.0777,-1.07907 -0.0322,-2.15427 -0.10848,-3.22949 -0.0492,-0.90873 -0.20364,-1.80654 -0.27945,-2.71325 -0.12049,-0.8167 -0.21008,-1.63636 -0.35023,-2.44997 -0.12281,-0.68141 -0.15781,-1.37151 -0.28222,-2.05238 -0.10791,-0.52483 -0.1553,-1.05793 -0.18021,-1.59223 -0.0165,-0.4758 -0.0163,-0.95199 -0.0165,-1.42802 -0.0324,-0.45503 0.0823,-0.89639 0.15307,-1.34216 0.13258,-0.48474 0.22228,-0.97864 0.37244,-1.45831 0.11532,-0.42477 0.21188,-0.8531 0.32661,-1.27855 0.0991,-0.39992 0.11449,-0.80818 0.21603,-1.20741 0.10511,-0.43251 0.14568,-0.87361 0.24226,-1.30804 0.066,-0.45319 0.17886,-0.89199 0.29176,-1.33477 0.0979,-0.46555 0.12334,-0.93807 0.21659,-1.40457 0.0929,-0.3855 0.14447,-0.77814 0.16966,-1.17332 0.0179,-0.39101 0.0162,-0.78257 0.0165,-1.17389 0.0352,-0.36888 -0.0321,-0.71272 -0.11511,-1.06843 -0.0886,-0.37747 -0.11449,-0.76298 -0.1286,-1.14906 0.0186,-0.4032 -0.0377,-0.79057 -0.12326,-1.18291 -0.0831,-0.37988 -0.11183,-0.76845 -0.12742,-1.15609 -0.0715,-0.36316 -0.16456,-0.72031 -0.2147,-1.08774 -0.10946,-0.30246 -0.15259,-0.63302 -0.2799,-0.92767 -0.10881,-0.33425 -0.29756,-0.62975 -0.45853,-0.94004 -0.30346,-0.55615 -0.70849,-1.04636 -1.20729,-1.43418 0,0 0.73333,-0.0661 0.73333,-0.0661 l 0,0 c 0.4977,0.40399 0.91169,0.89759 1.21633,1.46442 0.16486,0.31079 0.34927,0.61123 0.46103,0.94684 0.11986,0.30493 0.17695,0.63511 0.27947,0.94659 0.0512,0.36956 0.14646,0.72859 0.21413,1.09487 0.016,0.38342 0.0436,0.76774 0.12697,1.14335 0.0845,0.39659 0.14283,0.78867 0.12301,1.19589 0.0148,0.38123 0.0411,0.76215 0.12928,1.13472 0.0851,0.36078 0.14923,0.71177 0.11469,1.08556 3.9e-4,0.39289 7e-4,0.78596 -0.0159,1.17858 -0.0247,0.39858 -0.077,0.79485 -0.17199,1.1833 -0.0939,0.46769 -0.11929,0.94118 -0.21563,1.40835 -0.11155,0.44236 -0.22923,0.87948 -0.29252,1.33257 -0.0968,0.43519 -0.13713,0.87679 -0.24075,1.31045 -0.10318,0.39949 -0.11868,0.80759 -0.21651,1.20848 -0.11674,0.42618 -0.21228,0.85558 -0.32738,1.28163 -0.15268,0.47535 -0.23842,0.9663 -0.37253,1.44713 -0.0694,0.44211 -0.18412,0.87944 -0.15186,1.33058 -6.8e-4,0.47486 -0.002,0.94989 0.015,1.42453 0.0247,0.53099 0.072,1.06069 0.17832,1.58242 0.12247,0.68124 0.15665,1.37157 0.27902,2.05314 0.13906,0.81581 0.23018,1.63739 0.34935,2.45631 0.0764,0.9068 0.22821,1.80527 0.27662,2.71424 0.076,1.07789 0.18472,2.15584 0.10549,3.23747 -0.0484,1.24107 -0.13399,2.4794 -0.21937,3.71836 -0.0258,1.28545 -0.0715,2.57207 -0.23024,3.84919 -0.17689,1.45669 -0.33725,2.91564 -0.59297,4.36138 -0.22829,1.63652 -0.45858,3.27302 -0.60399,4.91962 -0.13462,1.7245 -0.29354,3.44752 -0.32029,5.17845 0.006,1.72429 0.009,3.44965 0.10085,5.17203 0.10491,1.62956 0.30571,3.24604 0.52405,4.86384 0.20066,1.60285 0.39825,3.20621 0.56815,4.81264 0.14816,1.64905 0.33065,3.29477 0.47501,4.94425 0.1156,1.5916 0.24352,3.18179 0.33475,4.77509 0.0952,1.53893 0.11419,3.08219 0.2399,4.61968 0.078,1.41126 0.0821,2.82609 0.19402,4.23587 0.0779,1.27742 0.086,2.55418 0.0725,3.83389 -4.6e-4,1.08856 -7e-4,2.17712 -0.002,3.26568 -3.8e-4,1.04065 -0.003,2.08152 0.0262,3.12186 0.0361,0.98767 0.0888,1.97779 0.29278,2.94782 0.17002,0.8595 0.33459,1.71857 0.63524,2.54528 0.27802,0.7902 0.57352,1.57154 0.96479,2.31473 0,0 -0.74199,0.03 -0.74199,0.03 z"
       id="path4170"
       style="color:#000000;display:inline;overflow:visible;visibility:visible;fill:#000000;fill-opacity:1;fill-rule:nonzero;stroke:#000000;stroke-width:0.4621954;stroke-linecap:butt;stroke-miterlimit:4;stroke-dasharray:none;stroke-dashoffset:0;stroke-opacity:1;marker:none;enable-background:accumulate" />
    <path
       inkscape:connector-curvature="0"
       d="m 183.89208,411.70923 c -0.10716,-0.90436 -0.15563,-1.81415 -0.188,-2.72381 -0.003,-1.08119 -0.0875,-2.15979 -0.20829,-3.23367 -0.19939,-1.53137 -0.3583,-3.06764 -0.56409,-4.59822 -0.25998,-2.23697 -0.62467,-4.45938 -0.99718,-6.67975 -0.50216,-2.85474 -0.97825,-5.71203 -1.37038,-8.58398 -0.4492,-3.17607 -0.74826,-6.37121 -1.01627,-9.56693 -0.22872,-3.26075 -0.42709,-6.52354 -0.66816,-9.78341 -0.23558,-3.29867 -0.39631,-6.60186 -0.58464,-9.90335 -0.16128,-3.16477 -0.30596,-6.33058 -0.44068,-9.49667 -0.15834,-2.90586 -0.29753,-5.81253 -0.50848,-8.71519 -0.14894,-2.71223 -0.47265,-5.40757 -0.92285,-8.08498 -0.31688,-2.11356 -0.71671,-4.21125 -1.23696,-6.28398 -0.36287,-1.4649 -0.67965,-2.94067 -1.03788,-4.4066 -0.20657,-0.92879 -0.37761,-1.86466 -0.56373,-2.79789 -0.0701,-0.1432 -0.031,-0.99139 -0.30605,-0.89727 0,0 0.73924,-0.11164 0.73924,-0.11164 l 0,0 c 0.32363,0.14679 0.19194,0.71913 0.30488,0.99451 0.18241,0.93235 0.34827,1.86768 0.55467,2.79492 0.35395,1.46607 0.66631,2.94191 1.02736,4.40638 0.51581,2.07502 0.91199,4.17474 1.22611,6.28985 0.4457,2.68001 0.76837,5.37755 0.91719,8.09161 0.21072,2.90333 0.34847,5.81074 0.50553,8.71733 0.13324,3.16574 0.27421,6.33131 0.43578,9.49567 0.18749,3.30116 0.34976,6.60391 0.58568,9.90218 0.24026,3.2597 0.43919,6.5222 0.66807,9.78272 0.26757,3.19468 0.56901,6.38843 1.01935,9.56325 0.39377,2.87141 0.8728,5.72795 1.37892,8.58167 0.37626,2.22105 0.74526,4.44409 1.0096,6.68184 0.20999,1.53094 0.37169,3.06789 0.5748,4.59969 0.12276,1.07561 0.20879,2.15614 0.21246,3.23929 0.0325,0.90761 0.0776,1.81607 0.19609,2.7172 0,0 -0.74209,0.009 -0.74209,0.009 z"
       id="path4172"
       style="color:#000000;display:inline;overflow:visible;visibility:visible;fill:#000000;fill-opacity:1;fill-rule:nonzero;stroke:#000000;stroke-width:0.4621954;stroke-linecap:butt;stroke-miterlimit:4;stroke-dasharray:none;stroke-dashoffset:0;stroke-opacity:1;marker:none;enable-background:accumulate" />
    <path
       inkscape:connector-curvature="0"
       d="m 90.337259,374.6218 c 1.107263,-0.0765 2.205316,-0.19708 3.273303,-0.43635 1.033761,-0.24486 2.07694,-0.46036 3.126257,-0.66147 1.054849,-0.18913 2.1264,-0.32867 3.197278,-0.4552 1.107743,-0.11995 2.226653,-0.14664 3.343573,-0.16326 1.43726,-0.0125 2.87468,-0.008 4.312,-0.007 1.29693,10e-4 2.59386,0.002 3.8908,0.002 0.74598,-0.0285 1.49967,0.0363 2.24503,2.8e-4 0.0578,-0.003 -0.22693,-0.0215 -0.16971,-0.028 0.51604,-0.059 1.04106,-0.0549 1.56157,-0.0824 1.61024,-0.0884 3.2245,-0.11434 4.83822,-0.13029 1.96945,-0.0134 3.93901,-0.0106 5.90851,-0.0104 -0.0494,-0.009 -0.19846,-0.0223 -0.14813,-0.0279 0.25341,-0.028 0.51086,-0.0268 0.76627,-0.0402 1.01102,-0.0535 2.02134,-0.10059 3.03389,-0.13354 1.76406,-0.0465 3.53068,-0.0709 5.29251,0.0261 1.49236,0.0972 2.98906,0.13759 4.48601,0.16089 1.54206,-0.019 3.07678,0.0976 4.61404,0.1705 1.67576,0.0718 3.35445,0.0837 5.03236,0.0927 -0.0254,-0.009 -0.10417,-0.0236 -0.0765,-0.0259 1.437,-0.11643 2.90499,-0.13267 4.34849,-0.17312 1.75971,-0.0783 3.50975,-0.25113 5.25639,-0.4284 1.70208,-0.15882 3.39779,-0.3543 5.10415,-0.48546 1.50892,-0.15693 3.02213,-0.27516 4.54279,-0.33549 1.41372,-0.005 2.819,-0.11693 4.22723,-0.19742 1.31986,-0.0322 2.62977,-0.15826 3.94446,-0.24374 1.17997,-0.076 2.36429,-0.0923 3.54772,-0.1025 1.45867,-0.006 2.91166,0.10458 4.35082,0.27714 1.04941,0.10515 2.08236,0.2966 3.09137,0.53891 0.98252,0.20167 1.96159,0.41161 2.93933,0.62665 0.97393,0.24402 1.92649,0.53741 2.87802,0.82885 0.9569,0.34718 1.89464,0.72393 2.83786,1.093 1.04141,0.38171 1.94272,0.91646 2.83141,1.47202 0.85435,0.55965 1.78326,1.0316 2.72094,1.50239 0.76285,0.40821 1.47712,0.86381 2.24351,1.26865 0.75103,0.36804 1.47634,0.76465 2.21475,1.147 0.69383,0.35613 1.32508,0.7749 1.99145,1.15943 0.74221,0.4245 1.48321,0.8475 2.18902,1.30757 0.78239,0.51792 1.64638,0.9496 2.45753,1.43844 0.81408,0.4379 1.64467,0.85294 2.42245,1.32933 0.69076,0.46887 1.46429,0.85644 2.2035,1.27738 0.76086,0.47295 1.51412,0.95295 2.26954,1.43129 0.72591,0.47736 1.45492,0.95725 2.09703,1.50161 0.49735,0.50338 1.11123,0.92069 1.71645,1.34464 0.63715,0.45879 1.29442,0.90402 1.87571,1.40519 0.53184,0.51389 1.13051,0.98463 1.66776,1.49445 0.52859,0.48732 1.01872,0.99612 1.51985,1.49972 0.4814,0.41162 0.88374,0.87546 1.36792,1.28384 0.40241,0.3614 0.76706,0.74477 1.13292,1.128 0.32088,0.35119 0.69728,0.66811 1.08155,0.97851 0.42643,0.3239 0.81601,0.67302 1.18891,1.0332 0.41067,0.31947 0.7785,0.6692 1.17265,1.00062 0.42149,0.31839 0.88907,0.59498 1.34385,0.88443 0.42151,0.27079 0.89109,0.47495 1.36849,0.68148 0.47661,0.14452 0.94809,0.30781 1.44572,0.40709 0.47502,0.1576 0.96444,0.25393 1.47502,0.31078 0.47619,0.11796 0.96193,0.20547 1.45866,0.2512 0.44306,0.0374 0.88955,0.0382 1.33475,0.0398 0.71345,4.1e-4 -0.32072,1.5e-4 -0.48109,1e-5 -0.0765,-7e-5 0.15323,-1.6e-4 0.22985,-2.6e-4 0.22724,-3e-4 0.45448,-7e-4 0.68172,-10e-4 0.43844,-5.7e-4 0.87689,-7e-4 1.31534,-7e-4 0.86305,1e-4 1.7261,8e-5 2.58915,1.4e-4 0.78462,1.4e-4 1.56925,2.1e-4 2.35388,3.3e-4 1.01998,1.5e-4 2.03997,7e-5 3.05994,1.5e-4 -0.14236,-10e-6 -0.56155,0.0357 -0.42708,-3e-5 0.16706,-0.0444 0.35313,-0.0158 0.52934,-0.0272 0.664,-0.0429 1.32575,-0.10653 1.98976,-0.1507 0.91109,-0.0545 1.8252,-0.0643 2.73858,-0.0711 1.1254,-0.005 2.25082,-0.003 3.37622,-0.002 -0.17962,-0.009 -0.38699,0.0478 -0.53888,-0.0262 -0.11449,-0.0557 0.26915,-0.0265 0.40375,-0.0395 0.58921,-0.0576 1.18065,-0.0958 1.76819,-0.16181 0.95315,-0.14676 1.92554,-0.17583 2.8873,-0.26839 1.01694,-0.12407 2.0427,-0.18783 3.07056,-0.22419 1.0342,-0.0283 2.06921,-0.0286 3.10392,-0.0295 1.30232,-5.6e-4 2.60462,0.001 3.90693,0.001 0.97741,4.3e-4 1.9548,5.4e-4 2.93221,5.2e-4 0.61261,-5e-5 0.30462,-5e-5 0.92394,-10e-6 0.15194,-2e-5 0.60775,1.4e-4 0.45581,-3e-5 -1.29936,-10e-4 0.12828,-8e-5 0.32181,-6e-5 0.80381,-8e-5 1.60763,-7e-5 2.41144,-6e-5 0.86109,0.013 1.71564,0.006 2.57169,-0.0668 1.03491,-0.069 2.06251,-0.17265 3.09248,-0.2747 1.06754,-0.10622 2.14429,-0.13265 3.21935,-0.15018 1.12369,-0.0343 2.25128,0.0234 3.3745,-0.01 0.17179,-0.005 -0.34307,-0.0176 -0.51461,-0.0263 0.68564,-0.0659 1.36853,-0.14666 2.05742,-0.19052 0.48751,-0.0267 0.97635,-0.0306 1.46488,-0.0324 0.7998,-0.001 1.5996,3.1e-4 2.39941,10e-4 0.513,3.2e-4 1.02601,4.7e-4 1.53902,5.5e-4 -0.80306,-1.7e-4 1.58397,-1e-4 0.77798,-4e-5 -1.47403,1.1e-4 -0.41244,4e-5 -0.10831,6e-5 0.64148,0.0316 1.26657,-0.0254 1.89704,-0.10683 0.64682,-0.0875 1.30266,-0.11623 1.95797,-0.13326 0.62822,2e-5 1.24336,-0.11553 1.86208,-0.18667 0.41025,-0.0206 0.79644,-0.0741 1.18496,-0.17366 0.37856,-0.0931 0.77359,-0.1198 1.16789,-0.13915 0.22149,-0.0256 0.45457,0.013 0.674,-0.0205 0.20322,-0.19735 -0.30585,-0.57115 -0.4436,-0.70229 -0.52042,-0.35547 -0.24206,-0.1709 -0.83758,-0.55145 0,0 0.95332,-0.0641 0.95332,-0.0641 l 0,0 c 0.60323,0.38555 0.32207,0.19597 0.84695,0.5657 0.21618,0.20833 0.64962,0.53457 0.45113,0.82812 -0.15807,0.11935 -0.47728,0.0204 -0.68326,0.0565 -0.39221,0.016 -0.78563,0.0354 -1.165,0.11995 -0.3937,0.0977 -0.76974,0.18267 -1.19017,0.18613 -0.62118,0.0672 -1.23679,0.18882 -1.86543,0.19475 -0.65433,0.0147 -1.30968,0.0389 -1.95613,0.12334 -0.63152,0.0818 -1.25433,0.15723 -1.89827,0.1192 -0.86055,8e-5 -1.72109,1.9e-4 -2.58163,-10e-6 -0.51338,0 -1.02673,8e-5 -1.5401,-5e-4 -0.24333,-1.9e-4 -0.48664,-4.4e-4 -0.72995,-6.9e-4 -0.0762,-1e-4 -0.30472,-2.2e-4 -0.22854,-2.8e-4 0.0557,-5e-5 1.18327,-1.7e-4 0.47463,-9e-5 -0.4888,6.9e-4 -0.97783,0.004 -1.46585,0.0266 -0.69105,0.0394 -1.37621,0.11735 -2.0625,0.18924 -0.4627,0.0109 -0.92569,0.016 -1.3881,0.0326 -0.16314,0.006 0.32664,-10e-4 0.48995,-1.8e-4 0.15825,0.001 -0.31649,7e-5 -0.47474,2.8e-4 -0.49688,6.6e-4 -0.99378,0.002 -1.49062,0.008 -1.07475,0.0158 -2.15133,0.0392 -3.21903,0.14224 -1.02966,0.10018 -2.05515,0.21137 -3.09013,0.27604 -0.85604,0.0762 -1.70879,0.0934 -2.57091,0.0753 -0.80407,2e-5 -1.60813,3e-5 -2.41221,-4e-5 -1.20086,1.1e-4 -2.40173,-8e-5 -3.6026,-1.2e-4 -0.9774,-1e-4 -1.9548,-1e-4 -2.9322,-5.7e-4 -0.817,-4.8e-4 -1.63463,0.006 -2.45156,-10e-4 -0.14779,-0.001 0.29558,-6e-5 0.4434,-9e-5 -1.03469,4.9e-4 -2.06962,3.7e-4 -3.10388,0.0263 -1.02697,0.0336 -2.05267,0.0923 -3.06838,0.21802 -0.95973,0.10094 -1.93406,0.11605 -2.88611,0.26692 -1.16737,0.1431 -2.35724,0.22058 -3.5376,0.23882 -0.2154,-1.3e-4 -1.59392,5e-4 -0.24952,-7e-4 0.27568,-2.5e-4 -1.10384,1.8e-4 -0.82709,5.9e-4 -0.13192,4.4e-4 -0.26384,7e-4 -0.39578,10e-4 -0.91348,0.006 -1.82768,0.014 -2.73913,0.0654 -1.32945,0.0853 -2.65156,0.25217 -3.99117,0.18382 -1.02082,9e-5 -2.04163,0 -3.06244,1.5e-4 -0.78634,1.1e-4 -1.57268,1.8e-4 -2.35901,3e-4 -0.72019,4e-5 0.005,-10e-6 0.35182,4e-5 0.0945,2e-5 -0.18891,2e-5 -0.28337,4e-5 -0.27252,4e-5 -0.24943,3e-5 -0.51479,8e-5 -0.0763,2e-5 -0.1525,4e-5 -0.22874,5e-5 -0.43852,9e-5 -0.87704,1.3e-4 -1.31554,6.9e-4 -0.78235,0.001 -1.56469,0.003 -2.34701,7e-4 -0.44581,-0.003 -0.89299,-0.006 -1.33596,-0.0489 -0.49591,-0.0529 -0.97714,-0.15092 -1.45925,-0.25286 -0.51,-0.063 -0.99513,-0.1751 -1.47605,-0.31938 -0.49625,-0.10986 -0.97677,-0.26577 -1.44823,-0.42532 -0.4793,-0.2084 -0.94621,-0.42174 -1.36943,-0.69452 -0.45866,-0.28938 -0.92479,-0.57127 -1.34409,-0.89491 -0.39487,-0.33274 -0.76656,-0.68124 -1.17353,-1.00549 -0.37304,-0.35756 -0.76425,-0.7034 -1.18738,-1.02689 -0.38645,-0.3126 -0.76209,-0.63338 -1.08312,-0.98783 -0.36438,-0.38121 -0.72819,-0.76299 -1.13135,-1.12088 -0.47621,-0.41571 -0.89115,-0.87215 -1.36579,-1.28976 -0.49936,-0.50371 -0.99226,-1.0101 -1.51929,-1.4974 -0.54031,-0.50664 -1.13254,-0.98013 -1.66714,-1.49092 -0.58481,-0.49632 -1.23843,-0.94155 -1.87557,-1.39781 -0.60699,-0.425 -1.21403,-0.8492 -1.7161,-1.35144 -0.64473,-0.53845 -1.3687,-1.01765 -2.09374,-1.49132 -0.75538,-0.47715 -1.50574,-0.95889 -2.27004,-1.42736 -0.74158,-0.41945 -1.51185,-0.81107 -2.20364,-1.27995 -0.77977,-0.47345 -1.61339,-0.88481 -2.42089,-1.32884 -0.81468,-0.48641 -1.67716,-0.92225 -2.45948,-1.44119 -0.70718,-0.45787 -1.44981,-0.87852 -2.19089,-1.30321 -0.66479,-0.3845 -1.29488,-0.80343 -1.99063,-1.15592 -0.73481,-0.38646 -1.46713,-0.77438 -2.21354,-1.14766 -0.76312,-0.40671 -1.47567,-0.86328 -2.24137,-1.2669 -0.9393,-0.4709 -1.86191,-0.95236 -2.7194,-1.51013 -0.88722,-0.55207 -1.79248,-1.07768 -2.83069,-1.45646 -0.94263,-0.36765 -1.87737,-0.74798 -2.83841,-1.08612 -0.95093,-0.2894 -1.90102,-0.5853 -2.8769,-0.82163 -0.97735,-0.21639 -1.95872,-0.42052 -2.93919,-0.62808 -1.0099,-0.2354 -2.03994,-0.42538 -3.08814,-0.52845 -0.55957,-0.0661 -1.11391,-0.12132 -1.6777,-0.16101 -0.18745,-0.0132 -0.37465,-0.0282 -0.56212,-0.0414 -0.19571,-0.0137 -0.40442,0.016 -0.5874,-0.039 -0.11613,-0.0349 0.24852,-0.017 0.37277,-0.0255 -1.18396,0.009 -2.36885,0.0235 -3.54956,0.0969 -1.31536,0.0833 -2.62491,0.21488 -3.94537,0.24436 -1.40923,0.0789 -2.81484,0.19721 -4.22955,0.19887 -1.5212,0.0574 -3.03569,0.17052 -4.54435,0.33176 -1.70783,0.12778 -3.40406,0.32446 -5.10721,0.4826 -1.74633,0.18048 -3.49703,0.35024 -5.25621,0.43554 -2.05018,0.0556 -4.09486,0.18855 -6.14677,0.2011 -1.67898,-0.01 -3.35875,-0.0226 -5.03544,-0.0964 -1.53711,-0.0741 -3.07215,-0.18502 -4.61412,-0.16743 -1.49755,-0.0245 -2.99461,-0.0677 -4.48761,-0.16435 -0.24565,-0.013 -0.49406,-0.008 -0.73695,-0.0389 -0.0767,-0.01 0.30823,-0.0223 0.23066,-0.0256 -0.96425,-0.0407 -1.93777,0.0485 -2.90228,0.0405 -1.84556,0.0578 -3.68479,0.1952 -5.53266,0.20429 0.33867,-3.7e-4 0.54305,-5.3e-4 -0.66895,-1.2e-4 -0.83869,2.9e-4 -1.6774,7e-4 -2.51606,0.005 -0.2821,10e-4 -0.56418,0.004 -0.84628,0.005 -1.6131,0.0151 -3.2268,0.0392 -4.83653,0.12634 -1.83788,0.0974 -3.67672,0.13914 -5.5193,0.11544 -1.29815,-2.2e-4 -2.5963,-5.8e-4 -3.89445,-0.002 -0.19794,-1.6e-4 -0.39588,2.1e-4 -0.59381,-4.6e-4 -0.12398,-4.4e-4 0.49584,-9e-5 0.37188,-3e-4 -0.73215,-10e-4 -1.46434,5.3e-4 -2.19644,0.007 -1.11618,0.0149 -2.23435,0.0385 -3.34208,0.15359 -1.070522,0.12277 -2.140049,0.266 -3.195563,0.4483 -1.048273,0.20333 -2.093934,0.41077 -3.126655,0.65818 -1.063711,0.24844 -2.160194,0.37345 -3.266805,0.44938 0,0 -0.957041,-0.10674 -0.957041,-0.10674 z"
       id="path4192"
       style="color:#000000;display:inline;overflow:visible;visibility:visible;fill:#b3b3b3;fill-opacity:1;fill-rule:nonzero;stroke:#b3b3b3;stroke-width:0.52704585;stroke-linecap:butt;stroke-miterlimit:4;stroke-dasharray:none;stroke-dashoffset:0;stroke-opacity:1;marker:none;enable-background:accumulate" />
    <path
       style="font-style:normal;font-variant:normal;font-weight:normal;font-stretch:normal;letter-spacing:normal;word-spacing:normal;text-anchor:start;fill:#000000;fill-opacity:1;fill-rule:evenodd;stroke:#000000;stroke-width:0;stroke-linecap:butt;stroke-linejoin:miter;stroke-miterlimit:10.43299961;stroke-dasharray:none;stroke-dashoffset:0;stroke-opacity:1"
       inkscape:connector-curvature="0"
       d="m 311.65826,326.34485 -0.0386,-0.0772 -0.0193,-0.0772 -0.0578,-0.0772 -0.0386,-0.0771 -0.0386,-0.0772 -0.0386,-0.0772 -0.0578,-0.0772 -0.0578,-0.0772 -0.0579,-0.0772 -0.0578,-0.0771 -0.0578,-0.0772 -0.0578,-0.0771 -0.0772,-0.0772 -0.0578,-0.0772 -0.0772,-0.0578 -0.0772,-0.0772 -0.0772,-0.0578 -0.0772,-0.0772 -0.0964,-0.0578 -0.0772,-0.0578 -0.0965,-0.0386 -0.0964,-0.0578 -0.0964,-0.0386 -0.0964,-0.0578 -0.0964,-0.0386 -0.11574,-0.0193 -0.11572,-0.0386 -0.11573,-0.0192 -0.11573,-0.0193 -0.11573,-0.0193 -0.11573,0 -0.13502,-0.0193 0,0.55936 c 1.8131,0 2.17958,2.27602 2.17958,2.43032 l -0.0772,0.38577 -1.3116,5.30428 c -0.0964,0.44363 -0.15431,0.55936 -0.52079,0.96441 -1.138,1.46591 -2.2953,2.00599 -3.14398,2.00599 -0.90656,0 -1.77452,-0.73296 -1.77452,-2.6425 0,-1.44662 0.82939,-4.55204 1.44662,-5.78648 0.79081,-1.56236 2.04455,-2.66179 3.20185,-2.66179 l 0,-0.55936 c -3.00897,0 -6.44229,3.79979 -6.44229,7.9082 0,2.87395 1.73595,4.28199 3.51047,4.28199 1.46591,0 2.75822,-1.15729 3.25972,-1.71665 l -0.59793,2.48819 c -0.40506,1.52378 -0.55937,2.21815 -1.56236,3.18257 -1.11871,1.13801 -2.17957,1.13801 -2.77751,1.13801 -0.8294,0 -1.52378,-0.0578 -2.21815,-0.28933 0.88726,-0.23146 1.09943,-1.00299 1.09943,-1.3116 0,-0.44363 -0.3279,-0.88726 -0.92584,-0.88726 -0.67509,0 -1.38875,0.54007 -1.38875,1.46591 0,1.13801 1.138,1.56234 3.47189,1.56234 3.56833,0 5.42001,-2.27601 5.78648,-3.78049 l 3.06684,-12.38309 c 0.0772,-0.3279 0.0772,-0.38576 0.0772,-0.44363 0,-0.38576 -0.30861,-0.67509 -0.71366,-0.67509 -0.65581,0 -1.04157,0.54008 -1.13801,1.29232 z"
       id="path4211" />
    <path
       style="font-style:normal;font-variant:normal;font-weight:normal;font-stretch:normal;letter-spacing:normal;word-spacing:normal;text-anchor:start;fill:#000000;fill-opacity:1;fill-rule:evenodd;stroke:#000000;stroke-width:0;stroke-linecap:butt;stroke-linejoin:miter;stroke-miterlimit:10.43299961;stroke-dasharray:none;stroke-dashoffset:0;stroke-opacity:1"
       inkscape:connector-curvature="0"
       d="m 317.1747,336.43262 0.0579,0 0.0578,0 0.0578,0 0.0772,0 0.0578,0 0.0772,0 0.0772,-0.0193 0.0964,0 0.0772,0 0.0965,0 0.0964,0 0.0964,-0.0192 0.0964,0 0.0964,-0.0193 0.19289,-0.0193 0.21216,-0.0193 0.21218,-0.0386 0.21217,-0.0193 0.19288,-0.0578 0.21217,-0.0386 0.0965,-0.0193 0.0964,-0.0386 0.11572,-0.0386 0.0964,-0.0193 0.0772,-0.0386 0.0965,-0.0386 c 1.35017,-0.57865 1.44661,-1.69738 1.44661,-1.96741 0,-0.84868 -0.73295,-1.6395 -2.06384,-1.6395 l 0,0.42434 c 0.90655,0 1.42733,0.55936 1.42733,1.21516 0,1.98669 -3.06684,1.98669 -3.85766,1.98669 l -0.79082,0 c 0.75225,-2.91253 2.71965,-3.20185 3.22115,-3.20185 l 0,-0.42434 c -2.12172,0 -5.01495,1.87096 -5.01495,5.22712 0,1.94812 1.11871,3.4526 3.00896,3.4526 2.73894,0 4.35916,-2.02527 4.35916,-2.25672 0,-0.11573 -0.11573,-0.25075 -0.23146,-0.25075 -0.0964,0 -0.13502,0.0386 -0.25075,0.19288 -1.52378,1.90954 -3.60691,1.90954 -3.83837,1.90954 -1.50448,0 -1.67808,-1.62022 -1.67808,-2.23744 0,-0.23146 0.0193,-0.81011 0.30861,-1.98669 z"
       id="path4213" />
    <path
       style="font-style:normal;font-variant:normal;font-weight:normal;font-stretch:normal;letter-spacing:normal;word-spacing:normal;text-anchor:start;fill:#000000;fill-opacity:1;fill-rule:evenodd;stroke:#000000;stroke-width:0;stroke-linecap:butt;stroke-linejoin:miter;stroke-miterlimit:10.43299961;stroke-dasharray:none;stroke-dashoffset:0;stroke-opacity:1"
       inkscape:connector-curvature="0"
       d="m 100.46877,297.34122 -0.0386,-0.0772 -0.0386,-0.0771 -0.0386,-0.0772 -0.0386,-0.0772 -0.0579,-0.0772 -0.0386,-0.0771 -0.0579,-0.0772 -0.0578,-0.0771 -0.0386,-0.0772 -0.0578,-0.0772 -0.07715,-0.0772 -0.05784,-0.0771 -0.05785,-0.0772 -0.07715,-0.0771 -0.07715,-0.0578 -0.07715,-0.0772 -0.07716,-0.0578 -0.07715,-0.0772 -0.07715,-0.0578 -0.09644,-0.0579 -0.09644,-0.0386 -0.09645,-0.0579 -0.09644,-0.0386 -0.09644,-0.0578 -0.09644,-0.0386 -0.115731,-0.0192 -0.09644,-0.0386 -0.115731,-0.0193 -0.115731,-0.0193 -0.135017,-0.0193 -0.115731,0 -0.135017,-0.0193 0,0.55936 c 1.832388,0 2.179568,2.27602 2.179568,2.43032 l -0.0772,0.38576 -1.292308,5.30428 c -0.115731,0.44364 -0.173597,0.55937 -0.520789,0.96442 -1.138009,1.46591 -2.295305,2.00598 -3.16328,2.00598 -0.906547,0 -1.755228,-0.73296 -1.755228,-2.6425 0,-1.44662 0.810109,-4.55203 1.427329,-5.78648 0.810109,-1.56235 2.044563,-2.66178 3.201858,-2.66178 l 0,-0.55936 c -3.008976,0 -6.442289,3.79979 -6.442289,7.90819 0,2.87396 1.755236,4.282 3.510472,4.282 1.465909,0 2.777507,-1.1573 3.259717,-1.71666 l -0.597934,2.4882 c -0.385772,1.52377 -0.559361,2.21815 -1.543067,3.18256 -1.138009,1.13801 -2.179573,1.13801 -2.7968,1.13801 -0.829396,0 -1.523774,-0.0578 -2.218153,-0.28933 0.887261,-0.23145 1.118723,-1.00299 1.118723,-1.31159 0,-0.44363 -0.327907,-0.88727 -0.945127,-0.88727 -0.655806,0 -1.388757,0.54007 -1.388757,1.46591 0,1.13801 1.138009,1.56235 3.491179,1.56235 3.568331,0 5.420011,-2.27602 5.767197,-3.7805 l 3.066827,-12.38308 c 0.0965,-0.3279 0.0965,-0.38577 0.0965,-0.44363 0,-0.38577 -0.30862,-0.67509 -0.73296,-0.67509 -0.6558,0 -1.04156,0.54007 -1.11872,1.29231 z"
       id="path4215" />
    <path
       style="font-style:normal;font-variant:normal;font-weight:normal;font-stretch:normal;letter-spacing:normal;word-spacing:normal;text-anchor:start;fill:#000000;fill-opacity:1;fill-rule:evenodd;stroke:#000000;stroke-width:0;stroke-linecap:butt;stroke-linejoin:miter;stroke-miterlimit:10.43299961;stroke-dasharray:none;stroke-dashoffset:0;stroke-opacity:1"
       inkscape:connector-curvature="0"
       d="m 107.89476,298.76855 0,0 0,0 0,0 0,-0.0193 0,0 0,0 0,0 0,-0.0193 -0.0193,0 0,-0.0193 0,0 0,-0.0193 0,0 0,0 0,-0.0192 -0.0192,0 0,-0.0193 0,0 -0.0193,-0.0193 0,0 0,-0.0193 -0.0193,0 0,0 0,0 0,-0.0193 -0.0193,0 0,0 0,0 -0.0193,0 0,-0.0193 0,0 -0.0193,0 0,0 -0.0192,0 0,0 0,0 -0.0193,-0.0192 0,0 -0.0193,0 0,0 -0.0193,0 0,0 -0.0193,0 -0.0192,0 0,0 c -0.44363,0 -1.85168,0.1543 -2.35317,0.19288 -0.13502,0.0193 -0.3472,0.0386 -0.3472,0.38576 0,0.23147 0.15431,0.23147 0.44363,0.23147 0.92584,0 0.96442,0.13501 0.96442,0.3279 l -0.0578,0.38576 -2.77752,11.0329 c -0.0772,0.27004 -0.0772,0.28933 -0.0772,0.42434 0,0.42435 0.38577,0.52078 0.55936,0.52078 0.30861,0 0.61722,-0.23145 0.71367,-0.50149 l 0.34719,-1.44662 0.42434,-1.71666 c 0.11573,-0.42434 0.23146,-0.84868 0.3279,-1.29231 0.0386,-0.11573 0.19288,-0.75225 0.21217,-0.86798 0.0578,-0.17359 0.6558,-1.23444 1.3116,-1.75523 0.42435,-0.30861 1.02228,-0.67509 1.83239,-0.67509 0.8294,0 1.04157,0.6558 1.04157,1.35018 0,1.02228 -0.73296,3.12471 -1.19587,4.282 -0.15431,0.44363 -0.23146,0.67509 -0.23146,1.06086 0,0.90655 0.65579,1.56234 1.56235,1.56234 1.81309,0 2.50747,-2.7968 2.50747,-2.9511 0,-0.19288 -0.1543,-0.19288 -0.21217,-0.19288 -0.19288,0 -0.19288,0.0578 -0.28932,0.34718 -0.28932,1.02228 -0.90655,2.39175 -1.96741,2.39175 -0.3279,0 -0.46292,-0.21217 -0.46292,-0.63651 0,-0.48221 0.1736,-0.94513 0.34719,-1.36947 0.30861,-0.8294 1.17659,-3.10541 1.17659,-4.20484 0,-1.25374 -0.77153,-2.06385 -2.21815,-2.06385 -1.19588,0 -2.12172,0.59794 -2.83538,1.4852 z"
       id="path4217" />
    <path
       style="font-style:normal;font-variant:normal;font-weight:normal;font-stretch:normal;letter-spacing:normal;word-spacing:normal;text-anchor:start;fill:#000000;fill-opacity:1;fill-rule:evenodd;stroke:#000000;stroke-width:0;stroke-linecap:butt;stroke-linejoin:miter;stroke-miterlimit:10.43299961;stroke-dasharray:none;stroke-dashoffset:0;stroke-opacity:1"
       inkscape:connector-curvature="0"
       d="m 110.8496,385.07413 0.0386,0 0.0258,0 0.0386,0 0.0258,0 0.0258,0 0.0258,0 0.0258,0 0.0258,0 0.0258,0 0.0258,-0.0129 0.0258,0 0.0128,0 0.0258,-0.0129 0.0129,0 0.0258,-0.0129 0.0129,0 0.0129,-0.0129 0.0128,-0.0129 0.0129,0 0.0129,-0.0129 0.0128,-0.0129 0.0129,-0.0258 0,-0.0129 0.0128,-0.0129 0,-0.0258 0.0129,-0.0129 0,0 0,-0.0129 0,-0.0129 0,-0.0129 0.0129,-0.0129 0,-0.0129 0,-0.0129 0,-0.0129 0,-0.0129 0,-0.0129 0,-0.0258 0,-0.0129 0,-0.0129 c 0,-0.18026 -0.14163,-0.18026 -0.4764,-0.18026 l -1.49354,0 c 0.34763,-1.90557 0.60514,-3.21886 0.75965,-3.81113 0.10301,-0.43776 0.48927,-0.86265 0.97853,-0.86265 0.38626,0 0.77252,0.16738 0.95278,0.33476 -0.72102,0.0772 -0.9399,0.60514 -0.9399,0.92703 0,0.36051 0.27038,0.5794 0.63089,0.5794 0.36051,0 0.91416,-0.30901 0.91416,-1.00429 0,-0.7854 -0.77253,-1.19741 -1.58368,-1.19741 -0.7854,0 -1.57081,0.57939 -1.93132,1.30041 -0.33475,0.64378 -0.51501,1.31329 -0.9399,3.73388 l -1.23604,0 c -0.36052,0 -0.54077,0 -0.54077,0.33476 0,0.19313 0.11587,0.19313 0.47639,0.19313 l 1.18454,0 c -0.33476,1.71243 -1.09442,5.88407 -1.51931,7.86689 -0.309,1.59655 -0.57939,2.94848 -1.50642,2.94848 -0.0515,0 -0.59227,0 -0.92703,-0.34764 0.93991,-0.0773 0.93991,-0.88841 0.93991,-0.91416 0,-0.36051 -0.27039,-0.57939 -0.61802,-0.57939 -0.37339,0 -0.92703,0.30901 -0.92703,1.00428 0,0.79828 0.81115,1.19741 1.53217,1.19741 1.87982,0 2.65234,-3.37335 2.85835,-4.28751 0.33476,-1.42917 1.23604,-6.33472 1.32617,-6.88836 z"
       id="path4219" />
    <path
       style="font-style:normal;font-variant:normal;font-weight:normal;font-stretch:normal;letter-spacing:normal;word-spacing:normal;text-anchor:start;fill:#000000;fill-opacity:1;fill-rule:evenodd;stroke:#000000;stroke-width:0;stroke-linecap:butt;stroke-linejoin:miter;stroke-miterlimit:10.43299961;stroke-dasharray:none;stroke-dashoffset:0;stroke-opacity:1"
       inkscape:connector-curvature="0"
       d="m 119.50189,396.97103 0,0 0,-0.0129 0,-0.0129 0,0 0,0 0,-0.0129 0,0 -0.0129,-0.0129 0,0 0,-0.0129 0,-0.0129 -0.0128,0 0,-0.0129 -0.0129,-0.0129 0,-0.0129 -0.0129,-0.0129 -0.0129,-0.0129 -0.0129,-0.0129 0,0 -0.0129,-0.0129 0,0 -0.0129,-0.0129 0,-0.0129 -0.0128,0 0,-0.0129 -0.0129,-0.0129 -0.0129,0 0,-0.0129 -0.0128,-0.0129 -0.0129,-0.0129 -0.0129,0 0,-0.0129 -0.0129,-0.0129 -0.0128,-0.0129 -0.0129,-0.0129 -0.0129,-0.0129 -0.0128,-0.0129 -0.0129,-0.0129 -0.0129,-0.0129 -0.0129,-0.0129 -0.0129,-0.0129 -0.0128,-0.0129 c -1.84119,-1.86693 -2.8841,-4.90554 -2.8841,-8.67804 0,-3.5665 0.87552,-6.6566 3.01285,-8.83255 0.18025,-0.16737 0.18025,-0.206 0.18025,-0.2575 0,-0.10301 -0.0901,-0.14164 -0.16737,-0.14164 -0.23176,0 -1.75107,1.32617 -2.65235,3.12874 -0.9399,1.86693 -1.36479,3.83688 -1.36479,6.10295 0,1.64806 0.2575,3.84976 1.22316,5.81969 1.08154,2.21458 2.60084,3.41199 2.79398,3.41199 0.0772,0 0.16737,-0.0386 0.16737,-0.15451 z"
       id="path4221" />
    <path
       style="font-style:normal;font-variant:normal;font-weight:normal;font-stretch:normal;letter-spacing:normal;word-spacing:normal;text-anchor:start;fill:#000000;fill-opacity:1;fill-rule:evenodd;stroke:#000000;stroke-width:0;stroke-linecap:butt;stroke-linejoin:miter;stroke-miterlimit:10.43299961;stroke-dasharray:none;stroke-dashoffset:0;stroke-opacity:1"
       inkscape:connector-curvature="0"
       d="m 133.36873,388.21574 0,-0.0129 0,0 0,-0.0129 0,0 0.0128,-0.0129 0,0 0,-0.0129 0,0 0,-0.0129 0.0129,-0.0129 0,0 0,-0.0129 0.0129,-0.0129 0,-0.0258 0.0128,-0.0129 0,-0.0258 0,-0.0129 0.0129,-0.0129 0,0 0,-0.0129 0,-0.0129 0,0 0,-0.0129 0,-0.0129 0,0 0,-0.0129 0,0 c 0,-0.0901 -0.0644,-0.19313 -0.18026,-0.19313 -0.0772,0 -0.11588,0.0258 -0.16738,0.0772 -0.0386,0.0258 -0.0386,0.0516 -0.206,0.4249 -1.08155,2.58796 -1.87982,3.69525 -4.8283,3.69525 l -2.69096,0 c -0.25751,0 -0.29613,0 -0.41202,-0.0258 -0.19312,-0.0129 -0.21887,-0.0515 -0.21887,-0.19313 0,-0.14164 0.0386,-0.24464 0.0772,-0.41202 l 1.27467,-5.08579 1.8283,0 c 1.42918,0 1.54506,0.30901 1.54506,0.86265 0,0.18025 0,0.34764 -0.12876,0.90128 -0.0386,0.0773 -0.0515,0.14163 -0.0515,0.206 0,0.12876 0.0901,0.18027 0.19313,0.18027 0.16738,0 0.19313,-0.12876 0.25751,-0.38627 l 1.05578,-4.27464 c 0,-0.103 -0.0772,-0.19313 -0.18025,-0.19313 -0.16738,0 -0.19313,0.0772 -0.25751,0.33476 -0.37338,1.41629 -0.74678,1.82831 -2.38195,1.82831 l -1.75106,0 1.14591,-4.53215 c 0.16738,-0.65665 0.19314,-0.70815 0.95278,-0.70815 l 2.63947,0 c 2.26607,0 2.72958,0.60514 2.72958,2.00856 0,0.0258 0,0.54077 -0.0772,1.14592 -0.0128,0.0772 -0.0386,0.18025 -0.0386,0.21888 0,0.1545 0.103,0.20601 0.206,0.20601 0.12876,0 0.20601,-0.0772 0.24463,-0.41201 l 0.38627,-3.21886 c 0,-0.0644 0.0386,-0.24463 0.0386,-0.28326 0,-0.20601 -0.16738,-0.20601 -0.50215,-0.20601 l -8.99992,0 c -0.34764,0 -0.54077,0 -0.54077,0.33476 0,0.20601 0.12875,0.20601 0.45064,0.20601 1.14591,0 1.14591,0.12875 1.14591,0.33476 0,0.0901 -0.0258,0.16738 -0.0772,0.37339 l -2.49787,9.95273 c -0.15451,0.64377 -0.19313,0.8369 -1.49355,0.8369 -0.34763,0 -0.52789,0 -0.52789,0.32189 0,0.206 0.103,0.206 0.47639,0.206 l 9.25743,0 c 0.41202,0 0.42489,-0.0129 0.55365,-0.30901 z"
       id="path4223" />
    <path
       style="font-style:normal;font-variant:normal;font-weight:normal;font-stretch:normal;letter-spacing:normal;word-spacing:normal;text-anchor:start;fill:#000000;fill-opacity:1;fill-rule:evenodd;stroke:#000000;stroke-width:0;stroke-linecap:butt;stroke-linejoin:miter;stroke-miterlimit:10.43299961;stroke-dasharray:none;stroke-dashoffset:0;stroke-opacity:1"
       inkscape:connector-curvature="0"
       d="m 140.21846,387.89385 0,-0.12875 0,-0.14164 -0.0129,-0.14162 0,-0.14163 0,-0.15451 -0.0129,-0.16738 -0.0258,-0.32189 -0.0258,-0.33475 -0.0386,-0.36052 -0.0515,-0.36051 -0.0515,-0.37338 -0.0772,-0.38627 -0.0901,-0.39913 -0.0901,-0.39915 -0.11589,-0.39914 -0.12874,-0.39913 -0.0773,-0.20601 -0.0772,-0.20601 -0.0773,-0.19313 -0.0773,-0.20601 -0.0901,-0.206 -0.103,-0.19313 c -1.08153,-2.21458 -2.60083,-3.41199 -2.80684,-3.41199 -0.0643,0 -0.15451,0.0386 -0.15451,0.14163 0,0.0515 0,0.0901 0.30902,0.41201 1.84118,1.85406 2.87121,4.90554 2.87121,8.66517 0,3.57936 -0.86265,6.6566 -2.99997,8.83254 -0.18026,0.16738 -0.18026,0.20601 -0.18026,0.25751 0,0.11588 0.0901,0.15451 0.15451,0.15451 0.24464,0 1.76394,-1.32617 2.66521,-3.14161 0.93991,-1.87981 1.3648,-3.8755 1.3648,-6.09008 z"
       id="path4225" />
    <path
       style="font-style:normal;font-variant:normal;font-weight:normal;font-stretch:normal;letter-spacing:normal;word-spacing:normal;text-anchor:start;fill:#000000;fill-opacity:1;fill-rule:evenodd;stroke:#000000;stroke-width:0;stroke-linecap:butt;stroke-linejoin:miter;stroke-miterlimit:10.43299961;stroke-dasharray:none;stroke-dashoffset:0;stroke-opacity:1"
       inkscape:connector-curvature="0"
       d="m 360.09155,435.62178 0,-0.0213 0,0 0,-0.0213 0,0 0.0212,-0.0213 0,0 0,-0.0213 0,0 0,-0.0213 0.0213,-0.0213 0,0 0,-0.0213 0.0213,-0.0213 0,-0.0425 0.0211,-0.0213 0,-0.0425 0,-0.0213 0.0213,-0.0213 0,0 0,-0.0213 0,-0.0213 0,0 0,-0.0213 0,-0.0213 0,0 0,-0.0213 0,0 c 0,-0.14878 -0.10624,-0.31883 -0.29757,-0.31883 -0.12753,0 -0.1913,0.0426 -0.27633,0.12752 -0.0637,0.0426 -0.0637,0.0851 -0.34007,0.70144 -1.78547,4.27232 -3.10329,6.10028 -7.97077,6.10028 l -4.44235,0 c -0.42512,0 -0.48887,0 -0.68018,-0.0426 -0.31882,-0.0213 -0.36133,-0.085 -0.36133,-0.31882 0,-0.23382 0.0637,-0.40386 0.12752,-0.68019 l 2.10429,-8.39584 3.01825,0 c 2.35935,0 2.55064,0.51012 2.55064,1.42411 0,0.29756 0,0.57389 -0.21255,1.48786 -0.0637,0.12754 -0.085,0.23382 -0.085,0.34008 0,0.21256 0.14878,0.29759 0.31883,0.29759 0.27633,0 0.31884,-0.21256 0.42511,-0.63767 l 1.74293,-7.05677 c 0,-0.17004 -0.12753,-0.31882 -0.29756,-0.31882 -0.27633,0 -0.31884,0.12752 -0.42511,0.55264 -0.6164,2.33808 -1.23281,3.01826 -3.93224,3.01826 l -2.89073,0 1.89173,-7.48189 c 0.27631,-1.08402 0.31883,-1.16904 1.57289,-1.16904 l 4.35735,0 c 3.74094,0 4.50612,0.999 4.50612,3.31583 0,0.0426 0,0.89272 -0.12753,1.89172 -0.0211,0.12753 -0.0637,0.29758 -0.0637,0.36135 0,0.25505 0.17004,0.34008 0.34009,0.34008 0.21255,0 0.34008,-0.12753 0.40384,-0.68017 l 0.63767,-5.31384 c 0,-0.10624 0.0637,-0.40383 0.0637,-0.4676 0,-0.34009 -0.27632,-0.34009 -0.82895,-0.34009 l -14.85748,0 c -0.5739,0 -0.89273,0 -0.89273,0.55263 0,0.34009 0.21255,0.34009 0.74394,0.34009 1.89172,0 1.89172,0.21255 1.89172,0.55264 0,0.14878 -0.0425,0.27632 -0.12753,0.6164 l -4.1236,16.43042 c -0.25507,1.06276 -0.31882,1.3816 -2.46561,1.3816 -0.5739,0 -0.87147,0 -0.87147,0.53138 0,0.34008 0.17004,0.34008 0.78644,0.34008 l 15.28258,0 c 0.68018,0 0.70143,-0.0213 0.91399,-0.51013 z"
       id="path4223-1" />
    <path
       style="font-style:normal;font-variant:normal;font-weight:normal;font-stretch:normal;letter-spacing:normal;word-spacing:normal;text-anchor:start;fill:#000000;fill-opacity:1;fill-rule:evenodd;stroke:#000000;stroke-width:0;stroke-linecap:butt;stroke-linejoin:miter;stroke-miterlimit:10.43299961;stroke-dasharray:none;stroke-dashoffset:0;stroke-opacity:1"
       inkscape:connector-curvature="0"
       d="m 168.09727,290.26716 -0.0386,-0.0772 -0.0386,-0.0772 -0.0386,-0.0772 -0.0386,-0.0771 -0.0386,-0.0772 -0.0579,-0.0772 -0.0386,-0.0772 -0.0579,-0.0772 -0.0578,-0.0771 -0.0579,-0.0772 -0.0578,-0.0772 -0.0578,-0.0772 -0.0772,-0.0772 -0.0578,-0.0772 -0.0772,-0.0578 -0.0772,-0.0771 -0.0771,-0.0579 -0.0771,-0.0772 -0.0965,-0.0578 -0.0772,-0.0578 -0.0964,-0.0386 -0.0964,-0.0578 -0.0964,-0.0386 -0.0964,-0.0578 -0.11573,-0.0386 -0.0964,-0.0193 -0.11573,-0.0386 -0.11574,-0.0193 -0.11573,-0.0193 -0.11573,-0.0193 -0.13501,0 -0.11574,-0.0192 0,0.55936 c 1.81311,0 2.17958,2.27602 2.17958,2.43032 l -0.0772,0.38576 -1.3116,5.30428 c -0.0965,0.44363 -0.15431,0.55937 -0.52078,0.96442 -1.13801,1.4659 -2.29532,2.00598 -3.144,2.00598 -0.90654,0 -1.77452,-0.73296 -1.77452,-2.6425 0,-1.44662 0.8294,-4.55203 1.44662,-5.78648 0.79082,-1.56235 2.04456,-2.66178 3.20185,-2.66178 l 0,-0.55936 c -3.00896,0 -6.44228,3.79979 -6.44228,7.90819 0,2.87396 1.73595,4.282 3.51047,4.282 1.46591,0 2.75823,-1.1573 3.25972,-1.71666 l -0.59794,2.4882 c -0.40505,1.52377 -0.55936,2.21815 -1.56235,3.18256 -1.13801,1.13801 -2.17958,1.13801 -2.77751,1.13801 -0.8294,0 -1.52377,-0.0578 -2.21815,-0.28933 0.88726,-0.23145 1.09943,-1.00299 1.09943,-1.3116 0,-0.44363 -0.3279,-0.88726 -0.92584,-0.88726 -0.67509,0 -1.38876,0.54007 -1.38876,1.46591 0,1.13801 1.13801,1.56235 3.47189,1.56235 3.56834,0 5.42001,-2.27602 5.78649,-3.7805 l 3.06684,-12.38308 c 0.0771,-0.3279 0.0771,-0.38577 0.0771,-0.44363 0,-0.38577 -0.30862,-0.6751 -0.71367,-0.6751 -0.6558,0 -1.06085,0.54008 -1.13801,1.29232 z"
       id="path4227" />
    <path
       style="font-style:normal;font-variant:normal;font-weight:normal;font-stretch:normal;letter-spacing:normal;word-spacing:normal;text-anchor:start;fill:#000000;fill-opacity:1;fill-rule:evenodd;stroke:#000000;stroke-width:0;stroke-linecap:butt;stroke-linejoin:miter;stroke-miterlimit:10.43299961;stroke-dasharray:none;stroke-dashoffset:0;stroke-opacity:1"
       inkscape:connector-curvature="0"
       d="m 173.45942,302.57308 -0.0772,0.11573 -0.0771,0.11573 -0.0579,0.11573 -0.0772,0.0964 -0.0771,0.0964 -0.0772,0.0772 -0.0578,0.0964 -0.0772,0.0772 -0.0772,0.0772 -0.0578,0.0578 -0.0772,0.0772 -0.0772,0.0578 -0.0771,0.0578 -0.0578,0.0578 -0.0772,0.0386 -0.0772,0.0578 -0.0771,0.0386 -0.0579,0.0386 -0.0772,0.0386 -0.0771,0.0193 -0.0771,0.0386 -0.0772,0.0193 -0.0771,0.0386 -0.0772,0.0193 -0.0772,0.0193 -0.0578,0 -0.0771,0.0193 -0.0772,0.0192 -0.1543,0.0193 -0.1736,0.0193 c -0.21217,0.0193 -0.40505,0.0193 -0.40505,0.38577 0,0.0964 0.11573,0.19288 0.25075,0.19288 0.52078,0 1.11871,-0.0578 1.65879,-0.0578 0.63651,0 1.3116,0.0578 1.90954,0.0578 0.11573,0 0.36648,0 0.36648,-0.34719 0,-0.21217 -0.15431,-0.23146 -0.30862,-0.23146 -0.42434,-0.0386 -0.88726,-0.19288 -0.88726,-0.67509 0,-0.23146 0.11573,-0.44363 0.27004,-0.71367 l 1.44662,-2.44961 4.82207,0 -0.0579,-0.59793 -4.39772,0 3.7805,-6.32656 0.61722,6.32656 0.0579,0.59793 c 0.0386,0.40506 0.30861,3.00898 0.30861,3.20186 0,0.57865 -1.00299,0.63651 -1.38876,0.63651 -0.27003,0 -0.46291,0 -0.46291,0.38577 0,0.19288 0.23146,0.19288 0.27003,0.19288 0.79083,0 1.62022,-0.0578 2.41104,-0.0578 0.48221,0 1.67808,0.0578 2.16028,0.0578 0.11573,0 0.3472,0 0.3472,-0.38577 0,-0.19288 -0.19289,-0.19288 -0.44363,-0.19288 -1.19588,0 -1.19588,-0.13502 -1.25374,-0.69438 l -1.1573,-11.97802 c -0.0386,-0.38577 -0.0386,-0.46293 -0.36648,-0.46293 -0.30861,0 -0.38576,0.13502 -0.50149,0.32791 z"
       id="path4229" />
    <path
       style="font-style:normal;font-variant:normal;font-weight:normal;font-stretch:normal;letter-spacing:normal;word-spacing:normal;text-anchor:start;fill:#000000;fill-opacity:1;fill-rule:evenodd;stroke:#000000;stroke-width:0;stroke-linecap:butt;stroke-linejoin:miter;stroke-miterlimit:10.43299961;stroke-dasharray:none;stroke-dashoffset:0;stroke-opacity:1"
       inkscape:connector-curvature="0"
       d="m 238.76394,271.1672 -0.0386,-0.0771 -0.0386,-0.0772 -0.0386,-0.0772 -0.0386,-0.0772 -0.0578,-0.0772 -0.0386,-0.0772 -0.0578,-0.0772 -0.0386,-0.0772 -0.0578,-0.0771 -0.0579,-0.0772 -0.0578,-0.0772 -0.0771,-0.0772 -0.0579,-0.0771 -0.0772,-0.0772 -0.0771,-0.0578 -0.0578,-0.0771 -0.0965,-0.0579 -0.0771,-0.0771 -0.0772,-0.0578 -0.0965,-0.0579 -0.0771,-0.0386 -0.0964,-0.0578 -0.0964,-0.0386 -0.11573,-0.0578 -0.0964,-0.0386 -0.11573,-0.0193 -0.0964,-0.0386 -0.11573,-0.0193 -0.11573,-0.0193 -0.13502,-0.0193 -0.11573,0 -0.13502,-0.0193 0,0.55936 c 1.83239,0 2.19886,2.27602 2.19886,2.43032 l -0.0964,0.38577 -1.29232,5.30428 c -0.11573,0.44363 -0.17359,0.55936 -0.52079,0.96441 -1.138,1.46591 -2.2953,2.00598 -3.16327,2.00598 -0.90655,0 -1.75523,-0.73296 -1.75523,-2.64249 0,-1.44663 0.82939,-4.55204 1.42733,-5.78649 0.8101,-1.56235 2.04456,-2.66178 3.20185,-2.66178 l 0,-0.55936 c -3.00897,0 -6.423,3.79979 -6.423,7.9082 0,2.87395 1.73595,4.28199 3.51047,4.28199 1.44663,0 2.75822,-1.15729 3.25972,-1.71666 l -0.61722,2.4882 c -0.38577,1.52377 -0.55936,2.21815 -1.54307,3.18256 -1.13801,1.13801 -2.17957,1.13801 -2.7968,1.13801 -0.82939,0 -1.52377,-0.0578 -2.21815,-0.28932 0.88726,-0.23146 1.11872,-1.003 1.11872,-1.3116 0,-0.44363 -0.3279,-0.88726 -0.94512,-0.88726 -0.65581,0 -1.38876,0.54006 -1.38876,1.4659 0,1.13801 1.13801,1.56235 3.49118,1.56235 3.56833,0 5.42,-2.27602 5.78648,-3.7805 l 3.06684,-12.38308 c 0.0772,-0.3279 0.0772,-0.38577 0.0772,-0.44363 0,-0.38577 -0.30861,-0.67509 -0.71366,-0.67509 -0.67509,0 -1.06086,0.54007 -1.13801,1.29232 z"
       id="path4231" />
    <path
       style="font-style:normal;font-variant:normal;font-weight:normal;font-stretch:normal;letter-spacing:normal;word-spacing:normal;text-anchor:start;fill:#000000;fill-opacity:1;fill-rule:evenodd;stroke:#000000;stroke-width:0;stroke-linecap:butt;stroke-linejoin:miter;stroke-miterlimit:10.43299961;stroke-dasharray:none;stroke-dashoffset:0;stroke-opacity:1"
       inkscape:connector-curvature="0"
       d="m 243.74031,284.18679 -0.0193,0.0578 -0.0192,0.0772 -0.0193,0.0578 -0.0193,0.0578 -0.0193,0.0578 -0.0193,0.0579 -0.0192,0.0386 -0.0193,0.0579 -0.0193,0.0386 -0.0193,0.0386 -0.0193,0.0386 -0.0386,0.0386 -0.0193,0.0193 -0.0386,0.0386 -0.0386,0.0193 -0.0386,0.0386 -0.0386,0.0193 -0.0578,0.0193 -0.0386,0.0193 -0.0578,0.0192 -0.0771,0.0193 -0.0193,0 -0.0386,0.0193 -0.0386,0 -0.0386,0 -0.0386,0 -0.0386,0.0193 -0.0386,0 -0.0386,0 -0.0578,0 -0.0386,0.0193 -0.0578,0 -0.0386,0 -0.0578,0 -0.0579,0 -0.0578,0 -0.0579,0 -0.0578,0 -0.0578,0.0193 -0.0579,0 -0.0772,0 -0.0578,0 -0.0772,0 c -0.3279,0 -0.54007,0 -0.54007,0.36647 0,0.21217 0.17359,0.21217 0.54007,0.21217 l 6.34585,0 -0.3279,-0.57864 -2.17958,0 c -0.27004,0 -0.30862,0 -0.42435,-0.0193 -0.19288,-0.0193 -0.25074,-0.0386 -0.25074,-0.19289 0,-0.0578 0,-0.0964 0.0964,-0.44363 l 2.6425,-10.5314 c 0.1543,-0.6558 0.19288,-0.71366 1.02228,-0.71366 l 2.06384,0 c 1.87096,0 3.47189,1.00299 3.47189,3.52976 0,0.94512 -0.38576,4.08911 -2.02527,6.19153 -0.55936,0.71367 -2.06384,2.17958 -4.41701,2.17958 l 0.3279,0.57865 c 3.99267,0 7.77317,-4.03126 7.77317,-8.2361 0,-2.70036 -1.62021,-4.84136 -4.51345,-4.84136 l -6.44229,0 c -0.36648,0 -0.57865,0 -0.57865,0.36648 0,0.23146 0.17359,0.23146 0.55936,0.23146 0.25075,0 0.59794,0.0193 0.8294,0.0386 0.30861,0.0386 0.42434,0.0965 0.42434,0.30862 0,0.0772 -0.0193,0.11573 -0.0771,0.36648 z"
       id="path4233" />
    <path
       style="font-style:normal;font-variant:normal;font-weight:normal;font-stretch:normal;letter-spacing:normal;word-spacing:normal;text-anchor:start;fill:#000000;fill-opacity:1;fill-rule:evenodd;stroke:#000000;stroke-width:0;stroke-linecap:butt;stroke-linejoin:miter;stroke-miterlimit:10.43299961;stroke-dasharray:none;stroke-dashoffset:0;stroke-opacity:1"
       inkscape:connector-curvature="0"
       d="m 221.74914,228.72285 -0.0386,-0.0771 -0.0386,-0.0772 -0.0386,-0.0772 -0.0386,-0.0771 -0.0579,-0.0772 -0.0386,-0.0772 -0.0578,-0.0771 -0.0386,-0.0772 -0.0578,-0.0771 -0.0579,-0.0771 -0.0578,-0.0772 -0.0771,-0.0771 -0.0579,-0.0771 -0.0771,-0.0772 -0.0772,-0.0579 -0.0578,-0.0771 -0.0965,-0.0578 -0.0771,-0.0772 -0.0772,-0.0578 -0.0964,-0.0578 -0.0772,-0.0386 -0.0964,-0.0578 -0.0964,-0.0386 -0.11573,-0.0579 -0.0964,-0.0386 -0.11573,-0.0193 -0.0964,-0.0386 -0.11573,-0.0192 -0.11573,-0.0193 -0.13502,-0.0193 -0.11573,0 -0.13501,-0.0193 0,0.55936 c 1.83238,0 2.19886,2.27602 2.19886,2.43032 l -0.0964,0.38577 -1.29232,5.30428 c -0.11573,0.44363 -0.17359,0.55936 -0.52078,0.96441 -1.13801,1.46591 -2.29531,2.00599 -3.16328,2.00599 -0.90655,0 -1.75523,-0.73296 -1.75523,-2.6425 0,-1.44662 0.82939,-4.55204 1.42733,-5.78648 0.81011,-1.56236 2.04456,-2.66179 3.20186,-2.66179 l 0,-0.55936 c -3.00898,0 -6.42301,3.79979 -6.42301,7.9082 0,2.87395 1.73595,4.28199 3.51047,4.28199 1.44663,0 2.75823,-1.15729 3.25972,-1.71665 l -0.61722,2.48819 c -0.38577,1.52378 -0.55936,2.21815 -1.54307,3.18257 -1.138,1.13801 -2.17957,1.13801 -2.7968,1.13801 -0.82939,0 -1.52377,-0.0579 -2.21815,-0.28933 0.88726,-0.23146 1.11872,-1.00299 1.11872,-1.3116 0,-0.44363 -0.3279,-0.88726 -0.94512,-0.88726 -0.65581,0 -1.38876,0.54007 -1.38876,1.46591 0,1.13801 1.13801,1.56234 3.49118,1.56234 3.56833,0 5.42,-2.27601 5.78648,-3.7805 l 3.06684,-12.38308 c 0.0772,-0.3279 0.0772,-0.38576 0.0772,-0.44363 0,-0.38576 -0.30862,-0.67509 -0.71367,-0.67509 -0.67509,0 -1.06086,0.54007 -1.13801,1.29232 z"
       id="path4231-6" />
  </g>
</svg>
