<?xml version="1.0" encoding="UTF-8" standalone="no"?>
<!-- Created with Inkscape (http://www.inkscape.org/) -->

<svg
   xmlns:dc="http://purl.org/dc/elements/1.1/"
   xmlns:cc="http://creativecommons.org/ns#"
   xmlns:rdf="http://www.w3.org/1999/02/22-rdf-syntax-ns#"
   xmlns:svg="http://www.w3.org/2000/svg"
   xmlns="http://www.w3.org/2000/svg"
   xmlns:sodipodi="http://sodipodi.sourceforge.net/DTD/sodipodi-0.dtd"
   xmlns:inkscape="http://www.inkscape.org/namespaces/inkscape"
   width="81.816101mm"
   height="81.751534mm"
   viewBox="0 0 289.89957 289.67079"
   id="svg2"
   version="1.1"
   inkscape:version="0.91 r13725"
   sodipodi:docname="field.svg">
  <defs
     id="defs4" />
  <sodipodi:namedview
     id="base"
     pagecolor="#ffffff"
     bordercolor="#666666"
     borderopacity="1.0"
     inkscape:pageopacity="0.0"
     inkscape:pageshadow="2"
     inkscape:zoom="3.959798"
     inkscape:cx="55.175645"
     inkscape:cy="144.67596"
     inkscape:document-units="px"
     inkscape:current-layer="layer1"
     showgrid="false"
     inkscape:window-width="1855"
     inkscape:window-height="1056"
     inkscape:window-x="65"
     inkscape:window-y="24"
     inkscape:window-maximized="1"
     fit-margin-top="0"
     fit-margin-left="0"
     fit-margin-right="0"
     fit-margin-bottom="0" />
  <metadata
     id="metadata7">
    <rdf:RDF>
      <cc:Work
         rdf:about="">
        <dc:format>image/svg+xml</dc:format>
        <dc:type
           rdf:resource="http://purl.org/dc/dcmitype/StillImage" />
        <dc:title></dc:title>
      </cc:Work>
    </rdf:RDF>
  </metadata>
  <g
     inkscape:label="Layer 1"
     inkscape:groupmode="layer"
     id="layer1"
     transform="translate(-88.240269,-199.77438)">
    <path
       style="color:#000000;display:inline;overflow:visible;visibility:visible;fill:#000000;fill-opacity:1;fill-rule:nonzero;stroke:#000000;stroke-width:0.66000003;stroke-linecap:butt;stroke-miterlimit:4;stroke-dasharray:none;stroke-dashoffset:0;stroke-opacity:1;marker:none;enable-background:accumulate"
       id="path4148"
       d="m 131.23419,214.4699 c -0.48484,5.83799 0.51409,11.59916 1.71998,17.28587 1.26496,5.89345 3.8241,11.29483 6.6034,16.59068 1.75474,2.88016 3.18017,6.04838 5.34975,8.65402 1.32384,0.34309 4.15993,3.1872 -2.62668,-0.0292 -0.32596,-0.15449 0.3648,-0.62519 0.50091,-0.95925 0.17471,-0.42877 0.87739,-2.8034 0.95982,-3.0767 1.38808,-5.89665 2.82142,-11.78439 4.34946,-17.64675 1.86526,-7.12919 3.28807,-14.36196 4.99577,-21.52731 1.05433,-4.20782 1.83143,-8.47182 2.47168,-12.75903 -0.0862,-0.5953 0.1031,-0.54172 -0.25341,-0.53313 0,0 4.2621,-0.36593 4.2621,-0.36593 l 0,0 c 0.28769,0.50154 0.16697,0.19223 0.2423,0.96618 -0.72514,4.28816 -1.46739,8.57366 -2.55371,12.79019 -1.73332,7.16223 -3.13954,14.40246 -5.00472,21.53474 -1.51704,5.86531 -2.94919,11.75481 -4.28701,17.66316 -0.14371,0.48999 -0.76664,3.95216 -1.43529,4.1864 -3.25715,1.14108 -4.04144,1.60883 -5.86009,0.0441 -2.09179,-2.69211 -3.58905,-5.80821 -5.30572,-8.73942 -2.77312,-5.33506 -5.31248,-10.78428 -6.58518,-16.70569 -1.20982,-5.7354 -2.19442,-11.53843 -1.78208,-17.42564 0,0 4.23872,0.0527 4.23872,0.0527 z"
       inkscape:connector-curvature="0" />
    <path
       style="color:#000000;display:inline;overflow:visible;visibility:visible;fill:#000000;fill-opacity:1;fill-rule:nonzero;stroke:#000000;stroke-width:0.66000003;stroke-linecap:butt;stroke-miterlimit:4;stroke-dasharray:none;stroke-dashoffset:0;stroke-opacity:1;marker:none;enable-background:accumulate"
       id="path4150"
       d="m 346.20315,392.04396 c 2.26346,4.93823 4.92887,9.67031 7.55072,14.42256 3.42445,5.70519 7.17293,11.21257 10.95891,16.6827 3.10299,4.17998 6.21409,8.38593 9.71976,12.24094 0.74222,0.94652 1.6615,1.62389 2.6787,2.22889 0,0 -4.23593,0.42773 -4.23593,0.42773 l 0,0 c -0.99194,-0.66645 -1.90488,-1.40446 -2.65873,-2.34741 -3.46243,-3.89808 -6.57804,-8.10125 -9.66492,-12.29809 -3.78989,-5.48508 -7.55451,-10.9993 -10.97556,-16.72382 -2.63491,-4.76891 -5.29394,-9.52678 -7.6111,-14.46181 0,0 4.23815,-0.17169 4.23815,-0.17169 z"
       inkscape:connector-curvature="0" />
    <path
       style="color:#000000;display:inline;overflow:visible;visibility:visible;fill:#000000;fill-opacity:1;fill-rule:nonzero;stroke:#000000;stroke-width:0.66000003;stroke-linecap:butt;stroke-miterlimit:4;stroke-dasharray:none;stroke-dashoffset:0;stroke-opacity:1;marker:none;enable-background:accumulate"
       id="path4152"
       d="m 370.19736,394.69679 c -5.1928,2.94309 -9.33183,7.31506 -13.26534,11.72691 -4.41135,5.02275 -8.68395,10.15975 -12.94687,15.30786 -3.19431,3.46174 -6.36175,6.9614 -9.84758,10.13497 -1.13365,0.97979 -0.60318,0.5335 -1.58647,1.34476 0,0 -4.23931,-0.37822 -4.23931,-0.37822 l 0,0 c 0.99843,-0.79454 0.46029,-0.35652 1.60883,-1.32086 3.52083,-3.129 6.67954,-6.62988 9.88982,-10.07038 4.28057,-5.14248 8.55201,-10.28951 12.96452,-15.32049 3.9245,-4.43843 8.0529,-8.84069 13.20677,-11.86953 0,0 4.21563,0.44498 4.21563,0.44498 z"
       inkscape:connector-curvature="0" />
    <path
       style="color:#000000;display:inline;overflow:visible;visibility:visible;fill:#000000;fill-opacity:1;fill-rule:nonzero;stroke:#000000;stroke-width:0.7879371;stroke-linecap:butt;stroke-miterlimit:4;stroke-dasharray:none;stroke-dashoffset:0;stroke-opacity:1;marker:none;enable-background:accumulate"
       id="path4222"
       d="m 100.65669,410.99478 c -0.672101,-1.44682 -1.091972,-3.02448 -1.349744,-4.71029 -0.307551,-2.10334 -0.236479,-4.18843 0.04106,-6.28247 0.37941,-2.62141 1.186134,-5.02316 2.128484,-7.31561 1.06331,-2.5235 2.49983,-4.59927 4.02776,-6.54464 1.43308,-1.81669 2.98998,-3.37095 4.67293,-4.67223 1.56974,-1.2807 3.27146,-2.07993 5.01938,-2.68588 1.94247,-0.59585 3.95526,-0.50636 5.88359,0.13891 1.67083,0.59228 3.16129,1.78284 4.56159,3.17592 1.54111,1.45615 2.80726,3.38868 3.9015,5.49579 1.27675,2.34939 2.1438,5.04686 2.89428,7.79983 0.83139,3.22389 1.52467,6.51607 2.2139,9.80623 0.6593,3.44211 1.1901,6.92883 1.63825,10.43835 0.42023,3.25351 0.80931,6.5159 1.15439,9.7875 0.36294,3.24761 0.72824,6.49471 1.06708,9.74771 0.37675,3.14544 0.69457,6.30248 1.01142,9.46077 0.29198,2.84516 0.58984,5.68883 0.86581,8.53743 0.20173,2.67224 0.43563,5.3406 0.58945,8.01984 0.0925,2.23983 0.30784,4.46334 0.42213,6.70096 0.11929,1.90533 0.3548,3.78538 0.5544,5.67469 0.24506,1.71218 0.41558,3.44158 0.64468,5.15771 0.13081,1.26603 0.29438,2.51734 0.4751,3.77024 0.0804,0.96804 0.20992,1.90846 0.36865,2.85504 0.12569,0.65862 0.17139,1.3354 0.19577,2.01433 0.009,0.41496 0.0139,0.83013 0.0141,1.24531 -0.0362,-0.0298 0.0227,0.10739 -4e-4,0.10081 -1.36452,-0.38188 -1.06763,-0.0825 -1.06691,-1.53846 -0.0245,-1.1757 0.008,-2.33756 0.10517,-3.5045 0.10754,-1.91072 0.32646,-3.79963 0.55338,-5.68725 0.24001,-2.34878 0.52158,-4.69015 0.85923,-7.01444 0.32642,-2.16258 0.64711,-4.32591 0.94407,-6.4974 0.23397,-2.11111 0.45624,-4.22494 0.59985,-6.35311 0.20822,-2.16838 0.36144,-4.34514 0.55334,-6.51632 0.19622,-2.30962 0.42998,-4.61303 0.66173,-6.91618 0.31355,-2.5815 0.60683,-5.16693 0.90398,-7.75227 0.29086,-2.51764 0.58216,-5.03484 0.86115,-7.55535 0.23226,-2.52045 0.50634,-5.03353 0.83813,-7.53127 0.31135,-2.40881 0.66339,-4.80658 1.0401,-7.19625 0.30039,-2.2749 0.72458,-4.50624 1.13085,-6.74474 0.46935,-2.27775 0.89232,-4.57317 1.32187,-6.86678 0.39531,-2.08114 0.70434,-4.18929 1.01512,-6.29844 0.28658,-1.84943 0.64982,-3.67036 0.98979,-5.5002 0.40911,-1.76811 0.80608,-3.54242 1.21174,-5.31247 0.42727,-1.7622 0.88662,-3.50678 1.35985,-5.24483 0.47728,-1.65074 0.95642,-3.30018 1.42529,-4.95584 0.51232,-1.56051 0.98425,-3.14967 1.57336,-4.65544 0.52391,-1.33224 1.06143,-2.65165 1.61876,-3.95614 0.4398,-1.11084 0.94989,-2.15665 1.44794,-3.21445 0.47059,-0.9456 0.97563,-1.86317 1.57154,-2.65423 0.59551,-0.70788 1.19246,-1.41151 1.76549,-2.15651 0.63699,-0.75853 1.29647,-1.47469 2.00275,-2.09659 0.67892,-0.603 1.37777,-1.15559 2.13803,-1.51611 0.70185,-0.2749 1.43052,-0.29491 2.14408,-0.48091 1.05552,-0.34618 2.11276,-0.30783 3.18922,-0.27774 0.65257,0.0981 1.28125,0.31112 1.88536,0.6745 0.67215,0.39506 1.36493,0.71117 2.04305,1.08277 0.76013,0.36145 1.47622,0.85027 2.13978,1.4889 0.71414,0.77503 1.33846,1.74911 1.84233,2.8068 0.5726,1.26673 1.057,2.61501 1.51163,3.97472 0.45856,1.44605 0.97841,2.85185 1.42751,4.30364 0.3908,1.43748 0.708,2.91164 1.07594,4.36059 0.35286,1.51007 0.70579,3.0193 1.05102,4.53323 0.29623,1.49551 0.61062,2.98226 0.92436,4.47015 0.3132,1.33909 0.68176,2.64823 1.0317,3.96817 0.31142,1.18844 0.56808,2.39883 0.82264,3.61408 0.17661,1.11822 0.41602,2.21346 0.5731,3.33813 0.20724,1.01505 0.35534,2.04827 0.55328,3.06648 0.18534,1.0068 0.24791,2.04125 0.40265,3.05709 0.17486,1.12854 0.22071,2.28625 0.2546,3.43773 0.13471,1.16174 0.24778,2.32523 0.31433,3.49929 0.0623,1.16867 0.23432,2.31682 0.32206,3.48359 0.16821,1.18233 0.30448,2.37063 0.49029,3.54752 0.27278,1.14232 0.48068,2.31081 0.69322,3.47792 0.1959,1.13968 0.44629,2.25125 0.58197,3.41115 0.18233,1.16541 0.31258,2.34152 0.51306,3.5007 0.13421,1.20055 0.35878,2.37349 0.51199,3.56876 0.1167,1.05839 0.31553,2.08966 0.41976,3.15236 0.0908,1.06458 0.0947,2.13825 0.10027,3.20898 0.003,1.25145 8.9e-4,2.50289 -0.001,3.75432 -6.3e-4,1.37708 -0.002,2.75415 -0.002,4.13123 6.8e-4,1.24539 8.1e-4,2.4908 0.002,3.73619 -1.3e-4,0.76124 7e-4,1.52248 0.004,2.28372 3.6e-4,0.10771 0.001,0.21547 0.002,0.32321 -1.31197,-0.17606 -1.06689,0.0922 -1.06733,-1.19408 0.001,-0.706 6.9e-4,-1.41198 0.001,-2.11797 -0.009,-0.82819 0.17315,-1.6276 0.25922,-2.44217 0.0292,-0.91886 0.1887,-1.80779 0.31268,-2.70615 0.0666,-0.9196 0.2422,-1.80928 0.35511,-2.71785 0.13509,-1.1094 0.30603,-2.20542 0.40221,-3.32527 0.0734,-1.23272 0.25892,-2.44323 0.36086,-3.67177 0.0295,-1.2536 0.20373,-2.48202 0.31375,-3.72333 0.0986,-1.46462 0.28877,-2.91441 0.49941,-4.35381 0.19794,-1.50971 0.44291,-3.00597 0.6952,-4.49886 0.29741,-1.46765 0.58529,-2.94298 0.80995,-4.43721 0.27216,-1.52075 0.47957,-3.06133 0.77069,-4.5754 0.27951,-1.60298 0.56817,-3.20298 0.85086,-4.80504 0.35643,-1.67845 0.67052,-3.37149 0.97211,-5.07104 0.28366,-1.73355 0.50004,-3.48751 0.76209,-5.22742 0.23453,-1.64964 0.43828,-3.31063 0.61665,-4.97504 0.27463,-1.69673 0.43001,-3.41881 0.51981,-5.15326 0.14987,-1.72374 0.27924,-3.44871 0.46968,-5.1643 0.25221,-1.88819 0.59451,-3.7472 0.90587,-5.61629 0.3624,-1.92143 0.80515,-3.81083 1.21452,-5.71323 0.40995,-1.84519 0.87983,-3.65999 1.36092,-5.46925 0.39089,-1.47298 0.74928,-2.96517 1.17432,-4.41931 0.34588,-1.38968 0.74088,-2.74815 1.13383,-4.11091 0.4066,-1.44863 0.85696,-2.86946 1.27682,-4.31052 0.41325,-1.5815 0.87738,-3.13224 1.27197,-4.72397 0.41426,-1.62134 0.9075,-3.20587 1.43368,-4.75971 0.52071,-1.54283 1.07526,-3.06155 1.60472,-4.59807 0.48281,-1.50735 1.08703,-2.92543 1.65878,-4.36575 0.48268,-1.16875 0.9932,-2.31159 1.5058,-3.45382 0.4158,-0.92247 0.9096,-1.76045 1.42811,-2.56685 0.47101,-0.64267 1.01603,-1.15583 1.52912,-1.72309 0.44666,-0.42967 0.89812,-0.87135 1.39,-1.19148 0.73268,-0.32986 1.57976,-0.4656 2.31946,-0.13292 0.395,0.14176 0.76885,0.29289 1.09676,0.64811 0.5538,0.45395 0.95625,1.14709 1.3686,1.82463 0.537,0.71668 1.00319,1.53265 1.44324,2.37036 0.47891,0.82665 0.87211,1.735 1.26097,2.64943 0.41345,1.06837 0.79216,2.16275 1.16571,3.2605 0.47621,1.15836 0.90281,2.34942 1.32022,3.55255 0.41216,1.29184 0.8211,2.58769 1.27349,3.85216 0.43949,1.35837 0.84819,2.73402 1.2563,4.11149 0.41816,1.14313 0.73899,2.34967 1.12321,3.51517 0.30349,1.01309 0.60111,2.03088 0.79066,3.10092 0.17601,0.9113 0.44116,1.77793 0.64131,2.67709 0.18358,0.89297 0.34147,1.80309 0.55213,2.68411 0.15904,0.83959 0.37073,1.654 0.54428,2.48694 0.16506,0.95838 0.3701,1.90203 0.5841,2.84047 0.17838,1.02254 0.40693,2.02493 0.55577,3.05797 0.24386,0.85025 0.33783,1.75618 0.4975,2.63841 0.13821,0.85627 0.31694,1.69175 0.50556,2.52741 0.14831,0.73101 0.35902,1.4215 0.48278,2.16418 0.19388,0.68261 0.33219,1.3784 0.40061,2.10757 0.18032,0.75445 0.28626,1.52852 0.35774,2.31712 0.16172,0.79482 0.28216,1.60127 0.3563,2.42191 0.0316,0.81508 0.23083,1.58558 0.42411,2.34494 0.19821,0.9415 0.36551,1.89755 0.58499,2.82995 0.28163,1.00084 0.50202,2.02805 0.73913,3.05091 0.22351,1.10628 0.47466,2.19856 0.73296,3.28939 0.24493,1.17498 0.55377,2.32162 0.87262,3.45925 0.35979,1.19201 0.66161,2.4095 0.94397,3.64298 0.28799,1.24164 0.47535,2.51783 0.68526,3.78806 0.16944,1.2074 0.36489,2.40343 0.5566,3.60383 0.0815,0.98275 0.29381,1.92301 0.44009,2.88626 0.11707,0.73533 0.13535,1.49097 0.14867,2.24173 0.12355,0.5977 0.11078,1.29419 0.29845,1.86277 0.38481,-0.093 -0.69445,-0.0323 -1.0209,-0.18214 -0.0121,-0.005 0.0532,-1.17031 0.068,-1.29469 0.0832,-0.83343 0.2697,-1.62337 0.43182,-2.42829 0.25771,-0.92872 0.41952,-1.89954 0.6194,-2.85473 0.16696,-1.05414 0.48622,-2.03679 0.7314,-3.05433 0.26889,-1.00946 0.53615,-2.02309 0.75736,-3.05632 0.28463,-1.15681 0.56766,-2.31214 0.91631,-3.43322 0.42219,-1.36879 0.79504,-2.7656 1.18286,-4.15423 0.51255,-1.57529 0.99049,-3.17303 1.4857,-4.76013 0.62812,-1.9873 1.30297,-3.94345 1.97926,-5.89797 0.7595,-2.1301 1.4643,-4.29853 2.14156,-6.48404 0.74625,-2.46265 1.29023,-5.03713 1.78482,-7.62158 0.5244,-2.67602 0.99345,-5.37432 1.45191,-8.07492 0.4221,-2.70271 0.83802,-5.40887 1.13201,-8.14671 0.32218,-2.82496 0.60111,-5.65834 0.88626,-8.49111 0.28347,-2.99321 0.59971,-5.98071 0.95005,-8.95952 0.41117,-2.98087 0.78171,-5.97308 1.25016,-8.93708 0.39781,-2.82916 0.84063,-5.6429 1.28437,-8.45754 0.42719,-2.49392 0.93216,-4.9646 1.49006,-7.40559 0.54176,-2.10158 1.12802,-4.18278 1.74966,-6.23925 0.54659,-1.78413 1.11112,-3.5579 1.64638,-5.34903 0.50439,-1.82751 1.11944,-3.58016 1.7596,-5.31627 0.58223,-1.53759 1.17865,-3.06009 1.79505,-4.56992 0.39875,-1.02189 0.87609,-1.96515 1.4102,-2.84962 0.43728,-0.63758 0.92678,-1.14628 1.51128,-1.46051 0.87167,-0.40499 1.77628,-0.24227 2.59774,0.24784 0.59893,0.4151 1.11523,1.01947 1.65433,1.56902 0.67595,0.71235 1.20887,1.65978 1.77455,2.53849 0.77179,1.25537 1.41012,2.65555 2.04197,4.05645 0.73737,1.74928 1.43842,3.53016 2.13997,5.30935 0.83481,2.01129 1.3782,4.22363 1.92543,6.41614 0.61064,2.55018 1.05079,5.16193 1.44851,7.7922 0.34527,2.61818 0.62143,5.2542 0.79623,7.90675 0.15966,2.87639 0.33978,5.74792 0.43523,8.6308 0.0286,2.66391 0.11889,5.31773 0.26325,7.97338 0.12151,2.1209 0.16225,4.24817 0.1847,6.3751 0.0156,2.03344 0.0132,4.06703 0.0126,6.10056 0.0276,1.69436 -0.0541,3.39556 0.0438,5.08577 0.13862,1.20395 0.16669,2.43262 0.3188,3.63204 0.0995,0.97166 0.28972,1.90065 0.47937,2.84042 0.13897,0.66134 0.17401,1.34437 0.32737,1.999 0.19755,0.66871 0.10626,1.33454 0.0291,2.02233 -0.009,0.69341 0.12704,1.31473 0.38118,1.89712 0.18679,0.50319 0.51189,0.74651 0.83069,1.04744 0.2747,0.15462 1.54458,0.73007 -0.43651,0.12536 -0.0593,-0.0181 0.0997,-0.10114 0.13903,-0.16697 0.0474,-0.0793 0.0786,-0.17568 0.11776,-0.26354 0.26106,-0.72205 0.44525,-1.48957 0.63918,-2.25165 0.28849,-1.0606 0.4619,-2.15846 0.64206,-3.26304 0.22307,-1.77234 0.47596,-3.53648 0.71681,-5.3042 0.30043,-2.39546 0.53626,-4.80457 0.77339,-7.21407 0.28656,-2.70264 0.63631,-5.38972 0.96816,-8.08145 0.39359,-2.87843 0.82899,-5.74452 1.31826,-8.59303 0.4909,-3.35927 1.04853,-6.69521 1.66303,-10.01252 0.61666,-3.26818 1.34021,-6.49208 2.07355,-9.70988 0.76532,-3.26532 1.68775,-6.44417 2.59951,-9.62933 0.8632,-2.98422 1.89035,-5.8609 2.89696,-8.74962 0.76773,-2.20521 1.52974,-4.41361 2.35426,-6.57688 0.60042,-1.45904 1.21528,-2.91058 1.92576,-4.26688 0.54863,-1.11105 1.27532,-1.97573 1.95773,-2.9045 0.55622,-0.83906 1.14204,-1.64479 1.65469,-2.53968 0.47013,-0.83085 0.99283,-1.59568 1.4822,-2.40536 0.51399,-0.84479 1.11186,-1.59178 1.7418,-2.25643 0.47458,-0.5497 0.97579,-1.04865 1.45002,-1.59931 0.13752,-0.19622 0.5655,-0.51145 0.42847,-0.86309 0,0 1.06709,-0.0589 1.06709,-0.0589 l 0,0 c 0.10954,0.48598 -0.20043,0.78359 -0.43818,1.05618 -0.47531,0.55385 -0.97787,1.05483 -1.4533,1.60745 -0.63327,0.64258 -1.22626,1.39176 -1.74134,2.22131 -0.48824,0.8096 -1.00614,1.57782 -1.48086,2.40069 -0.50791,0.90762 -1.10468,1.70751 -1.6577,2.55843 -0.67474,0.93165 -1.4134,1.77097 -1.95912,2.88008 -0.71406,1.34734 -1.32998,2.79298 -1.93369,4.24439 -0.82723,2.16134 -1.59331,4.36674 -2.36292,6.57084 -1.00969,2.88398 -2.03874,5.75674 -2.90228,8.7383 -0.91137,3.18147 -1.83535,6.35564 -2.59781,9.61863 -0.73378,3.21519 -1.45867,6.43611 -2.07641,9.70151 -0.61467,3.31591 -1.17149,6.65083 -1.65876,10.00988 -0.48548,2.84609 -0.92017,5.70857 -1.31283,8.58358 -0.33282,2.68965 -0.68095,5.37528 -0.96654,8.0763 -0.23729,2.41161 -0.4696,4.82353 -0.7677,7.22176 -0.23705,1.76988 -0.49129,3.53484 -0.70776,5.31006 -0.17933,1.11047 -0.34825,2.21524 -0.63792,3.28115 -0.19396,0.77127 -0.3803,1.5459 -0.63641,2.28061 -0.44213,1.13306 -1.27428,0.87533 -1.94114,0.37339 -0.3286,-0.31056 -0.64419,-0.59498 -0.83197,-1.11446 -0.25612,-0.61916 -0.39387,-1.27792 -0.38325,-2.00407 0.0768,-0.66617 0.1661,-1.30304 -0.0288,-1.9498 -0.14867,-0.65781 -0.18796,-1.34145 -0.32475,-2.00457 -0.19186,-0.94388 -0.37436,-1.8813 -0.4771,-2.85632 -0.14865,-1.20503 -0.17956,-2.43707 -0.31407,-3.64654 -0.0947,-1.69478 -0.013,-3.39933 -0.0375,-5.09801 6.1e-4,-2.03275 0.003,-4.06558 -0.0125,-6.09824 -0.0221,-2.12381 -0.0622,-4.24793 -0.18099,-6.36595 -0.14115,-2.65722 -0.22745,-5.31271 -0.25564,-7.97776 -0.0962,-2.88067 -0.27769,-5.74984 -0.43906,-8.62385 -0.1754,-2.64667 -0.45089,-5.27693 -0.79603,-7.88927 -0.39551,-2.62478 -0.83787,-5.22934 -1.44932,-7.77266 -0.54943,-2.18438 -1.09427,-4.38808 -1.93055,-6.39057 -0.70194,-1.7764 -1.39958,-3.55782 -2.14221,-5.30016 -0.6324,-1.39382 -1.27084,-2.78783 -2.04735,-4.03037 -0.56276,-0.87336 -1.09554,-1.81184 -1.77564,-2.50677 -0.53654,-0.54354 -1.05008,-1.14711 -1.65454,-1.53432 -0.13162,-0.0763 -0.37656,-0.2265 -0.5182,-0.27696 -0.0822,-0.0292 -0.33515,-0.0421 -0.25104,-0.0563 1.57109,-0.26753 0.61814,0.0182 0.27928,0.0927 -0.58525,0.28515 -1.06894,0.7597 -1.50909,1.38308 -0.53549,0.87436 -1.01711,1.80556 -1.41544,2.82096 -0.61708,1.50844 -1.21792,3.02638 -1.80056,4.56296 -0.63861,1.7328 -1.25629,3.47913 -1.75775,5.30427 -0.53596,1.79133 -1.09936,3.56642 -1.64834,5.34964 -0.62323,2.05165 -1.20988,4.1286 -1.75372,6.22532 -0.56001,2.43575 -1.06386,4.90268 -1.49389,7.39137 -0.44363,2.81486 -0.89134,5.62738 -1.2866,8.45756 -0.46872,2.96128 -0.84167,5.9502 -1.25149,8.92882 -0.35021,2.97753 -0.66563,5.96391 -0.94785,8.95605 -0.28444,2.83333 -0.56418,5.66681 -0.88495,8.49249 -0.29274,2.7424 -0.70986,5.4526 -1.13268,8.15939 -0.45747,2.70228 -0.9268,5.40186 -1.4512,8.07918 -0.49358,2.59191 -1.03895,5.17234 -1.78258,7.64387 -0.67475,2.18856 -1.37939,4.35887 -2.13857,6.49066 -0.67541,1.95234 -1.34942,3.90633 -1.9755,5.89218 -0.49314,1.58556 -0.96582,3.18359 -1.48021,4.75472 -0.38993,1.3891 -0.76027,2.78894 -1.18189,4.15994 -0.34685,1.11546 -0.62724,2.26464 -0.9117,3.41495 -0.21944,1.03574 -0.4875,2.05107 -0.75763,3.06155 -0.24255,1.01687 -0.56533,1.99557 -0.73088,3.04832 -0.19919,0.9546 -0.3589,1.92556 -0.61731,2.85298 -0.1586,0.80068 -0.35043,1.58299 -0.42989,2.4122 -0.0829,0.67014 0.17667,2.80261 -1.17595,1.50962 -0.1516,-0.61418 -0.19023,-1.286 -0.29366,-1.91764 -0.0132,-0.74136 -0.0317,-1.48673 -0.14667,-2.21311 -0.14761,-0.96194 -0.3526,-1.90406 -0.43699,-2.88491 -0.19152,-1.19982 -0.38291,-2.39662 -0.55416,-3.60274 -0.20977,-1.2661 -0.39697,-2.53816 -0.68537,-3.77537 -0.28214,-1.23019 -0.58675,-2.44321 -0.94361,-3.63341 -0.31833,-1.14093 -0.62999,-2.28862 -0.8735,-3.46728 -0.25887,-1.0911 -0.5107,-2.18406 -0.73514,-3.29054 -0.23468,-1.02405 -0.4617,-2.04748 -0.73937,-3.05028 -0.21647,-0.9327 -0.3864,-1.88628 -0.58707,-2.82569 -0.19705,-0.76934 -0.3913,-1.55303 -0.4257,-2.37831 -0.0747,-0.82103 -0.19942,-1.62514 -0.35625,-2.42209 -0.0703,-0.78905 -0.18697,-1.55802 -0.35778,-2.31589 -0.0706,-0.72383 -0.21586,-1.41164 -0.4016,-2.09272 -0.12291,-0.73813 -0.33749,-1.42408 -0.48111,-2.15266 -0.18697,-0.83907 -0.36593,-1.67748 -0.50398,-2.53641 -0.15762,-0.88549 -0.2622,-1.78896 -0.49657,-2.64555 -0.14948,-1.02697 -0.37598,-2.02488 -0.55535,-3.04119 -0.2148,-0.93951 -0.41796,-1.88528 -0.58629,-2.8439 -0.17625,-0.83007 -0.38153,-1.64558 -0.54407,-2.48185 -0.20663,-0.88403 -0.36677,-1.79278 -0.55152,-2.68646 -0.20384,-0.90015 -0.46689,-1.77107 -0.64016,-2.6863 -0.19037,-1.05974 -0.48676,-2.06885 -0.78838,-3.07261 -0.38108,-1.16886 -0.70611,-2.37386 -1.12015,-3.52115 -0.40572,-1.37511 -0.81471,-2.74708 -1.25535,-4.10077 -0.45046,-1.26686 -0.86217,-2.56155 -1.27526,-3.85383 -0.41622,-1.20443 -0.85159,-2.38916 -1.32071,-3.55339 -0.37394,-1.09317 -0.75186,-2.18412 -1.16752,-3.24643 -0.38759,-0.91114 -0.78678,-1.80909 -1.26254,-2.63391 -0.4436,-0.83067 -0.9081,-1.6405 -1.4407,-2.35997 -0.41209,-0.67112 -0.82337,-1.33649 -1.3726,-1.78781 -0.33558,-0.31137 -0.70862,-0.4547 -1.09324,-0.59674 -0.44481,-0.15665 -0.31077,-0.084 0.66018,-0.10534 0.067,-10e-4 -0.13349,0.0155 -0.20005,0.0261 -0.22688,0.0356 -0.45036,0.0947 -0.66865,0.19207 -0.49782,0.28813 -0.93787,0.7457 -1.38961,1.15174 -0.50289,0.57679 -1.05388,1.0699 -1.52906,1.69912 -0.51796,0.79837 -1.01414,1.62543 -1.43007,2.54035 -0.51371,1.13945 -1.02342,2.28109 -1.50915,3.44544 -0.57334,1.43609 -1.17642,2.85278 -1.65987,4.35665 -0.52878,1.53682 -1.085,3.05412 -1.60493,4.59733 -0.52798,1.54663 -1.01786,3.12821 -1.43337,4.74293 -0.39483,1.59435 -0.85761,3.1481 -1.27147,4.73195 -0.41734,1.44222 -0.86929,2.8614 -1.27522,4.30999 -0.38988,1.3647 -0.79202,2.71939 -1.13254,4.11231 -0.42968,1.45057 -0.78574,2.9433 -1.17949,4.41382 -0.48121,1.80616 -0.9525,3.61722 -1.36245,5.45944 -0.40845,1.89966 -0.84947,3.78653 -1.2147,5.70353 -0.30952,1.86552 -0.6505,3.72078 -0.90193,5.60505 -0.18992,1.71157 -0.32034,3.43204 -0.46991,5.15177 -0.0896,1.73804 -0.24284,3.46514 -0.51979,5.16487 -0.17683,1.66777 -0.38175,3.33176 -0.61696,4.98419 -0.26324,1.74138 -0.48008,3.497 -0.76267,5.23274 -0.3009,1.69963 -0.61303,3.39334 -0.97165,5.07074 -0.28068,1.60368 -0.57092,3.2042 -0.8492,4.80846 -0.2911,1.51117 -0.49757,3.04906 -0.77005,4.56673 -0.22234,1.49601 -0.51058,2.97298 -0.80929,4.44113 -0.25081,1.49188 -0.50035,2.98527 -0.69532,4.49438 -0.2109,1.43499 -0.40038,2.88107 -0.49663,4.34172 -0.10933,1.24106 -0.28428,2.46889 -0.3119,3.72226 -0.10249,1.2287 -0.29021,2.4391 -0.3613,3.67231 -0.0963,1.12219 -0.26432,2.22176 -0.4,3.33325 -0.11166,0.90999 -0.28813,1.80017 -0.35352,2.72093 -0.12374,0.89619 -0.28723,1.78169 -0.31255,2.69912 -0.0836,0.80797 -0.26555,1.59941 -0.25808,2.41977 4.6e-4,0.70599 -1.4e-4,1.41197 0.001,2.11797 -4.4e-4,1.28617 0.24464,1.01802 -1.06732,1.19409 9.9e-4,-0.10772 0.002,-0.21548 0.002,-0.32323 0.004,-0.76123 0.004,-1.52246 0.004,-2.28371 10e-4,-1.2454 10e-4,-2.49081 0.002,-3.73622 3.1e-4,-1.37712 -6.5e-4,-2.75425 0.001,-4.13138 1.7e-4,-1.25096 0.003,-2.50194 -7.7e-4,-3.7529 -0.007,-1.06409 -0.0123,-2.13119 -0.10197,-3.18915 -0.10474,-1.06017 -0.30388,-2.08942 -0.41845,-3.14612 -0.15293,-1.19215 -0.37376,-2.36335 -0.51173,-3.55967 -0.19988,-1.16319 -0.32882,-2.34378 -0.51403,-3.51207 -0.13582,-1.15485 -0.38603,-2.26217 -0.57966,-3.39778 -0.21395,-1.16828 -0.4253,-2.33689 -0.69339,-3.48299 -0.18603,-1.18246 -0.32584,-2.37595 -0.4909,-3.5647 -0.0881,-1.16798 -0.26359,-2.31694 -0.32244,-3.48759 -0.0664,-1.17629 -0.18389,-2.34053 -0.31485,-3.50517 -0.0331,-1.14318 -0.0792,-2.29203 -0.2556,-3.41174 -0.15366,-1.01313 -0.21573,-2.04518 -0.40232,-3.0485 -0.19842,-1.02161 -0.34735,-2.05843 -0.5533,-3.07755 -0.15735,-1.11943 -0.39389,-2.21104 -0.57043,-3.32415 -0.25398,-1.21157 -0.51243,-2.41768 -0.82128,-3.60344 -0.35056,-1.32273 -0.71996,-2.63496 -1.03038,-3.97851 -0.31546,-1.48589 -0.62367,-2.97372 -0.92191,-4.46695 -0.3464,-1.51203 -0.69921,-3.0202 -1.0532,-4.52845 -0.36466,-1.44685 -0.68268,-2.91689 -1.07445,-4.34996 -0.45294,-1.44811 -0.96739,-2.85603 -1.42825,-4.2993 -0.45459,-1.35237 -0.9364,-2.69522 -1.51283,-3.95082 -0.50954,-1.03592 -1.12289,-2.00102 -1.84076,-2.74952 -0.66623,-0.62116 -1.38449,-1.09143 -2.13891,-1.45479 -0.6821,-0.36015 -1.37079,-0.69481 -2.04468,-1.08638 -0.60522,-0.33772 -1.23201,-0.54448 -1.88031,-0.62811 1.88247,-0.10264 -0.81134,0.0594 -1.09413,0.26143 -0.71278,0.1933 -1.4354,0.22686 -2.14273,0.462 -0.76287,0.33587 -1.46019,0.87944 -2.13636,1.48052 -0.70867,0.60549 -1.36095,1.32312 -2.00058,2.06732 -0.57059,0.74878 -1.16493,1.45641 -1.76483,2.15678 -0.60148,0.76881 -1.09941,1.68602 -1.57098,2.61821 -0.49849,1.05553 -1.0108,2.09773 -1.44956,3.2078 -0.55987,1.30128 -1.0988,2.61845 -1.62204,3.95028 -0.59271,1.49695 -1.05963,3.08313 -1.57434,4.63617 -0.46835,1.65542 -0.94689,3.30467 -1.42559,4.95403 -0.4754,1.7342 -0.93155,3.47794 -1.36043,5.23661 -0.40774,1.76601 -0.79676,3.54112 -1.21129,5.30375 -0.33826,1.82807 -0.70451,3.64552 -0.99114,5.49261 -0.31453,2.11107 -0.62194,4.22283 -1.01953,6.30626 -0.43101,2.29254 -0.85146,4.58848 -1.32151,6.86542 -0.40326,2.238 -0.83328,4.46601 -1.132,6.74001 -0.37562,2.38852 -0.73077,4.78376 -1.04171,7.19126 -0.33306,2.49579 -0.60546,5.00781 -0.83716,7.5267 -0.27983,2.52075 -0.57157,5.03827 -0.86324,7.55614 -0.29653,2.58433 -0.5905,5.1684 -0.90128,7.74939 -0.23149,2.30223 -0.46215,4.60525 -0.65963,6.91363 -0.19108,2.16982 -0.34275,4.34541 -0.55285,6.51195 -0.14359,2.13291 -0.36328,4.25201 -0.59879,6.36759 -0.29731,2.17231 -0.6193,4.33613 -0.94739,6.49912 -0.3391,2.32185 -0.61944,4.6619 -0.85674,7.00923 -0.22567,1.88488 -0.44146,3.77135 -0.54439,5.67962 -0.0947,1.16127 -0.12583,2.31722 -0.0983,3.48678 0.002,1.45586 0.30102,1.15452 -1.06344,1.53564 -0.0227,0.005 0.0389,-0.12906 0.002,-0.099 0.004,-0.41226 10e-4,-0.82471 -0.009,-1.23675 -0.0228,-0.66955 -0.0712,-1.33629 -0.19251,-1.98628 -0.1595,-0.94766 -0.28175,-1.89198 -0.36581,-2.86007 -0.18007,-1.25346 -0.33909,-2.50628 -0.46918,-3.77271 -0.22712,-1.7183 -0.39748,-3.44937 -0.64192,-5.16339 -0.20065,-1.89284 -0.43306,-3.77747 -0.55309,-5.6863 -0.11298,-2.23696 -0.32215,-4.46069 -0.41477,-6.69964 -0.15388,-2.6764 -0.38472,-5.34223 -0.58672,-8.01162 -0.27671,-2.84799 -0.57265,-5.69162 -0.86218,-8.53684 -0.3162,-3.158 -0.63381,-6.31467 -1.00917,-9.46 -0.33857,-3.25296 -0.70591,-6.49952 -1.06712,-9.74743 -0.34555,-3.26978 -0.73509,-6.53041 -1.15198,-9.78307 -0.44626,-3.50459 -0.97784,-6.9856 -1.63742,-10.42208 -0.69066,-3.28609 -1.38237,-6.57559 -2.21768,-9.79403 -0.75383,-2.73995 -1.62242,-5.42316 -2.89873,-7.75989 -1.09746,-2.09067 -2.36297,-4.00355 -3.9009,-5.44753 -1.40127,-1.37532 -2.89121,-2.54733 -4.55916,-3.11945 -0.26816,-0.086 -0.53418,-0.18684 -0.80447,-0.25795 -0.26604,-0.07 -0.54374,-0.0562 -0.80329,-0.16507 -0.0822,-0.0345 0.33812,-0.06 0.25261,-0.0658 -0.82382,-0.0567 -1.65935,0.11495 -2.46307,0.34836 -1.74701,0.59056 -3.44971,1.3738 -5.01861,2.64733 -1.68355,1.28748 -3.24028,2.82898 -4.67314,4.63751 -1.52461,1.93223 -2.96239,3.98766 -4.02457,6.49874 -0.94002,2.27493 -1.74399,4.66006 -2.12179,7.26471 -0.27398,2.07451 -0.34321,4.13947 -0.0354,6.22233 0.25921,1.66913 0.67998,3.23255 1.36008,4.65371 0,0 -1.05848,0.0889 -1.05848,0.0889 z"
       inkscape:connector-curvature="0" />
    <path
       style="color:#000000;display:inline;overflow:visible;visibility:visible;fill:#000000;fill-opacity:1;fill-rule:nonzero;stroke:#000000;stroke-width:0.66000003;stroke-linecap:butt;stroke-miterlimit:4;stroke-dasharray:none;stroke-dashoffset:0;stroke-opacity:1;marker:none;enable-background:accumulate"
       id="path4230"
       d="m 88.831756,378.48316 c 2.025996,-0.47279 4.045184,-0.98139 6.077724,-1.42645 2.267484,-0.61127 4.591445,-0.94566 6.90436,-1.33005 3.0057,-0.41547 6.02275,-0.74456 9.03154,-1.13695 3.84941,-0.48204 7.67889,-1.12148 11.50033,-1.78798 3.99717,-0.6781 7.97532,-1.46056 11.98759,-2.04684 3.7919,-0.67592 7.621,-1.05166 11.46346,-1.26699 3.97265,-0.15938 7.95635,-0.25253 11.9241,0.0518 2.74939,0.25768 5.50567,0.39856 8.26551,0.46911 2.80033,-0.0536 5.58099,0.28128 8.36861,0.48981 2.88601,0.15748 5.76772,0.22236 8.64744,0.47536 3.2419,0.31213 6.49761,0.40848 9.75209,0.47046 3.47926,0.0504 6.95901,0.0462 10.43855,0.0461 -0.0721,-1.7e-4 -0.28844,-4.5e-4 -0.21633,-5e-4 3.33021,-0.002 6.65265,-0.20738 9.96858,-0.50941 4.26624,-0.43968 8.51911,-1.00728 12.7747,-1.5416 4.28088,-0.61696 8.56835,-1.20209 12.86851,-1.66859 4.11567,-0.3027 8.2222,-0.71559 12.34057,-0.98343 4.11962,-0.12034 8.22483,-0.47908 12.33763,-0.72415 3.7222,-0.2116 7.45072,-0.25767 11.17793,-0.28649 4.10586,0.0328 8.21805,-0.13676 12.31954,0.0807 3.51409,0.28342 7.03413,0.4552 10.5579,0.55014 3.6671,0.0779 7.33524,0.0797 11.003,0.0828 3.73139,0.003 7.45265,0.34884 11.17938,0.51925 3.6654,0.14972 7.33417,0.17352 11.00208,0.18933 3.11716,0.15823 6.2272,0.38321 9.31965,0.80482 2.03053,0.30603 4.07565,0.49055 6.12623,0.58391 0.81888,0.13044 0.66144,0.13228 1.47486,0.15813 0.20817,0.007 0.83309,0.006 0.62481,0.004 -3.73985,-0.0203 -1.48158,0.27215 -1.25565,-0.20491 -0.2787,-1.14119 -1.50237,-1.90767 -2.3112,-2.67778 -1.97103,-1.87873 -4.31275,-3.22504 -6.75201,-4.38865 -2.91393,-1.2911 -5.99089,-2.17593 -9.07145,-2.971 -2.1493,-0.59177 -4.37544,-0.94433 -6.50958,-1.58345 -0.32099,0.0885 -1.83946,-0.9346 -0.8798,-1.0047 0.8517,-0.0622 1.70794,0.005 2.56192,0.008 2.32589,0.43408 4.66634,0.80761 6.98415,1.29528 3.72096,0.62183 7.31619,1.75581 10.93586,2.7839 3.01667,0.98453 5.93579,2.30824 8.48736,4.20667 1.53127,1.28316 2.66097,2.39347 2.01088,4.47736 -1.15566,2.1772 -3.42744,3.23114 -5.58302,4.17557 -3.05292,1.29562 -6.21518,2.31936 -9.37624,3.3155 -1.8784,0.59577 -3.8095,0.96976 -5.76035,1.22088 0,0 -2.09189,-0.30488 -2.09189,-0.30488 l 0,0 c 1.95725,-0.23434 3.89622,-0.58991 5.78142,-1.17985 3.1599,-0.98341 6.31617,-2.01201 9.36896,-3.29397 2.11447,-0.91131 4.35731,-1.90461 5.54494,-4.00028 0.6748,-1.95458 -0.57345,-3.03395 -1.98661,-4.21409 -2.55083,-1.86434 -5.45166,-3.17559 -8.45591,-4.13496 -3.61903,-1.03464 -7.22161,-2.1421 -10.94226,-2.76778 -2.3287,-0.47812 -4.67729,-0.87602 -7.02085,-1.26101 0.55255,-0.018 1.10652,-0.0105 1.65764,-0.0541 0.0865,-0.007 -0.16939,-0.038 -0.25408,-0.057 -0.002,0.004 -0.0104,0.0102 -0.007,0.0132 0.32606,0.25754 0.73696,0.37367 1.1228,0.50406 2.13912,0.5994 4.33579,1.00896 6.48345,1.58104 3.0837,0.80968 6.16613,1.69781 9.07862,3.01077 2.44918,1.18321 4.7929,2.56222 6.77535,4.45148 0.87773,0.81947 2.15691,1.63857 2.34247,2.91236 -0.0256,0.10775 -0.007,0.23752 -0.0768,0.32326 -0.4734,0.57891 -3.88928,0.0742 -4.99268,-0.0229 -2.04518,-0.10387 -4.08402,-0.29936 -6.10954,-0.60481 -3.08598,-0.41543 -6.19147,-0.63452 -9.30171,-0.78005 -3.66743,-0.0176 -7.33573,-0.0436 -11.00048,-0.19836 -3.72658,-0.17464 -7.4484,-0.51817 -11.18043,-0.50956 -3.66812,-0.004 -7.33663,-0.007 -11.00403,-0.0882 -3.52471,-0.0989 -7.04502,-0.28009 -10.56072,-0.55444 -3.15541,-0.14824 -4.67884,-0.061 -8.20104,-0.072 -3.72963,0.026 -7.46058,0.0685 -11.18547,0.27447 -4.11354,0.24053 -8.21845,0.61019 -12.33886,0.72286 -4.11938,0.26192 -8.2254,0.68245 -12.34249,0.97414 -4.30068,0.45872 -8.58815,1.0445 -12.86813,1.665 -4.25574,0.53181 -8.50785,1.10235 -12.77318,1.54854 -4.60632,0.43529 -9.23029,0.6366 -13.85795,0.53035 -3.48088,-3.1e-4 -6.96201,0.005 -10.44257,-0.0496 -3.25743,-0.0655 -6.51563,-0.16918 -9.76032,-0.48336 -2.88054,-0.24724 -5.76501,-0.29832 -8.65035,-0.47255 -2.78741,-0.21278 -5.56931,-0.52842 -8.36962,-0.47927 -2.75819,-0.0753 -5.51219,-0.2256 -8.26018,-0.48022 -0.51537,-0.0379 -1.03719,-0.0241 -1.54612,-0.11378 -0.15736,-0.0277 0.63296,-0.0666 0.47341,-0.0752 -2.23518,-0.12026 -4.49099,0.14063 -6.72587,0.14016 -3.84378,0.20563 -7.67622,0.56512 -11.46824,1.24756 -4.01393,0.57614 -7.991,1.36342 -11.98837,2.0405 -3.81775,0.67291 -7.64531,1.31016 -11.49123,1.79815 -3.00202,0.4015 -6.01398,0.72631 -9.01533,1.13236 -2.30935,0.38089 -4.631914,0.70678 -6.894372,1.32125 -2.02971,0.42941 -4.038182,0.95846 -6.061933,1.41441 0,0 -2.104089,-0.27347 -2.104089,-0.27347 z"
       inkscape:connector-curvature="0" />
    <path
       style="color:#000000;display:inline;overflow:visible;visibility:visible;fill:#000000;fill-opacity:1;fill-rule:nonzero;stroke:#000000;stroke-width:0.66000003;stroke-linecap:butt;stroke-miterlimit:4;stroke-dasharray:none;stroke-dashoffset:0;stroke-opacity:1;marker:none;enable-background:accumulate"
       id="path4232"
       d="m 103.85488,480.97757 c -0.31218,-2.36983 -0.34704,-4.76519 -0.62599,-7.13687 -0.37941,-2.28238 -0.54465,-4.58481 -0.63093,-6.89397 -0.15798,-3.75048 0.18715,-7.49517 0.36447,-11.23925 0.36234,-5.41686 0.82904,-10.82569 1.19976,-16.24182 0.36845,-6.54575 0.79605,-13.08797 1.24269,-19.62885 0.59118,-7.19765 0.52158,-14.41043 0.36468,-21.62194 -0.18746,-7.32075 -0.61529,-14.63173 -0.83494,-21.9521 -0.19191,-7.26772 -0.21555,-14.53834 -0.23305,-21.80812 -0.1931,-7.00786 -0.45545,-14.01279 -0.58858,-21.0223 -0.11287,-6.84891 -0.12013,-13.69886 -0.13028,-20.54849 -0.005,-6.47806 -0.003,-12.95611 -0.004,-19.43417 0.213,-5.73433 0.34298,-11.47516 0.66517,-17.20464 0.24606,-4.93071 0.6243,-9.85009 0.99752,-14.77209 0.26746,-3.52789 0.38263,-7.06417 0.43583,-10.60095 0.0257,-2.11295 0.0196,-4.22612 0.0159,-6.33917 -0.003,-1.38596 -0.006,-2.77193 -0.0142,-4.15787 -0.0727,-0.16037 -2.63645,-2.28056 1.65455,0.23907 0.18426,0.1082 -0.18132,0.38798 -0.24966,0.59044 -0.0406,0.12032 -0.45947,1.71304 -0.46413,1.73067 -0.89098,3.00786 -1.96469,5.96183 -3.13646,8.87065 -1.5565,3.96909 -3.21708,7.8816 -5.087938,11.71266 -1.266539,2.54296 -2.594372,5.05639 -4.014723,7.51706 -0.730859,1.25846 -0.971538,1.5396 -2.929757,0.28312 -0.06127,-0.0393 0.0661,-1.21084 0.112761,-1.69488 0.552449,-3.13114 1.664525,-6.13144 2.649715,-9.14523 1.50716,-4.52226 3.394689,-8.89771 5.422992,-13.20657 1.58038,-2.99841 3.20201,-6.08076 5.65699,-8.46475 0.48096,-0.33492 0.71447,-0.62443 1.32766,-0.61685 3.23264,0.04 3.0913,0.0769 4.70884,2.37921 1.81175,2.92568 3.4532,5.95088 5.10143,8.97012 2.14961,3.90007 4.39701,7.7455 6.41061,11.71881 1.45845,3.03474 2.94968,6.05483 4.82491,8.85618 0.79254,1.2813 1.70529,2.50779 2.86494,3.47752 0,0 -2.1124,0.18185 -2.1124,0.18185 l 0,0 c -1.13724,-1.01223 -2.05622,-2.23835 -2.84692,-3.53637 -1.85829,-2.81609 -3.33982,-5.84411 -4.79856,-8.88205 -2.015,-3.97056 -4.25487,-7.81834 -6.41201,-11.71224 -1.65282,-3.01351 -3.29777,-6.03476 -5.13186,-8.94342 -0.43371,-0.59717 -0.76692,-1.13752 -1.3274,-1.62194 -0.19435,-0.16798 -0.85163,-0.2748 -0.64304,-0.42472 0.39785,-0.28596 0.97525,-0.0975 1.46081,-0.16306 0.46678,-0.063 -2.18703,0.10916 -1.32612,0.48795 -2.50275,2.3156 -4.10475,5.41474 -5.69724,8.38467 -2.03217,4.29668 -3.917611,8.6635 -5.410359,13.18094 -0.972431,2.99897 -2.069641,5.98511 -2.611616,9.09967 -0.02773,0.30525 -0.06435,0.60982 -0.0832,0.91575 -0.01464,0.23758 0.190397,0.59745 -0.01721,0.71388 -0.595326,0.33387 -1.340914,0.25863 -2.004181,0.41975 -0.04897,0.0119 0.105286,0.058 0.147926,0.0312 0.169426,-0.10669 0.509599,-0.73154 0.55125,-0.80022 1.446468,-2.44681 2.78014,-4.95902 4.053335,-7.49978 1.877323,-3.82303 3.542375,-7.72769 5.085455,-11.69759 1.16376,-2.89941 2.22478,-5.84573 3.10267,-8.84521 0.05,-0.19349 0.54517,-2.31494 0.70022,-2.38286 1.39245,-0.60989 2.27796,-1.21865 2.59584,-0.12361 -0.005,1.38593 -0.004,2.77188 -0.003,4.15782 0.002,2.11439 0.003,4.22887 -0.0299,6.34309 -0.0701,3.54088 -0.19173,7.08132 -0.46725,10.61302 -0.37748,4.9206 -0.76454,9.83834 -1.01145,14.76801 -0.32878,5.72537 -0.46076,11.46267 -0.67954,17.19305 -0.004,6.47796 -0.008,12.95592 -0.006,19.43387 0.006,6.84842 0.0179,13.69718 0.12754,20.54488 0.13403,7.01052 0.39165,14.01676 0.58422,21.02569 0.0167,7.2679 0.0388,14.53667 0.22932,21.80254 0.21941,7.32097 0.65299,14.63229 0.83672,21.95377 0.15633,7.21731 0.22745,14.43623 -0.35661,21.64009 -0.44302,6.54082 -0.87055,13.08284 -1.22839,19.62889 -0.36337,5.41466 -0.82479,10.82195 -1.17539,16.23763 -0.17131,3.73803 -0.50097,7.47795 -0.33221,11.22154 0.0918,2.30341 0.26547,4.59986 0.63624,6.87757 0.27581,2.37188 0.29697,4.7687 0.64186,7.135 0,0 -2.11936,0.0264 -2.11936,0.0264 z"
       inkscape:connector-curvature="0" />
    <path
       style="color:#000000;display:inline;overflow:visible;visibility:visible;fill:#000000;fill-opacity:1;fill-rule:nonzero;stroke:#000000;stroke-width:0.66000003;stroke-linecap:butt;stroke-miterlimit:4;stroke-dasharray:none;stroke-dashoffset:0;stroke-opacity:1;marker:none;enable-background:accumulate"
       id="path4236"
       d="m 136.68704,434.05205 c 2.00191,-1.08119 4.14622,-1.8749 6.31746,-2.54031 1.46167,-0.43916 2.9639,-0.64873 4.48259,-0.73418 1.02922,-0.0543 1.94072,-0.0637 2.95197,0.31229 0.0105,0.004 -0.32459,0.005 -1.30399,0.0106 -2.62187,0.004 -5.24374,9.5e-4 -7.86561,-6.1e-4 -2.02609,-8.9e-4 -4.05218,-10e-4 -6.07827,-6.5e-4 -0.62137,1.4e-4 -1.24274,3.9e-4 -1.86411,6.1e-4 -0.15166,5e-5 -0.60663,1.8e-4 -0.45497,2.4e-4 1.51076,5.8e-4 2.38011,-3.4e-4 1.48811,5.1e-4 -0.38646,-0.15273 1.08243,0.19137 1.15536,0.20312 1.51546,0.17723 3.04573,0.16648 4.56928,0.17878 0.30835,0.001 0.61671,0.003 0.92506,0.004 0.65086,0.002 2.60345,0.003 1.95259,0.002 -2.80733,-0.006 0.12883,-0.002 0.60566,-0.002 1.30298,0.0919 2.56505,-0.0877 3.82261,-0.40753 1.00992,-0.17492 -0.40004,-0.60016 -0.71077,-0.73442 -1.14572,-0.27987 -2.22491,-0.76243 -3.35647,-1.08979 -0.39651,-0.22081 -1.22466,-0.0524 -1.45119,-0.4717 -0.018,-0.0527 -0.036,-0.10547 -0.054,-0.1582 0,0 2.1366,-0.0848 2.1366,-0.0848 l 0,0 c 0.0168,0.0304 0.0336,0.0608 0.0505,0.0913 0.46161,0.15585 0.96973,0.172 1.42622,0.35246 1.1265,0.35239 2.22569,0.78905 3.35917,1.11745 0.44465,0.2083 1.85951,0.91263 0.71,1.2572 -1.26392,0.33465 -2.52888,0.56477 -3.84467,0.45854 -2.55222,0.002 -5.10447,0.007 -7.65667,-0.005 -1.53045,-0.0144 -3.07036,-8.2e-4 -4.5894,-0.21199 -0.28557,-0.0566 -1.74215,-0.36104 -1.15754,-0.83216 1.67605,0.002 3.35209,-5e-5 5.02813,0.002 2.02275,10e-4 4.0455,10e-4 6.06825,0.002 0.35333,1.3e-4 5.41003,0.005 2.05959,10e-4 -0.54421,-6.7e-4 2.11235,3.3e-4 1.63261,-0.002 1.40057,-0.006 2.43115,0.0988 3.94083,0.31178 0.12372,0.0174 -0.24989,-8.8e-4 -0.37483,-2.2e-4 -0.48562,0.003 -0.51129,0.006 -1.02127,0.0176 -1.52015,0.0703 -3.02624,0.25246 -4.49273,0.6811 -2.16535,0.64337 -4.30287,1.42741 -6.29824,2.49448 0,0 -2.10781,-0.22249 -2.10781,-0.22249 z"
       inkscape:connector-curvature="0" />
    <path
       style="color:#000000;display:inline;overflow:visible;visibility:visible;fill:#000000;fill-opacity:1;fill-rule:nonzero;stroke:#000000;stroke-width:0.66000003;stroke-linecap:butt;stroke-miterlimit:4;stroke-dasharray:none;stroke-dashoffset:0;stroke-opacity:1;marker:none;enable-background:accumulate"
       id="path4238"
       d="m 193.11631,401.98253 c 1.90568,-0.72183 3.85204,-1.33271 5.78551,-1.97757 0.8527,-0.29388 1.73236,-0.50402 2.623,-0.64282 0.45343,-0.15567 -0.0781,0.25915 0.10085,0.29685 1.41307,0.29776 2.57041,-0.001 0.63423,0.007 -1.27777,0.22435 -2.58089,0.36019 -3.84572,0.6501 -1.08669,0.33608 -2.19988,0.55733 -3.32754,0.69492 -0.67294,0.0889 -3.85409,0.34674 -2.70736,-0.61609 1.17548,-0.3332 2.41925,-0.47037 3.63155,-0.6683 1.61109,-0.13857 3.18798,-0.48291 4.77445,-0.78006 0.75217,-0.12862 1.50865,-0.2326 2.26798,-0.30833 0.0318,-0.003 0.1042,-0.0395 0.0952,-0.009 -0.0348,0.11901 -0.0824,0.25487 -0.18684,0.32168 -0.0889,0.0568 -0.42196,1.7e-4 -0.31647,2e-4 3.40768,10e-4 1.31446,-0.019 0.56286,0.072 -1.36922,0.28408 -2.75276,0.45917 -4.14638,0.56006 -0.86186,0.0584 -1.72533,0.0837 -2.58896,0.0931 -0.77692,0.005 -0.11527,0.0196 -1.8921,-0.60152 0,0 2.1176,0.17952 2.1176,0.17952 l 0,0 c -2.56132,0.0912 -3.33996,0.0869 -2.33424,0.0896 0.86821,-0.003 1.73638,-0.0242 2.60309,-0.0778 1.39114,-0.0904 2.77659,-0.24249 4.13981,-0.54447 0.92951,-0.16043 3.69418,-0.27586 3.96547,-0.10154 0.52428,0.33688 0.23773,0.32507 0.0953,0.33352 -0.76487,0.061 -1.52562,0.16704 -2.28338,0.28588 -1.58925,0.29212 -3.1638,0.66114 -4.7785,0.78489 -1.20506,0.18766 -2.40161,0.40841 -3.60549,0.58231 -1.15326,0.518 -3.91152,0.15796 -1.5182,0.0956 1.12787,-0.12294 2.24722,-0.31739 3.3295,-0.66719 1.25859,-0.33515 2.58033,-0.39629 3.84981,-0.70075 0.76762,-0.003 4.96548,-0.21669 3.47773,0.33263 -0.89663,0.1132 -1.78264,0.31615 -2.63985,0.60225 -1.93302,0.63054 -3.86926,1.25792 -5.7765,1.96026 0,0 -2.10641,-0.2467 -2.10641,-0.2467 z"
       inkscape:connector-curvature="0" />
    <path
       style="color:#000000;display:inline;overflow:visible;visibility:visible;fill:#000000;fill-opacity:1;fill-rule:nonzero;stroke:#000000;stroke-width:0.66000003;stroke-linecap:butt;stroke-miterlimit:4;stroke-dasharray:none;stroke-dashoffset:0;stroke-opacity:1;marker:none;enable-background:accumulate"
       id="path4240"
       d="m 245.97461,377.05458 c 2.24614,-0.79146 4.55178,-1.33709 6.90306,-1.69437 1.53086,-0.27733 3.04024,-0.66059 4.57971,-0.88963 -0.003,0.0115 1.47446,-0.17001 1.46712,-0.13401 -0.0251,0.12327 -0.12539,0.21816 -0.18809,0.32724 4.32901,-0.15117 -0.60699,0.0882 -1.40684,0.19395 -2.13748,0.3135 -4.29736,0.40802 -6.45392,0.47684 -1.91583,0.0475 -3.83235,0.0536 -5.74866,0.0555 -1.1335,-0.007 -2.26705,0.003 -3.40057,-0.001 -0.0393,-1.4e-4 -0.10997,0.0377 -0.11785,-7.9e-4 -0.0826,-0.40378 0.0286,-0.33323 0.26549,-0.33455 1.47629,0.0758 2.93435,-0.1368 4.39599,-0.31034 2.41054,-0.38374 4.7806,-0.96551 7.18631,-1.37683 1.51079,-0.34366 3.02507,-0.67243 4.53586,-1.01552 0.25895,-0.12936 0.0572,0.15211 -0.0451,0.1754 -0.50121,0.1142 -2.65717,-0.0894 0.86463,0.0612 -1.32758,0.29594 -2.67349,0.46411 -4.02832,0.56436 -1.23162,0.0743 -2.46584,0.0872 -3.69934,0.0954 -0.93567,-0.069 -2.88081,0.82479 -2.6906,-0.40308 0,0 2.13775,0.0622 2.13775,0.0622 l 0,0 c -0.4964,0.002 -2.66481,0.009 -1.5506,0.009 1.23631,-0.004 2.47323,-0.0145 3.70806,-0.0801 1.35121,-0.0897 2.69872,-0.23345 4.01912,-0.54664 0.87394,-0.0328 1.74764,-0.0728 2.62181,-0.0985 0.22171,-0.007 0.76781,-0.084 0.90668,0.18327 0.0936,0.18015 -0.0258,0.1992 -0.13323,0.26297 -1.51709,0.3579 -3.05166,0.64616 -4.56466,1.0245 -2.40772,0.39971 -4.77689,0.97692 -7.18229,1.3878 -1.45461,0.17235 -2.90296,0.41482 -4.37267,0.33871 -0.23652,-1.9e-4 -0.33645,0.069 -0.26207,-0.3322 0.007,-0.0365 3.65169,0.0498 -0.68672,0.004 1.92035,2.7e-4 3.84088,-0.003 5.76082,-0.0471 2.15243,-0.0634 4.30921,-0.14732 6.44307,-0.45641 1.86809,-0.25714 3.7158,-0.29104 5.60821,-0.22408 0.0639,0.11003 0.16693,0.20528 0.19156,0.33009 0.008,0.0411 -0.0837,0.003 -0.12548,0.005 -0.45206,0.0205 -0.90372,0.046 -1.35253,0.10751 -1.54935,0.20653 -3.06527,0.59241 -4.59932,0.88531 -2.34496,0.33888 -4.65267,0.85223 -6.88232,1.66923 0,0 -2.10409,-0.27348 -2.10409,-0.27348 z"
       inkscape:connector-curvature="0" />
    <path
       style="color:#000000;display:inline;overflow:visible;visibility:visible;fill:#000000;fill-opacity:1;fill-rule:nonzero;stroke:#000000;stroke-width:0.66000003;stroke-linecap:butt;stroke-miterlimit:4;stroke-dasharray:none;stroke-dashoffset:0;stroke-opacity:1;marker:none;enable-background:accumulate"
       id="path4242"
       d="m 300.45512,335.59902 c -1.92494,0.70279 -3.83256,1.46241 -5.78564,2.08593 -0.82407,0.27255 -1.67784,0.42813 -2.53552,0.54552 0.30567,-0.89618 0.21458,-0.1445 -1.74758,-0.35648 -0.10617,-0.0115 0.19921,-0.077 0.29963,-0.11333 0.64923,-0.2349 0.0931,-0.0136 0.81479,-0.31411 1.14506,-0.40616 2.25375,-0.91544 3.41526,-1.27433 0.77304,-0.17139 1.4833,-0.53858 2.19466,-0.87567 0.61814,-0.47572 3.22814,-0.328 1.92967,0.4691 -0.96403,0.49654 -2.02917,0.72085 -3.03851,1.10122 -1.69956,0.70608 -1.44831,0.6357 -3.5042,-0.0152 0.98384,-0.86588 2.24487,-1.27657 3.45042,-1.73135 1.21918,-0.37766 2.45681,-0.68072 3.6819,-1.04065 0.62652,-0.20173 1.27267,-0.333 1.92312,-0.42811 1.56285,0.57889 2.32377,0.16839 1.24197,0.76866 -0.46426,0.25761 -0.90891,0.45342 -1.41248,0.62132 -1.14244,0.27469 -2.31253,0.27729 -3.4597,0.52891 -1.53357,0.38292 -3.16017,0.22994 -4.70504,-0.0469 -0.23601,-0.0482 -0.47561,-0.0862 -0.70552,-0.15945 0.16181,-0.68718 1.22026,-0.82401 1.8145,-1.06172 1.17919,-0.35191 2.38262,-0.60013 3.57027,-0.93004 1.11304,-0.2945 2.26402,-0.38297 3.40949,-0.44104 0.36892,-0.19346 4.24647,0.29345 2.79652,0.3135 0,0 -2.1062,-0.33127 -2.1062,-0.33127 l 0,0 c 2.3511,-0.0179 4.03664,0.43135 1.41169,0.34072 -1.14279,0.0481 -2.29205,0.12054 -3.40692,0.39391 -1.18679,0.32129 -2.37275,0.61248 -3.56418,0.90757 -0.2678,0.10442 -1.65681,0.77694 -1.80124,0.53192 0.23038,0.0488 0.46041,0.0997 0.69276,0.13868 0.3354,0.0565 1.91327,0.10964 1.14214,0.15863 -3.39297,0.21556 -1.34799,0.0606 -0.65202,-0.10003 1.14604,-0.26588 2.29879,-0.3071 3.45546,-0.5122 1.88068,-0.54669 1.95144,-1.34639 4.39377,-0.81454 -0.6532,0.0768 -1.30445,0.1957 -1.93235,0.39381 -1.22646,0.35775 -2.4553,0.68261 -3.68547,1.02485 -1.18898,0.43722 -2.40962,0.8464 -3.43079,1.61892 -4.65656,0.29223 -1.87024,0.2114 -0.72726,-0.38429 1.00237,-0.39101 2.05746,-0.61338 3.0307,-1.07857 0.79509,-0.33009 3.71621,-0.53886 2.30865,0.004 -0.71895,0.33948 -1.43366,0.7299 -2.21071,0.90666 -1.16665,0.33125 -2.26019,0.86153 -3.40815,1.24835 -0.91954,0.42461 -3.2832,1.48323 -3.59712,0.23997 0.84935,-0.17512 1.73618,-0.19568 2.55645,-0.51422 1.95509,-0.60153 3.85344,-1.37201 5.77637,-2.06548 0,0 2.10641,0.2467 2.10641,0.2467 z"
       inkscape:connector-curvature="0" />
    <path
       style="color:#000000;display:inline;overflow:visible;visibility:visible;fill:#000000;fill-opacity:1;fill-rule:nonzero;stroke:#000000;stroke-width:0.66000003;stroke-linecap:butt;stroke-miterlimit:4;stroke-dasharray:none;stroke-dashoffset:0;stroke-opacity:1;marker:none;enable-background:accumulate"
       id="path4244"
       d="m 104.36964,428.91882 c 1.60423,-1.74206 3.34782,-3.34227 5.22171,-4.78839 2.00361,-1.38796 4.09452,-2.64229 6.14051,-3.96555 2.23901,-1.39655 4.47604,-2.79585 6.70615,-4.20673 2.23903,-1.45261 4.4838,-2.89372 6.63021,-4.48127 2.37821,-1.66945 4.62285,-3.51024 6.84458,-5.37881 2.47007,-2.01429 4.83305,-4.14773 7.19055,-6.29075 2.13919,-1.9065 4.31624,-3.77046 6.47907,-5.65081 1.96439,-1.63678 3.99963,-3.19138 6.16865,-4.54712 1.87274,-1.17788 3.82127,-2.23005 5.68913,-3.41493 1.91263,-1.23213 3.7618,-2.55707 5.65089,-3.8255 2.43836,-1.56033 4.87608,-3.12178 7.30835,-4.69204 2.66442,-1.59804 5.08899,-3.54533 7.51014,-5.48152 2.66549,-2.14905 5.43282,-4.16132 8.2272,-6.13803 2.86586,-1.95108 5.81262,-3.77341 8.76892,-5.58218 3.06581,-1.87375 6.0562,-3.86924 9.0397,-5.87081 2.80971,-2.17734 5.89048,-3.92058 8.9478,-5.71138 3.13766,-1.887 6.42886,-3.49887 9.6574,-5.22166 3.01419,-1.61383 6.05806,-3.16932 9.04953,-4.82509 2.51213,-1.38257 4.97654,-2.85034 7.43422,-4.32698 2.41363,-1.54874 5.07246,-2.62714 7.65061,-3.85963 2.63231,-1.22818 5.18558,-2.6075 7.73067,-4.00425 2.44994,-1.43608 4.92104,-2.83474 7.37164,-4.26961 2.62397,-1.46942 5.08916,-3.1975 7.6291,-4.80321 2.74657,-1.59491 5.42632,-3.29994 8.16119,-4.91469 2.8289,-1.6133 5.57989,-3.36009 8.34489,-5.07987 2.51656,-1.52254 5.07087,-2.98183 7.5939,-4.49348 2.2949,-1.36467 4.54474,-2.80473 6.76883,-4.28163 1.98797,-1.28345 3.90419,-2.67065 5.88799,-3.96062 1.38587,-0.93177 2.84047,-1.75603 4.21962,-2.69749 0.80432,-0.54598 1.5968,-1.10412 2.33095,-1.74278 0.33826,-0.40603 0.71181,-0.73244 1.1905,-0.95729 0,0 2.12289,0.24944 2.12289,0.24944 l 0,0 c -0.49201,0.18629 -0.87366,0.45843 -1.19148,0.88497 -0.71181,0.67534 -1.54218,1.20861 -2.34377,1.77032 -1.37485,0.95663 -2.84312,1.76815 -4.23326,2.70212 -1.9882,1.28582 -3.90713,2.67059 -5.89435,3.95753 -2.22428,1.48204 -4.47739,2.92287 -6.77368,4.29095 -2.52172,1.51507 -5.07897,2.97068 -7.59835,4.48976 -2.76825,1.71786 -5.51877,3.46913 -8.34839,5.0844 -2.73528,1.60969 -5.40755,3.32188 -8.15615,4.90887 -2.54348,1.60143 -5.00541,3.33572 -7.62685,4.81041 -2.4519,1.43567 -4.92468,2.8343 -7.37359,4.27523 -2.54618,1.39823 -5.09696,2.7857 -7.73027,4.01596 -2.5731,1.23461 -5.23491,2.29739 -7.64784,3.84005 -2.46035,1.47785 -4.92546,2.95021 -7.44038,4.33378 -2.99463,1.65783 -6.04197,3.21433 -9.06102,4.82704 -3.2258,1.72305 -6.51482,3.3338 -9.65378,5.21356 -3.05057,1.79555 -6.14695,3.50981 -8.94538,5.69912 -2.98627,2.00149 -5.97577,4.0023 -9.04238,5.87905 -2.94997,1.81235 -5.8986,3.62427 -8.76473,5.569 -2.79414,1.97084 -5.55925,3.97999 -8.22273,6.12571 -2.41911,1.94409 -4.84228,3.90115 -7.50818,5.50317 -2.42894,1.56954 -4.8616,3.13264 -7.29855,4.68915 -1.88708,1.27003 -3.73825,2.58996 -5.64377,3.83125 -1.86364,1.19645 -3.82118,2.23823 -5.69642,3.41708 -2.17547,1.33382 -4.2016,2.89082 -6.1693,4.51312 -2.16497,1.87933 -4.34223,3.74387 -6.48675,5.64559 -2.36173,2.14048 -4.71705,4.28458 -7.18929,6.29881 -2.22373,1.86908 -4.4579,3.72616 -6.84185,5.39181 -2.14377,1.59648 -4.38716,3.04366 -6.6295,4.49706 -2.22976,1.40902 -4.46229,2.81302 -6.70284,4.20468 -2.04025,1.32537 -4.12617,2.57957 -6.13747,3.94944 -1.87494,1.42053 -3.60591,3.01195 -5.20006,4.74286 0,0 -2.11513,-0.14719 -2.11513,-0.14719 z"
       inkscape:connector-curvature="0" />
    <path
       style="color:#000000;display:inline;overflow:visible;visibility:visible;fill:#000000;fill-opacity:1;fill-rule:nonzero;stroke:#000000;stroke-width:0.66000003;stroke-linecap:butt;stroke-miterlimit:4;stroke-dasharray:none;stroke-dashoffset:0;stroke-opacity:1;marker:none;enable-background:accumulate"
       id="path4246"
       d="m 125.97275,460.48062 c 2.2193,-1.08463 4.31753,-2.38072 6.42315,-3.66496 2.10423,-1.20822 4.17853,-2.46756 6.21661,-3.78419 2.2434,-1.44404 4.53187,-2.81564 6.8035,-4.2142 2.35933,-1.36413 4.62936,-2.88305 7.01001,-4.20858 2.26609,-1.21935 4.54353,-2.41318 6.75242,-3.73475 2.25463,-1.19748 4.52081,-2.36993 6.74755,-3.61878 2.10294,-1.13137 4.26091,-2.15534 6.38146,-3.25189 1.92392,-0.96455 3.86812,-1.8899 5.77905,-2.88001 1.88613,-1.13653 3.82254,-2.18604 5.70791,-3.32373 2.07301,-1.20852 4.0083,-2.63131 5.98709,-3.98402 2.04481,-1.47302 4.3481,-2.5277 6.53384,-3.77001 2.28356,-1.29352 4.51012,-2.67945 6.83679,-3.89518 2.24112,-1.12045 4.32383,-2.51997 6.5133,-3.72958 2.29843,-1.09198 4.48092,-2.40051 6.71947,-3.6043 2.2697,-1.11428 4.43517,-2.42578 6.6864,-3.57325 2.36622,-1.07488 4.65447,-2.30401 6.87733,-3.64821 2.1764,-1.08606 4.2444,-2.36564 6.37042,-3.53997 1.86061,-1.05043 3.72035,-2.10151 5.61182,-3.09616 1.67313,-1.00953 3.4228,-1.87129 5.16756,-2.74783 1.65065,-0.96277 3.42648,-1.67933 5.09513,-2.60754 1.53285,-0.88417 3.08981,-1.70769 4.69258,-2.45618 1.65156,-0.68055 3.23823,-1.51688 4.74844,-2.46915 1.46844,-0.89983 2.92034,-1.83197 4.33314,-2.81748 1.36886,-0.95096 2.82623,-1.75473 4.28166,-2.56166 1.26372,-0.84521 2.4578,-1.78416 3.6983,-2.66187 1.44339,-1.06193 2.94988,-2.04161 4.4805,-2.97297 1.50915,-0.87204 2.90574,-1.90722 4.2195,-3.04813 1.26076,-0.98122 2.51705,-1.9659 3.71689,-3.02133 1.01835,-0.97706 2.10513,-1.8771 3.11162,-2.86581 1.0165,-0.88751 1.9371,-1.87467 2.94117,-2.77617 1.02432,-0.84541 2.13861,-1.59194 3.25806,-2.30723 0.99911,-0.69997 2.08019,-1.28988 3.05991,-2.0147 0.68348,-0.57911 1.39137,-1.10582 2.129,-1.61245 0.59024,-0.4215 1.25794,-0.6974 1.88858,-1.04705 0.49039,-0.33445 1.07071,-0.43593 1.61446,-0.63739 0.32582,-0.16905 0.17055,-0.0824 0.46675,-0.25835 0,0 2.12318,0.21738 2.12318,0.21738 l 0,0 c -0.29988,0.18991 -0.14312,0.0944 -0.47101,0.28547 -0.5125,0.26977 -1.13124,0.26655 -1.61517,0.62114 -0.63359,0.3366 -1.27487,0.63769 -1.8873,1.02025 -0.71119,0.53366 -1.47914,0.99032 -2.13172,1.60536 -0.95598,0.76152 -2.0804,1.30794 -3.06674,2.03416 -1.12301,0.69319 -2.21974,1.45613 -3.25405,2.27296 -1.01757,0.88395 -1.91746,1.88943 -2.94304,2.76392 -1.00199,0.99936 -2.09554,1.89486 -3.11464,2.87751 -1.19488,1.0622 -2.44784,2.05328 -3.71916,3.02233 -1.3133,1.15619 -2.71016,2.20635 -4.22741,3.08464 -1.53307,0.91711 -3.0312,1.90399 -4.47302,2.95816 -1.24431,0.88188 -2.451,1.8107 -3.70141,2.68449 -1.44876,0.81086 -2.91324,1.59332 -4.28133,2.53955 -1.40771,0.99622 -2.86464,1.92603 -4.33451,2.82685 -1.50438,0.97023 -3.09528,1.81795 -4.75272,2.49625 -1.59876,0.75073 -3.16396,1.54972 -4.69112,2.44048 -1.66202,0.94641 -3.4479,1.6459 -5.09648,2.61701 -1.74164,0.88299 -3.50579,1.71768 -5.16961,2.74468 -1.89791,0.9837 -3.75442,2.04284 -5.61656,3.09156 -2.13456,1.15564 -4.18272,2.47198 -6.37318,3.53012 -2.22049,1.3537 -4.50723,2.59456 -6.8792,3.66448 -2.25846,1.13005 -4.41082,2.46407 -6.68407,3.56863 -2.24461,1.19163 -4.41475,2.52323 -6.71962,3.60222 -2.20062,1.19144 -4.27091,2.61575 -6.5149,3.73377 -2.32973,1.20751 -4.5571,2.58731 -6.83569,3.88715 -2.17891,1.2478 -4.48352,2.29235 -6.53136,3.75325 -1.98154,1.35105 -3.91243,2.78241 -5.9841,3.99574 -1.88298,1.14684 -3.82853,2.18453 -5.70803,3.33733 -1.90611,1.00041 -3.85506,1.91828 -5.78081,2.88011 -2.11636,1.10561 -4.28044,2.11859 -6.38688,3.24443 -2.22384,1.25119 -4.48241,2.43523 -6.74606,3.61283 -2.20614,1.32955 -4.48293,2.52799 -6.75362,3.74242 -2.39026,1.30468 -4.64778,2.84364 -7.01079,4.19823 -2.2681,1.40035 -4.55751,2.76645 -6.79883,4.20996 -2.03546,1.32245 -4.10865,2.58642 -6.21646,3.79037 -2.10716,1.27352 -4.189,2.59134 -6.40614,3.67236 0,0 -2.10781,-0.22249 -2.10781,-0.22249 z"
       inkscape:connector-curvature="0" />
    <path
       style="color:#000000;display:inline;overflow:visible;visibility:visible;fill:#000000;fill-opacity:1;fill-rule:nonzero;stroke:#000000;stroke-width:0.66000003;stroke-linecap:butt;stroke-miterlimit:4;stroke-dasharray:none;stroke-dashoffset:0;stroke-opacity:1;marker:none;enable-background:accumulate"
       id="path4248"
       d="m 107.85403,468.93007 c 1.21692,-1.8434 2.70193,-3.48149 4.34809,-4.94726 1.29682,-1.17266 2.84277,-2.0003 4.46768,-2.61779 1.20657,-0.45684 2.40768,-0.9248 3.5818,-1.46036 0,0 2.10254,0.24004 2.10254,0.24004 l 0,0 c -1.17041,0.55115 -2.37619,1.01401 -3.5833,1.47739 -1.62337,0.58039 -3.1712,1.39116 -4.4687,2.53952 -1.65045,1.43392 -3.13445,3.05665 -4.32979,4.89316 0,0 -2.11832,-0.1247 -2.11832,-0.1247 z"
       inkscape:connector-curvature="0" />
    <path
       style="color:#000000;display:inline;overflow:visible;visibility:visible;fill:#000000;fill-opacity:1;fill-rule:nonzero;stroke:#000000;stroke-width:0.66000003;stroke-linecap:butt;stroke-miterlimit:4;stroke-dasharray:none;stroke-dashoffset:0;stroke-opacity:1;marker:none;enable-background:accumulate"
       id="path4250"
       d="m 139.85658,365.8453 c -0.42205,-0.34963 -0.86121,-0.70016 -1.16512,-1.16247 -0.27224,-0.54389 -0.29871,-0.3941 0.57185,-0.2795 0.0357,0.60209 0.16189,1.20042 0.25556,1.79695 0.24909,1.26323 0.41492,2.54198 0.55247,3.82167 0.14131,1.46489 0.17548,2.93706 0.19813,4.40767 0.0402,0.74072 -0.0742,1.50177 0.12982,2.22508 0.0225,0.0156 0.0449,0.0312 0.0674,0.0468 0,0 -0.75206,0.0595 -0.75206,0.0595 l 0,0 c -0.0224,-0.0289 -0.0448,-0.0577 -0.0672,-0.0866 -0.18646,-0.73354 -0.0807,-1.49569 -0.11343,-2.24371 -0.0192,-1.46838 -0.0511,-2.93836 -0.1946,-4.40083 -0.13917,-1.27876 -0.30979,-2.556 -0.5622,-3.8178 -0.0979,-0.60091 -0.22852,-1.20344 -0.26716,-1.81049 0.95535,-0.19726 0.63596,-0.29868 0.93142,0.2368 0.31075,0.45067 0.73996,0.79922 1.16189,1.14137 0,0 -0.74675,0.0656 -0.74675,0.0656 z"
       inkscape:connector-curvature="0" />
    <path
       style="color:#000000;display:inline;overflow:visible;visibility:visible;fill:#000000;fill-opacity:1;fill-rule:nonzero;stroke:#000000;stroke-width:0.66000003;stroke-linecap:butt;stroke-miterlimit:4;stroke-dasharray:none;stroke-dashoffset:0;stroke-opacity:1;marker:none;enable-background:accumulate"
       id="path4252"
       d="m 197.73846,368.43968 c -0.56429,0.91253 -0.77706,1.95942 -0.99538,2.99342 -0.19486,1.12599 -0.38804,2.25331 -0.53265,3.38717 -0.044,0.3349 -0.0778,0.66541 -0.0642,1.00255 0,0 -0.74885,0.003 -0.74885,0.003 l 0,0 c -0.01,-0.34137 0.0256,-0.67585 0.0715,-1.01466 0.14925,-1.13542 0.34392,-2.26458 0.53829,-3.39287 0.21784,-1.042 0.4323,-2.0938 0.98239,-3.02225 0,0 0.74894,0.0441 0.74894,0.0441 z"
       inkscape:connector-curvature="0" />
    <path
       style="color:#000000;display:inline;overflow:visible;visibility:visible;fill:#000000;fill-opacity:1;fill-rule:nonzero;stroke:#000000;stroke-width:0.66000003;stroke-linecap:butt;stroke-miterlimit:4;stroke-dasharray:none;stroke-dashoffset:0;stroke-opacity:1;marker:none;enable-background:accumulate"
       id="path4254"
       d="m 250.83189,363.18393 c -0.23027,0.93842 -0.32635,1.9026 -0.46449,2.85746 -0.16828,0.8387 -0.13219,1.68334 -0.069,2.52927 0.068,0.34645 0.0279,0.18447 0.11541,0.48712 0,0 -0.74972,0.0205 -0.74972,0.0205 l 0,0 c -0.085,-0.31213 -0.0461,-0.1451 -0.11191,-0.5022 -0.0606,-0.85131 -0.0938,-1.70182 0.0757,-2.54533 0.13821,-0.95702 0.23608,-1.92216 0.45499,-2.86519 0,0 0.74895,0.0183 0.74895,0.0183 z"
       inkscape:connector-curvature="0" />
    <path
       style="color:#000000;display:inline;overflow:visible;visibility:visible;fill:#000000;fill-opacity:1;fill-rule:nonzero;stroke:#000000;stroke-width:0.66000003;stroke-linecap:butt;stroke-miterlimit:4;stroke-dasharray:none;stroke-dashoffset:0;stroke-opacity:1;marker:none;enable-background:accumulate"
       id="path4256"
       d="m 296.94459,365.68671 c 0.36555,0.98283 0.44294,2.01313 0.46316,3.05063 -0.0381,0.79997 -0.16062,1.59231 -0.24231,2.38839 -0.0279,0.25985 -0.0384,0.52101 -0.0556,0.7816 -0.26206,-0.038 -0.53389,-0.0336 -0.78619,-0.11398 -0.0493,-0.0157 -0.0286,-0.0995 -0.0412,-0.14969 -0.0815,-0.32405 -0.10676,-0.65507 -0.13136,-0.98728 -0.0419,-0.83689 -0.041,-1.67528 -0.0436,-2.51302 0.0138,-0.83166 -0.10928,-1.65744 -0.18437,-2.48409 -0.005,-0.47019 -0.073,-0.9184 -0.18524,-1.37202 -0.064,-0.24279 -0.10244,-0.49162 -0.13348,-0.74053 -0.0123,-0.0761 -0.01,-0.15293 -0.009,-0.22964 -0.009,-0.15723 -10e-4,-0.28412 0.0746,-0.42355 0.0764,-0.10199 0.13591,-0.19706 0.16365,-0.32177 0.009,-0.04 0.0127,-0.0807 0.0166,-0.12133 0,0 0.75697,0.006 0.75697,0.006 l 0,0 c -0.004,0.044 -0.009,0.0879 -0.0181,0.13128 -0.0284,0.13438 -0.0732,0.24111 -0.16542,0.3451 -0.0773,0.12644 -0.0834,0.23582 -0.0722,0.38447 -4.3e-4,0.0736 -10e-4,0.14723 0.009,0.22031 0.0279,0.24605 0.0662,0.49148 0.12913,0.73124 0.11353,0.45721 0.1741,0.91038 0.18016,1.38363 0.0728,0.82892 0.193,1.65691 0.181,2.49049 0.003,0.83594 10e-4,1.67264 0.0483,2.50754 0.0212,0.26636 0.0413,0.53215 0.0935,0.79474 0.03,0.15123 0.0872,0.32756 0.0852,0.32832 -0.22755,0.0898 -0.48281,0.0789 -0.72422,0.11839 0.0365,-0.25522 0.0267,-0.5184 0.0647,-0.77428 0.0869,-0.79269 0.20971,-1.58216 0.25037,-2.37913 -0.0178,-1.03001 -0.0944,-2.0538 -0.47163,-3.02513 0,0 0.74839,-0.0269 0.74839,-0.0269 z"
       inkscape:connector-curvature="0" />
  </g>
</svg>
