<?xml version="1.0" encoding="UTF-8" standalone="no"?>
<!-- Created with Inkscape (http://www.inkscape.org/) -->

<svg
   xmlns:dc="http://purl.org/dc/elements/1.1/"
   xmlns:cc="http://creativecommons.org/ns#"
   xmlns:rdf="http://www.w3.org/1999/02/22-rdf-syntax-ns#"
   xmlns:svg="http://www.w3.org/2000/svg"
   xmlns="http://www.w3.org/2000/svg"
   xmlns:sodipodi="http://sodipodi.sourceforge.net/DTD/sodipodi-0.dtd"
   xmlns:inkscape="http://www.inkscape.org/namespaces/inkscape"
   width="374.07312"
   height="298.31842"
   viewBox="0 0 374.07313 298.3184"
   id="svg2"
   version="1.1"
   inkscape:version="0.91 r13725"
   sodipodi:docname="hall_1.svg">
  <defs
     id="defs4" />
  <sodipodi:namedview
     id="base"
     pagecolor="#ffffff"
     bordercolor="#666666"
     borderopacity="1.0"
     inkscape:pageopacity="0.0"
     inkscape:pageshadow="2"
     inkscape:zoom="1"
     inkscape:cx="-3.8328397"
     inkscape:cy="193.45438"
     inkscape:document-units="px"
     inkscape:current-layer="layer1"
     showgrid="false"
     fit-margin-top="0"
     fit-margin-left="0"
     fit-margin-right="0"
     fit-margin-bottom="0"
     inkscape:window-width="1855"
     inkscape:window-height="1056"
     inkscape:window-x="65"
     inkscape:window-y="24"
     inkscape:window-maximized="1"
     units="px" />
  <metadata
     id="metadata7">
    <rdf:RDF>
      <cc:Work
         rdf:about="">
        <dc:format>image/svg+xml</dc:format>
        <dc:type
           rdf:resource="http://purl.org/dc/dcmitype/StillImage" />
        <dc:title></dc:title>
      </cc:Work>
    </rdf:RDF>
  </metadata>
  <g
     inkscape:label="Layer 1"
     inkscape:groupmode="layer"
     id="layer1"
     transform="translate(-109.53963,-245.46275)">
    <g
       id="g4256"
       transform="matrix(0.77622723,0,0,0.77622723,49.585949,115.59719)">
      <path
         inkscape:connector-curvature="0"
         d="m 195.05206,278.87714 c -3.13086,2.28189 -6.02379,4.88677 -8.67703,7.70575 -2.43763,2.70506 -4.38295,5.7699 -6.9079,8.3999 -2.37405,2.14732 -4.55067,4.45969 -6.63485,6.88468 -1.95522,2.36128 -3.80642,4.7858 -5.82563,7.09465 -1.65949,2.03753 -3.26916,4.11155 -4.92166,6.15836 -1.99813,2.3599 -3.51295,5.06716 -5.33262,7.5631 -2.44094,3.33153 -4.77676,6.73665 -7.1268,10.13226 -2.95346,4.07715 -6.07318,8.02603 -9.16496,11.99791 -3.30636,4.08225 -6.80266,8.01476 -10.37714,11.86322 -3.26714,3.73129 -6.5676,7.42837 -9.84811,11.14768 -3.36216,3.56308 -6.613,7.22815 -9.95822,10.80746 -2.99895,2.9853 -5.68622,6.25128 -8.45576,9.44413 -2.214721,2.53042 -4.772531,4.73228 -7.221545,7.0307 -1.675509,1.61188 -3.342023,3.22547 -5.078755,4.77432 -1.014251,0.67971 -1.921922,1.49809 -2.74057,2.40065 -0.163032,0.18906 -0.09073,0.1028 -0.218208,0.25769 0,0 -3.761809,-0.25263 -3.761809,-0.25263 l 0,0 c 0.131075,-0.17104 0.05665,-0.0771 0.225535,-0.28008 0.816761,-0.92021 1.711411,-1.79548 2.764318,-2.44157 1.746001,-1.54268 3.429434,-3.13958 5.095578,-4.76416 2.463663,-2.27195 4.993645,-4.49824 7.237283,-6.98995 2.779433,-3.19269 5.457033,-6.47614 8.470103,-9.45684 3.34993,-3.57126 6.59172,-7.24082 9.95808,-10.796 3.27397,-3.73031 6.60173,-7.40868 9.8551,-11.15775 3.58101,-3.83 7.06092,-7.7668 10.37494,-11.83077 3.09077,-3.96229 6.19801,-7.9103 9.15011,-11.97807 2.35298,-3.3937 4.67759,-6.80658 7.11232,-10.14276 1.83062,-2.49293 3.33272,-5.20854 5.31776,-7.58175 1.65529,-2.05195 3.28168,-4.11635 4.92682,-6.17245 2.01512,-2.31291 3.90192,-4.70737 5.83186,-7.09111 2.08529,-2.43197 4.23838,-4.77503 6.63713,-6.90687 2.5508,-2.61165 4.50621,-5.664 6.92236,-8.39197 2.6319,-2.8431 5.52899,-5.45775 8.65147,-7.75453 0,0 3.7208,0.3268 3.7208,0.3268 z"
         id="path4150"
         style="color:#000000;display:inline;overflow:visible;visibility:visible;fill:#000000;fill-opacity:1;fill-rule:nonzero;stroke:#000000;stroke-width:0.58134186;stroke-linecap:butt;stroke-miterlimit:4;stroke-dasharray:none;stroke-dashoffset:22.20000076;stroke-opacity:1;marker:none;enable-background:accumulate" />
      <path
         inkscape:connector-curvature="0"
         d="m 82.562605,396.21187 c -0.673072,5.42342 -0.854337,10.88968 -1.001828,16.34749 -0.161393,7.91111 -0.157887,15.82441 -0.162655,23.73681 -0.07705,7.15042 0.541402,14.28439 0.937204,21.41901 0.194884,3.50846 0.314737,7.02043 0.378373,10.53353 0.004,0.26465 0.0079,0.5293 0.01194,0.79396 0,0 -3.748077,0.004 -3.748077,0.004 l 0,0 c -0.0011,-0.26412 -0.0021,-0.52823 -0.0032,-0.79234 -0.03351,-3.50811 -0.139347,-7.01518 -0.315409,-10.5191 -0.366144,-7.14243 -0.975503,-14.28259 -0.89777,-21.4389 0.0073,-7.91543 0.0011,-15.83155 0.137193,-23.74607 0.136946,-5.46955 0.321977,-10.94297 0.930635,-16.38439 0,0 3.733552,0.0464 3.733552,0.0464 z"
         id="path4152"
         style="color:#000000;display:inline;overflow:visible;visibility:visible;fill:#000000;fill-opacity:1;fill-rule:nonzero;stroke:#000000;stroke-width:0.58134186;stroke-linecap:butt;stroke-miterlimit:4;stroke-dasharray:none;stroke-dashoffset:22.20000076;stroke-opacity:1;marker:none;enable-background:accumulate" />
      <path
         inkscape:connector-curvature="0"
         d="m 77.527951,464.78134 c 4.316539,-2.20865 9.024518,-3.42216 13.681039,-4.67196 6.971743,-1.80324 14.11451,-2.72259 21.24994,-3.58892 9.69794,-0.94347 19.42866,-1.49531 29.14143,-2.25764 11.05098,-0.78314 22.10987,-1.47863 33.17175,-2.09593 11.6555,-0.76646 23.30165,-1.66945 34.95923,-2.40236 12.73234,-0.76881 25.48649,-0.92053 38.23694,-0.77379 11.23127,0.16074 22.38682,1.46026 33.52516,2.78554 11.5953,1.37089 23.21845,2.34163 34.8812,2.87144 12.4859,0.45616 24.98231,0.4593 37.47474,0.48107 11.56223,-0.49153 23.13222,-0.81134 34.70265,-1.04209 12.84735,-0.22071 25.69553,-0.3012 38.54288,-0.0921 9.74589,0.2271 19.43521,1.4924 29.08463,2.80412 5.83562,0.67547 11.62914,1.59916 17.39645,2.7098 0.34504,0.0806 0.69009,0.16129 1.03515,0.24194 0,0 -3.70565,0.5009 -3.70565,0.5009 l 0,0 c -0.33752,-0.0772 -0.67504,-0.15431 -1.01255,-0.23146 -5.73521,-1.11525 -11.50127,-2.01634 -17.3044,-2.70184 -9.63624,-1.29874 -19.30852,-2.5672 -29.04125,-2.77109 -3.74221,-0.27311 -1.34023,-0.14584 -7.5108,-0.12455 -7.98757,0.0276 -15.97527,0.0801 -23.96184,0.21506 -13.91541,0.27118 -27.82084,0.86169 -41.73752,1.04691 -12.49914,-0.023 -25.00244,-0.0261 -37.49471,-0.49385 -11.66758,-0.54084 -23.29575,-1.52386 -34.89624,-2.89546 -11.1343,-1.32544 -22.28873,-2.59595 -33.51548,-2.75077 -10.37448,-0.49372 -20.7992,0.46062 -31.16568,0.75724 -11.65633,0.72658 -23.30056,1.63365 -34.954,2.40569 -11.05556,0.61237 -22.1073,1.316 -33.15222,2.0904 -9.69982,0.77248 -19.41844,1.31984 -29.10565,2.24782 -7.11678,0.85565 -14.23975,1.7682 -21.197293,3.54379 -4.628496,1.24359 -9.341737,2.39357 -13.617154,4.62667 0,0 -3.710752,-0.43462 -3.710752,-0.43462 z"
         id="path4154"
         style="color:#000000;display:inline;overflow:visible;visibility:visible;fill:#000000;fill-opacity:1;fill-rule:nonzero;stroke:#000000;stroke-width:0.58134186;stroke-linecap:butt;stroke-miterlimit:4;stroke-dasharray:none;stroke-dashoffset:22.20000076;stroke-opacity:1;marker:none;enable-background:accumulate" />
      <path
         inkscape:connector-curvature="0"
         d="m 88.149702,408.40733 c -1.74045,-1.45439 -4.050076,-2.28835 -5.65945,-3.89503 0.04686,-0.16587 0.02688,-0.36806 0.140581,-0.49759 0.881865,-1.00474 7.386272,-1.28243 8.61245,-1.42942 10.180077,-1.08473 20.397277,-1.73857 30.623217,-2.18964 16.36448,-0.84672 32.73796,-1.47936 49.09942,-2.38873 19.5254,-1.00746 39.02996,-2.36795 58.55725,-3.33821 20.1152,-1.23274 40.2556,-1.86042 60.4029,-2.21606 18.34687,-0.2651 36.69608,-0.27101 55.04444,-0.2798 16.18807,-0.15712 32.37105,0.41248 48.53195,1.29187 11.04734,0.85295 22.10386,1.60371 33.10731,2.92518 7.35208,0.78604 14.66227,1.90056 22.01282,2.69626 4.35013,0.68969 8.70141,1.33927 13.09312,1.69232 2.12208,0.14905 4.24888,0.21285 6.37584,0.22115 0.12905,-5.4e-4 0.51622,-0.002 0.38716,-0.002 -8.13466,-0.0107 1.27463,-0.10955 2.13768,0.43912 0.63205,0.28928 1.27586,0.55312 1.93022,0.78765 0.3867,1.00148 0.26634,2.13023 0.26854,3.18445 -0.10955,3.57405 0.004,7.1238 0.32103,10.68346 0.3678,5.8533 1.101,11.67186 1.55664,17.51826 0.65497,5.53198 1.26308,11.06617 1.61872,16.6261 0.14251,2.35215 0.23682,4.70747 0.28073,7.06355 0.36975,0.52504 5.21023,0.46475 -2.97084,-0.15481 0,0 3.74177,0.33258 3.74177,0.33258 l 0,0 c -2.24201,0.23532 -3.87404,1.62405 -4.5295,-0.17371 -0.007,-2.34964 -0.0922,-4.69853 -0.21872,-7.0446 -0.33762,-5.55841 -0.93648,-11.09088 -1.58957,-16.62039 -0.46181,-5.84525 -1.19291,-11.66301 -1.58652,-17.51371 -0.32522,-3.56949 -0.44643,-7.13005 -0.36898,-10.71486 -0.007,-0.84458 0.16606,-2.0064 -0.26471,-2.7301 -0.65402,-0.25415 -1.30456,-0.52122 -1.92807,-0.84428 -1.36203,-0.64156 -0.47931,-0.15835 2.91924,-0.26149 0.28308,-0.009 -0.56641,0.005 -0.84963,0.005 -3.92837,0.008 -2.82406,0.0121 -4.56567,0.004 -2.11555,-0.0228 -4.23076,-0.0942 -6.34073,-0.25511 -4.37705,-0.37532 -8.7124,-1.0463 -13.05372,-1.708 -7.32961,-0.81352 -14.62253,-1.9176 -21.95522,-2.70832 -10.98086,-1.30553 -22.012,-2.07252 -33.03616,-2.91242 -13.84823,-0.75385 -27.71227,-1.2939 -41.5835,-1.28294 -18.36263,0.004 -36.7261,0.008 -55.0873,0.26706 -20.14817,0.34909 -40.28996,0.96674 -60.40571,2.20449 -19.51701,0.96433 -39.01059,2.32916 -58.52514,3.34092 -16.33505,0.91781 -32.68265,1.54831 -49.02064,2.40501 -10.18254,0.44693 -20.35483,1.10285 -30.491658,2.18115 -2.878981,0.35622 -5.788584,0.69133 -8.645738,1.08933 1.702457,1.49303 3.841468,2.45862 5.63429,3.83482 0,0 -3.720142,0.3668 -3.720142,0.3668 z"
         id="path4156"
         style="color:#000000;display:inline;overflow:visible;visibility:visible;fill:#000000;fill-opacity:1;fill-rule:nonzero;stroke:#000000;stroke-width:0.58134186;stroke-linecap:butt;stroke-miterlimit:4;stroke-dasharray:none;stroke-dashoffset:22.20000076;stroke-opacity:1;marker:none;enable-background:accumulate" />
      <path
         inkscape:connector-curvature="0"
         d="m 466.03878,398.98504 c 3.83513,-4.19582 7.31226,-8.67265 10.49049,-13.38149 5.03694,-7.82047 9.97008,-15.70711 14.90668,-23.59122 5.69744,-9.33411 11.30119,-18.725 17.05631,-28.02386 4.61282,-7.60884 9.68362,-14.91677 14.81331,-22.18106 2.89538,-4.13004 5.9152,-8.16741 8.95068,-12.19503 1.39169,-1.5413 2.46551,-3.29911 3.6022,-5.02347 0.6347,-0.97886 1.06723,-2.05926 1.66671,-3.06377 0.51219,-0.85548 0.54624,-1.85482 0.85369,-2.774 0.27446,-0.67088 0.61469,-1.31323 0.9975,-1.92815 0.29522,-0.47983 -0.0861,0.19591 0.007,0.21293 1.11548,0.20359 2.26487,0.11538 3.39731,0.17307 -1.41613,1.03564 -3.02027,1.77381 -4.56431,2.59414 -2.9676,1.61772 -6.23703,2.49783 -9.48852,3.33989 -5.38776,1.03323 -10.85443,1.58065 -16.29116,2.28763 -8.05544,1.02189 -16.17595,1.34018 -24.2721,1.89444 -9.96855,0.68812 -19.96066,0.86714 -29.94903,0.98427 -12.26214,0.17882 -24.51255,-0.50331 -36.76645,-0.83933 -11.33174,-0.21961 -22.6593,-0.26425 -33.98492,-0.71509 -11.33952,-0.73462 -22.67646,-1.50098 -33.98822,-2.58855 -11.19983,-0.98486 -22.39494,-2.02265 -33.61966,-2.68278 -10.49948,-0.32033 -20.98283,-0.98176 -31.477,-1.42826 -8.92999,-0.3166 -17.85903,-0.35169 -26.78162,-0.84739 -7.19527,-0.47318 -14.40195,-0.69991 -21.61058,-0.82293 -5.76314,-0.18066 -11.54028,0.12549 -17.29546,-0.23961 -4.15508,-0.36657 -8.30516,-0.6638 -12.42323,-1.33342 -3.25527,-0.58062 -6.55609,-0.81111 -9.85546,-0.94438 6.24194,-0.20504 -2.74055,0.79715 -3.74824,0.93085 -0.94177,0.0954 -1.89686,0.22585 -2.83944,0.23557 0.0185,-0.75372 0.22548,-0.63311 0.72353,-0.32607 0,0 -3.73613,0.43948 -3.73613,0.43948 l 0,0 c -0.55874,-0.12251 -0.69747,0.10774 -0.72438,-0.63603 0.93853,-0.12197 1.9232,-0.11615 2.87136,-0.25049 3.70652,-0.47765 7.36368,-1.22746 11.13468,-0.96028 3.29854,0.14866 6.59568,0.40399 9.84955,0.98915 4.10813,0.65345 8.25236,0.93534 12.39458,1.30018 5.74815,0.31796 11.51321,0.0573 17.26726,0.22844 7.20001,0.1301 14.39766,0.36714 21.5843,0.84084 8.91324,0.48829 17.83409,0.51274 26.75375,0.84718 10.48902,0.45327 20.96815,1.10391 31.46233,1.43648 11.22228,0.67193 22.41612,1.7092 33.61406,2.69672 11.31131,1.07636 22.64657,1.8518 33.9858,2.56868 11.32565,0.44551 22.65394,0.47877 33.98524,0.71071 9.89054,0.27499 19.77929,0.83691 29.67053,0.83167 9.98019,-0.11369 19.96438,-0.28566 29.92514,-0.96718 8.07847,-0.55486 16.18057,-0.87758 24.2202,-1.87921 5.41885,-0.72017 10.86675,-1.26382 16.24665,-2.2493 3.2347,-0.81606 6.48872,-1.67683 9.45024,-3.25334 1.51703,-0.82621 3.08562,-1.55873 4.53042,-2.50805 0.21701,-0.0232 4.74001,-1.58853 4.10528,0.14678 -0.39405,0.57826 -0.72459,1.19876 -1.00719,1.83842 -0.34902,0.92798 -0.33362,1.96999 -0.85568,2.85088 -0.61798,1.0047 -1.05502,2.0842 -1.67566,3.07891 -1.15561,1.72647 -2.21069,3.51233 -3.63365,5.0451 -3.06943,4.01408 -6.10579,8.05056 -9.02121,12.17822 -5.14623,7.2551 -10.24483,14.54646 -14.86134,22.1561 -5.76755,9.29198 -11.37801,18.67954 -17.05776,28.02517 -4.92313,7.8863 -9.8472,15.77219 -14.85313,23.6062 -3.15445,4.71856 -6.60762,9.20635 -10.40926,13.42492 0,0 -3.72611,-0.25928 -3.72611,-0.25928 z"
         id="path4160"
         style="color:#000000;display:inline;overflow:visible;visibility:visible;fill:#000000;fill-opacity:1;fill-rule:nonzero;stroke:#000000;stroke-width:0.58134186;stroke-linecap:butt;stroke-miterlimit:4;stroke-dasharray:none;stroke-dashoffset:22.20000076;stroke-opacity:1;marker:none;enable-background:accumulate" />
      <path
         inkscape:connector-curvature="0"
         d="m 545.3215,301.74007 c -1.43564,4.08279 -1.57127,8.36609 -1.16696,12.62794 0.67492,4.69104 1.45446,9.40992 2.81858,13.95617 0.92326,3.36571 2.57962,6.45018 3.83842,9.68717 0.70705,1.72429 1.06754,3.54306 1.24664,5.38894 0.0327,0.42497 0.0664,0.85163 0.0449,1.27789 -0.23995,-0.1853 -4.181,0.86623 -5.47888,0.0489 -0.6912,-0.43801 -1.46333,-0.65487 -2.24612,-0.86225 0,0 3.7284,-0.48657 3.7284,-0.48657 l 0,0 c 0.78355,0.2314 1.53664,0.52057 2.25444,0.91456 1.6586,0.39239 3.21016,-0.40149 -2.03099,0.34668 0.0216,-0.40116 0.009,-0.80328 -0.0266,-1.20419 -0.16267,-1.81199 -0.52873,-3.59235 -1.21465,-5.28548 -1.2667,-3.24085 -2.9015,-6.3429 -3.81335,-9.71864 -1.34992,-4.57466 -2.13942,-9.31351 -2.81609,-14.02829 -0.40791,-4.32222 -0.25568,-8.65563 1.12921,-12.81403 0,0 3.73305,0.15123 3.73305,0.15123 z"
         id="path4162"
         style="color:#000000;display:inline;overflow:visible;visibility:visible;fill:#000000;fill-opacity:1;fill-rule:nonzero;stroke:#000000;stroke-width:0.58134186;stroke-linecap:butt;stroke-miterlimit:4;stroke-dasharray:none;stroke-dashoffset:22.20000076;stroke-opacity:1;marker:none;enable-background:accumulate" />
      <path
         inkscape:connector-curvature="0"
         d="m 558.85847,348.20127 c -3.09085,3.83167 -5.88863,7.8833 -8.78603,11.85935 -3.56957,5.00688 -7.2256,9.95216 -10.98975,14.81462 -5.03675,6.0458 -10.10526,12.07742 -15.34427,17.95014 -5.48141,6.15549 -10.93989,12.33432 -16.26021,18.62995 -4.22095,5.3612 -8.39567,10.77639 -12.29864,16.376 -2.54477,3.35805 -4.53132,7.04782 -6.51874,10.74015 -0.78221,1.46956 -1.54863,2.94072 -1.92574,4.5694 -0.0643,0.29787 -0.1133,0.60084 -0.10874,0.90436 0,0 -3.77348,0.0447 -3.77348,0.0447 l 0,0 c -0.0114,-0.34896 0.0553,-0.69378 0.12442,-1.03478 0.38813,-1.66583 1.14716,-3.17159 1.96333,-4.66933 2.03318,-3.68811 3.98882,-7.4208 6.57205,-10.77785 3.90917,-5.61343 8.11491,-11.02322 12.32926,-16.40823 5.32666,-6.29695 10.79413,-12.4747 16.27334,-18.63891 5.23751,-5.85786 10.28105,-11.89482 15.31604,-17.92641 3.75918,-4.85722 7.40346,-9.80272 10.96627,-14.80546 2.8955,-3.97423 5.69906,-8.01615 8.73478,-11.88693 0,0 3.72611,0.25928 3.72611,0.25928 z"
         id="path4164"
         style="color:#000000;display:inline;overflow:visible;visibility:visible;fill:#000000;fill-opacity:1;fill-rule:nonzero;stroke:#000000;stroke-width:0.58134186;stroke-linecap:butt;stroke-miterlimit:4;stroke-dasharray:none;stroke-dashoffset:22.20000076;stroke-opacity:1;marker:none;enable-background:accumulate" />
      <path
         inkscape:connector-curvature="0"
         d="m 308.95119,275.54443 c -1.15737,-6.53205 -1.87114,-13.14766 -2.45082,-19.75487 -0.73314,-10.34316 -1.42259,-20.68848 -2.19745,-31.02868 -0.9479,-9.68102 -1.62267,-19.38865 -2.97611,-29.02464 -0.71026,-4.34789 -1.12437,-8.75318 -2.55061,-12.94107 -0.21703,-0.57008 -0.43779,-1.24308 -0.84349,-1.66901 3.51167,0.50745 3.94087,-0.67929 3.15077,1.50234 0,0 -3.75132,-0.12768 -3.75132,-0.12768 l 0,0 c 0.6828,-1.9725 1.28047,-1.96617 4.35994,-1.69686 0.34781,0.5887 0.6005,1.22464 0.82016,1.87156 1.36319,4.22416 1.76681,8.64174 2.45285,13.01064 1.31697,9.64663 1.9766,19.36126 2.92771,29.04789 0.77386,10.3393 1.47304,20.68306 2.2364,31.02309 0.60259,6.58847 1.304,13.19675 2.55375,19.69585 0,0 -3.73178,0.0914 -3.73178,0.0914 z"
         id="path4166"
         style="color:#000000;display:inline;overflow:visible;visibility:visible;fill:#000000;fill-opacity:1;fill-rule:nonzero;stroke:#000000;stroke-width:0.58134186;stroke-linecap:butt;stroke-miterlimit:4;stroke-dasharray:none;stroke-dashoffset:22.20000076;stroke-opacity:1;marker:none;enable-background:accumulate" />
      <path
         inkscape:connector-curvature="0"
         d="m 297.28067,193.54618 c -2.38283,4.15637 -4.52452,8.44433 -6.75194,12.68521 -0.70798,1.3457 -1.26137,2.76245 -1.94517,4.1194 -0.15199,0.30164 -0.20902,0.94982 -0.53482,0.86068 -1.18214,-0.32346 -2.30235,-0.84111 -3.45353,-1.26167 1.83308,-4.7071 3.77895,-9.36681 5.57339,-14.08987 2.22435,-5.91428 4.56283,-11.79055 7.52615,-17.37699 1.41564,-2.99726 3.14172,-5.75092 6.17365,-7.25337 3.78017,-1.23828 7.0944,-0.34342 10.35953,1.47581 3.19945,1.80621 5.578,4.49819 7.70238,7.43512 2.40786,3.34711 4.65427,6.79981 6.4849,10.49694 1.03273,2.51183 2.66699,4.69909 3.92715,7.08225 0.86855,1.35537 0.55003,2.54143 0.23025,4.01532 0,0 -3.74402,-0.0791 -3.74402,-0.0791 l 0,0 c 0.29868,-1.40849 0.60786,-2.46162 -0.22735,-3.75226 -1.28355,-2.37052 -2.83508,-4.59849 -3.89072,-7.09524 -1.8322,-3.67489 -4.0758,-7.10857 -6.48068,-10.43426 -2.12751,-2.88859 -4.51233,-5.52563 -7.70377,-7.27102 -0.77127,-0.41402 -1.66255,-0.93529 -2.50003,-1.23543 -0.36145,-0.12955 -1.48335,-0.19991 -1.1124,-0.29903 0.84837,-0.2267 1.75793,-0.025 2.63223,-0.1071 0.3333,-0.0313 -0.67011,-0.0785 -1.00329,-0.0458 -0.32757,0.0322 -0.63884,0.15889 -0.95826,0.23834 -3.08448,1.32429 -4.79966,4.06151 -6.21027,7.00946 -2.99041,5.55945 -5.33017,11.42358 -7.54635,17.3287 -1.77322,4.71029 -3.68968,9.36129 -5.49595,14.05805 -1.345,0.28249 -2.68408,0.59474 -4.03499,0.84746 -0.0838,0.0157 0.16642,-0.0657 0.21831,-0.13344 0.13677,-0.1784 0.22771,-0.3878 0.3334,-0.5862 0.71859,-1.34876 1.27096,-2.77476 1.98496,-4.12642 2.24522,-4.23069 4.39345,-8.51178 6.71843,-12.69931 0,0 3.72881,0.19375 3.72881,0.19375 z"
         id="path4168"
         style="color:#000000;display:inline;overflow:visible;visibility:visible;fill:#000000;fill-opacity:1;fill-rule:nonzero;stroke:#000000;stroke-width:0.58134186;stroke-linecap:butt;stroke-miterlimit:4;stroke-dasharray:none;stroke-dashoffset:22.20000076;stroke-opacity:1;marker:none;enable-background:accumulate" />
      <path
         inkscape:connector-curvature="0"
         d="m 346.95972,169.69182 c 0.0309,6.19874 0.62274,12.3893 1.22767,18.55566 0.52298,6.14262 1.41699,12.24523 2.10132,18.3712 0.098,0.90827 0.1011,1.75585 0.44855,2.60538 0.0611,0.14951 0.44932,0.41149 0.28941,0.38868 -1.19573,-0.17049 -2.49967,-0.20716 -3.52242,-0.84965 -0.37483,-0.23547 0.0547,-0.88403 0.058,-1.32666 0.004,-0.57289 -0.0233,-1.14558 -0.0351,-1.71837 -0.30716,-5.5579 -0.98269,-11.08687 -1.32786,-16.64619 -0.33682,-5.369 -0.54796,-10.80055 0.82357,-16.04191 0.85974,-2.9168 1.8161,-4.99333 5.01454,-5.43503 1.61476,0.0596 3.23792,0.004 4.84429,0.17898 1.96084,0.21343 4.74739,2.9288 6.16526,4.17931 2.86919,2.62292 3.32352,6.09452 3.07679,9.7757 -0.56951,4.01996 -2.42561,7.66728 -4.38448,11.16951 -0.56308,1.30003 -1.81201,3.21682 -0.004,3.92725 2.10046,0.16327 3.92754,0.91215 5.75122,1.92835 2.5566,1.54186 3.83683,4.28559 5.10257,6.86482 1.28532,2.85198 1.33336,5.68962 -0.0551,8.46343 -1.48818,2.25839 -3.81561,3.25649 -6.43442,3.43403 -3.20085,0.22763 -4.68855,0.28529 -7.12786,-0.97344 0,0 3.71164,-0.41737 3.71164,-0.41737 l 0,0 c 1.19747,0.54169 4.6952,1.09947 -0.27305,0.82038 2.54242,-0.0137 4.87895,-0.91324 6.39808,-3.04038 1.39834,-2.65588 1.33039,-5.37278 0.0598,-8.11655 -1.24741,-2.53352 -2.53229,-5.18915 -5.09592,-6.6345 -1.84766,-0.97411 -3.7181,-1.56573 -5.76789,-1.92248 -1.72115,-1.1356 -0.70204,-2.99384 0.0198,-4.52474 1.96307,-3.44034 3.81891,-7.03655 4.39145,-11.00299 0.23806,-3.59361 -0.23299,-6.91751 -3.07361,-9.43461 -1.52899,-1.32709 -3.08967,-2.74686 -4.97116,-3.56446 -0.38311,-0.16648 -1.57338,-0.24203 -1.18719,-0.40127 0.78776,-0.32483 1.70082,-0.10745 2.55123,-0.16118 -3.3353,0.20744 -4.04606,2.00075 -5.00793,4.9841 -1.41986,5.18984 -1.18252,10.59467 -0.85992,15.92206 0.35289,5.56519 1.02822,11.09861 1.37629,16.66034 0.0233,0.8565 0.10815,3.0819 0.003,3.14422 -4.45066,2.63158 -4.34397,0.79632 -4.66006,-2.19504 -0.63545,-6.1311 -1.52459,-12.23313 -2.04807,-18.37527 -0.60543,-6.18104 -1.2031,-12.37938 -1.31265,-18.59131 0,0 3.73415,0 3.73415,0 z"
         id="path4170"
         style="color:#000000;display:inline;overflow:visible;visibility:visible;fill:#000000;fill-opacity:1;fill-rule:nonzero;stroke:#000000;stroke-width:0.58134186;stroke-linecap:butt;stroke-miterlimit:4;stroke-dasharray:none;stroke-dashoffset:22.20000076;stroke-opacity:1;marker:none;enable-background:accumulate" />
      <path
         inkscape:connector-curvature="0"
         d="m 172.0601,495.23016 c 4.6701,-0.58643 9.37382,-0.81755 14.07462,-0.97945 5.47608,0.0318 10.92495,-0.3119 16.38234,-0.71165 7.04395,-0.82965 14.1153,-1.36116 21.17577,-2.02372 8.04133,-0.58451 16.08591,-1.10693 24.12938,-1.67281 8.28896,-0.47411 16.56014,-1.2199 24.82571,-1.994 8.59688,-0.74566 17.18484,-1.59439 25.7696,-2.46925 7.99706,-0.78984 15.97442,-1.69238 23.99832,-2.17227 6.99849,-0.32465 13.97361,-0.985 20.97097,-1.34372 6.76661,-0.40129 13.53444,-0.32939 20.28698,0.236 3.82591,0.35493 7.66418,0.53773 11.50438,0.63401 1.07511,0.0596 11.14877,0.0508 4.01359,0.0488 1.08299,-0.002 2.16599,-0.003 3.24897,-0.008 -0.0405,0.19583 -0.0211,0.41455 -0.12158,0.58749 -0.0808,0.1392 -1.74183,-0.12337 -1.94273,-0.20718 -1.65284,-0.5102 -3.1748,-1.34552 -4.621,-2.28373 -2.73113,-1.55577 -5.35068,-3.2806 -7.85139,-5.18321 -3.03059,-2.24325 -6.04862,-4.52033 -8.93431,-6.94703 -1.29208,-0.67195 -2.87361,-2.93705 -4.52718,-2.70252 1.25026,0.12756 2.54049,0.0441 3.75078,0.38269 0.26255,0.0735 0.15833,0.53175 0.31524,0.75469 0.19762,0.28074 0.47253,0.49927 0.72848,0.72808 1.15614,1.0336 2.5029,1.83974 3.78518,2.70215 3.99765,2.55053 8.14617,4.87724 12.46696,6.83134 4.2579,1.84004 8.64832,3.35086 13.00503,4.93632 2.3776,1.09441 4.61463,1.77756 4.32098,4.78448 -1.28292,3.32356 -4.59072,5.43371 -7.3232,7.51342 -3.97733,3.06599 -8.54634,5.14647 -13.04582,7.30253 -1.68158,0.80661 -3.34949,1.57955 -5.19291,1.90079 0,0 -3.70808,-0.53246 -3.70808,-0.53246 l 0,0 c 1.87035,-0.2191 3.53198,-0.9695 5.22203,-1.78358 4.48831,-2.15032 9.07412,-4.17136 13.04684,-7.22715 2.6601,-2.01437 5.87721,-4.06367 7.25913,-7.21256 0.29176,-2.58696 -2.24707,-3.41097 -4.26138,-4.29396 -4.34893,-1.59957 -8.74074,-3.09987 -12.98467,-4.96761 -4.32392,-1.99266 -8.49594,-4.31453 -12.50197,-6.88855 -1.50129,-1.00963 -3.58001,-2.04695 -4.55912,-3.65394 -0.16368,-0.26866 -0.6015,-0.73607 -0.32497,-0.88606 1.12617,-0.61083 2.48166,-0.63784 3.72249,-0.95676 1.7579,0.45685 3.06617,1.94561 4.5115,2.94392 2.89491,2.40872 5.88924,4.70326 8.92706,6.92928 2.51193,1.88648 5.14666,3.58294 7.86931,5.15059 1.45592,0.9005 2.97935,1.70689 4.63226,2.1822 0.21081,0.0414 1.88409,-1.1e-4 1.94009,0.0954 0.10129,0.17286 0.0815,0.39231 0.12225,0.58847 -1.0937,0.004 -2.18743,0.003 -3.28114,0.005 -3.79457,1.6e-4 -7.59005,0.0205 -11.38405,-0.0611 -3.83214,-0.10691 -7.66164,-0.30338 -11.47956,-0.65902 -1.6368,-0.13538 -3.29583,-0.0899 -4.91254,-0.37915 -0.29335,-0.0525 1.18507,-0.102 0.88719,-0.11019 -2.9934,-0.0823 -5.99651,0.23551 -8.98807,0.2607 -7.00427,0.34818 -13.985,1.01079 -20.98929,1.3378 -8.02885,0.46602 -16.01002,1.36055 -24.01055,2.15479 -8.58526,0.87249 -17.17256,1.73026 -25.77,2.47214 -8.26284,0.77396 -16.53027,1.5338 -24.81678,2.00398 -8.04244,0.56017 -16.08404,1.1006 -24.1254,1.66469 -7.05057,0.66183 -14.11284,1.18627 -21.14459,2.03598 -5.45454,0.39891 -10.89803,0.78412 -16.37239,0.72788 -4.68341,0.15304 -9.37129,0.36747 -14.02391,0.953 0,0 -3.69485,-0.5382 -3.69485,-0.5382 z"
         id="path4176"
         style="color:#000000;display:inline;overflow:visible;visibility:visible;fill:#000000;fill-opacity:1;fill-rule:nonzero;stroke:#000000;stroke-width:0.58134186;stroke-linecap:butt;stroke-miterlimit:4;stroke-dasharray:none;stroke-dashoffset:22.20000076;stroke-opacity:1;marker:none;enable-background:accumulate" />
      <path
         inkscape:connector-curvature="0"
         d="m 399.80897,510.69538 c -0.0362,5.39851 -0.0287,10.79719 -0.032,16.19579 -0.004,5.11867 0.009,10.23734 0.0201,15.35601 0.006,1.61267 0.0115,3.22537 0.0281,4.83798 -0.51983,0.79869 -2.01192,0.8391 -2.89495,1.04544 -2.37811,0.67669 -4.6995,1.53594 -7.08634,2.17811 -2.80268,0.6753 -5.68375,0.85681 -8.55418,0.96347 -3.56028,0.0798 -7.12236,0.0591 -10.68323,0.0489 -1.06477,-0.004 -2.12954,-0.007 -3.19432,-0.0101 -1.4088,-0.55407 0.72636,-0.58893 0.92863,-0.58867 4.5449,3e-4 9.0898,0.004 13.63469,0.004 5.51153,0.002 11.02307,0.002 16.53459,0.002 5.67711,-0.0987 4.85997,0.11228 10.95704,-0.87997 2.7547,-0.49001 5.55337,-1.24052 7.78832,-2.98811 0.72217,-0.73736 0.41297,-0.34275 0.93939,-1.17447 0,0 3.74385,0.20208 3.74385,0.20208 l 0,0 c -0.52945,0.93211 -0.21295,0.49613 -0.95646,1.30288 -2.19013,1.87423 -5.06086,2.65584 -7.84558,3.17612 -6.02676,1.05198 -12.15987,0.96102 -18.26027,0.93699 -5.51837,-2.6e-4 -11.03674,-1.4e-4 -16.55512,0.002 -2.04429,3.8e-4 -4.08859,7.6e-4 -6.13287,0.002 -0.52932,2.2e-4 -1.05863,4.8e-4 -1.58794,7.8e-4 -0.42841,2.3e-4 -1.71364,3.7e-4 -1.28522,8.1e-4 0.90997,8.8e-4 1.81997,4.3e-4 2.72995,6.5e-4 -0.20737,2.8e-4 -2.30213,-0.0342 -0.91161,-0.58588 1.05715,0.005 2.11431,0.01 3.17147,0.0134 1.9358,0.006 0.72388,8.8e-4 -1.73599,0.004 -0.3754,5.3e-4 0.7508,8.8e-4 1.1262,3.9e-4 1.30315,-0.002 2.60639,-0.009 3.90923,-0.04 2.86475,-0.0907 5.74062,-0.24669 8.54568,-0.88156 2.39316,-0.60432 4.70849,-1.47581 7.06961,-2.19304 0.9456,-0.20468 1.87131,-0.63148 2.83879,-0.54171 0.0166,-1.6126 0.0216,-3.22531 0.0281,-4.83798 0.0116,-5.11867 0.0242,-10.23733 0.0201,-15.35601 -0.004,-5.3986 0.004,-10.79728 -0.032,-16.19579 0,0 3.73415,0 3.73415,0 z"
         id="path4178"
         style="color:#000000;display:inline;overflow:visible;visibility:visible;fill:#000000;fill-opacity:1;fill-rule:nonzero;stroke:#000000;stroke-width:0.58134186;stroke-linecap:butt;stroke-miterlimit:4;stroke-dasharray:none;stroke-dashoffset:22.20000076;stroke-opacity:1;marker:none;enable-background:accumulate" />
      <path
         inkscape:connector-curvature="0"
         d="m 380.9405,516.62152 c 4.51362,-0.36516 8.99695,-0.93734 13.48465,-1.53221 4.1341,-0.65133 8.2298,-1.46622 12.31179,-2.38207 1.24535,-0.26846 2.49996,-0.48894 3.75537,-0.70372 0,0 3.70432,0.52396 3.70432,0.52396 l 0,0 c -1.2625,0.20626 -2.52407,0.41922 -3.77666,0.68054 -4.09397,0.90745 -8.19269,1.74906 -12.33534,2.4118 -4.47731,0.58744 -8.9449,1.19219 -13.44928,1.5399 0,0 -3.69485,-0.5382 -3.69485,-0.5382 z"
         id="path4180"
         style="color:#000000;display:inline;overflow:visible;visibility:visible;fill:#000000;fill-opacity:1;fill-rule:nonzero;stroke:#000000;stroke-width:0.58134186;stroke-linecap:butt;stroke-miterlimit:4;stroke-dasharray:none;stroke-dashoffset:22.20000076;stroke-opacity:1;marker:none;enable-background:accumulate" />
      <path
         inkscape:connector-curvature="0"
         d="m 407.96396,229.59566 c -0.1506,4.13559 0.12355,8.25612 0.37851,12.38065 0.29697,4.94922 0.39797,9.90723 0.45811,14.8641 -0.0632,3.63787 0.22101,7.29317 -0.0545,10.92422 -0.19826,1.75635 -0.47422,3.50214 -0.67394,5.2583 -0.0689,0.51496 -0.0963,1.03299 -0.10074,1.55207 0.75433,0.18791 1.68597,0.66149 -1.84521,-0.10677 -0.20288,-0.0441 0.40258,-0.10202 0.60527,-0.147 0.73071,-0.16214 0.70714,-0.14099 1.50399,-0.25091 2.55403,-0.2689 5.12467,-0.17908 7.68402,-0.35395 3.48968,-0.24015 6.89765,-1.06582 10.32338,-1.72172 2.63652,-0.5275 5.23802,-1.1599 7.81439,-1.92372 0.7769,-0.22712 1.55472,-0.4512 2.33558,-0.66432 -0.10916,0.18673 -0.68897,-0.55618 -0.77792,-0.64541 0,0 2.6427,-0.20747 2.6427,-0.20747 l 0,0 c 0.3598,0.36152 0.78875,0.65245 0.77738,1.20211 -0.79243,0.19976 -1.57659,0.43111 -2.36299,0.65283 -2.59011,0.75668 -5.19252,1.42294 -7.84258,1.94599 -3.42927,0.64712 -6.83446,1.49208 -10.32388,1.75187 -2.54915,0.20062 -5.10909,0.10163 -7.65663,0.34346 -1.51244,0.18105 -4.69776,1.41092 -5.54114,0.12145 0.01,-0.5285 0.0327,-1.0565 0.113,-1.57982 0.21639,-1.75178 0.49384,-3.49477 0.70237,-5.24755 0.29443,-3.62171 0.0188,-7.27107 0.0881,-10.90058 -0.058,-4.95258 -0.14757,-9.90658 -0.45676,-14.85104 -0.26088,-4.13008 -0.5266,-8.25524 -0.42736,-12.39679 0,0 2.63684,0 2.63684,0 z"
         id="path4236"
         style="color:#000000;display:inline;overflow:visible;visibility:visible;fill:#000000;fill-opacity:1;fill-rule:nonzero;stroke:#000000;stroke-width:0.58134186;stroke-linecap:butt;stroke-miterlimit:4;stroke-dasharray:none;stroke-dashoffset:22.20000076;stroke-opacity:1;marker:none;enable-background:accumulate" />
      <path
         inkscape:connector-curvature="0"
         d="m 408.74935,252.2782 c 3.54657,-0.90437 7.12643,-1.66838 10.68505,-2.52311 3.05888,-0.73681 6.1535,-1.2896 9.21832,-2.00233 0.74735,-0.1213 1.4467,-0.39132 2.13936,-0.68314 0,0 2.63007,0.30665 2.63007,0.30665 l 0,0 c -0.69763,0.31259 -1.39614,0.62031 -2.16188,0.72882 -3.07589,0.71043 -6.17728,1.27397 -9.24999,1.99566 -3.54219,0.85932 -7.10883,1.61429 -10.63993,2.51811 0,0 -2.621,-0.34065 -2.621,-0.34065 z"
         id="path4238"
         style="color:#000000;display:inline;overflow:visible;visibility:visible;fill:#000000;fill-opacity:1;fill-rule:nonzero;stroke:#000000;stroke-width:0.58134186;stroke-linecap:butt;stroke-miterlimit:4;stroke-dasharray:none;stroke-dashoffset:22.20000076;stroke-opacity:1;marker:none;enable-background:accumulate" />
      <path
         inkscape:connector-curvature="0"
         d="m 405.18797,236.08135 c 3.33943,-1.9868 7.0229,-3.19997 10.79585,-4.03438 3.78502,-0.96472 7.67806,-1.26163 11.5341,-1.77728 1.36577,-0.19252 2.73029,-0.39253 4.09702,-0.57804 0,0 2.60161,0.37663 2.60161,0.37663 l 0,0 c -1.37212,0.18127 -2.74167,0.37923 -4.11177,0.57522 -3.85614,0.53718 -7.7616,0.77815 -11.54917,1.75461 -3.75349,0.80001 -7.43105,1.97263 -10.742,3.96039 0,0 -2.62564,-0.27715 -2.62564,-0.27715 z"
         id="path4240"
         style="color:#000000;display:inline;overflow:visible;visibility:visible;fill:#000000;fill-opacity:1;fill-rule:nonzero;stroke:#000000;stroke-width:0.58134186;stroke-linecap:butt;stroke-miterlimit:4;stroke-dasharray:none;stroke-dashoffset:22.20000076;stroke-opacity:1;marker:none;enable-background:accumulate" />
      <path
         inkscape:connector-curvature="0"
         d="m 443.56074,247.0261 c 3.28208,-0.44673 6.54487,-0.99609 9.8429,-1.32921 2.52589,-0.23999 5.06206,-0.32432 7.59781,-0.36251 1.80215,-0.0165 3.60457,-0.021 5.40674,-0.004 0.0455,6e-4 0.0911,8.8e-4 0.13671,0.002 0,0 -2.63238,0.41372 -2.63238,0.41372 l 0,0 c -0.0447,-4.8e-4 -0.0895,-8.8e-4 -0.13428,-0.002 -3.07586,-0.0269 3.11841,-0.0152 0.55373,-0.005 -0.24146,8.8e-4 -0.48292,0.003 -0.72438,0.004 -2.54326,0.0302 -5.08714,0.10546 -7.6213,0.33628 -3.29007,0.31965 -6.54424,0.85504 -9.81291,1.32683 0,0 -2.61264,-0.38056 -2.61264,-0.38056 z"
         id="path4248"
         style="color:#000000;display:inline;overflow:visible;visibility:visible;fill:#000000;fill-opacity:1;fill-rule:nonzero;stroke:#000000;stroke-width:0.58134186;stroke-linecap:butt;stroke-miterlimit:4;stroke-dasharray:none;stroke-dashoffset:22.20000076;stroke-opacity:1;marker:none;enable-background:accumulate" />
      <path
         inkscape:connector-curvature="0"
         d="m 450.56679,259.30655 c 2.38018,-1.22343 4.86192,-2.18194 7.46383,-2.80065 1.80487,-0.30259 3.56924,-0.79379 5.36657,-1.13476 0.87801,-0.15472 1.7658,-0.22638 2.65587,-0.25246 0.2529,0.0321 0.38684,-0.0339 0.46938,-0.17182 0,0 2.66367,-0.0522 2.66367,-0.0522 l 0,0 c 0.0336,0.34078 -0.10109,0.67428 -0.5058,0.63412 -0.89115,0.0139 -1.78051,0.0669 -2.66178,0.20858 -1.80558,0.32535 -3.57147,0.82837 -5.38253,1.12081 -2.59929,0.58281 -5.09092,1.49986 -7.44532,2.75574 0,0 -2.62389,-0.30732 -2.62389,-0.30732 z"
         id="path4250"
         style="color:#000000;display:inline;overflow:visible;visibility:visible;fill:#000000;fill-opacity:1;fill-rule:nonzero;stroke:#000000;stroke-width:0.58134186;stroke-linecap:butt;stroke-miterlimit:4;stroke-dasharray:none;stroke-dashoffset:22.20000076;stroke-opacity:1;marker:none;enable-background:accumulate" />
      <path
         inkscape:connector-curvature="0"
         d="m 478.28593,242.91231 c 0.0489,-3.29391 1.57006,-5.98978 3.58618,-8.48045 2.04424,-2.47448 4.7317,-4.08754 7.68504,-5.23037 3.86268,-0.89055 5.78413,-0.74864 6.13995,3.05443 -0.26534,3.9793 -1.75425,7.76602 -3.08743,11.48871 -1.73555,4.5747 -3.41158,9.16355 -4.77592,13.86393 -0.80157,3.1285 -1.52782,6.35019 -1.43252,9.59722 0.22965,1.69929 1.14334,2.61574 2.75797,2.96008 0.20719,0.0279 0.41354,0.0632 0.62159,0.0838 0.21039,0.0209 0.42178,0.0307 0.63296,0.0406 2.2443,0.1059 -3.18949,0.33088 -0.87916,-0.21023 0,0 2.62474,0.35041 2.62474,0.35041 l 0,0 c -1.81883,0.47813 -3.77647,0.38044 -5.623,0.086 -1.65646,-0.46522 -2.54677,-1.56137 -2.76363,-3.30349 -0.0804,-3.27559 0.65282,-6.52347 1.47088,-9.67759 1.36947,-4.7042 3.04538,-9.29842 4.77805,-13.87968 1.31947,-3.68368 2.78859,-7.43607 3.04735,-11.37355 -0.0939,-0.88424 -0.0207,-1.24673 -0.46541,-1.9921 -0.46522,-0.77974 -1.14317,-0.8808 -1.13995,-0.88196 0.54917,-0.19596 1.17193,-0.1583 1.74794,-0.0677 0.34956,0.055 -0.6977,0.11867 -1.04655,0.17801 -2.94812,1.09242 -5.64312,2.64456 -7.68942,5.09222 -2.00067,2.42598 -3.53229,5.06185 -3.54921,8.30184 0,0 -2.64045,0 -2.64045,0 z"
         id="path4252"
         style="color:#000000;display:inline;overflow:visible;visibility:visible;fill:#000000;fill-opacity:1;fill-rule:nonzero;stroke:#000000;stroke-width:0.58134186;stroke-linecap:butt;stroke-miterlimit:4;stroke-dasharray:none;stroke-dashoffset:22.20000076;stroke-opacity:1;marker:none;enable-background:accumulate" />
      <path
         inkscape:connector-curvature="0"
         d="m 487.04854,282.53016 c 1.52321,-0.30287 2.87292,-1.60343 4.46146,-1.64802 1.06475,-0.0299 2.1302,0.0246 3.1953,0.0368 1.18445,0.53678 0.38791,1.92233 -0.0524,2.71703 -0.72046,1.09077 -1.82452,1.66999 -3.05613,1.98658 -3.27463,0.6577 -3.89986,0.45468 -5.05112,-1.89984 -0.65731,-1.54655 -1.09541,-3.177 -0.70178,-4.83552 0.43809,-1.355 1.30103,-2.39641 2.71923,-2.66993 2.61487,-0.40124 4.5227,0.22629 6.67847,1.39548 1.28707,0.90047 2.4032,1.99972 3.06676,3.4333 0.39294,1.14117 0.6075,2.10639 -0.32075,3.00213 -1.8876,1.06413 -4.214,0.98134 -6.29148,0.57087 -1.20961,-0.21563 -2.31375,-0.81084 -3.03339,-1.81476 -0.81423,-0.79356 -1.0465,-1.61677 -0.93705,-2.71242 0.29238,-1.03119 0.90583,-1.77504 1.82297,-2.30099 0.49455,-0.273 1.05136,-0.3602 1.60472,-0.42057 0,0 2.63204,0.39368 2.63204,0.39368 l 0,0 c -0.54211,0.0345 -1.09964,0.0809 -1.59794,0.31312 -0.89931,0.44421 -1.49152,1.06982 -1.80848,2.04148 -0.10662,1.04244 0.174,1.75467 0.92994,2.51324 0.75391,0.92735 1.83644,1.43202 3.00846,1.61924 1.05725,0.16722 1.50613,0.19694 -1.26841,0.162 -0.88804,-0.0112 1.13039,-0.12899 1.7662,-0.36697 0.18008,-0.0674 0.35373,-0.15084 0.5306,-0.22627 0.96221,-0.71884 0.67267,-1.63039 0.31659,-2.65609 -0.67355,-1.37264 -1.77021,-2.43405 -3.04566,-3.26575 -0.6919,-0.3599 -1.39789,-0.73729 -2.13357,-1.00336 -0.20572,-0.0744 -0.84444,-0.13639 -0.63051,-0.18213 0.65442,-0.13992 3.18271,-0.0965 1.3322,-0.11752 -1.40146,0.1234 -2.2464,1.03799 -2.69835,2.35625 -0.4101,1.5916 0.0616,3.17047 0.70125,4.64985 0.0918,0.18285 0.45568,0.93979 0.61124,1.13884 0.40845,0.52266 0.8661,0.52257 0.81769,0.52974 -0.54299,0.0805 -3.2212,0.16412 -1.64678,-0.003 1.20024,-0.24102 2.30464,-0.74227 3.03957,-1.76561 0.35165,-0.62569 1.24046,-1.90742 0.0752,-2.19056 0.68179,-0.0211 1.36373,-0.0881 2.04538,-0.0632 0.23352,0.009 -0.46442,0.0592 -0.69188,0.11269 -1.32272,0.3109 -2.47789,1.10154 -3.76864,1.51049 0,0 -2.62099,-0.34067 -2.62099,-0.34067 z"
         id="path4254"
         style="color:#000000;display:inline;overflow:visible;visibility:visible;fill:#000000;fill-opacity:1;fill-rule:nonzero;stroke:#000000;stroke-width:0.58134186;stroke-linecap:butt;stroke-miterlimit:4;stroke-dasharray:none;stroke-dashoffset:22.20000076;stroke-opacity:1;marker:none;enable-background:accumulate" />
    </g>
  </g>
</svg>
