<?xml version="1.0" encoding="UTF-8" standalone="no"?>
<!-- Created with Inkscape (http://www.inkscape.org/) -->

<svg
   xmlns:dc="http://purl.org/dc/elements/1.1/"
   xmlns:cc="http://creativecommons.org/ns#"
   xmlns:rdf="http://www.w3.org/1999/02/22-rdf-syntax-ns#"
   xmlns:svg="http://www.w3.org/2000/svg"
   xmlns="http://www.w3.org/2000/svg"
   xmlns:sodipodi="http://sodipodi.sourceforge.net/DTD/sodipodi-0.dtd"
   xmlns:inkscape="http://www.inkscape.org/namespaces/inkscape"
   width="374.07312"
   height="298.31842"
   viewBox="0 0 374.07313 298.3184"
   id="svg2"
   version="1.1"
   inkscape:version="0.91 r13725"
   sodipodi:docname="hall_2.svg">
  <defs
     id="defs4" />
  <sodipodi:namedview
     id="base"
     pagecolor="#ffffff"
     bordercolor="#666666"
     borderopacity="1.0"
     inkscape:pageopacity="0.0"
     inkscape:pageshadow="2"
     inkscape:zoom="4"
     inkscape:cx="156.5465"
     inkscape:cy="140.06931"
     inkscape:document-units="px"
     inkscape:current-layer="layer1"
     showgrid="false"
     fit-margin-top="0"
     fit-margin-left="0"
     fit-margin-right="0"
     fit-margin-bottom="0"
     inkscape:window-width="1855"
     inkscape:window-height="1056"
     inkscape:window-x="65"
     inkscape:window-y="24"
     inkscape:window-maximized="1"
     units="px" />
  <metadata
     id="metadata7">
    <rdf:RDF>
      <cc:Work
         rdf:about="">
        <dc:format>image/svg+xml</dc:format>
        <dc:type
           rdf:resource="http://purl.org/dc/dcmitype/StillImage" />
        <dc:title></dc:title>
      </cc:Work>
    </rdf:RDF>
  </metadata>
  <g
     inkscape:label="Layer 1"
     inkscape:groupmode="layer"
     id="layer1"
     transform="translate(-109.53963,-245.46275)">
    <path
       style="color:#000000;display:inline;overflow:visible;visibility:visible;fill:#000000;fill-opacity:1;fill-rule:nonzero;stroke:#000000;stroke-width:0.45125338;stroke-linecap:butt;stroke-miterlimit:4;stroke-dasharray:none;stroke-dashoffset:22.20000076;stroke-opacity:1;marker:none;enable-background:accumulate"
       id="path4150"
       d="m 200.99067,332.06922 c -2.43026,1.77127 -4.67583,3.79324 -6.73535,5.98141 -1.89215,2.09974 -3.40216,4.47876 -5.3621,6.52023 -1.8428,1.66681 -3.53235,3.46174 -5.15015,5.34408 -1.51769,1.83289 -2.95465,3.71487 -4.52201,5.50706 -1.28814,1.58159 -2.53761,3.1915 -3.82033,4.78029 -1.551,1.83182 -2.72685,3.93326 -4.13932,5.87068 -1.89473,2.58603 -3.70785,5.22917 -5.53202,7.86494 -2.29256,3.16479 -4.71417,6.23002 -7.11409,9.3131 -2.56649,3.16876 -5.28041,6.22128 -8.05502,9.20856 -2.53604,2.89633 -5.09795,5.7661 -7.64437,8.65313 -2.6098,2.76576 -5.13319,5.61069 -7.72984,8.38904 -2.32787,2.31728 -4.4138,4.85242 -6.56359,7.33079 -1.71913,1.96419 -3.70457,3.67333 -5.60556,5.45743 -1.30058,1.25118 -2.59417,2.50369 -3.94227,3.70595 -0.78729,0.52761 -1.49185,1.16286 -2.12731,1.86345 -0.12655,0.14676 -0.0704,0.0798 -0.16938,0.20003 0,0 -2.92001,-0.1961 -2.92001,-0.1961 l 0,0 c 0.10174,-0.13277 0.044,-0.0598 0.17506,-0.21741 0.63399,-0.71429 1.32845,-1.3937 2.14574,-1.89521 1.3553,-1.19747 2.66202,-2.43703 3.95533,-3.69807 1.91236,-1.76355 3.8762,-3.49166 5.61777,-5.42579 2.15748,-2.47825 4.2359,-5.02695 6.57473,-7.34066 2.60031,-2.7721 5.11667,-5.62052 7.72973,-8.38014 2.54135,-2.89557 5.12444,-5.75082 7.6498,-8.66095 2.77968,-2.97295 5.48088,-6.02881 8.05331,-9.18337 2.39914,-3.07564 4.81106,-6.14019 7.10256,-9.2977 1.82645,-2.63429 3.63088,-5.28346 5.52078,-7.87309 1.42098,-1.93508 2.58695,-4.04301 4.12779,-5.88516 1.28488,-1.59278 2.54733,-3.19522 3.82433,-4.79122 1.56419,-1.79535 3.02878,-3.65399 4.52685,-5.50432 1.61866,-1.88776 3.28995,-3.70651 5.15192,-5.3613 1.98,-2.02723 3.49784,-4.39655 5.37333,-6.51407 2.04295,-2.2069 4.29175,-4.23646 6.7155,-6.01928 0,0 2.88819,0.25367 2.88819,0.25367 z"
       inkscape:connector-curvature="0" />
    <path
       style="color:#000000;display:inline;overflow:visible;visibility:visible;fill:#000000;fill-opacity:1;fill-rule:nonzero;stroke:#000000;stroke-width:0.45125338;stroke-linecap:butt;stroke-miterlimit:4;stroke-dasharray:none;stroke-dashoffset:22.20000076;stroke-opacity:1;marker:none;enable-background:accumulate"
       id="path4152"
       d="m 113.67329,423.14763 c -0.52246,4.20981 -0.66316,8.45287 -0.77764,12.68937 -0.12528,6.14082 -0.12256,12.28334 -0.12626,18.42516 -0.0598,5.55035 0.42025,11.08793 0.72748,16.62602 0.15128,2.72336 0.24431,5.44945 0.2937,8.17641 0.003,0.20543 0.006,0.41086 0.009,0.61629 0,0 -2.90936,0.003 -2.90936,0.003 l 0,0 c -8.5e-4,-0.20502 -0.002,-0.41003 -0.002,-0.61504 -0.026,-2.72309 -0.10817,-5.44537 -0.24483,-8.16521 -0.28421,-5.54415 -0.75721,-11.08654 -0.69687,-16.64146 0.006,-6.14417 8.5e-4,-12.28888 0.10649,-18.43234 0.1063,-4.24562 0.24993,-8.49424 0.72238,-12.71801 0,0 2.89809,0.036 2.89809,0.036 z"
       inkscape:connector-curvature="0" />
    <path
       style="color:#000000;display:inline;overflow:visible;visibility:visible;fill:#000000;fill-opacity:1;fill-rule:nonzero;stroke:#000000;stroke-width:0.45125338;stroke-linecap:butt;stroke-miterlimit:4;stroke-dasharray:none;stroke-dashoffset:22.20000076;stroke-opacity:1;marker:none;enable-background:accumulate"
       id="path4154"
       d="m 109.76526,476.37312 c 3.35061,-1.71441 7.00507,-2.65637 10.61959,-3.6265 5.41166,-1.39972 10.95607,-2.11335 16.49478,-2.78582 7.52781,-0.73235 15.08106,-1.1607 22.62037,-1.75244 8.57808,-0.60789 17.16229,-1.14775 25.74882,-1.62692 9.04732,-0.59494 18.08738,-1.29587 27.13631,-1.86477 9.88319,-0.59678 19.7833,-0.71455 29.68055,-0.60064 8.71802,0.12477 17.37726,1.13349 26.02314,2.16221 9.00059,1.06412 18.0228,1.81764 27.07574,2.22889 9.6919,0.35408 19.39195,0.35652 29.08891,0.37342 8.97492,-0.38154 17.95586,-0.62978 26.93714,-0.8089 9.97247,-0.17132 19.94558,-0.2338 29.91804,-0.0715 7.56502,0.17628 15.08614,1.15844 22.57628,2.17664 4.52977,0.52431 9.02685,1.24131 13.5036,2.10342 0.26783,0.0626 0.53566,0.12519 0.80351,0.1878 0,0 -2.87643,0.38881 -2.87643,0.38881 l 0,0 c -0.26199,-0.0599 -0.52398,-0.11978 -0.78597,-0.17967 -4.45182,-0.86568 -8.92759,-1.56514 -13.43214,-2.09724 -7.47991,-1.00812 -14.9878,-1.99273 -22.54261,-2.15099 -2.90481,-0.212 -1.04032,-0.11321 -5.83009,-0.0967 -6.20017,0.0214 -12.40044,0.0622 -18.59983,0.16693 -10.80152,0.2105 -21.5953,0.66887 -32.3978,0.81264 -9.70217,-0.0179 -19.40758,-0.0203 -29.10442,-0.38334 -9.05669,-0.41981 -18.08279,-1.18286 -27.08741,-2.24753 -8.64274,-1.02885 -17.30112,-2.01505 -26.01563,-2.13523 -8.05295,-0.38323 -16.1449,0.35755 -24.19165,0.58779 -9.04796,0.564 -18.08652,1.26809 -27.13224,1.86737 -8.58163,0.47534 -17.16029,1.02151 -25.73366,1.62262 -7.52926,0.59962 -15.07312,1.0245 -22.5926,1.74482 -5.52423,0.66418 -11.05328,1.37253 -16.45391,2.75079 -3.59277,0.96531 -7.25131,1.85795 -10.57001,3.59134 0,0 -2.88038,-0.33736 -2.88038,-0.33736 z"
       inkscape:connector-curvature="0" />
    <path
       style="color:#000000;display:inline;overflow:visible;visibility:visible;fill:#000000;fill-opacity:1;fill-rule:nonzero;stroke:#000000;stroke-width:0.45125338;stroke-linecap:butt;stroke-miterlimit:4;stroke-dasharray:none;stroke-dashoffset:22.20000076;stroke-opacity:1;marker:none;enable-background:accumulate"
       id="path4156"
       d="m 118.01015,432.61408 c -1.35099,-1.12894 -3.14378,-1.77628 -4.39302,-3.02343 0.0364,-0.12875 0.0209,-0.2857 0.10912,-0.38624 0.68453,-0.77991 5.73343,-0.99546 6.68522,-1.10956 7.90205,-0.84199 15.83292,-1.34952 23.77057,-1.69965 12.70256,-0.65725 25.4121,-1.14832 38.11231,-1.8542 15.15615,-0.78202 30.29612,-1.83807 45.45373,-2.59121 15.61397,-0.95689 31.2475,-1.44411 46.88638,-1.72017 14.24134,-0.20577 28.4845,-0.21036 42.72699,-0.21718 12.56562,-0.12197 25.12729,0.32017 37.67182,1.00278 8.57525,0.66208 17.15762,1.24484 25.6988,2.2706 5.70688,0.61015 11.38125,1.47527 17.08695,2.09291 3.37669,0.53536 6.75427,1.03958 10.16324,1.31363 1.64721,0.1157 3.29809,0.16522 4.9491,0.17166 0.10017,-4.2e-4 0.4007,-0.002 0.30052,-0.002 -6.31434,-0.008 0.9894,-0.085 1.65933,0.34086 0.49061,0.22454 0.99035,0.42934 1.49829,0.61139 0.30016,0.77738 0.20674,1.65354 0.20844,2.47186 -0.085,2.77427 0.003,5.52969 0.2492,8.29279 0.28549,4.54349 0.85462,9.06002 1.2083,13.59815 0.50841,4.29408 0.98044,8.58986 1.2565,12.90563 0.11062,1.82581 0.18382,3.65407 0.21791,5.48292 0.28701,0.40755 4.04432,0.36075 -2.30605,-0.12016 0,0 2.90446,0.25815 2.90446,0.25815 l 0,0 c -1.74031,0.18266 -3.00713,1.26063 -3.51592,-0.13484 -0.005,-1.82385 -0.0716,-3.64712 -0.16977,-5.46821 -0.26207,-4.31459 -0.72693,-8.60904 -1.23387,-12.9012 -0.35847,-4.53724 -0.92597,-9.05314 -1.2315,-13.59461 -0.25245,-2.77074 -0.34653,-5.53454 -0.28641,-8.31717 -0.005,-0.65559 0.1289,-1.55742 -0.20548,-2.11918 -0.50767,-0.19728 -1.01263,-0.40458 -1.49662,-0.65535 -1.05724,-0.498 -0.37205,-0.12292 2.26599,-0.20298 0.21974,-0.007 -0.43966,0.004 -0.6595,0.004 -3.04931,0.006 -2.19211,0.009 -3.544,0.003 -1.64215,-0.0177 -3.28403,-0.0731 -4.92185,-0.19802 -3.39758,-0.29134 -6.7628,-0.81217 -10.13265,-1.3258 -5.68944,-0.63148 -11.35041,-1.48849 -17.04224,-2.10227 -8.52364,-1.01339 -17.08631,-1.60875 -25.64357,-2.2607 -10.74937,-0.58516 -21.51101,-1.00436 -32.27824,-0.99585 -14.25357,0.003 -28.5078,0.006 -42.76026,0.20729 -15.63956,0.27098 -31.27417,0.75041 -46.88856,1.71119 -15.14964,0.74854 -30.28108,1.80796 -45.42881,2.59331 -12.67971,0.71243 -25.36916,1.20184 -38.05115,1.86684 -7.90397,0.34692 -15.79998,0.85606 -23.66846,1.69307 -2.23474,0.2765 -4.49326,0.53662 -6.71106,0.84556 1.3215,1.15893 2.98186,1.90845 4.37349,2.97669 0,0 -2.88767,0.28472 -2.88767,0.28472 z"
       inkscape:connector-curvature="0" />
    <path
       style="color:#000000;display:inline;overflow:visible;visibility:visible;fill:#000000;fill-opacity:1;fill-rule:nonzero;stroke:#000000;stroke-width:0.45125338;stroke-linecap:butt;stroke-miterlimit:4;stroke-dasharray:none;stroke-dashoffset:22.20000076;stroke-opacity:1;marker:none;enable-background:accumulate"
       id="path4160"
       d="m 411.33794,425.30024 c 2.97693,-3.25691 5.67598,-6.73194 8.143,-10.38707 3.90981,-6.07047 7.73905,-12.19229 11.57098,-18.31215 4.4225,-7.24539 8.77229,-14.53486 13.23957,-21.75289 3.58059,-5.90618 7.51669,-11.5788 11.49849,-17.21754 2.24747,-3.20585 4.59154,-6.33976 6.94776,-9.46611 1.08027,-1.1964 1.9138,-2.56086 2.79613,-3.89936 0.49267,-0.75981 0.82841,-1.59845 1.29375,-2.37818 0.39757,-0.66404 0.424,-1.43976 0.66265,-2.15325 0.21305,-0.52076 0.47714,-1.01937 0.77429,-1.49668 0.22916,-0.37246 -0.0668,0.15207 0.005,0.16528 0.86587,0.15803 1.75806,0.0896 2.63709,0.13434 -1.09924,0.80389 -2.34442,1.37688 -3.54294,2.01364 -2.30354,1.25572 -4.84136,1.93888 -7.36525,2.59251 -4.18213,0.80203 -8.42551,1.22695 -12.64564,1.77573 -6.25286,0.79321 -12.55622,1.04028 -18.84067,1.47051 -7.73786,0.53414 -15.49401,0.6731 -23.24725,0.76402 -9.51821,0.1388 -19.02731,-0.39068 -28.53912,-0.65151 -8.79601,-0.17047 -17.58877,-0.20512 -26.38002,-0.55507 -8.80205,-0.57024 -17.60209,-1.16511 -26.38258,-2.00931 -8.69362,-0.76447 -17.38357,-1.57003 -26.0965,-2.08244 -8.14998,-0.24865 -16.28744,-0.76207 -24.4333,-1.10866 -6.9317,-0.24575 -13.86267,-0.27299 -20.78863,-0.65777 -5.58516,-0.36729 -11.17918,-0.54329 -16.77472,-0.63878 -4.4735,-0.14023 -8.95788,0.0974 -13.4252,-0.18599 -3.22529,-0.28454 -6.4467,-0.51526 -9.64325,-1.03504 -2.52683,-0.45069 -5.08902,-0.6296 -7.65008,-0.73305 4.84516,-0.15916 -2.12729,0.61877 -2.90949,0.72255 -0.73102,0.074 -1.47239,0.17531 -2.20405,0.18286 0.0144,-0.58506 0.17503,-0.49144 0.56163,-0.25311 0,0 -2.90009,0.34114 -2.90009,0.34114 l 0,0 c -0.43371,-0.0951 -0.54139,0.0836 -0.56228,-0.4937 0.72851,-0.0947 1.49284,-0.0902 2.22883,-0.19444 2.8771,-0.37077 5.71588,-0.95279 8.64304,-0.7454 2.56041,0.1154 5.11974,0.31359 7.64549,0.76781 3.18884,0.50722 6.4057,0.72603 9.62101,1.00923 4.46187,0.24681 8.93686,0.0445 13.40331,0.17732 5.58885,0.10099 11.17586,0.28499 16.75433,0.65269 6.9187,0.37902 13.8433,0.398 20.76699,0.6576 8.14186,0.35184 16.27604,0.85689 24.42191,1.11504 8.71104,0.52157 17.40001,1.32672 26.09215,2.09326 8.78015,0.8355 17.57889,1.43742 26.3807,1.99388 8.79128,0.34582 17.58461,0.37164 26.38027,0.55168 7.67731,0.21345 15.35323,0.64963 23.03108,0.64556 7.74689,-0.0882 15.49689,-0.22174 23.22871,-0.75075 6.27072,-0.4307 12.55979,-0.6812 18.80037,-1.45869 4.20626,-0.55902 8.43507,-0.98102 12.6111,-1.74597 2.51086,-0.63345 5.03672,-1.3016 7.33553,-2.52533 1.17756,-0.64133 2.39514,-1.20993 3.51663,-1.94682 0.16845,-0.018 3.67933,-1.23306 3.18664,0.11393 -0.30588,0.44887 -0.56245,0.93051 -0.78181,1.42704 -0.27092,0.72032 -0.25897,1.52916 -0.66421,2.21293 -0.47969,0.77987 -0.81893,1.61781 -1.30069,2.38993 -0.89701,1.34013 -1.716,2.72637 -2.82054,3.91614 -2.38257,3.11584 -4.73948,6.24907 -7.00251,9.45307 -3.99464,5.63161 -7.95231,11.29136 -11.53577,17.19817 -4.47693,7.21269 -8.83192,14.49957 -13.2407,21.7539 -3.82147,6.12156 -7.64366,12.2428 -11.5294,18.32377 -2.44857,3.66268 -5.12902,7.14622 -8.07995,10.42079 0,0 -2.89231,-0.20126 -2.89231,-0.20126 z"
       inkscape:connector-curvature="0" />
    <path
       style="color:#000000;display:inline;overflow:visible;visibility:visible;fill:#000000;fill-opacity:1;fill-rule:nonzero;stroke:#000000;stroke-width:0.45125338;stroke-linecap:butt;stroke-miterlimit:4;stroke-dasharray:none;stroke-dashoffset:22.20000076;stroke-opacity:1;marker:none;enable-background:accumulate"
       id="path4162"
       d="m 472.87935,349.81605 c -1.11439,3.16917 -1.21967,6.49399 -0.90583,9.80215 0.52389,3.64131 1.12899,7.30424 2.18786,10.83316 0.71666,2.61255 2.00237,5.0068 2.97948,7.51944 0.54884,1.33844 0.82866,2.75022 0.96768,4.18305 0.0254,0.32987 0.0515,0.66105 0.0349,0.99193 -0.18625,-0.14384 -3.2454,0.67239 -4.25285,0.038 -0.53653,-0.34 -1.13588,-0.50833 -1.7435,-0.66931 0,0 2.89408,-0.37768 2.89408,-0.37768 l 0,0 c 0.60822,0.17961 1.19279,0.40408 1.74996,0.7099 1.28745,0.30459 2.49182,-0.31165 -1.57651,0.2691 0.0168,-0.31139 0.007,-0.62352 -0.0206,-0.93472 -0.12626,-1.40652 -0.41041,-2.78848 -0.94284,-4.10273 -0.98325,-2.51564 -2.25222,-4.92354 -2.96003,-7.54388 -1.04784,-3.55097 -1.66067,-7.2294 -2.18592,-10.88914 -0.31663,-3.35502 -0.19847,-6.71873 0.87652,-9.9466 0,0 2.8977,0.11739 2.8977,0.11739 z"
       inkscape:connector-curvature="0" />
    <path
       style="color:#000000;display:inline;overflow:visible;visibility:visible;fill:#000000;fill-opacity:1;fill-rule:nonzero;stroke:#000000;stroke-width:0.45125338;stroke-linecap:butt;stroke-miterlimit:4;stroke-dasharray:none;stroke-dashoffset:22.20000076;stroke-opacity:1;marker:none;enable-background:accumulate"
       id="path4164"
       d="m 483.38711,385.8805 c -2.3992,2.97424 -4.57091,6.11923 -6.81995,9.20555 -2.7708,3.88647 -5.60871,7.72514 -8.53055,11.49951 -3.90966,4.69291 -7.84398,9.37482 -11.91064,13.93339 -4.25482,4.77806 -8.49184,9.57423 -12.62162,14.46107 -3.27641,4.16151 -6.51694,8.36493 -9.54654,12.7115 -1.97531,2.60661 -3.51733,5.47071 -5.06002,8.3368 -0.60717,1.14071 -1.20209,2.28266 -1.49481,3.54689 -0.0499,0.23121 -0.088,0.46639 -0.0844,0.70199 0,0 -2.92908,0.0347 -2.92908,0.0347 l 0,0 c -0.009,-0.27087 0.0429,-0.53853 0.0966,-0.80322 0.30128,-1.29306 0.89046,-2.46187 1.52399,-3.62446 1.57821,-2.86281 3.09623,-5.76023 5.10141,-8.36606 3.0344,-4.3573 6.29901,-8.55653 9.5703,-12.73652 4.1347,-4.88786 8.3787,-9.6832 12.63181,-14.46803 4.0655,-4.54703 7.98044,-9.23308 11.88873,-13.91496 2.91798,-3.77031 5.74677,-7.60914 8.51232,-11.49241 2.24756,-3.0849 4.42376,-6.22235 6.78017,-9.22695 0,0 2.89231,0.20126 2.89231,0.20126 z"
       inkscape:connector-curvature="0" />
    <path
       style="color:#000000;display:inline;overflow:visible;visibility:visible;fill:#000000;fill-opacity:1;fill-rule:nonzero;stroke:#000000;stroke-width:0.45125338;stroke-linecap:butt;stroke-miterlimit:4;stroke-dasharray:none;stroke-dashoffset:22.20000076;stroke-opacity:1;marker:none;enable-background:accumulate"
       id="path4166"
       d="m 289.40228,329.48228 c -0.89839,-5.07036 -1.45243,-10.20557 -1.9024,-15.33427 -0.56908,-8.02864 -1.10425,-16.05896 -1.70572,-24.0853 -0.73578,-7.51468 -1.25956,-15.05 -2.31014,-22.52972 -0.55132,-3.37495 -0.87276,-6.79446 -1.97985,-10.04521 -0.16846,-0.44251 -0.33982,-0.96491 -0.65474,-1.29553 2.72586,0.39389 3.05901,-0.52729 2.44571,1.16615 0,0 -2.91187,-0.0991 -2.91187,-0.0991 l 0,0 c 0.53001,-1.53111 0.99393,-1.5262 3.3843,-1.31715 0.26998,0.45696 0.46613,0.9506 0.63663,1.45275 1.05815,3.27891 1.37145,6.70796 1.90397,10.09922 1.02227,7.48797 1.53429,15.02873 2.27257,22.54776 0.60069,8.02565 1.14341,16.05475 1.73595,24.08097 0.46775,5.11415 1.0122,10.24367 1.98229,15.28845 0,0 -2.8967,0.071 -2.8967,0.071 z"
       inkscape:connector-curvature="0" />
    <path
       style="color:#000000;display:inline;overflow:visible;visibility:visible;fill:#000000;fill-opacity:1;fill-rule:nonzero;stroke:#000000;stroke-width:0.45125338;stroke-linecap:butt;stroke-miterlimit:4;stroke-dasharray:none;stroke-dashoffset:22.20000076;stroke-opacity:1;marker:none;enable-background:accumulate"
       id="path4168"
       d="m 280.3433,265.83301 c -1.84962,3.22628 -3.51206,6.55471 -5.24104,9.8466 -0.54955,1.04457 -0.97911,2.14429 -1.50989,3.19759 -0.11798,0.23414 -0.16225,0.73728 -0.41515,0.66808 -0.9176,-0.25107 -1.78714,-0.65289 -2.68072,-0.97934 1.42289,-3.65378 2.93332,-7.27077 4.32622,-10.93694 1.7266,-4.59082 3.54179,-9.15215 5.842,-13.48849 1.09886,-2.32656 2.43869,-4.46402 4.79216,-5.63027 2.93427,-0.96118 5.50686,-0.26657 8.04134,1.14557 2.4835,1.40203 4.3298,3.49162 5.9788,5.77134 1.86905,2.59812 3.61277,5.2782 5.03376,8.14801 0.80163,1.94975 2.07019,3.64756 3.04836,5.49744 0.67419,1.05207 0.42695,1.97272 0.17872,3.1168 0,0 -2.90621,-0.0614 -2.90621,-0.0614 l 0,0 c 0.23185,-1.09331 0.47184,-1.91078 -0.17647,-2.91261 -0.99633,-1.84006 -2.20067,-3.56947 -3.02008,-5.50752 -1.42221,-2.85255 -3.16375,-5.51786 -5.03048,-8.09935 -1.65143,-2.24221 -3.5026,-4.28915 -5.97988,-5.64397 -0.59868,-0.32137 -1.29052,-0.72599 -1.94059,-0.95897 -0.28057,-0.10056 -1.15142,-0.15518 -0.86348,-0.23212 0.65853,-0.17597 1.36456,-0.0194 2.04321,-0.0831 0.25872,-0.0243 -0.52016,-0.0609 -0.77878,-0.0356 -0.25427,0.025 -0.49588,0.12333 -0.74383,0.185 -2.39425,1.02795 -3.72562,3.15266 -4.82058,5.44094 -2.32123,4.31539 -4.13742,8.86729 -5.85768,13.45101 -1.37642,3.65625 -2.86403,7.26649 -4.26611,10.91224 -1.04402,0.21927 -2.08345,0.46165 -3.13206,0.65782 -0.065,0.0122 0.12918,-0.051 0.16945,-0.10358 0.10617,-0.13848 0.17676,-0.30102 0.2588,-0.45502 0.55779,-1.04695 0.98655,-2.15385 1.54078,-3.20304 1.7428,-3.28398 3.41031,-6.60708 5.21503,-9.85755 0,0 2.8944,0.15039 2.8944,0.15039 z"
       inkscape:connector-curvature="0" />
    <path
       style="color:#000000;display:inline;overflow:visible;visibility:visible;fill:#000000;fill-opacity:1;fill-rule:nonzero;stroke:#000000;stroke-width:0.45125338;stroke-linecap:butt;stroke-miterlimit:4;stroke-dasharray:none;stroke-dashoffset:22.20000076;stroke-opacity:1;marker:none;enable-background:accumulate"
       id="path4170"
       d="m 318.90553,247.3166 c 0.024,4.81163 0.48339,9.61691 0.95295,14.40341 0.40595,4.76807 1.09991,9.50508 1.6311,14.26023 0.0761,0.70502 0.0785,1.36293 0.34818,2.02236 0.0474,0.11606 0.34878,0.31941 0.22465,0.30171 -0.92816,-0.13234 -1.94031,-0.16081 -2.7342,-0.65952 -0.29095,-0.18278 0.0425,-0.68621 0.045,-1.02979 0.003,-0.4447 -0.0181,-0.88923 -0.0272,-1.33385 -0.23843,-4.31419 -0.76279,-8.60593 -1.03073,-12.92123 -0.26144,-4.16756 -0.42534,-8.38368 0.63928,-12.45216 0.66736,-2.2641 1.40971,-3.87596 3.89242,-4.21882 1.25343,0.0463 2.51337,0.003 3.76027,0.13893 1.52206,0.16567 3.68506,2.27341 4.78565,3.24409 2.22714,2.03598 2.5798,4.73073 2.38829,7.58817 -0.44207,3.1204 -1.88283,5.95155 -3.40336,8.67007 -0.43708,1.00912 -1.40653,2.49699 -0.003,3.04844 1.63043,0.12674 3.04866,0.70804 4.46425,1.49684 1.9845,1.19683 2.97825,3.32659 3.96076,5.32866 0.9977,2.21378 1.03499,4.41644 -0.0428,6.56955 -1.15517,1.75302 -2.96179,2.52777 -4.99458,2.66558 -2.48458,0.1767 -3.63938,0.22145 -5.53284,-0.75561 0,0 2.88108,-0.32397 2.88108,-0.32397 l 0,0 c 0.92951,0.42047 3.64454,0.85344 -0.21195,0.6368 1.9735,-0.0106 3.78718,-0.70888 4.96637,-2.36003 1.08542,-2.06156 1.03268,-4.17049 0.0464,-6.30028 -0.96827,-1.96659 -1.96563,-4.02796 -3.95559,-5.14988 -1.4342,-0.75613 -2.88609,-1.21537 -4.47719,-1.49228 -1.33601,-0.88149 -0.54494,-2.3239 0.0154,-3.51223 1.52379,-2.67049 2.96434,-5.46196 3.40876,-8.54082 0.18479,-2.78946 -0.18085,-5.36956 -2.38582,-7.3234 -1.18684,-1.03013 -2.39828,-2.13219 -3.85875,-2.76683 -0.29738,-0.12923 -1.2213,-0.18787 -0.92153,-0.31148 0.61148,-0.25214 1.32022,-0.0834 1.98034,-0.12511 -2.58895,0.16102 -3.14067,1.55303 -3.8873,3.86879 -1.10213,4.0285 -0.9179,8.22387 -0.66749,12.35914 0.27392,4.31985 0.79813,8.61504 1.06832,12.93221 0.0181,0.66484 0.0839,2.39225 0.002,2.44063 -3.45472,2.0427 -3.3719,0.61812 -3.61726,-1.70385 -0.49326,-4.75913 -1.18343,-9.49569 -1.58977,-14.26339 -0.46995,-4.79789 -0.93388,-9.60921 -1.01891,-14.43108 0,0 2.89854,0 2.89854,0 z"
       inkscape:connector-curvature="0" />
    <path
       style="color:#000000;display:inline;overflow:visible;visibility:visible;fill:#000000;fill-opacity:1;fill-rule:nonzero;stroke:#000000;stroke-width:0.45125338;stroke-linecap:butt;stroke-miterlimit:4;stroke-dasharray:none;stroke-dashoffset:22.20000076;stroke-opacity:1;marker:none;enable-background:accumulate"
       id="path4176"
       d="m 183.14368,500.00833 c 3.62506,-0.45521 7.27622,-0.63461 10.92511,-0.76028 4.25068,0.0247 8.48024,-0.24211 12.71642,-0.5524 5.4677,-0.644 10.95668,-1.05657 16.4372,-1.57087 6.2419,-0.45371 12.48633,-0.85923 18.72989,-1.29848 6.43411,-0.36802 12.85443,-0.94692 19.27039,-1.5478 6.67313,-0.5788 13.33934,-1.23761 20.00306,-1.9167 6.20754,-0.61309 12.39978,-1.31367 18.62815,-1.68617 5.43242,-0.252 10.8467,-0.76458 16.27824,-1.04303 5.25243,-0.3115 10.5058,-0.25568 15.74731,0.18319 2.96977,0.2755 5.94914,0.4174 8.93001,0.49213 0.83453,0.0463 8.65398,0.0394 3.11546,0.0379 0.84064,-0.002 1.6813,-0.002 2.52194,-0.006 -0.0314,0.15201 -0.0164,0.32179 -0.0944,0.45603 -0.0627,0.10805 -1.35205,-0.0958 -1.508,-0.16082 -1.28298,-0.39603 -2.46436,-1.04443 -3.58694,-1.77269 -2.11998,-1.20764 -4.15335,-2.5465 -6.09446,-4.02335 -2.35243,-1.74127 -4.69511,-3.50881 -6.93506,-5.39248 -1.00295,-0.52158 -2.23057,-2.27981 -3.51412,-2.09777 0.97049,0.099 1.972,0.0342 2.91146,0.29706 0.2038,0.0571 0.1229,0.41276 0.2447,0.58581 0.15339,0.21792 0.36679,0.38755 0.56546,0.56515 0.89743,0.80231 1.94282,1.42806 2.93816,2.09749 3.10309,1.97979 6.32328,3.78584 9.6772,5.30267 3.30509,1.42829 6.71306,2.60103 10.09485,3.83171 1.84556,0.84951 3.582,1.37979 3.35407,3.71384 -0.99584,2.57984 -3.56345,4.21779 -5.68447,5.83212 -3.08731,2.3799 -6.6339,3.99483 -10.12652,5.66842 -1.30529,0.62612 -2.59997,1.22609 -4.03088,1.47545 0,0 -2.87831,-0.41331 -2.87831,-0.41331 l 0,0 c 1.45181,-0.17007 2.74162,-0.75255 4.05348,-1.38447 3.48395,-1.66913 7.04358,-3.23792 10.12731,-5.60991 2.06484,-1.56361 4.56205,-3.15433 5.63474,-5.59858 0.22647,-2.00807 -1.74424,-2.64769 -3.3078,-3.33309 -3.37576,-1.24163 -6.7848,-2.4062 -10.07906,-3.85599 -3.35634,-1.54676 -6.59478,-3.34906 -9.70437,-5.34708 -1.16534,-0.78371 -2.7789,-1.5889 -3.53891,-2.83629 -0.12705,-0.20854 -0.4669,-0.57136 -0.25225,-0.68779 0.87416,-0.47414 1.92633,-0.49511 2.8895,-0.74266 1.36453,0.35462 2.38004,1.51024 3.50195,2.28515 2.2471,1.86972 4.57138,3.6508 6.92942,5.3787 1.94983,1.46433 3.99498,2.78117 6.10838,3.99803 1.13012,0.69899 2.31265,1.32493 3.59568,1.69388 0.16364,0.0321 1.46248,-9e-5 1.50595,0.074 0.0786,0.13418 0.0633,0.30452 0.0949,0.45679 -0.84896,0.003 -1.69795,0.002 -2.54691,0.004 -2.94545,1.2e-4 -5.89161,0.0159 -8.83661,-0.0474 -2.97461,-0.083 -5.94718,-0.23549 -8.91075,-0.51155 -1.27053,-0.10508 -2.55831,-0.0698 -3.81325,-0.29431 -0.2277,-0.0408 0.91989,-0.0792 0.68866,-0.0855 -2.32355,-0.0639 -4.65465,0.18281 -6.97678,0.20236 -5.43691,0.27027 -10.85554,0.78461 -16.29246,1.03844 -6.23221,0.36174 -12.42741,1.0561 -18.63764,1.67261 -6.66411,0.67725 -13.32981,1.34307 -20.00338,1.91894 -6.41384,0.60077 -12.83124,1.19058 -19.26346,1.55554 -6.24276,0.43482 -12.48487,0.85432 -18.72679,1.29218 -5.47285,0.51373 -10.95477,0.92082 -16.41301,1.58039 -4.23396,0.30964 -8.45934,0.60865 -12.70869,0.565 -3.63539,0.11879 -7.27425,0.28524 -10.88574,0.73974 0,0 -2.86805,-0.41777 -2.86805,-0.41777 z"
       inkscape:connector-curvature="0" />
    <path
       style="color:#000000;display:inline;overflow:visible;visibility:visible;fill:#000000;fill-opacity:1;fill-rule:nonzero;stroke:#000000;stroke-width:0.45125338;stroke-linecap:butt;stroke-miterlimit:4;stroke-dasharray:none;stroke-dashoffset:22.20000076;stroke-opacity:1;marker:none;enable-background:accumulate"
       id="path4178"
       d="m 359.92856,512.01285 c -0.0281,4.19047 -0.0223,8.38107 -0.0248,12.57161 -0.003,3.97325 0.007,7.94651 0.0156,11.91976 0.005,1.25179 0.009,2.50362 0.0218,3.75537 -0.4035,0.61996 -1.5617,0.65133 -2.24714,0.8115 -1.84595,0.52526 -3.64788,1.19224 -5.50061,1.69071 -2.17551,0.52418 -4.41188,0.66507 -6.63998,0.74787 -2.76359,0.0619 -5.52857,0.0459 -8.29262,0.038 -0.8265,-0.003 -1.653,-0.005 -2.47952,-0.008 -1.09354,-0.43008 0.56382,-0.45714 0.72083,-0.45694 3.52788,2.4e-4 7.05575,0.003 10.58362,0.003 4.2782,0.002 8.55641,0.002 12.8346,0.002 4.40673,-0.0766 3.77244,0.0872 8.50515,-0.68306 2.13827,-0.38036 4.31068,-0.96292 6.04551,-2.31945 0.56057,-0.57236 0.32056,-0.26605 0.72918,-0.91165 0,0 2.90608,0.15686 2.90608,0.15686 l 0,0 c -0.41098,0.72353 -0.1653,0.38511 -0.74243,1.01133 -1.70004,1.45483 -3.92838,2.06153 -6.08996,2.46539 -4.67813,0.81657 -9.43882,0.74597 -14.17412,0.72731 -4.2835,-2e-4 -8.56701,-10e-5 -12.85053,0.002 -1.58683,2.9e-4 -3.17368,5.9e-4 -4.7605,0.002 -0.41087,1.7e-4 -0.82174,3.7e-4 -1.2326,6.1e-4 -0.33255,1.7e-4 -1.33018,2.8e-4 -0.99763,6.2e-4 0.70635,6.9e-4 1.41271,3.4e-4 2.11907,5.1e-4 -0.16097,2.2e-4 -1.78698,-0.0266 -0.70762,-0.45478 0.82059,0.004 1.64118,0.008 2.46178,0.0104 1.50262,0.005 0.5619,6.9e-4 -1.34752,0.003 -0.2914,4.1e-4 0.58279,6.8e-4 0.87418,3e-4 1.01154,-0.002 2.02316,-0.007 3.03446,-0.0311 2.22369,-0.0704 4.45602,-0.19149 6.63338,-0.68429 1.85764,-0.46909 3.65486,-1.14556 5.48763,-1.7023 0.734,-0.15887 1.45256,-0.49017 2.20354,-0.42049 0.0129,-1.25174 0.0168,-2.50357 0.0218,-3.75537 0.009,-3.97325 0.0188,-7.94649 0.0156,-11.91975 -0.003,-4.19054 0.003,-8.38114 -0.0248,-12.57161 0,0 2.89855,0 2.89855,0 z"
       inkscape:connector-curvature="0" />
    <path
       style="color:#000000;display:inline;overflow:visible;visibility:visible;fill:#000000;fill-opacity:1;fill-rule:nonzero;stroke:#000000;stroke-width:0.45125338;stroke-linecap:butt;stroke-miterlimit:4;stroke-dasharray:none;stroke-dashoffset:22.20000076;stroke-opacity:1;marker:none;enable-background:accumulate"
       id="path4180"
       d="m 345.28234,516.61288 c 3.50359,-0.28345 6.98368,-0.72759 10.46715,-1.18934 3.209,-0.50558 6.3882,-1.13812 9.55675,-1.84903 0.96667,-0.20839 1.94053,-0.37953 2.91502,-0.54625 0,0 2.87539,0.40672 2.87539,0.40672 l 0,0 c -0.97999,0.1601 -1.95925,0.32541 -2.93154,0.52825 -3.17786,0.70439 -6.35939,1.35767 -9.57503,1.8721 -3.47541,0.45599 -6.94328,0.92541 -10.4397,1.19532 0,0 -2.86804,-0.41777 -2.86804,-0.41777 z"
       inkscape:connector-curvature="0" />
    <path
       style="color:#000000;display:inline;overflow:visible;visibility:visible;fill:#000000;fill-opacity:1;fill-rule:nonzero;stroke:#000000;stroke-width:0.66000003;stroke-linecap:butt;stroke-miterlimit:4;stroke-dasharray:none;stroke-dashoffset:22.20000076;stroke-opacity:1;marker:none;enable-background:accumulate"
       id="path4323"
       d="m 211.76997,440.12748 c -0.62509,-0.74349 -1.1711,-1.54732 -1.77678,-2.30668 -0.78228,-0.91272 -1.51119,-1.4089 -2.68478,-1.68241 -0.19412,-0.0123 -0.38786,-0.0369 -0.58238,-0.0369 -0.0435,10e-6 0.16641,0.0233 0.12511,0.0369 -1.20929,0.39753 -0.035,-0.17992 -1.24019,0.34439 -0.55587,0.24185 -0.77812,0.42193 -1.28999,0.75953 -1.69596,1.29838 -2.76356,3.13278 -3.69416,5.01398 -0.78772,1.85547 -1.30729,3.89396 -0.89001,5.91325 0.0756,0.36593 0.21793,0.71483 0.3269,1.07225 0.1674,0.31824 0.29975,0.65755 0.50221,0.95472 0.85845,1.26001 2.27294,1.85417 3.75088,1.98417 0.42574,0.0374 0.8547,0.01 1.28205,0.015 0.22257,-0.0539 0.44451,-0.11047 0.66772,-0.16168 1.40487,-0.32226 1.56598,-0.3028 2.95317,-0.78216 1.57026,-0.54262 3.0245,-1.28831 4.492,-2.05669 2.15005,-1.26096 4.29364,-2.65448 5.97306,-4.52439 0.28815,-0.32084 0.54012,-0.67242 0.81018,-1.00863 0.83732,-1.19766 1.54373,-2.55578 1.57783,-4.05251 0.0189,-0.83162 -0.10974,-1.06492 -0.33155,-1.85116 -0.7791,-1.63924 -2.26539,-2.63804 -3.97764,-3.14139 -0.38901,-0.11436 -0.79131,-0.17739 -1.18696,-0.26608 -2.30933,-0.42335 -4.61591,-0.0625 -6.86693,0.49819 -1.59756,0.46209 -3.20257,1.04045 -4.54856,2.03889 0,0 -0.72887,-0.068 -0.72887,-0.068 l 0,0 c 1.34995,-1.01229 2.96747,-1.59475 4.57398,-2.06467 0.38483,-0.0972 0.76628,-0.20901 1.1545,-0.29167 2.32832,-0.49572 4.76759,-0.56129 7.11812,-0.20792 0.39653,0.0918 0.79992,0.15775 1.18959,0.27528 1.7276,0.52109 3.21605,1.54516 3.9904,3.20776 0.22215,0.79995 0.35051,1.03446 0.32998,1.87948 -0.0367,1.51008 -0.7457,2.88142 -1.58951,4.09145 -0.27103,0.33868 -0.52368,0.69291 -0.81307,1.01604 -1.68152,1.87757 -3.83102,3.27639 -5.9847,4.54464 -3.03796,1.59631 -5.99838,2.9616 -9.50064,3.0346 -1.01098,-0.0202 -1.4924,0.0388 -2.46449,-0.24077 -1.46795,-0.42213 -2.49328,-1.41318 -3.08422,-2.80167 -0.10843,-0.36165 -0.24998,-0.71498 -0.32527,-1.08496 -0.41372,-2.03308 0.10187,-4.08403 0.8918,-5.95388 0.92871,-1.89045 1.99304,-3.73479 3.6824,-5.05252 1.53409,-1.03268 2.50899,-1.35855 4.432,-1.13001 1.15654,0.29532 1.92405,0.81465 2.69031,1.7303 0.60478,0.76163 1.15169,1.56736 1.78679,2.30434 0,0 -0.74028,0.0515 -0.74028,0.0515 z"
       inkscape:connector-curvature="0" />
    <path
       style="color:#000000;display:inline;overflow:visible;visibility:visible;fill:#000000;fill-opacity:1;fill-rule:nonzero;stroke:#000000;stroke-width:0.66000003;stroke-linecap:butt;stroke-miterlimit:4;stroke-dasharray:none;stroke-dashoffset:22.20000076;stroke-opacity:1;marker:none;enable-background:accumulate"
       id="path4325"
       d="m 245.41796,433.88998 c -1.41479,0.32311 -2.00852,1.16105 -2.75113,2.33218 -0.94808,1.86598 -1.54719,3.92113 -1.83752,5.99311 -0.068,0.48564 -0.0998,0.97568 -0.1497,1.46352 -0.0826,1.7117 -0.0961,3.55382 0.71119,5.12344 0.4453,0.86582 0.66003,0.94546 1.36188,1.5754 0.31226,0.15766 0.60891,0.35107 0.93678,0.47299 2.06125,0.76646 3.69715,0.16528 5.67171,-0.51888 2.49885,-1.05332 4.82821,-2.52952 6.82158,-4.37289 0.38922,-0.35993 0.75111,-0.74832 1.12666,-1.12248 1.5231,-1.69086 2.90784,-3.57292 3.47306,-5.81473 0.0889,-0.3527 0.13136,-0.71551 0.19704,-1.07326 0.1379,-1.66203 -0.21871,-3.13939 -1.4129,-4.35687 -0.22726,-0.23169 -0.49117,-0.42433 -0.73676,-0.6365 -1.97664,-1.37976 -4.13592,-1.62455 -6.47976,-1.67785 -2.17906,0.12757 -4.3262,0.50602 -6.45204,0.98455 -1.42033,0.35365 -2.92801,0.68038 -4.07201,1.64767 0,0 -0.73209,-0.0633 -0.73209,-0.0633 l 0,0 c 1.14255,-0.99041 2.66493,-1.32365 4.09718,-1.68029 2.58093,-0.5834 5.20101,-1.04081 7.8581,-0.99756 2.35648,0.0639 4.51799,0.32228 6.49482,1.72564 0.24616,0.21613 0.51097,0.4127 0.73848,0.64838 1.19714,1.24013 1.55347,2.73895 1.40969,4.41916 -0.18277,0.98589 -0.18834,1.26521 -0.56343,2.22467 -0.69455,1.77661 -1.86255,3.29765 -3.12557,4.70499 -0.37611,0.37582 -0.73856,0.76584 -1.12835,1.12747 -1.99325,1.84926 -4.32238,3.33265 -6.81963,4.39934 -0.46922,0.16559 -0.92972,0.3583 -1.40764,0.49678 -1.69902,0.49229 -3.97428,0.66986 -5.66807,0.0141 -0.32956,-0.12759 -0.62619,-0.32776 -0.93929,-0.49163 -0.70245,-0.64684 -0.91614,-0.72924 -1.35965,-1.60902 -0.79871,-1.58437 -0.78565,-3.43406 -0.70095,-5.1564 0.0496,-0.48959 0.0811,-0.98135 0.1487,-1.46879 0.28838,-2.07931 0.88286,-4.14195 1.81987,-6.02108 0.70839,-1.13917 1.35713,-2.07399 2.73462,-2.38988 0,0 0.73513,0.098 0.73513,0.098 z"
       inkscape:connector-curvature="0" />
    <path
       style="color:#000000;display:inline;overflow:visible;visibility:visible;fill:#000000;fill-opacity:1;fill-rule:nonzero;stroke:#000000;stroke-width:0.66000003;stroke-linecap:butt;stroke-miterlimit:4;stroke-dasharray:none;stroke-dashoffset:22.20000076;stroke-opacity:1;marker:none;enable-background:accumulate"
       id="path4327"
       d="m 284.60866,433.33215 c -0.28105,-0.85288 -0.54132,-1.40226 -1.31458,-1.89625 -0.0628,-0.0197 -0.66275,-0.25022 -0.7411,-0.0993 -0.052,0.10018 0.34374,0.0295 0.30961,0.13708 -0.0533,0.1681 -0.30707,0.17646 -0.44421,0.28732 -0.44894,0.36291 -0.5577,0.57062 -0.91237,1.03937 -0.9579,1.50233 -1.56781,3.2127 -1.81416,4.97705 -0.0585,0.41912 -0.0794,0.84264 -0.11913,1.26397 -0.0569,1.62326 0.1672,3.26881 1.01466,4.68722 0.53881,0.90183 0.76559,0.99769 1.5404,1.68813 0.34337,0.20007 0.67025,0.4316 1.03012,0.60022 1.45363,0.68111 3.1919,0.95473 4.78809,0.85694 0.52484,-0.0322 1.04763,-0.0917 1.57145,-0.1376 2.1546,-0.30705 4.25705,-0.93132 6.25981,-1.77907 1.2359,-0.52315 1.67861,-0.78849 2.85588,-1.41012 1.98306,-1.16929 3.92939,-2.53993 5.33322,-4.39706 0.23329,-0.30863 0.42662,-0.64553 0.63994,-0.96829 0.84619,-1.45079 1.12214,-3.08319 0.45591,-4.66577 -0.12576,-0.29874 -0.30353,-0.57282 -0.45529,-0.85924 -1.35773,-2.00923 -3.52288,-3.04016 -5.70727,-3.90587 -2.30621,-0.84354 -4.73201,-1.24947 -7.16566,-1.49345 -1.76947,-0.19972 -3.53416,-0.0765 -5.28493,0.20551 -1.15922,0.22002 -2.10383,0.63217 -2.98213,1.41234 0,0 -0.7294,-0.0614 -0.7294,-0.0614 l 0,0 c 0.90139,-0.81547 1.80141,-1.2099 2.99845,-1.45209 2.21504,-0.36495 4.46469,-0.40905 6.7012,-0.20844 2.43411,0.25004 4.85985,0.66269 7.16457,1.51346 2.19538,0.87838 4.36517,1.92617 5.72113,3.95521 0.15233,0.29071 0.33096,0.56909 0.45699,0.87214 0.66701,1.60381 0.39163,3.25969 -0.4643,4.72902 -0.21449,0.32558 -0.40883,0.66536 -0.64346,0.97674 -1.4063,1.8663 -3.35757,3.24567 -5.34628,4.4226 -1.17049,0.62003 -1.63088,0.89507 -2.85908,1.41793 -2.00267,0.85254 -4.10556,1.48216 -6.26044,1.79867 -2.57094,0.23521 -5.35174,0.40135 -7.75398,-0.7486 -0.36126,-0.17294 -0.68846,-0.4095 -1.03269,-0.61424 -0.77862,-0.70585 -1.0013,-0.80034 -1.54151,-1.71627 -0.84524,-1.43309 -1.07001,-3.08976 -1.0122,-4.72521 0.0393,-0.42345 0.06,-0.84905 0.118,-1.27036 0.24391,-1.77319 0.84954,-3.49303 1.79891,-5.01054 0.28606,-0.3875 0.84251,-1.22081 1.35039,-1.3702 0.37061,-0.10901 0.76302,-0.12476 1.1475,-0.16232 0.37327,-0.0365 0.40757,0.0182 0.74667,0.14184 0.76335,0.51871 1.0359,1.09111 1.3236,1.94828 0,0 -0.74233,0.0207 -0.74233,0.0207 z"
       inkscape:connector-curvature="0" />
    <path
       style="color:#000000;display:inline;overflow:visible;visibility:visible;fill:#000000;fill-opacity:1;fill-rule:nonzero;stroke:#000000;stroke-width:0.66000003;stroke-linecap:butt;stroke-miterlimit:4;stroke-dasharray:none;stroke-dashoffset:22.20000076;stroke-opacity:1;marker:none;enable-background:accumulate"
       id="path4329"
       d="m 328.88744,432.39088 c -1.23278,0.28411 -2.02776,0.7308 -2.95806,1.58071 -1.1674,1.22439 -1.58895,2.59993 -1.80454,4.23865 -0.11095,1.60408 0.17724,2.85245 0.98312,4.22972 0.5763,0.93386 1.39955,1.61679 2.37443,2.09602 0.85405,0.40889 1.79605,0.55479 2.71944,0.72189 0.80454,0.10841 1.60874,0.20833 2.41225,0.32622 0.62921,0.15655 1.26695,0.26526 1.89669,0.41851 0.10505,0.0207 0.20974,0.0434 0.31516,0.0621 0.24899,0.0443 0.4018,0.0636 0.65552,0.0881 0.11312,0.0109 0.44111,-0.024 0.33982,0.0275 -0.11007,0.056 -0.41732,0.10212 -0.37026,-0.012 0.0492,-0.11929 0.25742,-0.0177 0.38614,-0.0265 0.97883,-0.11718 1.86939,-0.53606 2.69611,-1.05215 1.39957,-0.90086 2.47358,-2.16926 3.47729,-3.47532 1.00703,-1.41089 1.88896,-2.95231 2.39997,-4.61884 0.0956,-0.31161 0.15712,-0.63263 0.23568,-0.94895 0.25748,-1.43339 0.19858,-2.88887 -0.50683,-4.19182 -0.12587,-0.2325 -0.28541,-0.44513 -0.42811,-0.66769 -1.09896,-1.33015 -2.66588,-1.98889 -4.26558,-2.5046 -1.57439,-0.46726 -2.89612,-0.42376 -4.48543,-0.20184 -1.64209,0.29404 -3.14527,1.00229 -4.60678,1.77644 -1.30375,0.71089 -2.45481,1.63927 -3.44174,2.74345 -0.13679,0.17746 -0.27357,0.35492 -0.41035,0.53238 0,0 -0.72556,-0.0476 -0.72556,-0.0476 l 0,0 c 0.13711,-0.17918 0.27422,-0.35836 0.41134,-0.53754 0.98569,-1.11477 2.14105,-2.04958 3.44802,-2.76875 1.46306,-0.7799 2.96756,-1.49465 4.61107,-1.80116 1.9647,-0.28466 3.98698,-0.3258 5.91386,0.21439 1.6085,0.52852 3.18018,1.20095 4.27293,2.55387 0.14281,0.2261 0.3026,0.44233 0.42843,0.67831 0.70387,1.32008 0.76179,2.79183 0.50122,4.23958 -0.079,0.31884 -0.14087,0.64244 -0.23705,0.95654 -0.51223,1.67265 -1.39477,3.22116 -2.40048,4.64057 -1.00062,1.31251 -2.07,2.58958 -3.46581,3.5019 -0.8233,0.52835 -1.71439,0.9533 -2.69358,1.08878 -0.93456,0.0725 -1.87301,0.0696 -2.78806,-0.15085 -0.62833,-0.15188 -1.26484,-0.26238 -1.89379,-0.41209 -0.80243,-0.11916 -1.60706,-0.21185 -2.40946,-0.32916 -0.92581,-0.1707 -1.86868,-0.32232 -2.72139,-0.74264 -0.97503,-0.4977 -1.79815,-1.19312 -2.3719,-2.13879 -0.78963,-1.37145 -1.09761,-2.6864 -0.97769,-4.27733 0.21386,-1.65142 0.63652,-3.04619 1.80142,-4.28922 0.92718,-0.86472 1.71148,-1.3206 2.94865,-1.62062 0,0 0.73389,0.0998 0.73389,0.0998 z"
       inkscape:connector-curvature="0" />
    <path
       style="color:#000000;display:inline;overflow:visible;visibility:visible;fill:#000000;fill-opacity:1;fill-rule:nonzero;stroke:#000000;stroke-width:0.66000003;stroke-linecap:butt;stroke-miterlimit:4;stroke-dasharray:none;stroke-dashoffset:22.20000076;stroke-opacity:1;marker:none;enable-background:accumulate"
       id="path4331"
       d="m 205.35866,444.83215 c -0.21036,-0.53441 -0.39274,-1.0792 -0.65956,-1.58878 -0.0829,-0.14874 -0.16677,-0.29808 -0.27145,-0.43275 0.26542,0.0112 0.53297,-0.002 0.79626,0.0335 0.0554,0.007 0.31886,0.30309 0.36135,0.33294 0.21758,0.15286 0.23008,0.14179 0.48455,0.25127 0.88494,0.27192 1.82579,0.26574 2.74301,0.28809 0.94053,0.008 2.08183,-0.11289 3.22009,-0.2363 1.12155,-0.12979 2.24838,-0.19979 3.37636,-0.23821 0.71825,-0.0237 1.43686,-0.022 2.15538,-0.022 0.009,2.7e-4 0.0178,5.4e-4 0.0267,8.1e-4 0,0 -0.74011,0.11594 -0.74011,0.11594 l 0,0 c -0.008,-10e-6 -0.0163,-3e-5 -0.0244,-5e-5 1.64745,-8.2e-4 -0.43029,-0.002 -0.69185,0.0178 -1.13001,0.0357 -2.25906,0.10234 -3.38265,0.23166 -1.54771,0.16898 -3.10156,0.29935 -4.66084,0.24272 -0.92262,-0.0242 -1.87259,-0.0181 -2.75673,-0.31563 -0.0906,-0.0423 -0.18429,-0.0785 -0.27179,-0.12681 -0.0324,-0.0179 -0.67337,-0.46892 -0.58471,-0.50033 0.22245,-0.0788 0.46465,-0.0829 0.69698,-0.12437 0.0998,0.14169 0.18313,0.29424 0.26569,0.44633 0.26278,0.51648 0.44468,1.06629 0.66007,1.60349 0,0 -0.74233,0.0207 -0.74233,0.0207 z"
       inkscape:connector-curvature="0" />
    <path
       style="color:#000000;display:inline;overflow:visible;visibility:visible;fill:#000000;fill-opacity:1;fill-rule:nonzero;stroke:#000000;stroke-width:0.66000003;stroke-linecap:butt;stroke-miterlimit:4;stroke-dasharray:none;stroke-dashoffset:22.20000076;stroke-opacity:1;marker:none;enable-background:accumulate"
       id="path4333"
       d="m 246.61717,441.2931 c 0.68575,0.16327 1.41578,0.34999 2.12839,0.26933 0.0732,-0.008 -0.14553,-0.0235 -0.2183,-0.0353 1.07896,-0.14772 2.13161,-0.43523 3.17163,-0.75118 0.56523,-0.18018 1.14149,-0.31743 1.72371,-0.42845 0,0 0.73019,0.10191 0.73019,0.10191 l 0,0 c -0.58388,0.10619 -1.16186,0.23944 -1.728,0.41952 -1.04054,0.32025 -2.09463,0.60595 -3.17294,0.76746 -1.13803,0.0369 -2.27044,0.10555 -3.3711,-0.24759 0,0 0.73642,-0.0957 0.73642,-0.0957 z"
       inkscape:connector-curvature="0" />
    <path
       style="color:#000000;display:inline;overflow:visible;visibility:visible;fill:#000000;fill-opacity:1;fill-rule:nonzero;stroke:#000000;stroke-width:0.66000003;stroke-linecap:butt;stroke-miterlimit:4;stroke-dasharray:none;stroke-dashoffset:22.20000076;stroke-opacity:1;marker:none;enable-background:accumulate"
       id="path4335"
       d="m 287.94183,437.67142 c 1.11308,-0.20011 2.20863,-0.47836 3.30614,-0.74793 1.27379,-0.2925 2.53976,-0.62276 3.81951,-0.88895 0.55891,-0.0918 1.11544,-0.19724 1.67264,-0.2987 0,0 0.7251,0.10154 0.7251,0.10154 l 0,0 c -0.55826,0.1009 -1.11531,0.20881 -1.67587,0.2965 -1.28039,0.26146 -2.54522,0.59531 -3.81896,0.88631 -1.09443,0.26728 -2.18508,0.55121 -3.29468,0.75107 0,0 -0.73388,-0.0998 -0.73388,-0.0998 z"
       inkscape:connector-curvature="0" />
    <path
       style="color:#000000;display:inline;overflow:visible;visibility:visible;fill:#000000;fill-opacity:1;fill-rule:nonzero;stroke:#000000;stroke-width:0.66000003;stroke-linecap:butt;stroke-miterlimit:4;stroke-dasharray:none;stroke-dashoffset:22.20000076;stroke-opacity:1;marker:none;enable-background:accumulate"
       id="path4337"
       d="m 329.13075,437.67348 c 1.2852,-0.34188 2.61319,-0.28728 3.92934,-0.27949 1.01952,0.0257 2.03897,0.0533 3.05871,0.0686 -0.90959,0.0111 0.3341,-0.10221 0.44059,-0.12717 0.11855,-0.0278 0.23359,-0.0688 0.35038,-0.10326 0,0 0.73157,0.0937 0.73157,0.0937 l 0,0 c -0.73701,0.23332 -1.46941,0.2816 -2.24909,0.25063 -1.01792,-0.0163 -2.03553,-0.0453 -3.05328,-0.0693 0.0435,-0.003 0.17394,-0.007 0.1304,-0.008 -0.87623,-0.006 -1.7496,0.0544 -2.6022,0.26953 0,0 -0.73642,-0.0957 -0.73642,-0.0957 z"
       inkscape:connector-curvature="0" />
    <path
       style="color:#000000;display:inline;overflow:visible;visibility:visible;fill:#000000;fill-opacity:1;fill-rule:nonzero;stroke:#000000;stroke-width:0.66000003;stroke-linecap:butt;stroke-miterlimit:4;stroke-dasharray:none;stroke-dashoffset:22.20000076;stroke-opacity:1;marker:none;enable-background:accumulate"
       id="path4349"
       d="m 261.04931,350.12355 c -0.65085,-0.79823 -1.43155,-0.90475 -2.40316,-0.93334 0.0306,0.0216 0.12724,0.0531 0.0917,0.0647 -0.22084,0.0724 -0.45667,0.0865 -0.685,0.12973 -0.25009,0.0688 -0.5044,0.12387 -0.75028,0.2065 -0.88406,0.29708 -1.67407,0.76033 -2.47522,1.22741 -2.13288,1.32149 -3.90392,3.08548 -5.5346,4.9712 -1.40045,1.72314 -2.69679,3.60035 -3.32711,5.75691 -0.11088,0.37936 -0.16911,0.77217 -0.25367,1.15826 -0.1903,1.34009 -0.12333,2.75015 0.62686,3.92658 0.4493,0.70458 0.7335,0.84472 1.37764,1.3626 2.08124,1.34224 4.54266,1.50552 6.94734,1.59158 2.50766,0.005 4.93888,-0.39684 7.3564,-1.02669 1.91319,-0.55214 3.79187,-1.33738 5.34946,-2.6043 0.28633,-0.2329 0.54717,-0.49548 0.82075,-0.74322 1.18015,-1.26833 2.11065,-2.79444 2.45853,-4.50976 0.0656,-0.32349 0.0895,-0.65406 0.13428,-0.98109 0.11663,-1.68084 -0.14379,-3.34381 -0.83612,-4.8838 -0.13602,-0.30255 -0.3017,-0.59086 -0.45255,-0.88629 -0.66685,-1.08699 -1.46716,-2.11221 -2.46967,-2.91277 -0.55943,-0.44674 -0.89679,-0.60198 -1.51618,-0.94767 -1.40342,-0.7585 -2.95549,-1.04589 -4.52425,-1.19632 -0.57886,-0.005 -1.16782,-0.11039 -1.74775,-0.0716 -0.0949,0.006 0.35308,-0.0404 0.28417,0.0251 -0.0857,0.0815 -0.23532,0.0242 -0.35254,0.0399 -0.0893,0.0119 -0.17788,0.0287 -0.26682,0.043 -0.0289,0.0487 -0.36549,0.0137 -0.37724,0.10799 -0.002,0.0161 0.0332,3.5e-4 0.0483,0.006 0.052,0.0201 0.10093,0.0474 0.15139,0.071 0,0 -0.7398,0.079 -0.7398,0.079 l 0,0 c -0.42382,-0.2698 -0.10444,-0.30854 0.18389,-0.36812 1.16736,-0.19882 2.35949,-0.11091 3.53489,-0.0391 1.57018,0.15872 3.12078,0.45969 4.52166,1.22685 0.63115,0.35811 0.94652,0.50326 1.51618,0.96419 1.00224,0.81094 1.804,1.84271 2.4691,2.93861 0.15092,0.29779 0.31674,0.58849 0.45277,0.89337 0.69263,1.55229 0.95327,3.22795 0.83675,4.92013 -0.045,0.33006 -0.069,0.66365 -0.13484,0.99018 -0.34858,1.72802 -1.28064,3.26776 -2.46429,4.55021 -0.274,0.25021 -0.53513,0.51529 -0.822,0.75063 -1.55755,1.27772 -3.44035,2.0723 -5.3589,2.63009 -1.09042,0.28687 -1.47065,0.41032 -2.58524,0.60889 -2.03296,0.36217 -4.10539,0.4555 -6.16656,0.43298 -2.41509,-0.0922 -4.88485,-0.26903 -6.96441,-1.63567 -0.65066,-0.53396 -0.92946,-0.67266 -1.38099,-1.39403 -0.74811,-1.19517 -0.81522,-2.61863 -0.61966,-3.97402 0.0855,-0.3892 0.14463,-0.78515 0.2565,-1.1676 0.63294,-2.16388 1.92856,-4.05045 3.33116,-5.78235 1.62847,-1.89139 3.39719,-3.66136 5.5251,-4.99545 1.73467,-1.0235 3.18617,-1.71255 5.2536,-1.66582 0.98893,0.042 1.77131,0.18684 2.42183,1.0015 0,0 -0.7414,0.0436 -0.7414,0.0436 z"
       inkscape:connector-curvature="0" />
    <path
       style="color:#000000;display:inline;overflow:visible;visibility:visible;fill:#000000;fill-opacity:1;fill-rule:nonzero;stroke:#000000;stroke-width:0.66000003;stroke-linecap:butt;stroke-miterlimit:4;stroke-dasharray:none;stroke-dashoffset:22.20000076;stroke-opacity:1;marker:none;enable-background:accumulate"
       id="path4351"
       d="m 287.44851,352.38882 c -1.14869,0.39528 -2.02997,1.21965 -2.85258,2.07937 -1.15951,1.35898 -1.78531,3.0144 -2.17553,4.73369 -0.34423,1.63107 -0.19294,3.10575 0.3916,4.64968 0.60399,1.33488 1.65992,2.34908 2.81565,3.21201 0.81564,0.55426 1.72165,0.96505 2.70644,1.09274 0.74663,0.0968 0.58652,0.22222 0.82666,-0.0102 1.80262,-0.19731 3.32517,-1.08549 4.73255,-2.17048 0.979,-0.8244 1.83544,-1.77531 2.47472,-2.88795 0.39973,-0.69571 0.51458,-1.02506 0.82993,-1.76298 0.52889,-1.49345 0.8337,-3.11628 0.62724,-4.70342 -0.0375,-0.28861 -0.11246,-0.57111 -0.1687,-0.85666 -0.42333,-1.67416 -1.35657,-2.86626 -2.66164,-3.94685 -1.17517,-0.87056 -2.54209,-1.37555 -3.95393,-1.70372 -1.10699,-0.22719 -1.56553,-0.16142 -2.73676,0.13812 -0.73254,0.1869 -1.43021,0.48178 -2.15171,0.70422 -0.006,0.0201 -0.40339,0.0703 -0.36412,0.15085 0.0212,0.0436 0.0844,0.0482 0.12411,0.076 0,0 -0.74312,0.0671 -0.74312,0.0671 l 0,0 c -0.27107,-0.23856 -0.004,-0.34061 0.24729,-0.38843 0.72697,-0.21654 1.42698,-0.51368 2.16141,-0.70582 1.35997,-0.36325 2.80071,-0.42923 4.18339,-0.1391 1.41407,0.33984 2.78239,0.85413 3.95457,1.73747 1.30646,1.09929 2.24018,2.30794 2.66061,3.99626 0.0557,0.28857 0.12999,0.57417 0.16718,0.86571 0.20391,1.59872 -0.0995,3.23173 -0.6298,4.73709 -0.31499,0.7418 -0.43054,1.07447 -0.82966,1.77464 -0.63888,1.12078 -1.49505,2.08001 -2.47613,2.91275 -1.40444,1.09622 -2.92735,1.99798 -4.73194,2.21285 -0.49771,0.0201 -0.99501,0.06 -1.49312,0.0603 -1.26625,8.1e-4 -2.44666,-0.47624 -3.47754,-1.18349 -1.1591,-0.87732 -2.21857,-1.9034 -2.81889,-3.25299 -0.59249,-1.58836 -0.72829,-3.01575 -0.38541,-4.69179 0.39115,-1.73034 1.01616,-3.39733 2.17281,-4.77265 0.82038,-0.86797 1.69645,-1.69698 2.838,-2.12011 0,0 0.73642,0.0957 0.73642,0.0957 z"
       inkscape:connector-curvature="0" />
    <path
       style="color:#000000;display:inline;overflow:visible;visibility:visible;fill:#000000;fill-opacity:1;fill-rule:nonzero;stroke:#000000;stroke-width:0.66000003;stroke-linecap:butt;stroke-miterlimit:4;stroke-dasharray:none;stroke-dashoffset:22.20000076;stroke-opacity:1;marker:none;enable-background:accumulate"
       id="path4353"
       d="m 318.26997,355.37748 c -0.69845,-0.83338 -1.63235,-1.26237 -2.67468,-1.48431 -0.20156,-10e-4 -0.40657,-0.0414 -0.60467,-0.004 -0.0429,0.008 0.1187,0.0797 0.0815,0.10234 -0.19404,0.1181 -0.42595,0.15797 -0.63893,0.23696 -0.21767,0.12239 -0.44602,0.22748 -0.65301,0.36718 -0.5888,0.39742 -0.76049,0.62873 -1.26049,1.14209 -1.07746,1.35527 -1.6776,3.0335 -1.82566,4.75546 -0.0308,0.35775 -0.0169,0.71793 -0.0254,1.0769 0.13479,1.78561 0.81152,3.46306 2.07206,4.75419 0.24127,0.24711 0.5167,0.45839 0.77505,0.68759 1.10671,0.81199 2.38743,1.27729 3.74802,1.43091 0.92895,0.10488 0.76102,0.10905 1.35918,-0.002 2.22879,-0.26964 3.99871,-1.20483 5.79826,-2.48488 1.25094,-1.0122 2.43527,-2.1641 3.24782,-3.56848 0.14744,-0.25481 0.2671,-0.52471 0.40065,-0.78707 0.55818,-1.34979 0.74668,-2.8584 0.43367,-4.29738 -0.061,-0.28059 -0.16593,-0.54981 -0.24889,-0.82472 -0.55102,-1.33442 -1.51199,-2.44619 -2.75393,-3.18724 -0.24156,-0.14414 -0.50029,-0.25733 -0.75044,-0.38599 -1.54515,-0.68703 -3.23118,-0.93822 -4.89673,-1.14157 -1.31994,-0.14022 -2.64768,-0.16887 -3.97385,-0.18092 0.37584,0.004 -1.08898,-0.007 -0.81678,-10e-4 0.14586,0.003 0.29287,-0.0167 0.43767,10e-4 0.24619,0.0302 -0.25844,-0.0191 -0.43825,0.11864 0.01,0.13147 -0.0107,0.0582 0.10761,0.20152 0,0 -0.74253,0.0462 -0.74253,0.0462 l 0,0 c -0.13051,-0.20558 -0.10358,-0.10047 -0.10922,-0.30665 0.33592,-0.40249 1.70365,-0.10713 2.28438,-0.17331 1.32381,0.0143 2.64919,0.0458 3.96636,0.19038 1.66783,0.20926 3.35565,0.46566 4.89835,1.16731 0.2503,0.13165 0.5093,0.24796 0.75092,0.39495 1.24702,0.75869 2.20677,1.88652 2.75674,3.23586 0.0828,0.27862 0.18737,0.55168 0.24842,0.83586 0.31229,1.45371 0.12599,2.97601 -0.43438,4.34102 -0.13407,0.26484 -0.25427,0.53719 -0.40222,0.79453 -0.81282,1.41376 -2.00043,2.57359 -3.25438,3.59501 -1.79844,1.28921 -3.57191,2.2377 -5.8026,2.52474 -0.58081,0.0204 -1.16125,0.0623 -1.74242,0.0611 -1.72599,-0.004 -3.39111,-0.51496 -4.78364,-1.5373 -0.25849,-0.23258 -0.53417,-0.44738 -0.77547,-0.69774 -1.26277,-1.31021 -1.93835,-3.00494 -2.07274,-4.80581 0.009,-0.3619 -0.005,-0.72501 0.0257,-1.08569 0.14816,-1.73448 0.74738,-3.42636 1.82102,-4.8002 1.48036,-1.54646 2.26675,-2.01294 4.51672,-1.88761 1.05001,0.24214 1.985,0.69121 2.69157,1.53124 0,0 -0.74028,0.0515 -0.74028,0.0515 z"
       inkscape:connector-curvature="0" />
    <path
       style="color:#000000;display:inline;overflow:visible;visibility:visible;fill:#000000;fill-opacity:1;fill-rule:nonzero;stroke:#000000;stroke-width:0.66000003;stroke-linecap:butt;stroke-miterlimit:4;stroke-dasharray:none;stroke-dashoffset:22.20000076;stroke-opacity:1;marker:none;enable-background:accumulate"
       id="path4355"
       d="m 341.97937,355.04417 c -1.0238,1.31448 -1.68274,2.84902 -2.26991,4.39439 -0.51521,1.63522 -0.90233,3.43704 -0.49113,5.14614 0.0704,0.29249 0.19897,0.56781 0.29845,0.85171 0.67682,1.3271 1.87702,2.17887 3.33557,2.46936 0.30015,0.0598 0.60832,0.0678 0.91248,0.10173 1.40091,-0.0698 2.76621,-0.53188 3.92258,-1.32373 0.27218,-0.18637 0.52172,-0.40382 0.78257,-0.60574 1.1959,-1.10204 2.02327,-2.51922 2.30355,-4.13019 0.0529,-0.30387 0.0657,-0.61336 0.0986,-0.92004 0.0225,-1.47785 -0.34202,-2.90876 -1.21506,-4.11883 -0.16473,-0.22832 -0.36499,-0.42877 -0.54749,-0.64315 -1.21253,-1.23158 -2.75953,-1.88189 -4.40117,-2.31312 -0.26262,-0.0492 -0.52494,-0.10005 -0.78786,-0.14767 -0.69728,-0.12628 -1.4044,-0.25801 -2.11143,-0.31764 -0.2841,-0.024 -0.92651,-0.0305 -0.43807,-0.0242 -0.62429,-0.0156 -1.22911,0.091 -1.81374,0.30056 0,0 -0.73519,-0.0902 -0.73519,-0.0902 l 0,0 c 0.58813,-0.21814 1.19434,-0.34177 1.82649,-0.32471 0.55994,6.6e-4 1.28726,-0.0202 1.88053,0.0336 0.97437,0.0884 1.93484,0.29953 2.89528,0.47585 1.64618,0.44481 3.19643,1.10965 4.40459,2.35697 0.18264,0.21817 0.38292,0.42272 0.54793,0.65452 0.87382,1.22747 1.23786,2.67279 1.2136,4.16563 -0.033,0.3098 -0.0458,0.62242 -0.099,0.9294 -0.28135,1.62481 -1.10893,3.05907 -2.3082,4.17821 -0.64627,0.50648 -0.89998,0.7533 -1.63294,1.13553 -1.40003,0.73012 -2.93587,0.92239 -4.49681,0.83301 -0.30497,-0.038 -0.61425,-0.0503 -0.91493,-0.11391 -1.47074,-0.31119 -2.66976,-1.19037 -3.34067,-2.53728 -0.099,-0.28858 -0.22703,-0.56876 -0.29694,-0.86572 -0.40534,-1.7219 -0.0206,-3.5338 0.49418,-5.18198 0.58428,-1.54935 1.23931,-3.08621 2.24579,-4.41611 0,0 0.73833,0.0476 0.73833,0.0476 z"
       inkscape:connector-curvature="0" />
    <path
       style="color:#000000;display:inline;overflow:visible;visibility:visible;fill:#000000;fill-opacity:1;fill-rule:nonzero;stroke:#000000;stroke-width:0.66000003;stroke-linecap:butt;stroke-miterlimit:4;stroke-dasharray:none;stroke-dashoffset:22.20000076;stroke-opacity:1;marker:none;enable-background:accumulate"
       id="path4357"
       d="m 252.22233,360.67071 c 1.61258,-0.23735 3.22943,-0.44891 4.8435,-0.67797 1.89885,-0.23875 3.74884,-0.67799 5.54462,-1.33314 0.86526,-0.39623 1.82302,-0.84131 2.3262,-1.70152 0.0702,-0.12007 0.11041,-0.25537 0.16561,-0.38305 0,0 0.73497,0.0296 0.73497,0.0296 l 0,0 c -0.056,0.13333 -0.0962,0.27441 -0.16791,0.39998 -0.50134,0.87807 -1.46518,1.33803 -2.34168,1.74292 -1.7985,0.65997 -3.65041,1.10737 -5.55368,1.34711 -1.60582,0.22938 -3.21416,0.44282 -4.81894,0.67732 0,0 -0.73269,-0.10126 -0.73269,-0.10126 z"
       inkscape:connector-curvature="0" />
    <path
       style="color:#000000;display:inline;overflow:visible;visibility:visible;fill:#000000;fill-opacity:1;fill-rule:nonzero;stroke:#000000;stroke-width:0.66000003;stroke-linecap:butt;stroke-miterlimit:4;stroke-dasharray:none;stroke-dashoffset:22.20000076;stroke-opacity:1;marker:none;enable-background:accumulate"
       id="path4359"
       d="m 257.38011,355.80439 c -0.0364,1.43279 -0.007,2.86678 0.003,4.2999 -0.0143,1.64131 0.0485,3.28251 0.19912,4.9169 0.0611,0.72853 0.1789,1.45165 0.38405,2.15317 0,0 -0.7356,0.0205 -0.7356,0.0205 l 0,0 c -0.19809,-0.70746 -0.3144,-1.43444 -0.37303,-2.16707 -0.14845,-1.63652 -0.20806,-3.27979 -0.19498,-4.92297 -0.0115,-1.43612 -0.039,-2.87255 -0.0229,-4.30863 0,0 0.74077,0.008 0.74077,0.008 z"
       inkscape:connector-curvature="0" />
    <path
       style="color:#000000;display:inline;overflow:visible;visibility:visible;fill:#000000;fill-opacity:1;fill-rule:nonzero;stroke:#000000;stroke-width:0.66000003;stroke-linecap:butt;stroke-miterlimit:4;stroke-dasharray:none;stroke-dashoffset:22.20000076;stroke-opacity:1;marker:none;enable-background:accumulate"
       id="path4361"
       d="m 287.14681,360.57605 c 1.09215,0.39915 2.24191,0.47891 3.39298,0.49325 -0.009,-0.0116 -0.0417,-0.0321 -0.0272,-0.0347 0.82417,-0.15141 0.49551,0.003 1.29459,-0.20853 0.54503,-0.14415 1.01953,-0.39422 1.50207,-0.67567 0.11668,-0.0969 0.23336,-0.19376 0.35003,-0.29064 0,0 0.73163,0.0638 0.73163,0.0638 l 0,0 c -0.11759,0.10094 -0.23518,0.20188 -0.35276,0.30282 -1.40848,0.83844 -2.56461,0.98564 -4.2159,0.95556 -1.15824,-0.0196 -2.31394,-0.11215 -3.41131,-0.51619 0,0 0.73589,-0.0896 0.73589,-0.0896 z"
       inkscape:connector-curvature="0" />
    <path
       style="color:#000000;display:inline;overflow:visible;visibility:visible;fill:#000000;fill-opacity:1;fill-rule:nonzero;stroke:#000000;stroke-width:0.66000003;stroke-linecap:butt;stroke-miterlimit:4;stroke-dasharray:none;stroke-dashoffset:22.20000076;stroke-opacity:1;marker:none;enable-background:accumulate"
       id="path4363"
       d="m 290.35099,356.50081 c -0.27918,1.12856 -0.4939,2.2709 -0.71662,3.41151 -0.24366,1.34343 -0.42053,2.70558 -0.41606,4.07247 0.0181,0.156 0.0362,0.312 0.0542,0.46799 0,0 -0.73384,0.008 -0.73384,0.008 l 0,0 c -0.017,-0.15868 -0.0339,-0.31736 -0.0509,-0.47604 10e-4,-1.37159 0.17878,-2.73797 0.42103,-4.0865 0.22123,-1.14199 0.43685,-2.28495 0.69984,-3.41823 0,0 0.74233,0.0207 0.74233,0.0207 z"
       inkscape:connector-curvature="0" />
    <path
       style="color:#000000;display:inline;overflow:visible;visibility:visible;fill:#000000;fill-opacity:1;fill-rule:nonzero;stroke:#000000;stroke-width:0.66000003;stroke-linecap:butt;stroke-miterlimit:4;stroke-dasharray:none;stroke-dashoffset:22.20000076;stroke-opacity:1;marker:none;enable-background:accumulate"
       id="path4365"
       d="m 316.89706,360.10984 c 0.96659,0.53167 1.99467,0.92463 3.03146,1.29303 0.45574,0.13811 0.95989,0.34898 1.45103,0.28968 0.10656,-0.0129 -0.35432,0.0616 -0.3195,-0.0399 0.0409,-0.11921 0.24813,-0.0503 0.36588,-0.0953 0.11627,-0.0444 0.22126,-0.11396 0.33189,-0.17094 0,0 0.7329,0.0793 0.7329,0.0793 l 0,0 c -0.11131,0.0624 -0.21625,0.13796 -0.33395,0.18735 -0.91936,0.38578 -2.04821,0.13822 -2.95305,-0.16064 -1.04063,-0.37149 -2.06829,-0.77569 -3.04305,-1.30067 0,0 0.73639,-0.0819 0.73639,-0.0819 z"
       inkscape:connector-curvature="0" />
    <path
       style="color:#000000;display:inline;overflow:visible;visibility:visible;fill:#000000;fill-opacity:1;fill-rule:nonzero;stroke:#000000;stroke-width:0.66000003;stroke-linecap:butt;stroke-miterlimit:4;stroke-dasharray:none;stroke-dashoffset:22.20000076;stroke-opacity:1;marker:none;enable-background:accumulate"
       id="path4367"
       d="m 320.54008,358.53755 c -0.58526,1.05291 -0.96815,2.19717 -1.37515,3.32634 -0.3557,1.07865 -0.63704,2.18208 -0.86246,3.29507 0,0 -0.73621,-0.015 -0.73621,-0.015 l 0,0 c 0.23419,-1.1153 0.51611,-2.22251 0.87276,-3.30517 0.40594,-1.13065 0.7883,-2.2753 1.36093,-3.3356 0,0 0.74013,0.0343 0.74013,0.0343 z"
       inkscape:connector-curvature="0" />
    <path
       style="color:#000000;display:inline;overflow:visible;visibility:visible;fill:#000000;fill-opacity:1;fill-rule:nonzero;stroke:#000000;stroke-width:0.66000003;stroke-linecap:butt;stroke-miterlimit:4;stroke-dasharray:none;stroke-dashoffset:22.20000076;stroke-opacity:1;marker:none;enable-background:accumulate"
       id="path4369"
       d="m 342.11717,361.2931 c 1.0429,0.2375 2.09883,0.41066 3.16171,0.52948 0.76574,0.0742 1.53447,0.11295 2.30331,0.13545 0.14588,0.004 0.29432,0.0375 0.4377,0.0103 0.12274,-0.0233 -0.24943,-0.0149 -0.37414,-0.0224 0.25536,-0.007 0.41198,-0.0605 0.5652,-0.25614 0,0 0.74239,0.0456 0.74239,0.0456 l 0,0 c -0.14844,0.23103 -0.29057,0.31296 -0.57795,0.32108 -1.2744,0.0295 -2.54815,0.0108 -3.8172,-0.12814 -1.06786,-0.12298 -2.13007,-0.29678 -3.17744,-0.53957 0,0 0.73642,-0.0957 0.73642,-0.0957 z"
       inkscape:connector-curvature="0" />
    <path
       style="color:#000000;display:inline;overflow:visible;visibility:visible;fill:#000000;fill-opacity:1;fill-rule:nonzero;stroke:#000000;stroke-width:0.66000003;stroke-linecap:butt;stroke-miterlimit:4;stroke-dasharray:none;stroke-dashoffset:22.20000076;stroke-opacity:1;marker:none;enable-background:accumulate"
       id="path4371"
       d="m 344.82035,359.03368 c -0.3857,1.05491 -0.61743,2.15353 -0.83458,3.25283 -0.13406,0.94467 -0.37264,1.91069 -0.21427,2.86479 0,0 -0.73829,0.0118 -0.73829,0.0118 l 0,0 c -0.15096,-0.96432 0.0868,-1.9368 0.22433,-2.89078 0.21722,-1.10233 0.44965,-2.2029 0.82195,-3.26523 0,0 0.74086,0.0266 0.74086,0.0266 z"
       inkscape:connector-curvature="0" />
    <path
       style="color:#000000;display:inline;overflow:visible;visibility:visible;fill:#000000;fill-opacity:1;fill-rule:nonzero;stroke:#000000;stroke-width:0.66000003;stroke-linecap:butt;stroke-miterlimit:4;stroke-dasharray:none;stroke-dashoffset:22.20000076;stroke-opacity:1;marker:none;enable-background:accumulate"
       id="path4373"
       d="m 259.3959,387.25759 c 1.18389,0.13503 2.37636,0.16311 3.56654,0.1896 2.02481,0.004 4.04669,0.11738 6.07006,0.18183 2.80198,0.13047 5.60376,0.25877 8.4027,0.44481 3.11067,0.21713 6.22176,0.42609 9.3338,0.62331 2.83809,0.17705 5.68134,0.23475 8.52414,0.26674 1.98196,0.0638 3.95998,-0.0567 5.9396,-0.1344 1.48146,-0.0597 2.96389,-0.087 4.44639,-0.10141 0.84583,-0.007 1.69169,-0.008 2.53754,-0.007 -0.21486,0.004 0.15876,-10e-4 0.11911,6e-4 -1.09052,0.0549 -0.82626,0.0838 -1.65665,-0.30131 -0.94276,-0.52448 -1.87052,-1.07405 -2.80129,-1.61951 -0.91639,-0.5934 -1.84888,-1.17608 -2.67977,-1.88747 -0.22265,-0.3364 -0.87197,-0.63866 -0.98495,-1.03332 0.52992,-0.49125 2.10999,0.48737 2.60912,0.74279 1.58228,0.83036 3.15295,1.67761 4.76254,2.45435 1.68101,0.82163 3.37011,1.62482 5.0194,2.50898 0.72321,0.47352 1.85879,0.82326 2.34322,1.59476 0.0535,0.0852 0.0769,0.18585 0.11537,0.27877 -0.007,0.10255 0.006,0.20846 -0.0211,0.30764 -0.218,0.80095 -1.2952,1.17444 -1.96474,1.44147 -1.4947,0.55526 -3.0671,0.81975 -4.63585,1.06383 -0.71159,0.10895 -1.42849,0.17163 -2.14548,0.23054 0,0 -0.71933,-0.10801 -0.71933,-0.10801 l 0,0 c 0.71838,-0.0568 1.43668,-0.11722 2.14975,-0.22458 1.56578,-0.24018 3.13528,-0.50044 4.62862,-1.04862 0.6092,-0.2355 1.7317,-0.64406 1.94691,-1.36009 0.0262,-0.0873 0.0145,-0.18167 0.0217,-0.2725 -0.418,-0.96088 -1.61487,-1.30552 -2.43702,-1.82548 -1.64675,-0.88374 -3.33391,-1.68575 -5.01256,-2.50666 -1.61298,-0.7788 -3.18658,-1.62964 -4.77628,-2.4543 -0.45228,-0.22826 -0.90581,-0.46822 -1.37356,-0.66441 -0.0853,-0.0358 -0.34609,-0.0559 -0.26144,-0.0933 0.39842,-0.17587 0.75393,0.0833 0.49789,-0.0884 0.12862,0.34295 0.76168,0.68958 0.9702,0.99303 0.83087,0.70453 1.75687,1.28884 2.67269,1.87525 0.93135,0.54621 1.85988,1.09701 2.80935,1.61131 0.25014,0.11414 0.33533,0.15514 0.57691,0.25811 0.0657,0.028 0.25858,0.0442 0.19789,0.0817 -0.27503,0.17019 -0.45476,0.1626 -0.70692,0.1613 -0.34389,-9.5e-4 -0.0573,-10e-6 0.4089,-6.8e-4 0.0865,-1.2e-4 -0.173,-1.4e-4 -0.2595,-9e-5 -0.40967,2.4e-4 -0.81933,0.002 -1.22898,0.004 -1.48685,0.0126 -2.97365,0.0385 -4.45949,0.0972 -2.44766,0.095 -4.89544,0.19941 -7.34576,0.13467 -2.84016,-0.0336 -5.68072,-0.0933 -8.5161,-0.27166 -3.11233,-0.198 -6.22378,-0.40692 -9.33484,-0.62334 -2.80248,-0.18426 -5.60771,-0.31314 -8.41325,-0.44076 -2.02809,-0.0646 -4.05483,-0.17536 -6.08438,-0.17892 -1.19649,-0.0273 -2.39512,-0.0574 -3.58515,-0.19434 0,0 0.73407,-0.10693 0.73407,-0.10693 z"
       inkscape:connector-curvature="0" />
    <path
       style="color:#000000;display:inline;overflow:visible;visibility:visible;fill:#000000;fill-opacity:1;fill-rule:nonzero;stroke:#000000;stroke-width:0.66000003;stroke-linecap:butt;stroke-miterlimit:4;stroke-dasharray:none;stroke-dashoffset:22.20000076;stroke-opacity:1;marker:none;enable-background:accumulate"
       id="path4381"
       d="m 322.18992,388.79619 c 0.0352,1.12816 -0.005,2.25441 -0.0901,3.37916 -0.0821,1.31214 -0.26963,2.61542 -0.50367,3.90831 -0.15393,1.06281 -0.46911,2.089 -0.80713,3.10479 -0.005,0.22755 -0.51107,1.01887 -0.39847,1.19123 0.0233,-0.008 0.0942,-0.0202 0.0698,-0.0227 -0.2058,-0.0211 -0.42022,0.021 -0.61974,-0.0337 -0.0668,-0.0183 0.12621,-0.0572 0.19005,-0.0841 0.32956,-0.13889 0.66466,-0.26491 0.99865,-0.39256 1.15733,-0.42334 2.35455,-0.69112 3.56075,-0.92792 1.31073,-0.25461 2.6425,-0.357 3.97416,-0.41761 0.86797,-0.0383 1.73688,-0.0337 2.60542,-0.0333 -0.20971,-0.0104 0.19388,0.004 0.14543,0.002 -1.12381,-0.0386 -0.67808,0.0261 -1.40783,-0.34551 -0.0732,-0.04 -0.14641,-0.08 -0.21961,-0.12001 0,0 0.73724,-0.0794 0.73724,-0.0794 l 0,0 c 0.0734,0.0396 0.14678,0.0792 0.22017,0.11875 0.20198,0.10811 0.20076,0.10112 0.38749,0.22516 0.0533,0.0354 0.2098,0.0739 0.15716,0.11028 -0.31501,0.21793 -0.47583,0.20753 -0.75573,0.20465 0.1939,-2.1e-4 0.38781,-2.4e-4 0.58171,-6.3e-4 0.0712,-1.4e-4 -0.14236,-2.9e-4 -0.21354,-10e-5 -0.0939,2.5e-4 -0.18778,6.2e-4 -0.28167,10e-4 -0.41143,0.004 -0.82282,0.0118 -1.23399,0.0274 -1.33246,0.0569 -2.66539,0.15444 -3.97738,0.40612 -1.20212,0.23566 -2.39579,0.49629 -3.54995,0.91667 -0.52005,0.19949 -1.6021,0.78944 -2.11607,0.47214 -0.10932,-0.41304 0.39344,-0.83457 0.41096,-1.24243 0.34116,-1.01176 0.65995,-2.03401 0.8141,-3.09411 0.23516,-1.29007 0.42233,-2.59103 0.50331,-3.90066 0.0833,-1.1201 0.12682,-2.24232 0.0777,-3.36552 0,0 0.74077,-0.008 0.74077,-0.008 z"
       inkscape:connector-curvature="0" />
    <path
       style="color:#000000;display:inline;overflow:visible;visibility:visible;fill:#000000;fill-opacity:1;fill-rule:nonzero;stroke:#000000;stroke-width:0.66000003;stroke-linecap:butt;stroke-miterlimit:4;stroke-dasharray:none;stroke-dashoffset:22.20000076;stroke-opacity:1;marker:none;enable-background:accumulate"
       id="path4383"
       d="m 322.1459,393.75759 c 0.93442,0.10717 1.5748,0.0141 2.71316,-0.13111 1.01393,-0.14563 2.06709,-0.29207 2.98189,-0.77915 0.0735,-0.0506 0.14693,-0.10113 0.22039,-0.1517 0,0 0.73739,0.071 0.73739,0.071 l 0,0 c -0.0746,0.0532 -0.1492,0.10645 -0.2238,0.15967 -0.91102,0.50924 -1.97681,0.65472 -2.99586,0.80473 -1.37848,0.1827 -2.78037,0.28085 -4.16724,0.13353 0,0 0.73407,-0.10693 0.73407,-0.10693 z"
       inkscape:connector-curvature="0" />
    <path
       style="color:#000000;display:inline;overflow:visible;visibility:visible;fill:#000000;fill-opacity:1;fill-rule:nonzero;stroke:#000000;stroke-width:0.66000003;stroke-linecap:butt;stroke-miterlimit:4;stroke-dasharray:none;stroke-dashoffset:22.20000076;stroke-opacity:1;marker:none;enable-background:accumulate"
       id="path4385"
       d="m 321.13,390.09645 c 0.94699,-0.58521 2.02432,-0.8996 3.10542,-1.125 1.21119,-0.20284 2.42946,-0.34368 3.65403,-0.43112 0.76055,-0.0474 1.52252,-0.0648 2.28438,-0.0706 0.0589,-2e-4 0.11782,-4.1e-4 0.17673,-6.1e-4 0,0 0.73484,0.11626 0.73484,0.11626 l 0,0 c -0.0596,-10e-6 -0.11909,-2e-5 -0.17863,-3e-5 -0.76513,0.004 -1.53039,0.019 -2.29432,0.0643 -1.22483,0.0839 -2.44274,0.22337 -3.65467,0.42127 -1.07472,0.21647 -2.14572,0.52164 -3.08986,1.09587 0,0 -0.73792,-0.0704 -0.73792,-0.0704 z"
       inkscape:connector-curvature="0" />
    <path
       style="color:#000000;display:inline;overflow:visible;visibility:visible;fill:#000000;fill-opacity:1;fill-rule:nonzero;stroke:#000000;stroke-width:0.66000003;stroke-linecap:butt;stroke-miterlimit:4;stroke-dasharray:none;stroke-dashoffset:22.20000076;stroke-opacity:1;marker:none;enable-background:accumulate"
       id="path4389"
       d="m 219.03918,402.52475 c 0.59572,-1.23282 1.41795,-2.33365 2.21881,-3.43741 1.29506,-1.8042 2.53505,-3.64408 3.69107,-5.54039 1.28023,-2.04295 2.429,-4.16217 3.5821,-6.27799 0.81677,-1.52994 1.62556,-3.06542 2.49155,-4.56837 0.38843,-0.63272 0.80618,-1.25956 1.06499,-1.95978 0.004,-0.0377 0.0205,-0.0759 0.0132,-0.11317 -0.0122,-0.0627 -0.10443,-0.058 -0.14101,-0.0641 0.19833,0.008 0.39991,-0.014 0.59499,0.0226 0.0613,0.0115 -0.12134,0.0309 -0.17868,0.0554 -0.0713,0.0305 -0.13696,0.0725 -0.20544,0.10876 -0.69818,0.33003 -1.37682,0.69854 -2.05986,1.05844 -0.9754,0.52493 -1.99164,0.96497 -3.01171,1.3937 -0.74357,0.25242 -1.4767,0.5818 -2.26085,0.68151 -0.53738,0.0303 -1.23352,0.21413 -1.4019,-0.39563 -0.0856,-0.44689 0.27049,-0.71778 0.5924,-0.95319 0.82861,-0.51099 1.70281,-0.95016 2.57873,-1.3746 1.29219,-0.64856 2.56517,-1.33268 3.82724,-2.03772 0.99943,-0.57187 2.03033,-1.0908 3.13241,-1.4308 1.373,-0.23117 1.73814,-0.23263 2.18688,0.95977 0.34627,1.19267 0.34863,2.45127 0.38255,3.68326 0.0253,1.35931 0.0233,2.71895 0.0242,4.07845 -0.0288,0.49884 0.0693,1.01225 -0.0691,1.49914 0,0 -0.7448,-0.022 -0.7448,-0.022 l 0,0 c 0.15415,-0.47494 0.0446,-0.98749 0.082,-1.47732 0.006,-1.35875 0.0102,-2.7177 -0.0175,-4.07627 -0.0352,-1.22405 -0.0398,-2.47549 -0.39318,-3.65826 -0.11891,-0.30207 -0.21865,-0.65468 -0.51957,-0.83364 -0.0796,-0.0473 -0.33824,-0.0427 -0.26131,-0.0942 0.11863,-0.0794 0.30481,-0.0896 0.42793,-0.0174 0.1071,0.0628 -0.2459,0.0347 -0.36885,0.0521 -1.10661,0.32789 -2.14056,0.84236 -3.14097,1.41393 -1.26198,0.70496 -2.53373,1.39094 -3.82433,2.04235 -0.87151,0.42086 -1.73676,0.86289 -2.56518,1.36317 -0.29522,0.20957 -0.668,0.44557 -0.58393,0.86158 0.0327,0.10063 0.0657,0.19206 0.1652,0.24734 0.0361,0.02 0.15718,0.0357 0.1164,0.0419 -0.0903,0.0136 -0.97089,0.0387 -0.35858,0.0204 0.78833,-0.0782 1.52086,-0.41312 2.26729,-0.6595 1.01865,-0.42763 2.03564,-0.8616 3.00879,-1.38756 0.68038,-0.35931 1.35411,-0.73199 2.0516,-1.05756 0.38618,-0.22694 1.44079,-0.56756 1.39748,0.0953 -0.25878,0.70647 -0.68735,1.33586 -1.08075,1.9718 -0.87462,1.50008 -1.68795,3.0354 -2.5079,4.56568 -1.15643,2.11562 -2.30516,4.23647 -3.58531,6.28117 -1.15276,1.89802 -2.3902,3.73928 -3.68028,5.54673 -0.79417,1.09958 -1.61575,2.19445 -2.19681,3.4267 0,0 -0.74013,-0.0343 -0.74013,-0.0343 z"
       inkscape:connector-curvature="0" />
    <path
       style="color:#000000;display:inline;overflow:visible;visibility:visible;fill:#000000;fill-opacity:1;fill-rule:nonzero;stroke:#000000;stroke-width:0.66000003;stroke-linecap:butt;stroke-miterlimit:4;stroke-dasharray:none;stroke-dashoffset:22.20000076;stroke-opacity:1;marker:none;enable-background:accumulate"
       id="path4397"
       d="m 214.60099,370.00081 c -0.29412,1.03549 -0.46139,2.09423 -0.57207,3.16297 -0.0827,1.14735 -0.15665,2.30135 -0.0958,3.45132 0.05,0.61942 0.12969,1.23582 0.19836,1.85333 0.004,0.2785 0.20032,0.25927 0.42353,0.26751 0.0579,5.6e-4 0.23125,0.006 0.17355,0.002 -0.16868,-0.0122 -0.34521,0.0245 -0.50669,-0.0257 -0.0928,-0.0289 0.19222,-0.0289 0.2885,-0.0422 0.11447,-0.0158 0.22952,-0.0274 0.34373,-0.0449 0.27283,-0.0419 0.5439,-0.0945 0.81586,-0.14178 1.07472,-0.19609 2.12938,-0.48134 3.19843,-0.70337 0.93142,-0.17815 1.84624,-0.4264 2.76818,-0.64553 0.20831,-0.0789 0.54043,-0.0406 0.69672,-0.23213 0,0 0.74694,0.039 0.74694,0.039 l 0,0 c -0.11431,0.24939 -0.48959,0.22387 -0.71145,0.29186 -0.92613,0.21409 -1.84255,0.46863 -2.77707,0.64635 -1.06861,0.21794 -2.12103,0.5063 -3.19359,0.70633 -0.85405,0.14843 -1.70548,0.32126 -2.57973,0.26234 -0.25367,-0.0223 -0.42775,-0.0832 -0.43108,-0.37164 -0.062,-0.61918 -0.13997,-1.23678 -0.18705,-1.85741 -0.057,-1.15396 0.0165,-2.31136 0.10028,-3.46252 0.10928,-1.07243 0.27823,-2.13369 0.55815,-3.17618 0,0 0.74233,0.0207 0.74233,0.0207 z"
       inkscape:connector-curvature="0" />
    <path
       style="color:#000000;display:inline;overflow:visible;visibility:visible;fill:#000000;fill-opacity:1;fill-rule:nonzero;stroke:#000000;stroke-width:0.66000003;stroke-linecap:butt;stroke-miterlimit:4;stroke-dasharray:none;stroke-dashoffset:22.20000076;stroke-opacity:1;marker:none;enable-background:accumulate"
       id="path4399"
       d="m 212.84944,373.84917 c 0.90661,-0.76697 2.07028,-0.99996 3.20953,-1.18326 1.22409,-0.17505 2.46969,-0.20724 3.67858,-0.47564 0.51957,-0.17232 0.27752,-0.0708 0.7296,-0.29613 0,0 0.73312,0.0808 0.73312,0.0808 l 0,0 c -0.45552,0.23914 -0.2115,0.13175 -0.73565,0.31389 -1.20934,0.28106 -2.45945,0.30729 -3.68672,0.47944 -1.12678,0.17422 -2.29128,0.38818 -3.18923,1.14582 0,0 -0.73923,-0.0649 -0.73923,-0.0649 z"
       inkscape:connector-curvature="0" />
    <path
       style="color:#000000;display:inline;overflow:visible;visibility:visible;fill:#000000;fill-opacity:1;fill-rule:nonzero;stroke:#000000;stroke-width:0.66000003;stroke-linecap:butt;stroke-miterlimit:4;stroke-dasharray:none;stroke-dashoffset:22.20000076;stroke-opacity:1;marker:none;enable-background:accumulate"
       id="path4401"
       d="m 214.91092,369.89662 c 0.95961,-0.31463 1.92491,-0.61024 2.89162,-0.90199 0.76455,-0.20441 1.53156,-0.40394 2.30655,-0.56519 0,0 0.72843,0.10034 0.72843,0.10034 l 0,0 c -0.7763,0.15641 -1.54284,0.3588 -2.309,0.55808 -0.96305,0.29179 -1.92575,0.58371 -2.88171,0.89839 0,0 -0.73589,-0.0896 -0.73589,-0.0896 z"
       inkscape:connector-curvature="0" />
    <path
       style="color:#000000;display:inline;overflow:visible;visibility:visible;fill:#000000;fill-opacity:1;fill-rule:nonzero;stroke:#000000;stroke-width:0.66000003;stroke-linecap:butt;stroke-miterlimit:4;stroke-dasharray:none;stroke-dashoffset:22.20000076;stroke-opacity:1;marker:none;enable-background:accumulate"
       id="path4403"
       d="m 225.43992,374.29619 c 0.0909,0.88293 0.22603,1.76369 0.44254,2.6249 0.0691,0.24885 0.11928,0.50314 0.19042,0.75145 0.034,0.11877 0.0606,0.15259 0.06,0.15252 -0.2633,-0.0357 -0.52178,-0.10068 -0.78267,-0.15102 -0.14683,-0.42101 -0.34281,-0.82186 -0.51893,-1.23113 -0.14041,-0.38477 -0.0966,-0.55408 0.30703,-0.66242 0.32586,-10e-4 0.65176,0.001 0.97758,-0.004 0.1522,-0.002 -0.30499,0.009 -0.45663,-0.004 -0.10617,-0.009 0.21311,-0.005 0.31966,-0.008 0.37684,-0.009 0.74813,-0.0183 1.12379,-0.0512 0.74511,-0.0689 1.46544,-0.25877 2.13531,-0.59012 0.54011,-0.32312 0.94994,-0.79304 1.2917,-1.31328 0.21471,-0.39365 0.32185,-0.83109 0.49293,-1.24431 0.15906,-0.28274 0.0691,-0.28597 0.76197,0.0953 0.0536,0.0295 -0.0238,0.12009 -0.0326,0.18063 -0.0271,0.18535 -0.0337,0.30361 -0.0493,0.49279 -0.009,0.72785 -0.0817,1.44878 -0.15885,2.1719 -0.0822,0.6745 -0.0579,1.35692 -0.19691,2.02331 -0.0282,0.11245 -0.0463,0.22877 -0.11754,0.32243 0,0 -0.74444,-0.0803 -0.74444,-0.0803 l 0,0 c 0.0912,0.0244 0.0912,-0.22602 0.12007,-0.25776 0.14582,-0.66269 0.12105,-1.34346 0.20276,-2.01549 0.0773,-0.72243 0.14751,-1.44278 0.15385,-2.17001 0.004,-0.0569 0.0125,-0.65958 0.0786,-0.68406 1.16709,-0.43237 0.88805,-0.28849 0.72663,-0.049 -0.1778,0.41588 -0.28663,0.85673 -0.49824,1.25729 -0.34243,0.53214 -0.75623,1.01174 -1.29722,1.35189 -0.66882,0.34411 -1.39031,0.5437 -2.13995,0.61727 -0.80645,0.0816 -1.63968,0.0802 -2.44833,0.0697 -0.16412,-0.002 0.3282,-0.008 0.49229,-0.0113 -0.38312,0.0707 -0.44587,0.14127 -0.30105,0.5325 0.17544,0.41446 0.37646,0.81832 0.51968,1.24555 -0.23617,0.0661 -0.46773,0.15162 -0.70849,0.1982 -0.0244,0.005 -0.22398,-0.86132 -0.24029,-0.9177 -0.21071,-0.8661 -0.34389,-1.74954 -0.4461,-2.63458 0,0 0.74077,-0.008 0.74077,-0.008 z"
       inkscape:connector-curvature="0" />
    <path
       style="color:#000000;display:inline;overflow:visible;visibility:visible;fill:#000000;fill-opacity:1;fill-rule:nonzero;stroke:#000000;stroke-width:0.66000003;stroke-linecap:butt;stroke-miterlimit:4;stroke-dasharray:none;stroke-dashoffset:22.20000076;stroke-opacity:1;marker:none;enable-background:accumulate"
       id="path4409"
       d="m 333.76003,398.26345 c -0.55906,0.89408 -1.00677,1.8485 -1.43927,2.80793 -0.28627,0.72144 -0.60872,1.449 -0.70789,2.22464 -0.004,0.21875 0.0703,0.33073 0.28338,0.39033 0.0749,0.0209 0.30702,0.0289 0.22996,0.0395 -0.14331,0.0197 -0.30545,0.0552 -0.43381,-0.0115 -0.10601,-0.0551 0.23823,-0.0188 0.35734,-0.0282 0.9382,-0.1637 1.85396,-0.44467 2.76932,-0.70533 0.9216,-0.25591 1.87044,-0.43428 2.82835,-0.44309 1.19804,0.0267 0.72857,-0.0115 1.41192,0.0561 0,0 -0.73104,0.10865 -0.73104,0.10865 l 0,0 c -0.44139,-0.0408 -0.42673,-0.0237 0.0459,-0.0497 -0.95714,-0.008 -1.90701,0.17274 -2.82871,0.42238 -0.91503,0.26297 -1.83145,0.53722 -2.76595,0.72005 -0.40853,0.0387 -1.70839,0.27058 -1.88926,-0.29009 -0.0225,-0.0697 -0.0126,-0.14585 -0.0189,-0.21877 0.10583,-0.78263 0.42687,-1.5179 0.71874,-2.24597 0.43544,-0.96156 0.88431,-1.91738 1.43016,-2.82284 0,0 0.73985,0.0459 0.73985,0.0459 z"
       inkscape:connector-curvature="0" />
    <path
       style="color:#000000;display:inline;overflow:visible;visibility:visible;fill:#000000;fill-opacity:1;fill-rule:nonzero;stroke:#000000;stroke-width:0.66000003;stroke-linecap:butt;stroke-miterlimit:4;stroke-dasharray:none;stroke-dashoffset:22.20000076;stroke-opacity:1;marker:none;enable-background:accumulate"
       id="path4411"
       d="m 331.38075,400.42348 c 0.83516,-0.25024 1.68231,-0.43821 2.54389,-0.56936 0.56061,-0.10014 0.28461,-0.0499 0.82801,-0.15043 0,0 0.72906,0.10185 0.72906,0.10185 l 0,0 c -0.54458,0.10067 -0.26811,0.0497 -0.82941,0.1528 -0.85915,0.12579 -1.70432,0.30663 -2.53513,0.56086 0,0 -0.73642,-0.0957 -0.73642,-0.0957 z"
       inkscape:connector-curvature="0" />
    <path
       style="color:#000000;display:inline;overflow:visible;visibility:visible;fill:#000000;fill-opacity:1;fill-rule:nonzero;stroke:#000000;stroke-width:0.66000003;stroke-linecap:butt;stroke-miterlimit:4;stroke-dasharray:none;stroke-dashoffset:22.20000076;stroke-opacity:1;marker:none;enable-background:accumulate"
       id="path4413"
       d="m 330.88034,396.64826 c 0.94807,-0.37389 1.96639,-0.48782 2.97272,-0.5865 0.82379,-0.0712 1.65091,-0.0822 2.4772,-0.0908 0,0 0.72533,0.11416 0.72533,0.11416 l 0,0 c -0.82674,0.007 -1.65427,0.0168 -2.47878,0.0842 -1.00071,0.0939 -2.01433,0.20031 -2.95923,0.56531 0,0 -0.73724,-0.0864 -0.73724,-0.0864 z"
       inkscape:connector-curvature="0" />
    <path
       style="color:#000000;display:inline;overflow:visible;visibility:visible;fill:#000000;fill-opacity:1;fill-rule:nonzero;stroke:#000000;stroke-width:0.66000003;stroke-linecap:butt;stroke-miterlimit:4;stroke-dasharray:none;stroke-dashoffset:22.20000076;stroke-opacity:1;marker:none;enable-background:accumulate"
       id="path4415"
       d="m 340.02966,398.22123 c 0.45399,0.89366 1.14943,1.62473 1.91631,2.25649 0.51682,0.4069 1.10471,0.6941 1.72971,0.88866 0,0 -0.73435,0.0929 -0.73435,0.0929 l 0,0 c -0.62353,-0.20848 -1.21031,-0.50387 -1.72566,-0.9174 -0.76734,-0.64558 -1.45962,-1.38595 -1.92683,-2.28216 0,0 0.74082,-0.0385 0.74082,-0.0385 z"
       inkscape:connector-curvature="0" />
    <path
       style="color:#000000;display:inline;overflow:visible;visibility:visible;fill:#000000;fill-opacity:1;fill-rule:nonzero;stroke:#000000;stroke-width:0.66000003;stroke-linecap:butt;stroke-miterlimit:4;stroke-dasharray:none;stroke-dashoffset:22.20000076;stroke-opacity:1;marker:none;enable-background:accumulate"
       id="path4417"
       d="m 344.22975,397.4372 c -0.70691,0.48996 -1.3926,1.00952 -2.0871,1.51669 -0.69512,0.49685 -1.31796,1.09431 -1.87943,1.7369 -0.17661,0.21697 -0.34685,0.43895 -0.51668,0.66123 0,0 -0.74026,-0.0485 -0.74026,-0.0485 l 0,0 c 0.17207,-0.2232 0.344,-0.44655 0.52159,-0.66541 0.56109,-0.64866 1.18778,-1.25069 1.88377,-1.75318 0.69421,-0.50519 1.37899,-1.02335 2.07901,-1.52057 0,0 0.7391,0.0729 0.7391,0.0729 z"
       inkscape:connector-curvature="0" />
    <path
       style="color:#000000;display:inline;overflow:visible;visibility:visible;fill:#000000;fill-opacity:1;fill-rule:nonzero;stroke:#000000;stroke-width:0.66000003;stroke-linecap:butt;stroke-miterlimit:4;stroke-dasharray:none;stroke-dashoffset:22.20000076;stroke-opacity:1;marker:none;enable-background:accumulate"
       id="path4423"
       d="m 349.88061,397.525 c -0.11607,0.87855 -0.16296,1.76391 -0.1956,2.64884 -0.0244,0.78862 -0.0282,1.57769 -0.0273,2.36664 -0.0138,0.27458 0.0646,0.59432 -0.10917,0.83314 0,0 -0.74581,-0.0561 -0.74581,-0.0561 l 0,0 c 0.21343,-0.16351 0.0813,-0.55655 0.11548,-0.77715 0.004,-0.78982 0.007,-1.57977 0.0323,-2.36926 0.0341,-0.88689 0.0822,-1.77362 0.18834,-2.6553 0,0 0.74177,0.009 0.74177,0.009 z"
       inkscape:connector-curvature="0" />
    <path
       style="color:#000000;display:inline;overflow:visible;visibility:visible;fill:#000000;fill-opacity:1;fill-rule:nonzero;stroke:#000000;stroke-width:0.66000003;stroke-linecap:butt;stroke-miterlimit:4;stroke-dasharray:none;stroke-dashoffset:22.20000076;stroke-opacity:1;marker:none;enable-background:accumulate"
       id="path4425"
       d="m 345.66067,398.1206 c 0.88678,-0.45371 1.86042,-0.64781 2.8385,-0.77948 0.99943,-0.1619 2.00751,-0.24984 3.00915,-0.39468 0.71757,-0.0717 1.42315,-0.20723 2.12838,-0.35347 0.19698,-0.0378 0.3975,-0.0868 0.59665,-0.10399 -0.0102,0.0321 -0.0204,0.0642 -0.0305,0.0963 0,0 0.74052,-0.11165 0.74052,-0.11165 l 0,0 c 0.0116,0.0337 0.0231,0.0675 0.0347,0.10117 -0.18278,0.0855 -0.41555,0.046 -0.60664,0.11926 -0.7083,0.14526 -1.41535,0.28944 -2.13646,0.35677 -1.00239,0.14557 -2.01095,0.23363 -3.01125,0.39536 -0.97262,0.12453 -1.94452,0.30617 -2.82663,0.75628 0,0 -0.73639,-0.0819 -0.73639,-0.0819 z"
       inkscape:connector-curvature="0" />
  </g>
</svg>
