<?xml version="1.0" encoding="UTF-8" standalone="no"?>
<!-- Created with Inkscape (http://www.inkscape.org/) -->

<svg
   xmlns:dc="http://purl.org/dc/elements/1.1/"
   xmlns:cc="http://creativecommons.org/ns#"
   xmlns:rdf="http://www.w3.org/1999/02/22-rdf-syntax-ns#"
   xmlns:svg="http://www.w3.org/2000/svg"
   xmlns="http://www.w3.org/2000/svg"
   xmlns:sodipodi="http://sodipodi.sourceforge.net/DTD/sodipodi-0.dtd"
   xmlns:inkscape="http://www.inkscape.org/namespaces/inkscape"
   width="80.600494mm"
   height="62.446163mm"
   viewBox="0 0 285.5923 221.26593"
   id="svg2"
   version="1.1"
   inkscape:version="0.91 r13725"
   sodipodi:docname="intrinsic_DOS.svg">
  <sodipodi:namedview
     id="base"
     pagecolor="#ffffff"
     bordercolor="#666666"
     borderopacity="1.0"
     inkscape:pageopacity="0.0"
     inkscape:pageshadow="2"
     inkscape:zoom="0.98994949"
     inkscape:cx="-45.378871"
     inkscape:cy="260.53321"
     inkscape:document-units="px"
     inkscape:current-layer="layer1"
     showgrid="false"
     inkscape:window-width="1855"
     inkscape:window-height="1056"
     inkscape:window-x="65"
     inkscape:window-y="24"
     inkscape:window-maximized="1"
     fit-margin-top="0"
     fit-margin-left="0"
     fit-margin-right="0"
     fit-margin-bottom="0" />
  <defs
     id="defs4" />
  <metadata
     id="metadata7">
    <rdf:RDF>
      <cc:Work
         rdf:about="">
        <dc:format>image/svg+xml</dc:format>
        <dc:type
           rdf:resource="http://purl.org/dc/dcmitype/StillImage" />
        <dc:title></dc:title>
      </cc:Work>
    </rdf:RDF>
  </metadata>
  <g
     id="layer1"
     inkscape:groupmode="layer"
     inkscape:label="Layer 1"
     transform="translate(-83.334493,-221.41247)">
    <path
       inkscape:connector-curvature="0"
       d="m 214.37783,423.5878 c -0.73787,-1.64685 -1.18939,-3.37396 -1.60619,-5.12177 -0.44908,-2.05171 -0.71851,-4.14481 -0.94645,-6.23218 -0.28024,-3.13881 -0.32504,-6.29421 -0.24663,-9.4426 0.22002,-5.06176 0.32797,-10.12671 0.39559,-15.19246 0.11737,-5.97776 -0.0349,-11.95673 -0.3008,-17.92848 -0.23539,-6.16836 -0.78467,-12.31568 -1.34229,-18.46097 -0.55258,-5.79101 -1.31379,-11.55913 -1.83978,-17.35272 -0.55212,-5.08192 -0.83057,-10.18413 -0.97833,-15.29182 -0.1414,-4.9024 0.11587,-9.80561 0.4083,-14.69784 0.29364,-4.76875 0.6543,-9.53104 0.85059,-14.30545 0.13568,-4.01108 0.1242,-8.02255 0.32107,-12.03136 0.17048,-3.26028 0.23453,-6.5225 0.47213,-9.77881 0.19892,-2.48114 0.30401,-4.96788 0.36025,-7.4559 0.13294,-1.50141 -0.10526,-2.97664 -0.28175,-4.46039 -0.28439,-1.1857 -0.44584,-2.39471 -0.68246,-3.58892 -0.26851,-1.15997 -0.41851,-2.33897 -0.50055,-3.52518 -0.1919,-1.04052 -0.37879,-2.07824 -0.47858,-3.13228 -0.22097,-0.93606 -0.32529,-1.90101 -0.57332,-2.82954 -0.21863,-0.70736 -0.39225,-1.42315 -0.48999,-2.15694 -0.1504,-0.48329 -0.37829,-0.92832 -0.47977,-1.42675 -0.0992,-0.13927 0.0152,-0.4167 -0.0758,-0.55414 -0.0131,-0.0197 -0.0913,0.0154 -0.0681,0.02 1.42475,0.2818 1.57316,-0.15885 1.1357,0.532 -0.49361,1.30574 -1.08267,2.5709 -1.6786,3.8322 -0.94993,1.95741 -1.89095,3.9202 -2.90818,5.84373 -0.64134,0.89969 -1.40813,2.783 -2.39199,3.33631 -0.58171,-0.0142 -1.17432,0.0705 -1.74511,-0.0426 -0.30169,-0.0598 -0.1096,-2.48352 -0.0834,-2.72629 0.35825,-2.19756 0.97817,-4.33005 1.66504,-6.44341 0.84602,-2.47964 1.78741,-4.92569 2.89539,-7.30019 0.73149,-1.21374 1.17322,-2.79218 2.41188,-3.60425 0.77626,-0.15911 0.88053,-0.2141 2.09223,0.14763 0.25745,0.0769 1.21103,2.1557 1.33184,2.4077 0.93017,2.00007 1.88215,3.98973 2.84848,5.97255 0.70551,1.70391 1.51272,3.36788 2.15316,5.09796 0.0617,0.20441 0.12342,0.40882 0.18512,0.61323 0,0 -1.51654,0.0445 -1.51654,0.0445 l 0,0 c -0.0609,-0.20136 -0.12173,-0.40272 -0.18258,-0.60409 -0.63678,-1.72443 -1.42905,-3.388 -2.13717,-5.08362 -0.96689,-1.98395 -1.9184,-3.97519 -2.85709,-5.97263 -0.21836,-0.44784 -0.49782,-1.04374 -0.75141,-1.48345 -0.097,-0.16814 -0.20244,-0.33155 -0.31449,-0.49004 -0.0863,-0.12202 -0.4131,-0.28311 -0.27966,-0.35039 0.37365,-0.18841 0.83403,-0.0754 1.24782,-0.13778 0.0993,-0.0149 -0.20071,-0.004 -0.30106,-0.005 -1.28407,0.70749 -1.69927,2.34145 -2.43396,3.51326 -1.11559,2.36516 -2.05363,4.80681 -2.89786,7.28139 -0.68103,2.1034 -1.29713,4.2248 -1.64677,6.41252 -0.068,0.65037 -0.12348,1.29435 -0.0766,1.94906 0.009,0.12351 0.0164,0.24914 0.0515,0.3679 0.021,0.0709 0.18568,0.17454 0.1135,0.19047 -0.42078,0.0929 -0.86059,0.0462 -1.29088,0.0694 0.87161,-0.281 1.88949,-2.49515 2.41066,-3.23352 1.02136,-1.91818 1.95665,-3.88083 2.903,-5.8368 0.59428,-1.26494 1.18926,-2.53239 1.65977,-3.84999 0.54887,-0.91872 2.17468,-1.1727 2.06261,0.0544 0.10913,0.49869 0.34759,0.94622 0.47821,1.43856 0.0946,0.72744 0.27082,1.4362 0.48447,2.13777 0.24309,0.93818 0.35426,1.90916 0.57121,2.85434 0.10047,1.05522 0.29138,2.09347 0.47748,3.13622 0.081,1.17981 0.23007,2.35241 0.49798,3.5059 0.23793,1.19777 0.40095,2.41033 0.68167,3.60059 0.17947,1.49068 0.40453,2.97422 0.26862,4.48202 -0.0619,2.49057 -0.176,4.97959 -0.37482,7.46333 -0.24378,3.2548 -0.31188,6.51606 -0.48371,9.77519 -0.20374,4.00829 -0.19634,8.01938 -0.33583,12.03013 -0.20496,4.77492 -0.56291,9.53841 -0.85747,14.30804 -0.29492,4.88783 -0.54609,9.78677 -0.40973,14.6849 0.14794,5.10446 0.42215,10.2039 0.97058,15.28298 0.52148,5.79354 1.27402,11.5623 1.82704,17.35279 0.55783,6.14749 1.10708,12.29702 1.34339,18.46755 0.26699,5.97449 0.42106,11.95613 0.30917,17.93674 -0.0631,5.06602 -0.16398,10.13141 -0.36678,15.19403 -0.0684,3.14217 -0.0126,6.2909 0.27268,9.42266 0.23298,2.08103 0.50505,4.16729 0.95306,6.21337 0.41696,1.7409 0.86862,3.46248 1.62302,5.09544 0,0 -1.52165,0.0616 -1.52165,0.0616 z"
       id="path4138"
       style="color:#000000;display:inline;overflow:visible;visibility:visible;fill:#000000;fill-opacity:1;fill-rule:nonzero;stroke:#000000;stroke-width:0.47392955;stroke-linecap:butt;stroke-miterlimit:4;stroke-dasharray:none;stroke-dashoffset:0;stroke-opacity:1;marker:none;enable-background:accumulate" />
    <path
       inkscape:connector-curvature="0"
       d="m 91.321144,412.89515 c 1.709031,-1.15098 3.679072,-1.7876 5.667456,-2.25323 3.02712,-0.72381 6.14021,-0.90291 9.23826,-1.03554 4.26896,-0.20581 8.53709,0.0356 12.80212,0.20366 4.13084,0.10371 8.26064,-0.1153 12.39381,-0.10579 4.4668,-0.0247 8.91192,0.37645 13.34549,0.87592 4.55898,0.65005 9.13481,1.18202 13.72424,1.56071 4.99815,0.36136 10.01135,0.40685 15.02012,0.44409 4.78091,0.0986 9.55298,-0.018 14.32619,-0.27861 5.49764,-0.27634 10.96506,-0.94089 16.43989,-1.48721 5.73661,-0.58834 11.47767,-1.13734 17.22347,-1.62863 6.17331,-0.52152 12.34223,-1.08717 18.50804,-1.69129 6.47388,-0.6043 12.96644,-0.96194 19.45513,-1.35923 6.53539,-0.32811 13.06684,-0.71411 19.59729,-1.12817 6.18148,-0.46129 12.3637,-0.91116 18.54446,-1.38155 5.24199,-0.43922 10.49882,-0.62704 15.75658,-0.73101 4.85746,-0.0758 9.71569,-0.0661 14.57358,-0.0659 3.60239,0.0856 7.19847,0.29923 10.77636,0.7286 2.87534,0.30847 5.73185,0.7619 8.60806,1.06105 1.80735,0.17267 3.62183,0.24361 5.4365,0.26982 -0.51669,-0.0382 1.49006,0.0405 1.11878,0.006 -0.34779,-0.0328 -0.70386,0.0152 -1.0467,-0.0518 -0.14961,-0.0292 0.47733,0.0265 0.66897,-0.31947 -0.68668,-0.90058 -2.12419,-1.23405 -3.13418,-1.64638 -2.52635,-1.12776 -5.06209,-2.22963 -7.57658,-3.3838 -2.38581,-1.08249 -4.7366,-2.23704 -7.10195,-3.36225 -0.47413,-0.33254 -2.52239,-0.77777 -2.1083,-1.68305 2.04503,-0.44848 4.72134,0.23029 6.7686,0.60921 3.80349,0.73549 7.56274,1.66376 11.28861,2.71984 3.74726,1.03899 7.41692,2.34218 10.9625,3.93674 1.56431,0.85326 3.73895,1.68687 4.50513,3.46611 0.0972,0.22567 0.12494,0.47528 0.18741,0.71292 -0.11398,2.16847 -2.13496,3.25255 -3.80127,4.25179 -2.89623,1.56377 -6.08693,2.42058 -9.26617,3.19154 -2.72798,0.64679 -5.48905,1.24382 -8.2979,1.35192 -1.49499,0.0805 -2.39275,0.0587 -3.58209,-0.60098 0,0 1.50895,-0.16423 1.50895,-0.16423 l 0,0 c 0.18028,0.0908 0.35141,0.20261 0.54085,0.27229 0.71158,0.26174 1.11006,0.13124 0.0467,0.26252 2.8147,-0.0726 5.58305,-0.67872 8.31593,-1.31852 3.17099,-0.75841 6.3528,-1.60755 9.24757,-3.14862 1.59952,-0.94804 3.62814,-1.98273 3.77338,-4.05816 -0.0607,-0.22332 -0.0878,-0.45867 -0.18223,-0.66995 -0.77678,-1.73753 -2.93446,-2.53497 -4.46845,-3.37878 -3.54012,-1.58764 -7.20452,-2.88252 -10.94471,-3.91717 -3.73214,-1.05308 -7.49872,-1.9757 -11.30907,-2.70297 -1.24543,-0.22552 -1.47441,-0.2787 -2.67237,-0.45414 -0.33131,-0.0485 -0.66353,-0.0907 -0.99568,-0.13302 -0.26077,-0.0333 -1.00647,0.0448 -0.78304,-0.0937 0.27501,-0.1705 0.64753,-0.002 0.97047,-0.0225 0.0944,-0.006 -0.18875,-0.0139 -0.28312,-0.0209 -0.50587,0.38288 1.87615,1.27049 2.07139,1.42288 2.36015,1.12492 4.70292,2.28521 7.08607,3.36191 2.51853,1.15483 5.05878,2.2568 7.59356,3.37535 0.94934,0.3866 2.78163,0.82732 3.17138,1.88626 -0.35202,0.97912 -2.76368,0.45339 -3.77048,0.53843 -1.80899,-0.0312 -3.61759,-0.10864 -5.41881,-0.28609 -2.87087,-0.30658 -5.72359,-0.75631 -8.59444,-1.06504 -3.57349,-0.41996 -7.16437,-0.63555 -10.76165,-0.71322 -3.8944,-0.005 -7.78902,0.004 -11.68306,0.0609 -5.26241,0.10039 -10.52411,0.28288 -15.77087,0.72052 -6.18466,0.47178 -12.37139,0.91525 -18.55653,1.38158 -6.53077,0.41363 -13.06229,0.80338 -19.59817,1.12832 -6.48685,0.39923 -12.97797,0.75185 -19.45029,1.35467 -6.16355,0.60549 -12.3303,1.17165 -18.50139,1.69414 -5.74397,0.48911 -11.48294,1.03938 -17.21753,1.62745 -5.47471,0.54409 -10.94114,1.21462 -16.43826,1.49388 -5.72561,0.32019 -11.4578,0.3457 -17.19115,0.28625 -5.01124,-0.0386 -10.02697,-0.0866 -15.0272,-0.45408 -4.59074,-0.38348 -9.16748,-0.91867 -13.72879,-1.56427 -4.43417,-0.49408 -8.87962,-0.88799 -13.34637,-0.85995 -4.13207,-0.0647 -8.26994,0.38882 -12.40268,0.10198 -3.29433,-0.1305 -6.58652,-0.37868 -9.88329,-0.20296 -3.09011,0.1275 -6.19684,0.29515 -9.217555,1.01083 -1.973981,0.44599 -3.940543,1.06068 -5.634657,2.20205 0,0 -1.516393,-0.14951 -1.516393,-0.14951 z"
       id="path4142"
       style="color:#000000;display:inline;overflow:visible;visibility:visible;fill:#000000;fill-opacity:1;fill-rule:nonzero;stroke:#000000;stroke-width:0.47392955;stroke-linecap:butt;stroke-miterlimit:4;stroke-dasharray:none;stroke-dashoffset:0;stroke-opacity:1;marker:none;enable-background:accumulate" />
    <path
       inkscape:connector-curvature="0"
       d="m 266.39897,403.55312 c -0.23349,-0.56768 -0.41089,-1.14578 -0.60804,-1.72095 -0.14262,-0.4719 -0.31274,-0.93927 -0.44605,-1.41267 -0.1289,-0.489 -0.27284,-0.97346 -0.34719,-1.46978 -0.14467,-0.55104 -0.23611,-1.10722 -0.28652,-1.66742 -0.0841,-0.71584 -0.002,-1.42853 0.0718,-2.14199 0.14155,-0.85977 0.28028,-1.71955 0.49114,-2.57137 0.24822,-0.89347 0.57904,-1.76816 0.97331,-2.63026 0.5061,-0.94738 1.1143,-1.86049 1.66316,-2.79376 0.61958,-1.01013 1.29443,-1.9965 1.99181,-2.97648 0.81833,-1.07817 1.7119,-2.12241 2.58638,-3.17466 0.91337,-1.08935 1.86975,-2.15958 2.91496,-3.17864 1.11028,-1.08922 2.30459,-2.12587 3.52315,-3.14549 1.38524,-1.1679 2.74494,-2.35399 4.16909,-3.49476 1.64582,-1.32638 3.49691,-2.49054 5.32883,-3.66328 2.06736,-1.29095 4.20905,-2.51298 6.35087,-3.73172 2.11587,-1.15531 4.25063,-2.2904 6.40338,-3.40573 2.0239,-1.00693 4.14707,-1.89288 6.27324,-2.76774 1.78162,-0.73049 3.51838,-1.52102 5.29803,-2.25418 1.48006,-0.61323 2.96337,-1.22167 4.4467,-1.83034 1.38488,-0.56569 2.80853,-1.07137 4.22809,-1.58376 1.41731,-0.51215 2.874,-0.95848 4.33816,-1.38674 1.36027,-0.39132 2.70572,-0.81267 4.08333,-1.16799 1.33577,-0.35163 2.70822,-0.60366 4.08315,-0.84705 1.2934,-0.20032 2.58246,-0.41826 3.88325,-0.58969 1.14324,-0.16827 2.29113,-0.31717 3.43575,-0.47952 0.9417,-0.1133 1.87154,-0.2746 2.81393,-0.3841 0.69206,-0.11413 1.38824,-0.2073 2.09305,-0.26025 0.49235,-0.0621 0.97975,-0.14306 1.47421,-0.19569 0.28993,-0.0289 0.58223,-0.0355 0.87425,-0.0381 0.59281,-0.0888 1.82299,0.10469 0.3013,-0.0317 -0.0409,-0.004 -0.0286,-0.0587 -0.046,-0.087 -0.24391,-0.15297 -0.61888,-0.1354 -0.91707,-0.15212 0,0 0.75062,-0.0856 0.75062,-0.0856 l 0,0 c 0.31382,0.0207 0.72078,0.005 0.93298,0.21424 0.021,0.0406 0.1011,0.11398 0.0459,0.12613 -0.25615,0.0564 -0.52443,0.0741 -0.78762,0.10686 -0.0226,0.003 -0.0918,-3e-4 -0.0689,-3.2e-4 0.0692,-8e-5 0.96284,-3.9e-4 0.54513,-2.5e-4 -0.29202,10e-4 -0.5844,0.005 -0.87484,0.0307 -0.49676,0.0495 -0.98683,0.12605 -1.47871,0.19752 -0.70605,0.049 -1.40467,0.13685 -2.09607,0.25674 -0.9446,0.10588 -1.875,0.26956 -2.81842,0.38151 -1.14461,0.16487 -2.29441,0.30887 -3.43753,0.48023 -1.3021,0.16805 -2.59096,0.3884 -3.88557,0.58607 -1.37404,0.24344 -2.74736,0.49028 -4.08259,0.8416 -1.37958,0.35141 -2.72407,0.77525 -4.08508,1.16545 -1.46398,0.42682 -2.92079,0.8714 -4.33789,1.38238 -1.41829,0.51354 -2.84383,1.01539 -4.22841,1.58085 -1.48484,0.60829 -2.96893,1.21731 -4.45065,1.82996 -1.78342,0.73124 -3.52197,1.52259 -5.3056,2.25355 -2.12672,0.87345 -4.25095,1.75728 -6.27642,2.7618 -2.15342,1.11495 -4.28904,2.24941 -6.4069,3.40302 -2.14068,1.21763 -4.27988,2.43987 -6.34704,3.7288 -1.82924,1.17131 -3.67767,2.3341 -5.32276,3.65748 -1.42364,1.13957 -2.77981,2.32653 -4.16368,3.49383 -1.21685,1.01864 -2.41043,2.05371 -3.51968,3.1415 -1.0465,1.0161 -2.00018,2.08588 -2.9135,3.17313 -0.87493,1.05038 -1.76366,2.09528 -2.5841,3.17087 -0.69512,0.97911 -1.36998,1.96356 -1.98849,2.97233 -0.54641,0.9323 -1.15435,1.8436 -1.66095,2.789 -0.3938,0.85928 -0.72281,1.73136 -0.97124,2.62188 -0.21168,0.84965 -0.34856,1.70746 -0.48984,2.5652 -0.0726,0.71071 -0.15199,1.42072 -0.0666,2.13358 0.0514,0.55936 0.14386,1.11449 0.2879,1.6648 0.0758,0.49432 0.21932,0.97694 0.34831,1.4641 0.13574,0.47214 0.30088,0.93934 0.44323,1.41041 0.19471,0.57561 0.373,1.15318 0.61358,1.71937 0,0 -0.76205,0.0161 -0.76205,0.0161 z"
       id="path4158"
       style="color:#000000;display:inline;overflow:visible;visibility:visible;fill:#000000;fill-opacity:1;fill-rule:nonzero;stroke:#000000;stroke-width:0.41318366;stroke-linecap:butt;stroke-miterlimit:4;stroke-dasharray:none;stroke-dashoffset:0;stroke-opacity:1;marker:none;enable-background:accumulate" />
    <path
       inkscape:connector-curvature="0"
       d="m 176.24817,410.40062 c 0.0386,-0.78117 0.0249,-1.56121 -0.0843,-2.33558 -0.0917,-0.79163 -0.31562,-1.55647 -0.58737,-2.30284 -0.44117,-1.06077 -0.92554,-2.10126 -1.35166,-3.16864 -0.58124,-1.53274 -1.1487,-3.07054 -1.72183,-4.60633 -0.73125,-1.98931 -1.32588,-4.02495 -1.98058,-6.04017 -0.73203,-2.36714 -1.58297,-4.69405 -2.46003,-7.01049 -0.96352,-2.6281 -2.15952,-5.15793 -3.4145,-7.6566 -1.43629,-2.84685 -3.02014,-5.61316 -4.67313,-8.33854 -1.95481,-3.09363 -4.04612,-6.09611 -6.28007,-8.99387 -2.30809,-2.95298 -4.72321,-5.81441 -7.28378,-8.55074 -2.39909,-2.59721 -5.10124,-4.88413 -7.81784,-7.13733 -2.41982,-2.07239 -4.97459,-3.97685 -7.48581,-5.93492 -2.3155,-1.78687 -4.62553,-3.58106 -6.97289,-5.32611 -2.13078,-1.59618 -4.3717,-3.04258 -6.64778,-4.42161 -2.12711,-1.27757 -4.36389,-2.35444 -6.59113,-3.44252 -2.09397,-0.93101 -4.19529,-1.84525 -6.30906,-2.73052 -1.74475,-0.75736 -3.4483,-1.60716 -5.142349,-2.47103 -1.372988,-0.74015 -2.716485,-1.52907 -4.05487,-2.32926 -1.026856,-0.6119 -2.085163,-1.16775 -3.126686,-1.75376 -0.857586,-0.52803 -1.806304,-0.85142 -2.756896,-1.16112 -0.768259,-0.20619 -1.539433,-0.40746 -2.323295,-0.54583 -0.552469,-0.0431 -1.088733,-0.17623 -1.631376,-0.27965 -0.317076,-0.0544 -0.636914,-0.0841 -0.958267,-0.0926 -0.193512,0.003 -0.356605,-0.1268 -0.531063,-0.20329 -0.209587,-0.17627 -0.285348,-0.39594 -0.352023,-0.65668 -0.01941,-0.0639 -0.03883,-0.12776 -0.05824,-0.19165 0,0 0.762185,-0.0226 0.762185,-0.0226 l 0,0 c 0.01996,0.065 0.03993,0.12993 0.05989,0.19489 0.06202,0.23605 0.132443,0.45193 0.349925,0.58813 0.171189,0.0785 0.327948,0.19061 0.525216,0.17408 0.321098,0.0131 0.640612,0.0473 0.956937,0.10505 0.54042,0.10739 1.077641,0.22621 1.627158,0.27919 0.782651,0.14449 1.554792,0.34343 2.321202,0.5565 0.952289,0.31023 1.89628,0.6497 2.755459,1.17628 1.040534,0.58579 2.097618,1.14207 3.12201,1.75626 1.334837,0.80051 2.676345,1.58739 4.047433,2.32496 1.69226,0.86152 3.39243,1.71214 5.13574,2.46629 2.11216,0.88739 4.21331,1.80053 6.30492,2.73523 2.22719,1.08925 4.46339,2.16845 6.58906,3.44937 2.27484,1.3819 4.51494,2.82997 6.64434,4.42881 2.34561,1.74612 4.65464,3.54037 6.96847,5.32815 2.51082,1.95729 5.06284,3.86405 7.48064,5.93757 2.71606,2.25592 5.41603,4.54713 7.81456,7.14659 2.55922,2.73932 4.97285,5.60385 7.28189,8.55761 2.23473,2.90146 4.32972,5.90551 6.2875,9.00131 1.65567,2.72701 3.24169,5.49537 4.68081,8.34387 1.25805,2.50044 2.45375,5.03362 3.41982,7.66386 0.87885,2.31758 1.73274,4.64527 2.46627,7.01375 0.65653,2.01422 1.25227,4.04926 1.98754,6.03675 0.57562,1.53525 1.14566,3.0725 1.73048,4.60428 0.42975,1.06754 0.91873,2.10783 1.35869,3.17079 0.27368,0.75153 0.49995,1.52135 0.59167,2.31868 0.10735,0.78138 0.11668,1.5675 0.0879,2.35551 0,0 -0.76093,-0.009 -0.76093,-0.009 z"
       id="path4166"
       style="color:#000000;display:inline;overflow:visible;visibility:visible;fill:#000000;fill-opacity:1;fill-rule:nonzero;stroke:#000000;stroke-width:0.47392955;stroke-linecap:butt;stroke-miterlimit:4;stroke-dasharray:none;stroke-dashoffset:0;stroke-opacity:1;marker:none;enable-background:accumulate" />
    <path
       inkscape:connector-curvature="0"
       d="m 90.515043,372.89399 c 1.135374,-0.0784 2.261304,-0.20208 3.356405,-0.44742 1.060006,-0.25108 2.12967,-0.47205 3.205626,-0.67826 1.081629,-0.19394 2.180385,-0.33702 3.278446,-0.46677 1.13587,-0.12299 2.28319,-0.15035 3.42847,-0.1674 1.47375,-0.0128 2.94766,-0.009 4.42147,-0.007 1.32986,10e-4 2.65971,0.002 3.98957,0.002 0.76492,-0.0292 1.53775,0.0373 2.30204,3e-4 0.0592,-0.003 -0.2327,-0.022 -0.17402,-0.0287 0.52914,-0.0605 1.06748,-0.0563 1.6012,-0.0845 1.65112,-0.0907 3.30637,-0.11724 4.96106,-0.1336 2.01945,-0.0137 4.03902,-0.0108 6.05852,-0.0106 -0.0506,-0.01 -0.2035,-0.0229 -0.15189,-0.0286 0.25984,-0.0286 0.52382,-0.0274 0.78572,-0.0412 1.03668,-0.0549 2.07266,-0.10314 3.11091,-0.13693 1.80885,-0.0477 3.62032,-0.0727 5.42688,0.0268 1.53024,0.0997 3.06494,0.14109 4.5999,0.16498 1.58121,-0.0195 3.15489,0.10008 4.73118,0.17482 1.71831,0.0736 3.43961,0.0859 5.16013,0.0951 -0.0261,-0.009 -0.10682,-0.0242 -0.0784,-0.0266 1.47348,-0.11938 2.97874,-0.13603 4.45889,-0.17751 1.80438,-0.0802 3.59886,-0.25751 5.38984,-0.43928 1.74529,-0.16285 3.48405,-0.36329 5.23373,-0.49779 1.54723,-0.1609 3.09886,-0.28213 4.65812,-0.344 1.44961,-0.005 2.89057,-0.1199 4.33455,-0.20244 1.35337,-0.033 2.69654,-0.16227 4.04461,-0.24992 1.20992,-0.078 2.42431,-0.0947 3.63779,-0.10511 1.4957,-0.006 2.98558,0.10724 4.46127,0.28418 1.07606,0.10782 2.13523,0.30413 3.16986,0.5526 1.00746,0.20679 2.01139,0.42206 3.01395,0.64255 0.99866,0.25022 1.9754,0.55106 2.95108,0.8499 0.9812,0.35599 1.94275,0.7423 2.90992,1.12075 1.06784,0.39139 1.99204,0.93972 2.90329,1.50939 0.87604,0.57386 1.82853,1.05779 2.79002,1.54053 0.78221,0.41857 1.51462,0.88574 2.30047,1.30086 0.77009,0.37739 1.51382,0.78406 2.27097,1.17612 0.71145,0.36517 1.35872,0.79457 2.04201,1.18886 0.76105,0.43528 1.52087,0.86902 2.2446,1.34077 0.80225,0.53107 1.68818,0.97371 2.51991,1.47496 0.83476,0.44902 1.68643,0.8746 2.48396,1.36308 0.70829,0.48077 1.50146,0.87819 2.25944,1.30981 0.78018,0.48495 1.55256,0.97715 2.32716,1.46763 0.74433,0.48947 1.49186,0.98155 2.15027,1.53973 0.50998,0.51616 1.13944,0.94406 1.76002,1.37877 0.65333,0.47044 1.32729,0.92697 1.92334,1.44087 0.54534,0.52694 1.15921,1.00963 1.71009,1.5324 0.54202,0.49968 1.04459,1.0214 1.55844,1.53779 0.49363,0.42207 0.90618,0.89769 1.40265,1.31643 0.41262,0.37057 0.78654,0.76368 1.16168,1.15663 0.32903,0.36012 0.71499,0.68508 1.10901,1.00336 0.43726,0.33213 0.83673,0.69011 1.21909,1.05943 0.4211,0.32758 0.79827,0.68619 1.20243,1.02603 0.43219,0.32646 0.91164,0.61008 1.37797,0.90688 0.43221,0.27766 0.91371,0.487 1.40323,0.69878 0.48871,0.14819 0.97215,0.31562 1.48242,0.41743 0.48708,0.1616 0.98892,0.26037 1.51247,0.31867 0.48828,0.12095 0.98635,0.21068 1.49569,0.25758 0.45431,0.0383 0.91214,0.0391 1.36864,0.0408 0.73156,4.2e-4 -0.32887,1.6e-4 -0.4933,1e-5 -0.0785,-7e-5 0.15711,-1.6e-4 0.23568,-2.6e-4 0.23301,-3.1e-4 0.46602,-7.2e-4 0.69902,-10e-4 0.44958,-5.8e-4 0.89916,-7.2e-4 1.34874,-7.2e-4 0.88496,1.1e-4 1.76992,9e-5 2.65488,1.5e-4 0.80454,1.4e-4 1.60909,2.2e-4 2.41365,3.3e-4 1.04587,1.6e-4 2.09175,7e-5 3.13762,1.6e-4 -0.14597,-10e-6 -0.57581,0.0366 -0.43792,-3e-5 0.1713,-0.0455 0.36209,-0.0161 0.54277,-0.0279 0.68086,-0.044 1.35941,-0.10923 2.04028,-0.15452 0.93422,-0.0559 1.87154,-0.066 2.80811,-0.0729 1.15397,-0.005 2.30796,-0.003 3.46193,-0.002 -0.18418,-0.009 -0.39681,0.049 -0.55256,-0.0269 -0.1174,-0.0572 0.27599,-0.0271 0.414,-0.0405 0.60418,-0.0591 1.21063,-0.0983 1.81308,-0.16592 0.97735,-0.15047 1.97443,-0.18029 2.96061,-0.2752 1.04276,-0.12721 2.09456,-0.19259 3.14851,-0.22988 1.06045,-0.029 2.12174,-0.0293 3.18273,-0.0302 1.33538,-5.8e-4 2.67074,10e-4 4.00611,10e-4 1.00222,4.4e-4 2.00443,5.5e-4 3.00666,5.3e-4 0.62815,-5e-5 0.31235,-5e-5 0.94739,-1e-5 0.1558,-10e-6 0.62318,1.5e-4 0.46739,-3e-5 -1.33236,-10e-4 0.13153,-8e-5 0.32997,-6e-5 0.82422,-8e-5 1.64845,-7e-5 2.47267,-6e-5 0.88294,0.0133 1.75919,0.006 2.63698,-0.0685 1.06118,-0.0707 2.11487,-0.17704 3.17099,-0.28168 1.09464,-0.10891 2.19872,-0.13602 3.30107,-0.154 1.15223,-0.0352 2.30844,0.024 3.46018,-0.01 0.17616,-0.005 -0.35178,-0.0181 -0.52768,-0.027 0.70305,-0.0676 1.40328,-0.15039 2.10966,-0.19536 0.49989,-0.0274 1.00114,-0.0314 1.50206,-0.0332 0.82011,-0.001 1.64022,3.2e-4 2.46033,10e-4 0.52603,3.3e-4 1.05206,4.8e-4 1.57809,5.6e-4 -0.82344,-1.7e-4 1.6242,-10e-5 0.79774,-4e-5 -1.51145,1.2e-4 -0.42292,4e-5 -0.11106,7e-5 0.65776,0.0324 1.29873,-0.0261 1.9452,-0.10955 0.66325,-0.0897 1.33573,-0.11918 2.00768,-0.13665 0.64417,3e-5 1.27493,-0.11845 1.90936,-0.1914 0.42066,-0.0211 0.81665,-0.0759 1.21504,-0.17807 0.38817,-0.0955 0.79323,-0.12284 1.19753,-0.14268 0.22712,-0.0262 0.46612,0.0134 0.69112,-0.021 0.20838,-0.20237 -0.31362,-0.58565 -0.45486,-0.72013 -0.53363,-0.36449 -0.24821,-0.17524 -0.85885,-0.56544 0,0 0.97753,-0.0657 0.97753,-0.0657 l 0,0 c 0.61854,0.39534 0.33024,0.20094 0.86845,0.58007 0.22167,0.21361 0.66611,0.54814 0.46258,0.84914 -0.16208,0.12238 -0.48939,0.021 -0.70061,0.058 -0.40216,0.0164 -0.80557,0.0363 -1.19457,0.123 -0.40369,0.1002 -0.78928,0.18731 -1.22039,0.19086 -0.63695,0.0689 -1.26819,0.1936 -1.91279,0.19969 -0.67093,0.0151 -1.34293,0.0399 -2.00579,0.12646 -0.64755,0.0839 -1.28617,0.16123 -1.94646,0.12223 -0.8824,8e-5 -1.76479,2e-4 -2.64718,0 -0.5264,0 -1.0528,8e-5 -1.5792,-5.2e-4 -0.2495,-1.9e-4 -0.49899,-4.5e-4 -0.74848,-7e-4 -0.0782,-10e-5 -0.31245,-2.3e-4 -0.23434,-3e-4 0.0571,-4e-5 1.21331,-1.6e-4 0.48668,-8e-5 -0.5012,7.1e-4 -1.00266,0.004 -1.50306,0.0273 -0.7086,0.0404 -1.41116,0.12033 -2.11486,0.19405 -0.47445,0.0112 -0.9492,0.0164 -1.42334,0.0335 -0.16729,0.006 0.33493,-0.001 0.50238,-1.8e-4 0.16227,10e-4 -0.32452,7e-5 -0.48679,2.8e-4 -0.5095,6.8e-4 -1.01901,0.002 -1.52847,0.008 -1.10203,0.0162 -2.20594,0.0401 -3.30075,0.14586 -1.0558,0.10272 -2.10732,0.21673 -3.16858,0.28304 -0.87778,0.0781 -1.75217,0.0958 -2.63618,0.0772 -0.82448,10e-6 -1.64896,3e-5 -2.47345,-4e-5 -1.23135,10e-5 -2.46271,-8e-5 -3.69406,-1.3e-4 -1.00222,-10e-5 -2.00443,-10e-5 -3.00665,-5.8e-4 -0.83774,-4.9e-4 -1.67612,0.006 -2.51379,-10e-4 -0.15155,-0.001 0.30308,-7e-5 0.45465,-1.1e-4 -1.06095,5.1e-4 -2.12217,3.9e-4 -3.18268,0.027 -1.05304,0.0345 -2.10478,0.0947 -3.14628,0.22356 -0.98409,0.10351 -1.98317,0.119 -2.95938,0.2737 -1.19701,0.14673 -2.41709,0.22618 -3.62742,0.24488 -0.22087,-1.3e-4 -1.63438,5.1e-4 -0.25585,-7.2e-4 0.28268,-2.5e-4 -1.13186,1.9e-4 -0.84809,6.1e-4 -0.13527,4.5e-4 -0.27054,7.2e-4 -0.40582,0.001 -0.93668,0.006 -1.87409,0.0144 -2.80868,0.0671 -1.3632,0.0875 -2.71887,0.25856 -4.0925,0.18848 -1.04673,9e-5 -2.09345,0 -3.14018,1.6e-4 -0.80631,10e-5 -1.61261,1.8e-4 -2.4189,3.1e-4 -0.73848,4e-5 0.005,-2e-5 0.36075,4e-5 0.0969,1e-5 -0.19371,2e-5 -0.29057,3e-5 -0.27944,5e-5 -0.25576,4e-5 -0.52786,9e-5 -0.0782,2e-5 -0.15636,4e-5 -0.23454,5e-5 -0.44966,9e-5 -0.8993,1.3e-4 -1.34894,7.1e-4 -0.80221,0.001 -1.60441,0.003 -2.4066,7.1e-4 -0.45713,-0.003 -0.91565,-0.006 -1.36987,-0.0501 -0.50851,-0.0543 -1.00195,-0.15475 -1.4963,-0.25927 -0.52294,-0.0646 -1.0204,-0.17955 -1.51352,-0.3275 -0.50886,-0.11265 -1.00157,-0.27251 -1.485,-0.43611 -0.49147,-0.21369 -0.97024,-0.43245 -1.4042,-0.71215 -0.47031,-0.29673 -0.94827,-0.58578 -1.37821,-0.91764 -0.4049,-0.34118 -0.78602,-0.69853 -1.20333,-1.03101 -0.38251,-0.36664 -0.78364,-0.72126 -1.21752,-1.05296 -0.39626,-0.32054 -0.78144,-0.64946 -1.11062,-1.01291 -0.37363,-0.39089 -0.74667,-0.78236 -1.16007,-1.14933 -0.4883,-0.42627 -0.91378,-0.8943 -1.40047,-1.32251 -0.51203,-0.5165 -1.01745,-1.03575 -1.55786,-1.53542 -0.55403,-0.5195 -1.1613,-1.00502 -1.70947,-1.52877 -0.59965,-0.50892 -1.26986,-0.96545 -1.92318,-1.4333 -0.6224,-0.43579 -1.24486,-0.87075 -1.75967,-1.38574 -0.6611,-0.55212 -1.40344,-1.04349 -2.14689,-1.52919 -0.77456,-0.48926 -1.54398,-0.98324 -2.32768,-1.4636 -0.7604,-0.4301 -1.55023,-0.83166 -2.25958,-1.31244 -0.79957,-0.48547 -1.65435,-0.90727 -2.48235,-1.36258 -0.83536,-0.49876 -1.71974,-0.94566 -2.52193,-1.47778 -0.72513,-0.46949 -1.48661,-0.90082 -2.2465,-1.33629 -0.68167,-0.39426 -1.32777,-0.82383 -2.04117,-1.18527 -0.75347,-0.39627 -1.50438,-0.79404 -2.26975,-1.17679 -0.78249,-0.41704 -1.51313,-0.8852 -2.29827,-1.29907 -0.96314,-0.48286 -1.90918,-0.97653 -2.78843,-1.54847 -0.90975,-0.56608 -1.83799,-1.10503 -2.90256,-1.49343 -0.96656,-0.37699 -1.92503,-0.76697 -2.91048,-1.1137 -0.97506,-0.29675 -1.94927,-0.60016 -2.94993,-0.84249 -1.00216,-0.22189 -2.00845,-0.43119 -3.01381,-0.64402 -1.03554,-0.24138 -2.09173,-0.43619 -3.16654,-0.54187 -0.57378,-0.0678 -1.1422,-0.1244 -1.7203,-0.1651 -0.1922,-0.0136 -0.38416,-0.0289 -0.57638,-0.0424 -0.20069,-0.0141 -0.41469,0.0164 -0.60232,-0.04 -0.11907,-0.0358 0.25483,-0.0174 0.38224,-0.0261 -1.21402,0.009 -2.42899,0.0241 -3.63968,0.0993 -1.34876,0.0855 -2.69156,0.22034 -4.04554,0.25057 -1.445,0.0809 -2.8863,0.20222 -4.33693,0.20391 -1.55981,0.0589 -3.11275,0.17485 -4.65971,0.34019 -1.7512,0.13103 -3.49049,0.33269 -5.23688,0.49485 -1.79067,0.18507 -3.58581,0.35914 -5.38965,0.4466 -2.10223,0.057 -4.19882,0.19334 -6.30283,0.20621 -1.7216,-0.01 -3.44401,-0.0231 -5.16328,-0.0989 -1.57612,-0.076 -3.15014,-0.18972 -4.73125,-0.17169 -1.53558,-0.0251 -3.07064,-0.0694 -4.60155,-0.16851 -0.25189,-0.0134 -0.5066,-0.008 -0.75566,-0.0399 -0.0786,-0.0101 0.31606,-0.0229 0.23652,-0.0263 -0.98873,-0.0417 -1.98697,0.0497 -2.97596,0.0416 -1.89242,0.0592 -3.77835,0.20015 -5.67313,0.20947 0.34727,-3.8e-4 0.55684,-5.4e-4 -0.68593,-1.3e-4 -0.85998,3e-4 -1.71998,7.2e-4 -2.57994,0.005 -0.28926,0.001 -0.5785,0.004 -0.86776,0.005 -1.65406,0.0155 -3.30872,0.0401 -4.95932,0.12954 -1.88454,0.0998 -3.77007,0.14267 -5.65942,0.11837 -1.33111,-2.3e-4 -2.66222,-5.9e-4 -3.99333,-0.002 -0.20297,-1.6e-4 -0.40593,2.1e-4 -0.60889,-4.8e-4 -0.12712,-4.4e-4 0.50844,-9e-5 0.38133,-3e-4 -0.75074,-10e-4 -1.50152,5.4e-4 -2.25221,0.007 -1.14451,0.0153 -2.29107,0.0395 -3.42692,0.15748 -1.0977,0.12589 -2.194385,0.27277 -3.276696,0.45969 -1.074887,0.20849 -2.147095,0.4212 -3.206034,0.67489 -1.090716,0.25474 -2.215037,0.38293 -3.349742,0.46079 0,0 -0.981338,-0.10945 -0.981338,-0.10945 z"
       id="path4192"
       style="color:#000000;display:inline;overflow:visible;visibility:visible;fill:#b3b3b3;fill-opacity:1;fill-rule:nonzero;stroke:#b3b3b3;stroke-width:0.54042643;stroke-linecap:butt;stroke-miterlimit:4;stroke-dasharray:none;stroke-dashoffset:0;stroke-opacity:1;marker:none;enable-background:accumulate" />
    <path
       style="font-style:normal;font-variant:normal;font-weight:normal;font-stretch:normal;letter-spacing:normal;word-spacing:normal;text-anchor:start;fill:#000000;fill-opacity:1;fill-rule:evenodd;stroke:#000000;stroke-width:0;stroke-linecap:butt;stroke-linejoin:miter;stroke-miterlimit:10.43299961;stroke-dasharray:none;stroke-dashoffset:0;stroke-opacity:1"
       inkscape:connector-curvature="0"
       d="m 317.45492,323.3914 -0.0396,-0.0791 -0.0197,-0.0791 -0.0593,-0.0791 -0.0396,-0.0791 -0.0396,-0.0791 -0.0396,-0.0791 -0.0593,-0.0791 -0.0593,-0.0791 -0.0593,-0.0791 -0.0593,-0.0791 -0.0593,-0.0791 -0.0593,-0.0791 -0.0791,-0.0791 -0.0593,-0.0791 -0.0791,-0.0593 -0.0791,-0.0791 -0.0791,-0.0593 -0.0791,-0.0791 -0.0989,-0.0593 -0.0791,-0.0593 -0.0989,-0.0396 -0.0989,-0.0593 -0.0989,-0.0396 -0.0989,-0.0593 -0.0989,-0.0396 -0.11867,-0.0197 -0.11866,-0.0396 -0.11867,-0.0197 -0.11867,-0.0197 -0.11867,-0.0198 -0.11867,0 -0.13844,-0.0198 0,0.57356 c 1.85913,0 2.23491,2.3338 2.23491,2.49202 l -0.0791,0.39556 -1.34489,5.43895 c -0.0989,0.45489 -0.15823,0.57356 -0.53402,0.9889 -1.1669,1.50312 -2.35357,2.05691 -3.2238,2.05691 -0.92957,0 -1.81957,-0.75157 -1.81957,-2.70959 0,-1.48335 0.85045,-4.6676 1.48335,-5.93339 0.81089,-1.60202 2.09646,-2.72936 3.28314,-2.72936 l 0,-0.57356 c -3.08537,0 -6.60585,3.89626 -6.60585,8.10897 0,2.94692 1.78002,4.39071 3.5996,4.39071 1.50312,0 2.82824,-1.18668 3.34247,-1.76024 l -0.61311,2.55136 c -0.41535,1.56246 -0.57357,2.27447 -1.60202,3.26337 -1.14712,1.1669 -2.23491,1.1669 -2.84803,1.1669 -0.85045,0 -1.56246,-0.0593 -2.27447,-0.29668 0.90979,-0.23733 1.12735,-1.02845 1.12735,-1.34489 0,-0.4549 -0.33622,-0.90979 -0.94935,-0.90979 -0.69223,0 -1.42401,0.55378 -1.42401,1.50312 0,1.16691 1.1669,1.60202 3.56004,1.60202 3.65892,0 5.55761,-2.33381 5.93339,-3.87648 l 3.1447,-12.69747 c 0.0791,-0.33622 0.0791,-0.39555 0.0791,-0.45489 0,-0.39556 -0.31645,-0.69223 -0.73178,-0.69223 -0.67246,0 -1.06802,0.55379 -1.16691,1.32513 z"
       id="path4211" />
    <path
       style="font-style:normal;font-variant:normal;font-weight:normal;font-stretch:normal;letter-spacing:normal;word-spacing:normal;text-anchor:start;fill:#000000;fill-opacity:1;fill-rule:evenodd;stroke:#000000;stroke-width:0;stroke-linecap:butt;stroke-linejoin:miter;stroke-miterlimit:10.43299961;stroke-dasharray:none;stroke-dashoffset:0;stroke-opacity:1"
       inkscape:connector-curvature="0"
       d="m 323.11142,333.73527 0.0593,0 0.0593,0 0.0593,0 0.0791,0 0.0593,0 0.0791,0 0.0791,-0.0197 0.0989,0 0.0791,0 0.0989,0 0.0989,0 0.0989,-0.0197 0.0989,0 0.0989,-0.0197 0.19777,-0.0197 0.21756,-0.0197 0.21756,-0.0396 0.21756,-0.0197 0.19778,-0.0593 0.21755,-0.0396 0.0989,-0.0197 0.0989,-0.0396 0.11866,-0.0396 0.0989,-0.0198 0.0791,-0.0396 0.0989,-0.0396 c 1.38445,-0.59334 1.48334,-1.74047 1.48334,-2.01736 0,-0.87022 -0.75156,-1.68112 -2.11624,-1.68112 l 0,0.43511 c 0.92956,0 1.46357,0.57357 1.46357,1.24601 0,2.03713 -3.1447,2.03713 -3.9556,2.03713 l -0.81089,0 c 0.77134,-2.98647 2.78869,-3.28314 3.30292,-3.28314 l 0,-0.43511 c -2.17558,0 -5.14227,1.91846 -5.14227,5.35983 0,1.99757 1.14712,3.54025 3.08536,3.54025 2.80847,0 4.46982,-2.07668 4.46982,-2.31401 0,-0.11867 -0.11867,-0.25712 -0.23734,-0.25712 -0.0989,0 -0.13844,0.0396 -0.25711,0.19778 -1.56246,1.95802 -3.69848,1.95802 -3.93581,1.95802 -1.54269,0 -1.72069,-1.66135 -1.72069,-2.29424 0,-0.23734 0.0197,-0.83068 0.31645,-2.03714 z"
       id="path4213" />
    <path
       style="font-style:normal;font-variant:normal;font-weight:normal;font-stretch:normal;letter-spacing:normal;word-spacing:normal;text-anchor:start;fill:#000000;fill-opacity:1;fill-rule:evenodd;stroke:#000000;stroke-width:0;stroke-linecap:butt;stroke-linejoin:miter;stroke-miterlimit:10.43299961;stroke-dasharray:none;stroke-dashoffset:0;stroke-opacity:1"
       inkscape:connector-curvature="0"
       d="m 100.90378,293.65142 -0.0396,-0.0791 -0.0396,-0.0791 -0.0396,-0.0791 -0.0396,-0.0791 -0.0593,-0.0791 -0.0396,-0.0791 -0.0593,-0.0791 -0.0593,-0.0791 -0.0396,-0.0791 -0.0593,-0.0791 -0.0791,-0.0791 -0.0593,-0.0791 -0.0593,-0.0791 -0.0791,-0.0791 -0.0791,-0.0593 -0.07911,-0.0791 -0.07912,-0.0593 -0.07911,-0.0791 -0.07911,-0.0593 -0.09889,-0.0593 -0.09889,-0.0396 -0.09889,-0.0593 -0.09889,-0.0396 -0.09889,-0.0593 -0.09889,-0.0396 -0.118669,-0.0198 -0.09889,-0.0396 -0.11867,-0.0197 -0.118669,-0.0197 -0.138444,-0.0198 -0.11867,0 -0.138444,-0.0198 0,0.57357 c 1.878906,0 2.234906,2.3338 2.234906,2.49202 l -0.0791,0.39556 -1.32512,5.43894 c -0.118669,0.45489 -0.178004,0.57356 -0.534011,0.9889 -1.166901,1.50312 -2.353577,2.05691 -3.243588,2.05691 -0.929563,0 -1.799791,-0.75157 -1.799791,-2.70958 0,-1.48335 0.830677,-4.66761 1.463567,-5.93339 0.830676,-1.60202 2.09647,-2.72936 3.283147,-2.72936 l 0,-0.57357 c -3.085368,0 -6.605846,3.89626 -6.605846,8.10897 0,2.94692 1.799798,4.39071 3.599596,4.39071 1.503125,0 2.848022,-1.18668 3.342474,-1.76024 l -0.613114,2.55136 c -0.395566,1.56246 -0.573563,2.27447 -1.582243,3.26337 -1.1669,1.1669 -2.234908,1.1669 -2.867805,1.1669 -0.850452,0 -1.562459,-0.0593 -2.274467,-0.29667 0.909787,-0.23733 1.147125,-1.02846 1.147125,-1.3449 0,-0.45489 -0.336231,-0.90979 -0.969121,-0.90979 -0.672456,0 -1.424015,0.55378 -1.424015,1.50313 0,1.1669 1.166901,1.60201 3.579813,1.60201 3.658923,0 5.557614,-2.3338 5.913614,-3.87648 l 3.144695,-12.69746 c 0.0989,-0.33623 0.0989,-0.39556 0.0989,-0.4549 0,-0.39555 -0.31645,-0.69223 -0.75157,-0.69223 -0.67244,0 -1.068,0.55379 -1.14711,1.32513 z"
       id="path4215" />
    <path
       style="font-style:normal;font-variant:normal;font-weight:normal;font-stretch:normal;letter-spacing:normal;word-spacing:normal;text-anchor:start;fill:#000000;fill-opacity:1;fill-rule:evenodd;stroke:#000000;stroke-width:0;stroke-linecap:butt;stroke-linejoin:miter;stroke-miterlimit:10.43299961;stroke-dasharray:none;stroke-dashoffset:0;stroke-opacity:1"
       inkscape:connector-curvature="0"
       d="m 108.51829,295.11499 0,0 0,0 0,0 0,-0.0197 0,0 0,0 0,0 0,-0.0197 -0.0197,0 0,-0.0198 0,0 0,-0.0197 0,0 0,0 0,-0.0197 -0.0197,0 0,-0.0198 0,0 -0.0198,-0.0197 0,0 0,-0.0197 -0.0197,0 0,0 0,0 0,-0.0197 -0.0198,0 0,0 0,0 -0.0198,0 0,-0.0197 0,0 -0.0198,0 0,0 -0.0197,0 0,0 0,0 -0.0198,-0.0197 0,0 -0.0198,0 0,0 -0.0198,0 0,0 -0.0197,0 -0.0198,0 0,0 c -0.45489,0 -1.89868,0.15822 -2.41291,0.19778 -0.13845,0.0197 -0.35601,0.0396 -0.35601,0.39555 0,0.23734 0.15823,0.23734 0.45489,0.23734 0.94935,0 0.98891,0.13845 0.98891,0.33623 l -0.0593,0.39556 -2.84803,11.313 c -0.0791,0.27689 -0.0791,0.29667 -0.0791,0.43511 0,0.43512 0.39555,0.53401 0.57355,0.53401 0.31645,0 0.6329,-0.23733 0.73179,-0.51423 l 0.356,-1.48335 0.43512,-1.76024 c 0.11867,-0.43511 0.23734,-0.87023 0.33622,-1.32512 0.0396,-0.11867 0.19778,-0.77134 0.21756,-0.89001 0.0593,-0.178 0.67245,-1.26579 1.3449,-1.79979 0.43512,-0.31645 1.04823,-0.69223 1.87891,-0.69223 0.85045,0 1.06802,0.67244 1.06802,1.38445 0,1.04823 -0.75157,3.20404 -1.22624,4.39072 -0.15823,0.45489 -0.23734,0.69222 -0.23734,1.08779 0,0.92956 0.67245,1.60201 1.60202,1.60201 1.85913,0 2.57113,-2.86781 2.57113,-3.02603 0,-0.19778 -0.15822,-0.19778 -0.21755,-0.19778 -0.19778,0 -0.19778,0.0593 -0.29668,0.356 -0.29666,1.04823 -0.92956,2.45247 -2.01735,2.45247 -0.33622,0 -0.47467,-0.21755 -0.47467,-0.65267 0,-0.49445 0.17801,-0.96912 0.356,-1.40424 0.31645,-0.85045 1.20646,-3.18425 1.20646,-4.3116 0,-1.28557 -0.79112,-2.11624 -2.27446,-2.11624 -1.22624,0 -2.17559,0.61312 -2.90737,1.52291 z"
       id="path4217" />
    <path
       style="font-style:normal;font-variant:normal;font-weight:normal;font-stretch:normal;letter-spacing:normal;word-spacing:normal;text-anchor:start;fill:#000000;fill-opacity:1;fill-rule:evenodd;stroke:#000000;stroke-width:0;stroke-linecap:butt;stroke-linejoin:miter;stroke-miterlimit:10.43299961;stroke-dasharray:none;stroke-dashoffset:0;stroke-opacity:1"
       inkscape:connector-curvature="0"
       d="m 111.54815,383.61169 0.0396,0 0.0264,0 0.0396,0 0.0264,0 0.0264,0 0.0264,0 0.0264,0 0.0264,0 0.0264,0 0.0264,-0.0132 0.0264,0 0.0131,0 0.0264,-0.0132 0.0132,0 0.0264,-0.0132 0.0132,0 0.0132,-0.0132 0.0131,-0.0132 0.0132,0 0.0132,-0.0132 0.0131,-0.0132 0.0132,-0.0264 0,-0.0132 0.0131,-0.0132 0,-0.0264 0.0132,-0.0132 0,0 0,-0.0132 0,-0.0132 0,-0.0132 0.0132,-0.0132 0,-0.0132 0,-0.0132 0,-0.0132 0,-0.0132 0,-0.0132 0,-0.0264 0,-0.0132 0,-0.0132 c 0,-0.18483 -0.14522,-0.18483 -0.48849,-0.18483 l -1.53146,0 c 0.35646,-1.95395 0.62051,-3.30058 0.77894,-3.90789 0.10562,-0.44887 0.50169,-0.88455 1.00337,-0.88455 0.39607,0 0.79214,0.17163 0.97697,0.34326 -0.73933,0.0792 -0.96377,0.6205 -0.96377,0.95057 0,0.36965 0.27725,0.5941 0.64691,0.5941 0.36967,0 0.93737,-0.31685 0.93737,-1.02978 0,-0.80534 -0.79214,-1.22782 -1.62388,-1.22782 -0.80535,0 -1.61069,0.5941 -1.98035,1.33343 -0.34326,0.66012 -0.52809,1.34664 -0.96377,3.82868 l -1.26742,0 c -0.36967,0 -0.5545,0 -0.5545,0.34325 0,0.19804 0.11882,0.19804 0.48848,0.19804 l 1.21462,0 c -0.34326,1.7559 -1.1222,6.03346 -1.55788,8.06661 -0.31685,1.63709 -0.5941,3.02334 -1.54467,3.02334 -0.0528,0 -0.60731,0 -0.95057,-0.35646 0.96378,-0.0792 0.96378,-0.91097 0.96378,-0.93737 0,-0.36967 -0.27725,-0.59411 -0.63371,-0.59411 -0.38287,0 -0.95057,0.31686 -0.95057,1.02979 0,0.81854 0.83175,1.2278 1.57107,1.2278 1.92754,0 2.71968,-3.45899 2.93092,-4.39636 0.34326,-1.46546 1.26742,-6.49554 1.35984,-7.06324 z"
       id="path4219" />
    <path
       style="font-style:normal;font-variant:normal;font-weight:normal;font-stretch:normal;letter-spacing:normal;word-spacing:normal;text-anchor:start;fill:#000000;fill-opacity:1;fill-rule:evenodd;stroke:#000000;stroke-width:0;stroke-linecap:butt;stroke-linejoin:miter;stroke-miterlimit:10.43299961;stroke-dasharray:none;stroke-dashoffset:0;stroke-opacity:1"
       inkscape:connector-curvature="0"
       d="m 120.4201,395.81062 0,0 0,-0.0132 0,-0.0132 0,0 0,0 0,-0.0132 0,0 -0.0132,-0.0132 0,0 0,-0.0132 0,-0.0132 -0.0131,0 0,-0.0132 -0.0132,-0.0132 0,-0.0132 -0.0132,-0.0132 -0.0132,-0.0132 -0.0132,-0.0132 0,0 -0.0132,-0.0132 0,0 -0.0132,-0.0132 0,-0.0132 -0.0131,0 0,-0.0132 -0.0132,-0.0132 -0.0132,0 0,-0.0132 -0.0132,-0.0132 -0.0132,-0.0132 -0.0132,0 0,-0.0132 -0.0132,-0.0132 -0.0131,-0.0132 -0.0132,-0.0132 -0.0132,-0.0132 -0.0131,-0.0132 -0.0132,-0.0132 -0.0132,-0.0132 -0.0132,-0.0132 -0.0132,-0.0132 -0.0131,-0.0132 c -1.88793,-1.91433 -2.95732,-5.03008 -2.95732,-8.89835 0,-3.65705 0.89775,-6.8256 3.08934,-9.05679 0.18483,-0.17163 0.18483,-0.21124 0.18483,-0.26404 0,-0.10563 -0.0924,-0.14523 -0.17163,-0.14523 -0.23764,0 -1.79552,1.35984 -2.71968,3.20816 -0.96376,1.91433 -1.39944,3.93429 -1.39944,6.2579 0,1.68989 0.26404,3.94749 1.25422,5.96744 1.10899,2.2708 2.66687,3.49861 2.8649,3.49861 0.0792,0 0.17163,-0.0396 0.17163,-0.15843 z"
       id="path4221" />
    <path
       style="font-style:normal;font-variant:normal;font-weight:normal;font-stretch:normal;letter-spacing:normal;word-spacing:normal;text-anchor:start;fill:#000000;fill-opacity:1;fill-rule:evenodd;stroke:#000000;stroke-width:0;stroke-linecap:butt;stroke-linejoin:miter;stroke-miterlimit:10.43299961;stroke-dasharray:none;stroke-dashoffset:0;stroke-opacity:1"
       inkscape:connector-curvature="0"
       d="m 134.63899,386.83306 0,-0.0132 0,0 0,-0.0132 0,0 0.0131,-0.0132 0,0 0,-0.0132 0,0 0,-0.0132 0.0132,-0.0132 0,0 0,-0.0132 0.0132,-0.0132 0,-0.0264 0.0131,-0.0132 0,-0.0264 0,-0.0132 0.0132,-0.0132 0,0 0,-0.0132 0,-0.0132 0,0 0,-0.0132 0,-0.0132 0,0 0,-0.0132 0,0 c 0,-0.0924 -0.066,-0.19803 -0.18483,-0.19803 -0.0792,0 -0.11882,0.0264 -0.17164,0.0792 -0.0396,0.0264 -0.0396,0.0529 -0.21122,0.43568 -1.10901,2.65366 -1.92755,3.78906 -4.95088,3.78906 l -2.75928,0 c -0.26405,0 -0.30365,0 -0.42248,-0.0264 -0.19803,-0.0132 -0.22443,-0.0528 -0.22443,-0.19803 0,-0.14524 0.0396,-0.25085 0.0792,-0.42248 l 1.30703,-5.21491 1.87473,0 c 1.46546,0 1.58428,0.31685 1.58428,0.88455 0,0.18483 0,0.35646 -0.13203,0.92416 -0.0396,0.0792 -0.0528,0.14523 -0.0528,0.21124 0,0.13202 0.0924,0.18484 0.19803,0.18484 0.17164,0 0.19804,-0.13203 0.26406,-0.39608 l 1.08258,-4.38317 c 0,-0.10561 -0.0792,-0.19803 -0.18483,-0.19803 -0.17163,0 -0.19803,0.0792 -0.26405,0.34326 -0.38286,1.45225 -0.76573,1.87473 -2.44242,1.87473 l -1.79552,0 1.17501,-4.64721 c 0.17163,-0.67332 0.19804,-0.72613 0.97697,-0.72613 l 2.70647,0 c 2.32361,0 2.79889,0.6205 2.79889,2.05956 0,0.0264 0,0.55449 -0.0792,1.175 -0.0131,0.0792 -0.0396,0.18484 -0.0396,0.22445 0,0.15842 0.10562,0.21123 0.21124,0.21123 0.13202,0 0.21123,-0.0792 0.25084,-0.42247 l 0.39607,-3.30058 c 0,-0.066 0.0396,-0.25084 0.0396,-0.29045 0,-0.21124 -0.17163,-0.21124 -0.51489,-0.21124 l -9.22841,0 c -0.35647,0 -0.5545,0 -0.5545,0.34326 0,0.21124 0.13202,0.21124 0.46208,0.21124 1.175,0 1.175,0.13202 1.175,0.34326 0,0.0924 -0.0264,0.17163 -0.0792,0.38287 l -2.56129,10.20541 c -0.15843,0.66011 -0.19803,0.85815 -1.53147,0.85815 -0.35646,0 -0.54129,0 -0.54129,0.33005 0,0.21124 0.10562,0.21124 0.48849,0.21124 l 9.49245,0 c 0.42248,0 0.43568,-0.0132 0.56771,-0.31686 z"
       id="path4223" />
    <path
       style="font-style:normal;font-variant:normal;font-weight:normal;font-stretch:normal;letter-spacing:normal;word-spacing:normal;text-anchor:start;fill:#000000;fill-opacity:1;fill-rule:evenodd;stroke:#000000;stroke-width:0;stroke-linecap:butt;stroke-linejoin:miter;stroke-miterlimit:10.43299961;stroke-dasharray:none;stroke-dashoffset:0;stroke-opacity:1"
       inkscape:connector-curvature="0"
       d="m 141.66262,386.503 0,-0.13203 0,-0.14523 -0.0132,-0.14522 0,-0.14522 0,-0.15843 -0.0132,-0.17163 -0.0264,-0.33006 -0.0264,-0.34326 -0.0396,-0.36966 -0.0528,-0.36967 -0.0528,-0.38286 -0.0792,-0.39608 -0.0924,-0.40926 -0.0924,-0.40928 -0.11883,-0.40927 -0.13202,-0.40927 -0.0792,-0.21123 -0.0792,-0.21125 -0.0792,-0.19803 -0.0792,-0.21124 -0.0924,-0.21123 -0.10561,-0.19804 c -1.109,-2.2708 -2.66687,-3.49861 -2.87811,-3.49861 -0.066,0 -0.15843,0.0396 -0.15843,0.14523 0,0.0528 0,0.0924 0.31686,0.42246 1.88793,1.90114 2.94411,5.03008 2.94411,8.88516 0,3.67024 -0.88455,6.8256 -3.07614,9.05679 -0.18483,0.17163 -0.18483,0.21124 -0.18483,0.26404 0,0.11882 0.0924,0.15843 0.15843,0.15843 0.25085,0 1.80872,-1.35983 2.73287,-3.22136 0.96378,-1.92754 1.39945,-3.97389 1.39945,-6.24469 z"
       id="path4225" />
    <path
       style="font-style:normal;font-variant:normal;font-weight:normal;font-stretch:normal;letter-spacing:normal;word-spacing:normal;text-anchor:start;fill:#000000;fill-opacity:1;fill-rule:evenodd;stroke:#000000;stroke-width:0;stroke-linecap:butt;stroke-linejoin:miter;stroke-miterlimit:10.43299961;stroke-dasharray:none;stroke-dashoffset:0;stroke-opacity:1"
       inkscape:connector-curvature="0"
       d="m 367.11783,435.44264 0,-0.0218 0,0 0,-0.0218 0,0 0.0217,-0.0218 0,0 0,-0.0218 0,0 0,-0.0218 0.0218,-0.0218 0,0 0,-0.0218 0.0218,-0.0218 0,-0.0436 0.0217,-0.0218 0,-0.0436 0,-0.0218 0.0218,-0.0218 0,0 0,-0.0218 0,-0.0218 0,0 0,-0.0218 0,-0.0218 0,0 0,-0.0218 0,0 c 0,-0.15256 -0.10894,-0.32692 -0.30513,-0.32692 -0.13076,0 -0.19615,0.0437 -0.28334,0.13076 -0.0653,0.0437 -0.0653,0.0872 -0.34871,0.71924 -1.83079,4.38079 -3.18207,6.25516 -8.17313,6.25516 l -4.55513,0 c -0.43591,0 -0.50128,0 -0.69745,-0.0437 -0.32692,-0.0218 -0.3705,-0.0871 -0.3705,-0.32692 0,-0.23976 0.0653,-0.41411 0.13076,-0.69745 l 2.15771,-8.609 3.09487,0 c 2.41925,0 2.6154,0.52307 2.6154,1.46026 0,0.30512 0,0.58846 -0.21795,1.52564 -0.0653,0.13078 -0.0871,0.23975 -0.0871,0.34871 0,0.21796 0.15256,0.30515 0.32692,0.30515 0.28334,0 0.32693,-0.21796 0.43591,-0.65386 l 1.78718,-7.23593 c 0,-0.17435 -0.13077,-0.32691 -0.30512,-0.32691 -0.28334,0 -0.32693,0.13076 -0.43591,0.56666 -0.63205,2.39744 -1.2641,3.09489 -4.03206,3.09489 l -2.96412,0 1.93975,-7.67183 c 0.28333,-1.11155 0.32693,-1.19872 1.61282,-1.19872 l 4.46798,0 c 3.83591,0 4.62052,1.02436 4.62052,3.40001 0,0.0437 0,0.91538 -0.13077,1.93975 -0.0217,0.13077 -0.0653,0.30513 -0.0653,0.37052 0,0.26153 0.17435,0.34872 0.34872,0.34872 0.21795,0 0.34872,-0.13077 0.41409,-0.69744 l 0.65386,-5.44875 c 0,-0.10894 0.0654,-0.41409 0.0654,-0.47948 0,-0.34872 -0.28333,-0.34872 -0.85,-0.34872 l -15.23468,0 c -0.58847,0 -0.91539,0 -0.91539,0.56666 0,0.34873 0.21794,0.34873 0.76283,0.34873 1.93974,0 1.93974,0.21794 1.93974,0.56666 0,0.15256 -0.0436,0.28334 -0.13077,0.63206 l -4.22828,16.84755 c -0.26155,1.08974 -0.32692,1.41667 -2.52822,1.41667 -0.58846,0 -0.89359,0 -0.89359,0.54487 0,0.34872 0.17435,0.34872 0.80641,0.34872 l 15.67058,0 c 0.69744,0 0.71923,-0.0218 0.93718,-0.52308 z"
       id="path4223-1" />
    <path
       style="font-style:normal;font-variant:normal;font-weight:normal;font-stretch:normal;letter-spacing:normal;word-spacing:normal;text-anchor:start;fill:#000000;fill-opacity:1;fill-rule:evenodd;stroke:#000000;stroke-width:0;stroke-linecap:butt;stroke-linejoin:miter;stroke-miterlimit:10.43299961;stroke-dasharray:none;stroke-dashoffset:0;stroke-opacity:1"
       inkscape:connector-curvature="0"
       d="m 225.2632,223.29098 -0.0396,-0.0791 -0.0396,-0.0791 -0.0396,-0.0791 -0.0396,-0.0791 -0.0593,-0.0791 -0.0396,-0.0791 -0.0593,-0.0791 -0.0396,-0.0791 -0.0593,-0.0791 -0.0593,-0.0791 -0.0593,-0.0791 -0.0791,-0.0791 -0.0593,-0.0791 -0.0791,-0.0791 -0.0791,-0.0593 -0.0593,-0.0791 -0.0989,-0.0593 -0.0791,-0.0791 -0.0791,-0.0593 -0.0989,-0.0593 -0.0791,-0.0396 -0.0989,-0.0593 -0.0989,-0.0396 -0.11867,-0.0593 -0.0989,-0.0396 -0.11867,-0.0197 -0.0989,-0.0396 -0.11867,-0.0197 -0.11867,-0.0197 -0.13844,-0.0198 -0.11867,0 -0.13844,-0.0198 0,0.57356 c 1.8789,0 2.25468,2.33381 2.25468,2.49203 l -0.0989,0.39555 -1.32512,5.43895 c -0.11867,0.45489 -0.178,0.57356 -0.53401,0.9889 -1.1669,1.50312 -2.35358,2.05691 -3.24359,2.05691 -0.92956,0 -1.79979,-0.75157 -1.79979,-2.70959 0,-1.48335 0.85045,-4.6676 1.46357,-5.93339 0.83067,-1.60201 2.09647,-2.72936 3.28315,-2.72936 l 0,-0.57356 c -3.08537,0 -6.58607,3.89626 -6.58607,8.10897 0,2.94692 1.78002,4.39071 3.59959,4.39071 1.48335,0 2.82825,-1.18668 3.34248,-1.76024 l -0.63289,2.55136 c -0.39557,1.56246 -0.57357,2.27447 -1.58225,3.26337 -1.1669,1.1669 -2.23491,1.1669 -2.8678,1.1669 -0.85045,0 -1.56246,-0.0593 -2.27447,-0.29668 0.90979,-0.23733 1.14713,-1.02845 1.14713,-1.34489 0,-0.4549 -0.33624,-0.90979 -0.96913,-0.90979 -0.67245,0 -1.42401,0.55378 -1.42401,1.50313 0,1.1669 1.1669,1.60201 3.57981,1.60201 3.65892,0 5.55761,-2.3338 5.93339,-3.87648 l 3.1447,-12.69746 c 0.0791,-0.33623 0.0791,-0.39556 0.0791,-0.4549 0,-0.39556 -0.31644,-0.69223 -0.73178,-0.69223 -0.69223,0 -1.08779,0.55379 -1.1669,1.32513 z"
       id="path4231-6" />
  </g>
</svg>
