<?xml version="1.0" encoding="UTF-8" standalone="no"?>
<!-- Created with Inkscape (http://www.inkscape.org/) -->

<svg
   xmlns:dc="http://purl.org/dc/elements/1.1/"
   xmlns:cc="http://creativecommons.org/ns#"
   xmlns:rdf="http://www.w3.org/1999/02/22-rdf-syntax-ns#"
   xmlns:svg="http://www.w3.org/2000/svg"
   xmlns="http://www.w3.org/2000/svg"
   xmlns:sodipodi="http://sodipodi.sourceforge.net/DTD/sodipodi-0.dtd"
   xmlns:inkscape="http://www.inkscape.org/namespaces/inkscape"
   width="101.86956mm"
   height="86.464417mm"
   viewBox="0 0 360.95513 306.36998"
   id="svg5032"
   version="1.1"
   inkscape:version="0.91 r13725"
   sodipodi:docname="m_eff.svg">
  <defs
     id="defs5034" />
  <sodipodi:namedview
     id="base"
     pagecolor="#ffffff"
     bordercolor="#666666"
     borderopacity="1.0"
     inkscape:pageopacity="0.0"
     inkscape:pageshadow="2"
     inkscape:zoom="0.98994949"
     inkscape:cx="234.19748"
     inkscape:cy="173.26381"
     inkscape:document-units="px"
     inkscape:current-layer="layer1"
     showgrid="false"
     fit-margin-top="0"
     fit-margin-left="0"
     fit-margin-right="0"
     fit-margin-bottom="0"
     inkscape:window-width="1855"
     inkscape:window-height="1056"
     inkscape:window-x="65"
     inkscape:window-y="24"
     inkscape:window-maximized="1" />
  <metadata
     id="metadata5037">
    <rdf:RDF>
      <cc:Work
         rdf:about="">
        <dc:format>image/svg+xml</dc:format>
        <dc:type
           rdf:resource="http://purl.org/dc/dcmitype/StillImage" />
        <dc:title></dc:title>
      </cc:Work>
    </rdf:RDF>
  </metadata>
  <g
     inkscape:label="Layer 1"
     inkscape:groupmode="layer"
     id="layer1"
     transform="translate(-85.297592,-305.59426)">
    <path
       style="color:#000000;display:inline;overflow:visible;visibility:visible;fill:#000000;fill-opacity:1;fill-rule:nonzero;stroke:#000000;stroke-width:0.44355431;stroke-linecap:butt;stroke-miterlimit:4;stroke-dasharray:none;stroke-dashoffset:0;stroke-opacity:1;marker:none;enable-background:accumulate"
       id="path5582"
       d="m 248.2805,590.1691 c 0.0669,-3.79806 -0.17687,-7.59638 -0.4618,-11.38212 -0.4628,-6.57915 -0.88827,-13.16044 -1.43526,-19.73341 -0.89704,-11.07425 -1.51705,-22.16719 -2.16177,-33.25811 -0.72849,-13.48361 -1.35743,-26.97226 -2.06513,-40.45693 -0.59973,-12.97605 -1.15966,-25.9538 -1.76738,-38.92959 -0.48516,-11.302 -0.98631,-22.6032 -1.50313,-33.9038 -0.6549,-9.67171 -0.91947,-19.36118 -1.32839,-29.04413 -0.41632,-7.40209 -0.46869,-14.81838 -0.79492,-22.22323 -0.21629,-4.70917 -0.53607,-9.41757 -1.10295,-14.09842 -0.33573,-2.89304 -0.70716,-5.77434 -1.17849,-8.64813 -0.24296,-1.0724 -0.1371,-2.24853 -0.75821,-3.19724 0.14144,-0.26842 -0.36811,-0.0626 -0.27552,-0.0505 0.60863,0.0796 1.25297,-0.053 1.83626,0.13821 0.14406,0.0472 -0.16749,0.25288 -0.24446,0.38349 -0.36391,0.61753 -0.40336,0.7438 -0.7448,1.45302 -1.43869,3.35255 -2.74035,6.76723 -4.0828,10.16114 -2.00823,5.04605 -4.20813,10.01388 -6.52252,14.92622 -1.48276,2.61894 -2.32254,5.63928 -4.06501,8.11231 -0.77608,0.42311 -0.85526,0.53324 -2.33622,-0.2888 -0.21328,-0.11839 -0.002,-0.48861 0.0199,-0.73153 0.12673,-1.3873 0.48873,-2.74985 0.80024,-4.10244 1.22287,-5.07748 2.44048,-10.15404 3.77646,-15.20311 1.49997,-5.65484 3.17166,-11.26692 5.01902,-16.81806 1.12543,-2.45828 1.73161,-6.06301 3.68608,-8.03823 1.00588,-0.42693 1.06627,-0.53402 2.81614,0.15514 0.25997,0.10239 0.25131,0.50011 0.35173,0.76085 0.54058,1.40351 0.85772,2.90758 1.22896,4.35984 1.27989,5.15239 2.41516,10.33923 3.60279,15.51335 1.19147,5.48703 2.92535,10.83261 4.4871,16.2199 0.74185,2.47478 1.4463,4.96146 2.09965,7.46105 0,0 -1.97908,0.0504 -1.97908,0.0504 l 0,0 c -0.64649,-2.49741 -1.34112,-4.98283 -2.07293,-7.4566 -1.54699,-5.39375 -3.27804,-10.74229 -4.47076,-16.231 -1.18949,-5.17442 -2.33184,-10.3608 -3.6398,-15.50704 -0.26208,-0.99775 -0.57602,-2.24983 -0.89039,-3.25092 -0.11284,-0.35931 -0.22702,-0.71932 -0.3731,-1.06644 -0.0973,-0.23128 -0.55679,-0.51466 -0.355,-0.6638 0.43615,-0.32235 1.06968,-0.18002 1.60597,-0.26077 0.13555,-0.0204 -0.26893,0.0532 -0.4034,0.0797 -1.9288,1.70138 -2.68613,5.66939 -3.74353,7.93764 -1.86749,5.54202 -3.54215,11.15108 -5.03705,16.80494 -1.33057,5.04494 -2.53552,10.11883 -3.73059,15.19742 -0.30036,1.33866 -0.65473,2.68919 -0.76578,4.0621 -0.0182,0.22545 0.19862,0.58527 -0.007,0.67852 -0.56053,0.25365 -2.76992,0.17907 -1.70169,0.21001 1.84272,-2.39411 2.60724,-5.48881 4.12997,-8.07047 2.32491,-4.90247 4.52307,-9.86652 6.51731,-14.91347 1.33219,-3.39671 2.62508,-6.81246 4.03368,-10.17631 0.43138,-0.9289 1.69475,-4.21579 3.45541,-1.9472 0.57501,0.99926 0.50988,2.17208 0.73266,3.27661 0.45858,2.87722 0.82067,5.76171 1.15017,8.65676 0.5517,4.68673 0.86534,9.39953 1.06456,14.11363 0.30365,7.40545 0.33943,14.82138 0.74857,22.22365 0.39259,9.68302 0.65281,19.37187 1.29963,29.0435 0.5104,11.30042 0.99398,22.60192 1.4715,33.90376 0.59654,12.97567 1.15421,25.95293 1.74862,38.9286 0.70544,13.48462 1.33204,26.97326 2.07999,40.45569 0.65867,11.08997 1.29969,22.18165 2.2343,33.25277 0.56851,6.57305 1.02039,13.15443 1.49608,19.73456 0.29311,3.7913 0.53665,7.59292 0.51846,11.39701 0,0 -2.01187,0 -2.01187,0 z"
       inkscape:connector-curvature="0" />
    <path
       style="color:#000000;display:inline;overflow:visible;visibility:visible;fill:#000000;fill-opacity:1;fill-rule:nonzero;stroke:#000000;stroke-width:0.44355431;stroke-linecap:butt;stroke-miterlimit:4;stroke-dasharray:none;stroke-dashoffset:0;stroke-opacity:1;marker:none;enable-background:accumulate"
       id="path5584"
       d="m 97.464742,471.05709 c 3.005218,-1.15439 6.250788,-1.37194 9.430938,-1.59386 5.26121,-0.16456 10.52067,-0.34378 15.78093,-0.55037 7.12754,-0.35321 14.23829,-0.95838 21.35354,-1.49223 8.6014,-0.55561 17.20312,-1.10819 25.80001,-1.73034 9.17294,-0.62399 18.35042,-1.17736 27.53827,-1.52453 9.56405,-0.49858 19.13596,-0.76796 28.71103,-0.92038 10.24179,-0.21678 20.48153,-0.0601 30.72075,0.18033 9.39558,0.1177 18.77434,0.70553 28.15715,1.15643 8.84715,0.58576 17.70531,0.92691 26.5689,1.11659 7.53641,0.24624 15.07061,-0.064 22.60409,-0.25659 7.99035,-0.3073 15.98227,-0.0578 23.97124,0.13911 6.43052,0.20546 12.8666,0.11988 19.29637,0.326 5.40328,0.23163 10.80748,0.38465 16.20473,0.73216 4.238,0.29995 8.48418,0.43921 12.73132,0.51371 1.96479,0.0281 3.92979,0.0389 5.89477,0.0414 0.34573,4.3e-4 1.38293,0.005 1.03721,3.4e-4 -0.35425,-0.005 -0.70857,-4.6e-4 -1.06286,-6.7e-4 0.41736,-0.091 2.02776,0.27511 2.23377,-0.35939 -0.78859,-0.78026 -1.88437,-1.13851 -2.89921,-1.52248 -2.5764,-0.9303 -5.19475,-1.73327 -7.76075,-2.69678 -2.82127,-1.00365 -5.60402,-2.08559 -8.35171,-3.27421 -1.1332,-0.68704 -2.7392,-1.11335 -3.40883,-2.36235 0.6565,-1.37057 4.15164,-0.42804 5.46703,-0.0565 3.37022,1.03671 6.67492,2.2537 9.94769,3.56156 4.13157,1.81516 8.14156,3.89973 12.14739,5.97508 3.25281,1.59679 6.41813,3.35893 9.15882,5.74652 1.62185,1.79459 1.53565,2.91579 -0.0956,4.60527 -2.06084,1.57485 -4.5306,2.35173 -6.98453,3.06641 -2.47509,0.79991 -5.07006,0.93011 -7.63359,1.21052 0,0 -1.97105,-0.28968 -1.97105,-0.28968 l 0,0 c 2.55867,-0.2933 5.15612,-0.38431 7.6315,-1.17647 2.43661,-0.70458 4.88206,-1.45057 6.96012,-2.96705 1.61387,-1.58618 1.68955,-2.56086 0.1084,-4.27864 -2.7361,-2.36348 -5.88709,-4.11076 -9.12094,-5.70318 -4.00655,-2.07089 -8.01337,-4.16001 -12.15261,-5.95508 -3.28057,-1.30492 -6.59522,-2.51719 -9.97756,-3.53541 -0.35812,-0.0949 -0.7127,-0.20438 -1.07435,-0.28483 -0.29356,-0.0653 -1.16751,-0.0378 -0.88932,-0.15199 0.42201,-0.1733 0.91174,-0.0514 1.36789,-0.0446 0.25198,0.004 -0.50408,0.0489 -0.74716,0.11539 -0.0421,0.0115 -0.0782,0.0385 -0.11737,0.0577 0.71157,1.16705 2.26418,1.56614 3.36397,2.23626 2.74122,1.19217 5.52727,2.25458 8.34074,3.2652 2.57466,0.95811 5.20168,1.75601 7.78181,2.69568 1.00967,0.38958 2.40998,0.76894 2.93913,1.80527 -0.14744,0.89526 -1.66532,0.58926 -2.28272,0.63138 -3.26651,-4e-5 -6.53321,0.003 -9.79942,-0.0495 -4.24107,-0.079 -8.48095,-0.22452 -12.71279,-0.52572 -5.39052,-0.34554 -10.78841,-0.49602 -16.18475,-0.72877 -6.42468,-0.19725 -12.85513,-0.12193 -19.28029,-0.32721 -6.73067,-0.16684 -13.46251,-0.42846 -20.19437,-0.14123 -8.78308,0.22263 -17.56831,0.51903 -26.35468,0.25521 -8.86088,-0.19355 -17.716,-0.54133 -26.56071,-1.12293 -9.38,-0.45388 -18.75636,-1.03534 -28.14926,-1.15296 -9.0062,-0.21113 -18.01008,-0.40955 -27.01909,-0.17938 -9.5728,0.15019 -19.14264,0.41548 -28.70425,0.91731 -9.18588,0.34363 -18.3611,0.89714 -27.53207,1.51884 -8.59046,0.62545 -17.18602,1.17816 -25.78131,1.73269 -7.10546,0.53335 -14.2059,1.1431 -21.32322,1.50377 -5.24901,0.20654 -10.49656,0.39901 -15.74703,0.5498 -3.15759,0.21243 -6.38232,0.41279 -9.374062,1.53389 0,0 -2.001996,-0.23448 -2.001996,-0.23448 z"
       inkscape:connector-curvature="0" />
    <path
       style="color:#000000;display:inline;overflow:visible;visibility:visible;fill:#000000;fill-opacity:1;fill-rule:nonzero;stroke:#000000;stroke-width:0.44355431;stroke-linecap:butt;stroke-miterlimit:4;stroke-dasharray:none;stroke-dashoffset:0;stroke-opacity:1;marker:none;enable-background:accumulate"
       id="path5588"
       d="m 244.26356,305.81328 c 0.21626,3.3798 0.52312,6.75069 0.80903,10.12513 0.16616,2.80273 0.58994,5.58129 0.93901,8.36512 0.11108,1.18177 0.78086,2.16475 -1.65711,0.88022 -0.16021,-0.0844 0.10936,-0.3453 0.15985,-0.5192 0.072,-0.24814 0.13849,-0.49787 0.20774,-0.7468 0.51207,-2.37355 1.08357,-4.7244 1.85604,-7.02738 0.8851,-2.5337 2.00213,-4.97808 3.61404,-7.13119 1.41182,-1.62811 3.70345,-2.42952 5.66706,-0.95385 1.41852,1.51733 2.16825,3.51182 2.87124,5.43283 0.67696,1.76186 1.17652,3.57741 1.89894,5.32274 0.0641,0.14653 0.15522,0.52907 0.39236,0.58206 0.0686,0.0153 0.26559,-0.0708 0.19572,-0.0786 -0.61008,-0.0676 -1.24137,0.0386 -1.83851,-0.10346 -0.10749,-0.0255 0.0988,-0.19796 0.13953,-0.30065 0.0692,-0.1743 0.12659,-0.35303 0.18988,-0.52954 0.49522,-1.93203 0.80571,-3.9062 1.21926,-5.85652 0.34046,-1.11434 0.41096,-3.08618 1.6533,-3.65272 0.76633,0.0879 1.56328,0.032 2.299,0.26373 0.1925,0.0606 0.19512,0.355 0.2656,0.54413 0.47422,1.27277 0.687,2.66797 1.00399,3.98389 0.5652,2.44406 1.10175,4.89423 1.70639,7.32889 0.23287,0.89276 0.39011,1.80068 0.53495,2.71073 0,0 -2.00799,0.0315 -2.00799,0.0315 l 0,0 c -0.14229,-0.90425 -0.29695,-1.80639 -0.52551,-2.6939 -0.59718,-2.43649 -1.12978,-4.88746 -1.70237,-7.32984 -0.26088,-1.07129 -0.48618,-2.1511 -0.79744,-3.20928 -0.0713,-0.24251 -0.12962,-0.49033 -0.22702,-0.7236 -0.0681,-0.16311 -0.42851,-0.38757 -0.26657,-0.4584 0.53026,-0.23188 1.15124,-0.12013 1.72685,-0.1802 -1.23362,0.053 -1.38302,2.61933 -1.66522,3.42696 -0.41816,1.95682 -0.72688,3.93772 -1.20094,5.88228 -0.0684,0.20169 -0.30397,0.91025 -0.3235,0.91564 -1.49075,0.41113 -2.29923,0.76284 -2.78626,-0.47521 -0.70234,-1.7527 -1.20041,-3.56957 -1.87995,-5.33028 -0.69758,-1.88368 -1.42987,-3.86526 -2.87909,-5.30978 -1.04004,-0.66592 -0.68366,-0.26958 0.85114,-0.51014 0.1865,-0.0292 -0.38178,-0.0352 -0.56632,0.005 -0.80345,0.17316 -1.40229,0.84976 -1.95333,1.39569 -1.63118,2.11809 -2.73938,4.54988 -3.62109,7.06585 -0.77201,2.29774 -1.34283,4.64367 -1.83455,7.01651 -0.0783,0.29273 -0.35105,1.31631 -0.35621,1.31818 -2.54451,0.92457 -2.18411,0.55016 -2.3704,-0.9618 -0.32463,-2.7881 -0.74068,-5.56853 -0.90472,-8.37253 -0.28745,-3.37336 -0.58502,-6.74466 -0.84842,-10.1196 0,0 2.0116,-0.0223 2.0116,-0.0223 z"
       inkscape:connector-curvature="0" />
    <path
       style="color:#000000;display:inline;overflow:visible;visibility:visible;fill:#000000;fill-opacity:1;fill-rule:nonzero;stroke:#000000;stroke-width:0.44355431;stroke-linecap:butt;stroke-miterlimit:4;stroke-dasharray:none;stroke-dashoffset:0;stroke-opacity:1;marker:none;enable-background:accumulate"
       id="path5590"
       d="m 271.93496,332.49689 c 1.85833,-1.08445 3.32747,-2.5598 4.4503,-4.38046 0.56266,-1.13518 1.18437,-2.36485 0.70212,-3.62548 -0.42637,-0.52683 -1.93962,-0.7293 1.18505,-0.26331 0.12518,0.0187 -0.24118,0.0791 -0.35557,0.13325 -0.39342,0.1863 -0.42824,0.24758 -0.76807,0.52065 -0.99996,0.97461 -1.45583,2.39598 -1.87728,3.699 -0.46205,1.50995 -0.51775,3.05327 -0.34154,4.60873 0.2438,1.22825 0.75868,2.39703 1.47687,3.42025 0.31506,0.45842 0.79688,0.70425 1.30767,0.88209 0,0 -2.01485,0.24307 -2.01485,0.24307 l 0,0 c -0.52017,-0.22267 -0.99326,-0.51897 -1.3089,-1.00469 -0.70485,-1.07043 -1.23998,-2.25097 -1.4703,-3.51827 -0.17585,-1.58293 -0.12332,-3.15597 0.34131,-4.69366 0.42541,-1.3335 0.89319,-2.78398 1.87444,-3.81143 1.00885,-0.90195 3.06951,-1.69682 3.97108,-0.28506 0.45019,1.34194 -0.11219,2.59705 -0.72243,3.8047 -1.1216,1.84993 -2.58481,3.35589 -4.44658,4.48208 0,0 -2.00332,-0.21146 -2.00332,-0.21146 z"
       inkscape:connector-curvature="0" />
    <path
       style="color:#000000;display:inline;overflow:visible;visibility:visible;fill:#000000;fill-opacity:1;fill-rule:nonzero;stroke:#000000;stroke-width:0.44355431;stroke-linecap:butt;stroke-miterlimit:4;stroke-dasharray:none;stroke-dashoffset:0;stroke-opacity:1;marker:none;enable-background:accumulate"
       id="path5592"
       d="m 286.0528,338.50967 c -0.81991,-2.35964 -1.69679,-4.69793 -2.54487,-7.04738 -0.70139,-2.05238 -1.3457,-4.11697 -1.71902,-6.25567 -0.20514,-1.29695 -0.35939,-2.65172 0.42255,-3.77808 1.00247,-0.88461 2.43318,-0.83293 3.69628,-0.88527 2.21106,-0.13791 4.05623,0.12444 5.93907,1.20296 0.39989,0.28345 0.66928,0.62476 0.90795,1.04216 0,0 -2.01986,0.10957 -2.01986,0.10957 l 0,0 c -0.24104,-0.37872 -0.50717,-0.69311 -0.89395,-0.93858 -0.78059,-0.43045 -1.5661,-0.76915 -2.44711,-0.9426 -0.24374,-0.048 -0.97387,-0.0249 -0.73808,-0.10314 0.39268,-0.13022 0.82634,-0.0421 1.23951,-0.0631 -1.23131,0.0405 -2.6179,-0.0285 -3.66777,0.7072 -0.82674,1.03041 -0.60761,2.38777 -0.4319,3.61438 0.36798,2.12698 1.00662,4.18023 1.70298,6.22115 0.8493,2.34766 1.71183,4.68977 2.56825,7.03486 0,0 -2.01403,0.0816 -2.01403,0.0816 z"
       inkscape:connector-curvature="0" />
    <path
       style="color:#000000;display:inline;overflow:visible;visibility:visible;fill:#000000;fill-opacity:1;fill-rule:nonzero;stroke:#000000;stroke-width:0.44355431;stroke-linecap:butt;stroke-miterlimit:4;stroke-dasharray:none;stroke-dashoffset:0;stroke-opacity:1;marker:none;enable-background:accumulate"
       id="path5594"
       d="m 276.00821,333.85464 c 2.02774,-1.19307 4.12315,-2.28903 6.27026,-3.25247 1.65097,-0.72327 3.4104,-1.04165 5.19422,-1.18684 0.95644,-0.0468 0.48113,-0.0291 1.42591,-0.0536 0,0 1.98871,0.31033 1.98871,0.31033 l 0,0 c -0.94467,0.0186 -0.46938,0.005 -1.42584,0.0429 -1.78135,0.1249 -3.54301,0.41224 -5.19843,1.11717 -2.14705,0.94055 -4.2387,2.03537 -6.25151,3.23401 0,0 -2.00332,-0.21147 -2.00332,-0.21147 z"
       inkscape:connector-curvature="0" />
    <path
       style="color:#000000;display:inline;overflow:visible;visibility:visible;fill:#000000;fill-opacity:1;fill-rule:nonzero;stroke:#000000;stroke-width:0.44355431;stroke-linecap:butt;stroke-miterlimit:4;stroke-dasharray:none;stroke-dashoffset:0;stroke-opacity:1;marker:none;enable-background:accumulate"
       id="path5596"
       d="m 294.95973,338.41234 c -0.48015,-2.27478 -1.05131,-4.5265 -1.44338,-6.81903 -0.20499,-1.96507 -1.2e-4,-3.93714 0.81157,-5.74377 0.55241,-1.21045 1.32538,-2.26151 2.51909,-2.87621 1.91619,-0.70649 3.28498,-0.36766 4.8534,0.63469 0.68103,0.57535 1.20474,1.31836 1.67602,2.07066 0,0 -2.01768,0.11368 -2.01768,0.11368 l 0,0 c -0.46268,-0.72803 -0.97663,-1.45182 -1.66546,-1.98146 -0.21891,-0.13668 -0.70984,-0.45754 -0.95674,-0.55644 -0.16649,-0.0667 -0.69516,-0.10923 -0.51889,-0.14229 0.49745,-0.0933 1.01227,-0.0186 1.51769,-0.045 0.14792,-0.008 -0.29774,-0.0333 -0.44422,-0.0112 -0.15202,0.0229 -0.29209,0.096 -0.43813,0.14402 -1.20721,0.53239 -1.96818,1.55613 -2.51803,2.73625 -0.829,1.7578 -1.01408,3.6988 -0.82154,5.62341 0.38897,2.28886 0.95455,4.5385 1.45964,6.80344 0,0 -2.01334,0.0493 -2.01334,0.0493 z"
       inkscape:connector-curvature="0" />
    <path
       style="color:#000000;display:inline;overflow:visible;visibility:visible;fill:#000000;fill-opacity:1;fill-rule:nonzero;stroke:#000000;stroke-width:0.44355431;stroke-linecap:butt;stroke-miterlimit:4;stroke-dasharray:none;stroke-dashoffset:0;stroke-opacity:1;marker:none;enable-background:accumulate"
       id="path5598"
       d="m 289.50246,331.75438 c 1.41929,-1.12381 2.98411,-2.01918 4.681,-2.64157 1.19642,-0.38799 2.27413,-0.1949 3.58176,-0.16895 0,0 -1.99841,0.29729 -1.99841,0.29729 l 0,0 c 3.17319,-0.0852 1.06417,-0.11886 0.41463,0.1182 -1.69585,0.58959 -3.26221,1.45148 -4.67157,2.57134 0,0 -2.00741,-0.17631 -2.00741,-0.17631 z"
       inkscape:connector-curvature="0" />
    <path
       style="color:#000000;display:inline;overflow:visible;visibility:visible;fill:#000000;fill-opacity:1;fill-rule:nonzero;stroke:#000000;stroke-width:0.44355431;stroke-linecap:butt;stroke-miterlimit:4;stroke-dasharray:none;stroke-dashoffset:0;stroke-opacity:1;marker:none;enable-background:accumulate"
       id="path5600"
       d="m 426.96426,488.25132 c 0.5971,2.33119 1.29122,4.63682 1.83019,6.98276 0.64239,2.32332 1.01124,4.69955 1.25808,7.09284 0.11915,0.68993 0.19801,1.3867 0.52486,2.01601 0.0659,0.12681 0.12553,0.26346 0.22811,0.36295 0.0746,0.0724 0.38616,0.12761 0.28234,0.13214 -0.54932,0.024 -1.09862,-0.0484 -1.64794,-0.0725 1.77767,-0.8863 3.01392,-2.62677 4.33086,-4.07021 1.8142,-2.08752 3.80491,-3.99452 5.8568,-5.84344 0.96835,-0.81902 1.92373,-1.76535 3.08276,-2.32314 0.62288,0.16818 1.31182,0.17863 1.86863,0.50455 0.0495,0.029 -1.81621,2.57474 -1.95561,2.76767 -0.88854,1.23607 -1.57197,2.54519 -1.9557,4.01766 -0.17959,1.4316 0.27454,2.76456 0.93048,4.01413 1.08955,1.2858 2.50011,2.23989 3.95003,3.07353 0,0 -1.99754,0.20895 -1.99754,0.20895 l 0,0 c -1.46071,-0.8661 -2.90381,-1.83507 -3.96088,-3.1864 -0.66502,-1.30031 -1.11956,-2.68063 -0.93416,-4.16104 0.38308,-1.4982 1.06236,-2.83292 1.96174,-4.09241 0.5558,-0.77074 1.16896,-1.51555 1.68979,-2.30935 0.089,-0.13568 0.0917,-0.38005 0.24945,-0.41807 0.70485,-0.16986 1.4459,-0.1098 2.16886,-0.16471 -0.98212,0.16864 -2.33708,1.68637 -3.11156,2.23559 -2.05314,1.84118 -4.0508,3.7343 -5.85769,5.82337 -1.34754,1.48361 -2.59899,3.15351 -4.31487,4.22765 -0.78946,-0.009 -1.58249,0.0474 -2.36841,-0.028 -0.64567,-0.062 -0.95902,-2.27014 -1.0241,-2.69485 -0.23235,-2.38631 -0.6082,-4.75262 -1.24657,-7.06779 -0.5403,-2.34408 -1.22725,-4.64993 -1.85377,-6.97172 0,0 2.01582,-0.0561 2.01582,-0.0561 z"
       inkscape:connector-curvature="0" />
    <path
       style="color:#000000;display:inline;overflow:visible;visibility:visible;fill:#000000;fill-opacity:1;fill-rule:nonzero;stroke:#000000;stroke-width:0.44355431;stroke-linecap:butt;stroke-miterlimit:4;stroke-dasharray:none;stroke-dashoffset:0;stroke-opacity:1;marker:none;enable-background:accumulate"
       id="path5602"
       d="m 379.79706,463.18906 c -0.87707,2.47282 -1.29813,5.07088 -1.80494,7.6366 -0.40423,2.08354 -0.61397,4.19538 -0.7185,6.31297 0,0 -2.01098,-0.0106 -2.01098,-0.0106 l 0,0 c 0.11951,-2.12691 0.33131,-4.24817 0.7401,-6.34133 0.51194,-2.56842 0.932,-5.16771 1.7785,-7.65375 0,0 2.01582,0.0561 2.01582,0.0561 z"
       inkscape:connector-curvature="0" />
    <path
       style="color:#000000;display:inline;overflow:visible;visibility:visible;fill:#000000;fill-opacity:1;fill-rule:nonzero;stroke:#000000;stroke-width:0.44355431;stroke-linecap:butt;stroke-miterlimit:4;stroke-dasharray:none;stroke-dashoffset:0;stroke-opacity:1;marker:none;enable-background:accumulate"
       id="path5604"
       d="m 368.50413,484.76789 c 2.37456,-0.26796 4.7594,-0.42064 7.14597,-0.52711 1.63462,-0.0682 3.27073,-0.0811 4.90653,-0.0859 1.64384,0.0258 3.30449,-0.2085 4.90113,0.21946 0,0 -2.00327,0.26685 -2.00327,0.26685 l 0,0 c -0.48387,-0.11378 -2.45155,-0.16983 -1.52049,-0.17158 0.20231,-3.8e-4 2.4491,-5.4e-4 0.61049,-3.7e-4 -1.63942,0.003 -3.27916,0.0123 -4.91758,0.0759 -2.38205,0.10008 -4.76297,0.24436 -7.13247,0.51548 0,0 -1.99031,-0.2927 -1.99031,-0.2927 z"
       inkscape:connector-curvature="0" />
    <path
       style="color:#000000;display:inline;overflow:visible;visibility:visible;fill:#000000;fill-opacity:1;fill-rule:nonzero;stroke:#000000;stroke-width:0.44355431;stroke-linecap:butt;stroke-miterlimit:4;stroke-dasharray:none;stroke-dashoffset:0;stroke-opacity:1;marker:none;enable-background:accumulate"
       id="path5606"
       d="m 375.04493,487.62856 c -0.27685,0.94259 -0.47011,1.90543 -0.66281,2.86762 0,0 -2.00107,-0.0394 -2.00107,-0.0394 l 0,0 c 0.19198,-0.96675 0.3864,-1.93333 0.64807,-2.88434 0,0 2.01581,0.0561 2.01581,0.0561 z"
       inkscape:connector-curvature="0" />
    <path
       style="color:#000000;display:inline;overflow:visible;visibility:visible;fill:#000000;fill-opacity:1;fill-rule:nonzero;stroke:#000000;stroke-width:0.44355431;stroke-linecap:butt;stroke-miterlimit:4;stroke-dasharray:none;stroke-dashoffset:0;stroke-opacity:1;marker:none;enable-background:accumulate"
       id="path5608"
       d="m 378.76289,488.33592 c 0.38032,2.03013 0.96674,4.01058 1.44866,6.01687 0.15188,0.53586 0.3876,1.03637 0.64207,1.52872 0,0 -2.02028,0.0942 -2.02028,0.0942 l 0,0 c -0.24893,-0.50939 -0.4806,-1.02615 -0.62942,-1.57587 -0.47513,-2.00751 -1.04435,-3.9917 -1.45437,-6.01454 0,0 2.01334,-0.0493 2.01334,-0.0493 z"
       inkscape:connector-curvature="0" />
    <path
       style="color:#000000;display:inline;overflow:visible;visibility:visible;fill:#000000;fill-opacity:1;fill-rule:nonzero;stroke:#000000;stroke-width:0.44355431;stroke-linecap:butt;stroke-miterlimit:4;stroke-dasharray:none;stroke-dashoffset:0;stroke-opacity:1;marker:none;enable-background:accumulate"
       id="path5610"
       d="m 367.82525,496.98764 c 2.93688,-0.22218 5.85208,-0.64272 8.78263,-0.92964 2.59409,-0.23666 5.19863,-0.30893 7.80186,-0.35121 0.7587,-0.011 1.51747,-0.013 2.27623,-0.015 0,0 1.99023,0.31492 1.99023,0.31492 l 0,0 c -0.76267,3.2e-4 -1.52535,10e-4 -2.28798,0.0104 -2.6082,0.0362 -5.21777,0.10311 -7.81737,0.33244 -2.92255,0.27928 -5.82761,0.70589 -8.75529,0.93081 0,0 -1.99031,-0.2927 -1.99031,-0.2927 z"
       inkscape:connector-curvature="0" />
    <path
       style="color:#000000;display:inline;overflow:visible;visibility:visible;fill:#000000;fill-opacity:1;fill-rule:nonzero;stroke:#000000;stroke-width:0.44355431;stroke-linecap:butt;stroke-miterlimit:4;stroke-dasharray:none;stroke-dashoffset:0;stroke-opacity:1;marker:none;enable-background:accumulate"
       id="path5612"
       d="m 374.79379,502.03696 c 0.22261,-0.73094 0.50377,-1.45576 0.676,-2.20163 0.0343,-0.1488 0.0687,-0.30119 0.063,-0.4538 -0.003,-0.0742 -0.1617,-0.21179 -0.0878,-0.2047 0.57031,0.0547 1.12079,0.23834 1.68119,0.3575 -1.14315,1.37275 -1.64774,3.10714 -2.20185,4.77016 -0.0312,0.25217 -1.19576,3.07185 -0.61534,2.90092 -0.58734,-0.0408 -1.18769,0.007 -1.76203,-0.12234 -0.0197,-0.005 0.24195,-0.0542 0.74723,-0.46991 0.47981,-0.39475 0.90564,-0.85757 1.33788,-1.30202 0.75865,-0.86559 1.52561,-1.64105 2.69071,-1.8554 2.69971,-0.26253 3.30067,0.28018 5.2909,1.64368 1.61055,1.18109 3.04775,2.57938 4.4846,3.96134 0.69141,0.6322 1.42234,1.2074 2.18546,1.7486 0,0 -1.99788,0.18976 -1.99788,0.18976 l 0,0 c -0.75913,-0.55432 -1.49342,-1.13543 -2.18193,-1.77738 -1.4343,-1.37648 -2.87035,-2.76895 -4.49176,-3.92683 -0.58486,-0.39474 -1.17405,-0.82757 -1.79424,-1.16618 -0.76023,-0.41507 -1.13331,-0.34048 -1.02628,-0.35503 0.50579,-0.0688 1.02071,-0.0183 1.53106,-0.0274 -1.17778,0.086 -1.93568,0.87062 -2.68151,1.71994 -1.72999,1.78626 -1.48356,1.93806 -4.35159,1.96176 -0.62902,-0.79788 0.54133,-2.36157 0.63377,-3.18789 0.56432,-1.69317 1.07656,-3.44104 2.18872,-4.87471 0.78648,-0.0848 1.56853,-0.26879 2.35945,-0.25436 0.41014,0.007 -0.62917,2.80061 -0.66372,3.00752 0,0 -2.01402,-0.0816 -2.01402,-0.0816 z"
       inkscape:connector-curvature="0" />
    <path
       style="color:#000000;display:inline;overflow:visible;visibility:visible;fill:#000000;fill-opacity:1;fill-rule:nonzero;stroke:#000000;stroke-width:0.44355431;stroke-linecap:butt;stroke-miterlimit:4;stroke-dasharray:none;stroke-dashoffset:0;stroke-opacity:1;marker:none;enable-background:accumulate"
       id="path5614"
       d="m 108.76226,463.81793 c -1.23939,2.05874 -1.75391,4.40299 -2.09569,6.75121 -0.30156,2.60948 -0.30938,5.24035 -0.3225,7.86357 0.0175,1.35936 0.25776,2.67565 0.61554,3.98037 0,0 -2.00766,0.0528 -2.00766,0.0528 l 0,0 c -0.3494,-1.32393 -0.58765,-2.65856 -0.60223,-4.03422 0.0152,-2.63236 0.0271,-5.27224 0.32459,-7.89112 0.34153,-2.37557 0.865,-4.73723 2.07465,-6.84111 0,0 2.0133,0.11852 2.0133,0.11852 z"
       inkscape:connector-curvature="0" />
    <path
       style="color:#000000;display:inline;overflow:visible;visibility:visible;fill:#000000;fill-opacity:1;fill-rule:nonzero;stroke:#000000;stroke-width:0.44355431;stroke-linecap:butt;stroke-miterlimit:4;stroke-dasharray:none;stroke-dashoffset:0;stroke-opacity:1;marker:none;enable-background:accumulate"
       id="path5616"
       d="m 87.322102,496.37874 c 1.340531,0.001 0.648311,6.7e-4 2.07666,0.001 0,0 -1.974535,0.31274 -1.974535,0.31274 l 0,0 c -1.436307,4.4e-4 -0.738993,1e-5 -2.091941,0.001 0,0 1.989816,-0.31516 1.989816,-0.31516 z"
       inkscape:connector-curvature="0" />
    <path
       style="color:#000000;display:inline;overflow:visible;visibility:visible;fill:#000000;fill-opacity:1;fill-rule:nonzero;stroke:#000000;stroke-width:0.44355431;stroke-linecap:butt;stroke-miterlimit:4;stroke-dasharray:none;stroke-dashoffset:0;stroke-opacity:1;marker:none;enable-background:accumulate"
       id="path5618"
       d="m 107.3218,492.34137 c -1.30071,1.46642 -1.95746,3.27872 -2.68913,5.05492 -0.0879,0.44766 -0.9497,1.76571 -0.60959,2.07357 -1.91522,-0.3001 -2.11823,0.19083 -1.44988,-0.66175 0,0 2.01547,0.13185 2.01547,0.13185 l 0,0 c -0.76261,1.02017 -0.13517,0.37957 -2.59035,0.72552 -0.37653,-0.72481 0.4927,-1.66457 0.62698,-2.34849 0.75226,-1.784 1.39491,-3.62074 2.68621,-5.11551 0,0 2.01029,0.13989 2.01029,0.13989 z"
       inkscape:connector-curvature="0" />
    <path
       style="color:#000000;display:inline;overflow:visible;visibility:visible;fill:#000000;fill-opacity:1;fill-rule:nonzero;stroke:#000000;stroke-width:0.44355431;stroke-linecap:butt;stroke-miterlimit:4;stroke-dasharray:none;stroke-dashoffset:0;stroke-opacity:1;marker:none;enable-background:accumulate"
       id="path5620"
       d="m 113.83986,491.75496 c 0.033,1.93029 0.13641,3.91044 0.5712,5.79822 0.0802,0.14825 0.37429,1.4956 0.65802,1.42055 0,0 -2.02163,0.22093 -2.02163,0.22093 l 0,0 c -0.35713,-0.4506 -0.46107,-1.07016 -0.64706,-1.59719 -0.41516,-1.90832 -0.51979,-3.896 -0.57515,-5.84251 0,0 2.01462,0 2.01462,0 z"
       inkscape:connector-curvature="0" />
    <path
       style="color:#000000;display:inline;overflow:visible;visibility:visible;fill:#000000;fill-opacity:1;fill-rule:nonzero;stroke:#000000;stroke-width:0.44355431;stroke-linecap:butt;stroke-miterlimit:4;stroke-dasharray:none;stroke-dashoffset:0;stroke-opacity:1;marker:none;enable-background:accumulate"
       id="path5622"
       d="m 103.064,490.87777 c 3.1197,-0.21307 6.22866,-0.51251 9.3395,-0.82759 2.1185,-0.21911 4.24382,-0.35623 6.37165,-0.43867 0.56433,-0.0183 0.30561,-0.0108 0.77616,-0.0233 0,0 2.00156,0.3123 2.00156,0.3123 l 0,0 c -0.47693,0.009 -0.21483,0.003 -0.78624,0.019 -2.13797,0.0736 -4.27358,0.20442 -6.40222,0.42114 -3.10153,0.31098 -6.19938,0.62459 -9.3101,0.82985 0,0 -1.99031,-0.29269 -1.99031,-0.29269 z"
       inkscape:connector-curvature="0" />
    <path
       style="color:#000000;display:inline;overflow:visible;visibility:visible;fill:#000000;fill-opacity:1;fill-rule:nonzero;stroke:#000000;stroke-width:0.44355431;stroke-linecap:butt;stroke-miterlimit:4;stroke-dasharray:none;stroke-dashoffset:0;stroke-opacity:1;marker:none;enable-background:accumulate"
       id="path5624"
       d="m 98.823598,503.0327 c 3.079502,-0.89075 6.228702,-0.88984 9.402682,-0.87372 2.48797,0.10261 4.97505,0.21877 7.46449,0.28053 1.69935,-0.0789 3.36177,0.17077 5.025,0.4778 0.14523,0.0609 0.29045,0.12193 0.43567,0.18289 0,0 -2.0063,0.24313 -2.0063,0.24313 l 0,0 c -0.14242,-0.0489 -0.28483,-0.0978 -0.42724,-0.1467 -1.65523,-0.30254 -3.31254,-0.51356 -5.00132,-0.44961 -2.48714,-0.0653 -4.9718,-0.18731 -7.45798,-0.27925 0.21464,-0.007 0.85863,-0.0262 0.64394,-0.0208 -2.05105,0.0512 -4.08748,0.34747 -6.07916,0.8457 0,0 -1.999782,-0.25992 -1.999782,-0.25992 z"
       inkscape:connector-curvature="0" />
    <path
       style="color:#000000;display:inline;overflow:visible;visibility:visible;fill:#000000;fill-opacity:1;fill-rule:nonzero;stroke:#000000;stroke-width:0.44355431;stroke-linecap:butt;stroke-miterlimit:4;stroke-dasharray:none;stroke-dashoffset:0;stroke-opacity:1;marker:none;enable-background:accumulate"
       id="path5626"
       d="m 109.87074,509.79579 c -1.63578,0.73478 -2.78384,2.10932 -3.64437,3.64 -0.0466,0.0961 -0.33016,0.66077 -0.37235,0.81369 -0.1113,0.40342 0.4572,0.16923 0.31567,0.15626 -0.57292,-0.0525 -1.14926,-0.0563 -1.72389,-0.0845 0.78179,-0.60431 1.31907,-1.45464 2.03284,-2.13242 1.40893,-1.51727 1.38026,-1.12031 3.87947,-1.00372 0.95953,0.7655 1.89195,1.57559 2.80721,2.39732 1.22398,0.8823 2.28406,1.95904 3.51881,2.82584 0.55702,0.38267 1.11179,0.76655 1.65612,1.16701 0,0 -2.00582,0.18907 -2.00582,0.18907 l 0,0 c -0.54597,-0.39617 -1.09936,-0.78096 -1.65386,-1.16512 -1.22208,-0.88905 -2.30305,-1.94876 -3.51825,-2.84781 -0.90073,-0.80053 -1.80127,-1.64661 -2.81025,-2.3001 3.90101,-0.1913 1.44083,-0.21317 1.05511,0.004 -0.37949,0.21401 -0.5881,0.62788 -0.91559,0.90041 -0.75154,0.66369 -1.29398,1.52093 -2.03327,2.1993 -2.09603,0.15082 -3.24778,0.74235 -2.2433,-1.22231 0.86757,-1.55682 2.0154,-2.98256 3.65373,-3.77175 0,0 2.00199,0.23448 2.00199,0.23448 z"
       inkscape:connector-curvature="0" />
    <path
       style="color:#000000;display:inline;overflow:visible;visibility:visible;fill:#000000;fill-opacity:1;fill-rule:nonzero;stroke:#000000;stroke-width:0.44355431;stroke-linecap:butt;stroke-miterlimit:4;stroke-dasharray:none;stroke-dashoffset:0;stroke-opacity:1;marker:none;enable-background:accumulate"
       id="path5630"
       d="m 179.69074,315.24745 c -0.0207,3.33495 -0.0209,6.67 -0.0257,10.005 -0.0404,4.91396 -0.0226,9.82249 0.18554,14.73227 0.24284,5.07317 0.53543,10.1544 1.2131,15.19029 0.50262,4.13458 1.36534,8.20704 2.19578,12.28352 0.75341,3.88891 1.94143,7.67195 3.14382,11.44001 1.18396,3.69806 2.58871,7.30742 4.18699,10.84339 1.57226,3.27388 3.53688,6.32941 5.68547,9.24961 1.94735,2.65725 4.40217,4.8594 6.7975,7.09706 2.44942,2.17247 5.0393,4.17482 7.52941,6.29964 2.41173,2.17275 4.95154,4.21201 7.66818,5.99019 2.77514,1.66401 5.62913,3.21594 8.59344,4.51629 2.79126,1.35437 5.78122,2.03658 8.80145,2.63422 3.26231,0.47605 4.775,0.29842 7.77076,-0.0569 3.59818,-0.5146 7.04435,-1.70226 10.44308,-2.94766 3.6772,-1.46975 7.21285,-3.26878 10.63157,-5.26149 3.88946,-2.28402 7.33925,-5.2022 10.73757,-8.14362 3.44156,-3.0858 6.53756,-6.52771 9.58819,-9.99277 3.21058,-3.68758 6.01258,-7.69306 8.68783,-11.77699 2.84323,-4.29553 5.44369,-8.73921 7.79286,-13.32206 2.17567,-4.22791 4.18015,-8.5448 6.08964,-12.89897 1.64323,-3.87912 3.09811,-7.83375 4.58453,-11.77445 1.12467,-3.09361 2.15545,-6.20647 3.01838,-9.38211 0.6227,-2.43338 1.2024,-4.87628 1.78965,-7.31851 0.32005,-1.55971 0.5657,-3.1185 1.00016,-4.65185 0.19869,-0.69587 0.33696,-1.40177 0.38474,-2.12341 0.0449,-0.64432 -0.0384,-1.29067 0.10056,-1.92303 0.20782,-0.59929 0.40734,-1.19962 0.5149,-1.82549 0.0368,-0.23732 0.0645,-0.47605 0.0762,-0.71591 -0.95479,0.72828 2.55223,-1.00505 1.25765,0.80014 0,0 -2.01415,-0.12381 -2.01415,-0.12381 l 0,0 c 0.61326,-0.8852 2.22469,-1.64798 2.79177,-0.66773 -0.0155,0.24847 -0.0457,0.49573 -0.0844,0.74166 -0.10731,0.62989 -0.29572,1.23816 -0.51785,1.83724 -0.15159,0.61751 -0.0433,1.25846 -0.0986,1.88985 -0.0454,0.73739 -0.18995,1.45658 -0.3936,2.16706 -0.44718,1.52878 -0.69784,3.08408 -1.01874,4.64264 -0.5925,2.44381 -1.17654,4.88854 -1.80218,7.32394 -0.86765,3.18251 -1.90241,6.30169 -3.03621,9.40047 -1.49307,3.94277 -2.94897,7.90149 -4.59466,11.78427 -1.91158,4.35854 -3.92085,8.67857 -6.09958,12.91032 -2.35006,4.58919 -4.9495,9.04043 -7.79359,13.3427 -2.67479,4.09221 -5.4727,8.10822 -8.6831,11.80505 -3.05005,3.47466 -6.15124,6.92057 -9.58994,10.0193 -3.40029,2.94766 -6.84539,5.88054 -10.73188,8.18051 -3.41575,2.00632 -6.95405,3.80778 -10.62747,5.2971 -3.40029,1.25411 -6.84697,2.45279 -10.44509,2.99348 -3.87595,0.48393 -7.81769,0.58247 -11.6942,0.043 -3.02605,-0.60128 -6.01187,-1.32427 -8.80764,-2.67761 -2.96018,-1.32141 -5.82236,-2.86661 -8.59246,-4.54937 -2.71302,-1.79476 -5.25529,-3.83735 -7.6715,-6.01461 -2.49222,-2.12575 -5.08916,-4.12395 -7.53123,-6.30848 -2.40141,-2.24471 -4.85219,-4.46434 -6.79784,-7.13415 -2.14347,-2.93707 -4.11062,-6.0034 -5.67926,-9.29109 -1.60027,-3.54247 -2.99981,-7.16147 -4.18408,-10.86624 -1.20568,-3.77457 -2.39424,-7.56452 -3.14596,-11.46122 -0.83164,-4.08026 -1.68617,-8.15803 -2.18435,-12.29708 -0.66998,-5.04254 -0.95402,-10.1296 -1.20316,-15.20801 -0.21122,-4.9124 -0.23479,-9.82381 -0.20106,-14.74058 -0.005,-3.33499 -0.005,-6.67004 -0.0257,-10.005 0,0 2.01462,0 2.01462,0 z"
       inkscape:connector-curvature="0" />
    <path
       style="color:#000000;display:inline;overflow:visible;visibility:visible;fill:#000000;fill-opacity:1;fill-rule:nonzero;stroke:#000000;stroke-width:0.44355431;stroke-linecap:butt;stroke-miterlimit:4;stroke-dasharray:none;stroke-dashoffset:0;stroke-opacity:1;marker:none;enable-background:accumulate"
       id="path5634"
       d="m 102.48281,520.37932 c 0.51998,-1.56637 1.1936,-2.93041 2.67848,-3.73177 2.26398,-0.85966 4.73869,-0.53452 7.09402,-0.29466 2.32327,0.39459 4.61843,0.93786 6.87066,1.62943 2.93178,1.09655 5.92241,2.01961 8.88747,3.02033 3.45241,1.22228 6.89027,2.4848 10.3065,3.80482 3.34194,1.28237 6.67588,2.60313 9.90102,4.1587 3.11614,1.42446 5.78342,3.58486 8.36471,5.79952 2.52315,2.35382 4.80947,4.94125 6.97795,7.62069 2.14697,2.72763 3.74314,5.83261 5.01122,9.05032 1.2069,3.21094 1.99789,6.56361 2.71885,9.91209 0.62908,3.23302 1.11164,6.47988 1.37825,9.76249 0.20623,3.04996 0.21566,6.10871 0.22755,9.16426 0.005,2.55489 6.7e-4,5.10979 -0.002,7.66468 -0.001,2.11934 -6.8e-4,4.23868 -0.002,6.35801 0.11938,1.76415 -0.17093,3.4968 -0.40442,5.23669 -0.15498,1.15214 -0.22438,2.31188 -0.25613,3.47307 -0.0195,1.11648 -0.0174,2.23324 -0.0139,3.34984 0.001,1.10124 0.003,2.20248 0.004,3.30371 0.001,0.67019 0.002,1.34038 0.006,2.01055 -2.18316,-0.11382 -2.08324,0.26215 -1.71907,-0.93643 0,0 2.02218,0.0583 2.02218,0.0583 l 0,0 c -0.35164,1.21511 -0.34691,0.92776 -2.33389,0.87813 0.004,-0.67015 0.005,-1.3403 0.005,-2.01046 -1.1e-4,-1.10118 -4e-4,-2.20237 -0.003,-3.30354 5.9e-4,-1.11857 -0.008,-2.23727 0.0114,-3.35572 0.033,-1.1686 0.10838,-2.33522 0.26565,-3.49442 0.2347,-1.73096 0.53235,-3.45387 0.41371,-5.20976 -3.4e-4,-2.11943 0.002,-4.23884 0.006,-6.35826 0.004,-2.55457 0.0143,-5.10913 0.0123,-7.66371 -0.009,-3.05049 -0.0177,-6.10399 -0.22354,-9.14895 -0.26355,-3.274 -0.74611,-6.51243 -1.37499,-9.73651 -0.71845,-3.338 -1.50702,-6.68022 -2.71463,-9.87958 -1.27129,-3.19792 -2.86419,-6.28265 -5.00945,-8.99015 -2.16706,-2.66852 -4.44883,-5.24846 -6.97594,-7.58472 -2.58013,-2.19983 -5.24523,-4.3401 -8.35748,-5.74847 -3.2291,-1.53919 -6.55546,-2.86671 -9.89601,-4.14362 -3.4172,-1.31746 -6.8551,-2.58002 -10.30983,-3.79576 -2.96921,-0.9982 -5.95958,-1.93161 -8.90023,-3.01267 -2.25442,-0.67642 -4.54901,-1.22401 -6.87541,-1.58955 -0.34002,-0.0337 -0.6798,-0.0699 -1.02006,-0.10111 -0.31042,-0.0284 -1.20169,0.0784 -0.93191,-0.0778 0.32505,-0.18818 0.75608,-0.0984 1.12622,-0.0347 0.20898,0.036 -2.34278,0.18778 -2.28811,0.43649 -1.50227,0.70459 -2.1574,2.03262 -2.6625,3.5663 0,0 -2.01581,-0.0561 -2.01581,-0.0561 z"
       inkscape:connector-curvature="0" />
    <path
       style="color:#000000;display:inline;overflow:visible;visibility:visible;fill:#000000;fill-opacity:1;fill-rule:nonzero;stroke:#000000;stroke-width:0.44355431;stroke-linecap:butt;stroke-miterlimit:4;stroke-dasharray:none;stroke-dashoffset:0;stroke-opacity:1;marker:none;enable-background:accumulate"
       id="path5640"
       d="m 327.46418,586.29905 c -1.04275,-2.2862 -1.19886,-4.73899 -1.24446,-7.20945 0.0974,-3.00836 0.72111,-5.95969 1.26861,-8.90889 0.61421,-3.33679 1.3974,-6.63465 2.21942,-9.92522 0.80757,-3.03805 1.68173,-6.05654 2.66708,-9.04178 0.90335,-2.61184 2.10704,-5.10006 3.40557,-7.53415 1.29844,-2.46134 2.66434,-4.88451 4.0297,-7.30893 1.25488,-2.3183 2.7325,-4.48005 4.38717,-6.52752 1.51743,-1.70635 3.20673,-3.21953 5.17155,-4.38423 1.58227,-0.93799 3.27072,-1.66741 4.97459,-2.35089 1.74423,-0.65971 3.46844,-1.37216 5.21662,-2.02184 1.6703,-0.73417 3.42675,-1.23426 5.15177,-1.81958 1.76991,-0.54998 3.55058,-1.05443 5.30656,-1.6489 1.6485,-0.49051 3.28097,-1.00807 4.97721,-1.30702 1.31621,-0.37618 2.68216,-0.5355 4.00684,-0.86515 0.81282,-0.23176 1.61554,-0.48951 2.4461,-0.65053 0.1897,-0.036 0.38115,-0.0624 0.57187,-0.0917 2.80183,0.30647 1.60621,0.3663 0.53924,1.19746 0,0 -2.01441,-0.18118 -2.01441,-0.18118 l 0,0 c 1.35588,-1.10911 1.23409,-1.00277 3.48701,-0.70446 -0.19281,10e-4 -0.38517,0.0267 -0.57583,0.0606 -0.83609,0.14475 -1.64356,0.38597 -2.45462,0.63339 -1.31677,0.3723 -2.70525,0.46354 -4.01531,0.88259 -1.69922,0.27809 -3.32845,0.78956 -4.97702,1.27512 -1.75724,0.5928 -3.53174,1.11742 -5.30856,1.64789 -1.72157,0.59366 -3.48407,1.07349 -5.15068,1.81496 -1.75066,0.63991 -3.46951,1.36303 -5.21464,2.01702 -1.7046,0.67084 -3.39019,1.39659 -4.97535,2.32062 -1.97079,1.13 -3.65299,2.62576 -5.17361,4.31163 -1.65802,2.03394 -3.13615,4.18391 -4.38946,6.49362 -1.36324,2.42399 -2.73425,4.84261 -4.02854,7.30463 -1.29696,2.42356 -2.50113,4.8994 -3.40599,7.50026 -0.99475,2.97794 -1.86513,5.99363 -2.67647,9.02643 -0.81987,3.28685 -1.60811,6.57924 -2.21612,9.91316 -0.54398,2.93597 -1.16003,5.87457 -1.26024,8.8688 0.0468,2.44793 0.20287,4.87804 1.26843,7.13161 0,0 -2.01403,0.0816 -2.01403,0.0816 z"
       inkscape:connector-curvature="0" />
    <path
       style="color:#000000;display:inline;overflow:visible;visibility:visible;fill:#000000;fill-opacity:1;fill-rule:nonzero;stroke:#000000;stroke-width:0.66000003;stroke-linecap:butt;stroke-miterlimit:4;stroke-dasharray:none;stroke-dashoffset:0;stroke-opacity:1;marker:none;enable-background:accumulate"
       id="path5669"
       d="m 173.54647,334.26617 c -0.50369,3.81363 -0.53511,7.66655 -0.9105,11.4898 -0.44377,3.44804 -0.72924,6.9106 -0.88915,10.38249 -0.23982,2.11133 -0.59951,4.20708 -0.92761,6.30612 -0.0554,0.35477 -0.11101,0.70952 -0.16645,1.06429 0,0 -3.02795,-0.0514 -3.02795,-0.0514 l 0,0 c 0.0644,-0.35327 0.12488,-0.70726 0.18478,-1.06133 0.35058,-2.08542 0.70872,-4.17158 0.95825,-6.27183 0.1695,-3.47678 0.45576,-6.94474 0.90291,-10.39779 0.38543,-3.82266 0.42124,-7.67524 0.88251,-11.49351 0,0 2.99321,0.0331 2.99321,0.0331 z"
       inkscape:connector-curvature="0" />
    <path
       style="color:#000000;display:inline;overflow:visible;visibility:visible;fill:#000000;fill-opacity:1;fill-rule:nonzero;stroke:#000000;stroke-width:0.66000003;stroke-linecap:butt;stroke-miterlimit:4;stroke-dasharray:none;stroke-dashoffset:0;stroke-opacity:1;marker:none;enable-background:accumulate"
       id="path5671"
       d="m 173.54848,381.62458 c -0.43,3.21303 -0.6443,6.44758 -0.78539,9.68434 -0.10765,2.91499 -0.11392,5.83235 -0.11625,8.74892 0.002,2.08819 0.003,4.17639 0.0141,6.26455 5.8e-4,0.22765 0.001,0.4553 0.002,0.68295 0,0 -3.00733,3.2e-4 -3.00733,3.2e-4 l 0,0 c 1e-4,-0.22763 2e-4,-0.45526 3e-4,-0.68289 0.006,-2.0885 4.2e-4,-4.177 0.005,-6.2655 0.009,-2.92083 0.0168,-5.84242 0.12446,-8.76166 0.14875,-3.244 0.37186,-6.48368 0.76596,-9.7083 0,0 2.99722,0.0373 2.99722,0.0373 z"
       inkscape:connector-curvature="0" />
    <path
       style="color:#000000;display:inline;overflow:visible;visibility:visible;fill:#000000;fill-opacity:1;fill-rule:nonzero;stroke:#000000;stroke-width:0.66000003;stroke-linecap:butt;stroke-miterlimit:4;stroke-dasharray:none;stroke-dashoffset:0;stroke-opacity:1;marker:none;enable-background:accumulate"
       id="path5673"
       d="m 171.76984,426.03402 c 0.30989,2.4617 0.56446,4.92947 0.77781,7.40125 0.01,0.88562 0.35211,1.70169 0.86039,2.41323 0.34166,0.41016 -0.085,-0.0946 0.16507,0.18379 0,0 -3.01908,0.21769 -3.01908,0.21769 l 0,0 c -0.1021,-0.13173 -0.047,-0.058 -0.1635,-0.22239 -0.493,-0.77419 -0.8423,-1.63671 -0.84439,-2.56782 -0.19078,-2.46933 -0.43693,-4.9344 -0.77353,-7.38848 0,0 2.99723,-0.0373 2.99723,-0.0373 z"
       inkscape:connector-curvature="0" />
    <path
       style="color:#000000;display:inline;overflow:visible;visibility:visible;fill:#000000;fill-opacity:1;fill-rule:nonzero;stroke:#000000;stroke-width:0.66000003;stroke-linecap:butt;stroke-miterlimit:4;stroke-dasharray:none;stroke-dashoffset:0;stroke-opacity:1;marker:none;enable-background:accumulate"
       id="path5675"
       d="m 175.44909,451.22739 c -0.61203,2.29565 -1.39242,4.62501 -1.43075,7.019 0.0825,1.20161 0.31577,2.38788 0.54449,3.56893 0.0688,0.34342 0.04,0.16213 0.0818,0.5446 0,0 -3.02042,0.0347 -3.02042,0.0347 l 0,0 c -0.0438,-0.35975 -0.0168,-0.1854 -0.0795,-0.52331 -0.21827,-1.20287 -0.45405,-2.40837 -0.52542,-3.63071 0.0549,-2.41974 0.83055,-4.76887 1.43028,-7.09668 0,0 2.9995,0.0835 2.9995,0.0835 z"
       inkscape:connector-curvature="0" />
    <path
       style="color:#000000;display:inline;overflow:visible;visibility:visible;fill:#000000;fill-opacity:1;fill-rule:nonzero;stroke:#000000;stroke-width:0.66000003;stroke-linecap:butt;stroke-miterlimit:4;stroke-dasharray:none;stroke-dashoffset:0;stroke-opacity:1;marker:none;enable-background:accumulate"
       id="path5677"
       d="m 175.56878,481.62968 c -0.37129,2.91267 -0.61627,5.84014 -0.77965,8.77134 -0.10396,2.08929 -0.11172,4.18155 -0.11674,6.2729 -0.0814,0.86963 -0.28078,1.72104 -0.45387,2.57524 0,0 -3.0011,-0.06 -3.0011,-0.06 l 0,0 c 0.16951,-0.83534 0.36552,-1.66728 0.45847,-2.51594 0.005,-2.09685 0.014,-4.1947 0.12397,-6.28925 0.17258,-2.93718 0.44257,-5.8678 0.7717,-8.79151 0,0 2.99722,0.0373 2.99722,0.0373 z"
       inkscape:connector-curvature="0" />
    <path
       style="color:#000000;display:inline;overflow:visible;visibility:visible;fill:#000000;fill-opacity:1;fill-rule:nonzero;stroke:#000000;stroke-width:0.66000003;stroke-linecap:butt;stroke-miterlimit:4;stroke-dasharray:none;stroke-dashoffset:0;stroke-opacity:1;marker:none;enable-background:accumulate"
       id="path5679"
       d="m 176.70001,521.007 c -0.25679,2.80196 -0.60417,5.59339 -0.8301,8.39847 -0.24106,1.3237 -0.10364,0.6956 -0.40113,1.88672 0,0 -3.00013,-0.0752 -3.00013,-0.0752 l 0,0 c 0.30438,-1.16068 0.16419,-0.54935 0.40959,-1.83646 0.24172,-2.79503 0.59321,-5.57801 0.82406,-8.37354 0,0 2.99771,0 2.99771,0 z"
       inkscape:connector-curvature="0" />
    <path
       style="color:#000000;display:inline;overflow:visible;visibility:visible;fill:#000000;fill-opacity:1;fill-rule:nonzero;stroke:#000000;stroke-width:0.66000003;stroke-linecap:butt;stroke-miterlimit:4;stroke-dasharray:none;stroke-dashoffset:0;stroke-opacity:1;marker:none;enable-background:accumulate"
       id="path5681"
       d="m 179.73047,555.35218 c -0.0431,0.48918 -0.0862,0.97836 -0.12924,1.46753 0,0 -2.9809,-0.0247 -2.9809,-0.0247 l 0,0 c 0.0375,-0.48095 0.075,-0.96189 0.11242,-1.44284 0,0 2.99772,0 2.99772,0 z"
       inkscape:connector-curvature="0" />
    <path
       style="color:#000000;display:inline;overflow:visible;visibility:visible;fill:#000000;fill-opacity:1;fill-rule:nonzero;stroke:#000000;stroke-width:0.66000003;stroke-linecap:butt;stroke-miterlimit:4;stroke-dasharray:none;stroke-dashoffset:0;stroke-opacity:1;marker:none;enable-background:accumulate"
       id="path5683"
       d="m 323.17213,344.2303 c -0.0272,3.37816 -0.48798,6.73646 -0.74334,10.10302 -0.0415,1.87889 -0.39861,3.72849 -0.69607,5.57825 0,0 -2.98735,-0.048 -2.98735,-0.048 l 0,0 c 0.30077,-1.8412 0.66544,-3.68167 0.70832,-5.5528 0.25538,-3.35814 0.73975,-6.70927 0.72073,-10.08046 0,0 2.99771,0 2.99771,0 z"
       inkscape:connector-curvature="0" />
    <path
       style="color:#000000;display:inline;overflow:visible;visibility:visible;fill:#000000;fill-opacity:1;fill-rule:nonzero;stroke:#000000;stroke-width:0.66000003;stroke-linecap:butt;stroke-miterlimit:4;stroke-dasharray:none;stroke-dashoffset:0;stroke-opacity:1;marker:none;enable-background:accumulate"
       id="path5685"
       d="m 323.17213,381.60595 c -0.0196,3.07957 -0.0112,6.15925 -0.007,9.23887 0.003,1.92692 0.009,3.85382 0.0108,5.78074 0.002,0.83753 -0.0401,0.42736 0.12238,1.23104 0,0 -3.00835,0.0575 -3.00835,0.0575 l 0,0 c -0.15968,-0.86179 -0.12178,-0.43212 -0.11928,-1.2885 0.002,-1.92691 0.008,-3.85382 0.0108,-5.78074 0.004,-3.07961 0.0126,-6.15929 -0.007,-9.23887 0,0 2.99771,0 2.99771,0 z"
       inkscape:connector-curvature="0" />
    <path
       style="color:#000000;display:inline;overflow:visible;visibility:visible;fill:#000000;fill-opacity:1;fill-rule:nonzero;stroke:#000000;stroke-width:0.66000003;stroke-linecap:butt;stroke-miterlimit:4;stroke-dasharray:none;stroke-dashoffset:0;stroke-opacity:1;marker:none;enable-background:accumulate"
       id="path5693"
       d="m 324.95167,409.81113 c -0.79927,2.75575 -1.2595,5.5885 -1.55831,8.43718 -0.3914,2.12661 -0.81335,4.24442 -1.0602,6.39397 -0.12432,1.26011 -0.16273,2.52628 -0.16981,3.7918 -7.9e-4,0.23531 3.3e-4,0.47072 0.0114,0.70572 0,0 -3.02969,0.0189 -3.02969,0.0189 l 0,0 c -0.005,-0.24263 -0.003,-0.48532 6e-4,-0.72798 0.0209,-1.27595 0.0604,-2.55244 0.18672,-3.82303 0.25027,-2.14877 0.67474,-4.26637 1.07539,-6.39087 0.30529,-2.86438 0.77859,-5.70846 1.54438,-8.48922 0,0 2.9995,0.0835 2.9995,0.0835 z"
       inkscape:connector-curvature="0" />
    <path
       style="color:#000000;display:inline;overflow:visible;visibility:visible;fill:#000000;fill-opacity:1;fill-rule:nonzero;stroke:#000000;stroke-width:0.66000003;stroke-linecap:butt;stroke-miterlimit:4;stroke-dasharray:none;stroke-dashoffset:0;stroke-opacity:1;marker:none;enable-background:accumulate"
       id="path5695"
       d="m 324.95167,443.14617 c -0.77362,2.50548 -1.21008,5.09038 -1.84521,7.6311 -0.4076,2.18448 -1.06735,4.30745 -1.50266,6.48548 -0.15829,1.90606 -0.67754,3.74047 -1.05702,5.60669 -0.0437,0.24441 -0.0875,0.48882 -0.13119,0.73323 0,0 -3.00463,-0.0537 -3.00463,-0.0537 l 0,0 c 0.045,-0.24648 0.0899,-0.49296 0.13493,-0.73944 0.37606,-1.8672 0.9147,-3.69731 1.06346,-5.60564 0.43359,-2.1842 1.1,-4.31039 1.51009,-6.50006 0.64032,-2.54202 1.08686,-5.12548 1.83273,-7.64114 0,0 2.9995,0.0835 2.9995,0.0835 z"
       inkscape:connector-curvature="0" />
    <path
       style="color:#000000;display:inline;overflow:visible;visibility:visible;fill:#000000;fill-opacity:1;fill-rule:nonzero;stroke:#000000;stroke-width:0.66000003;stroke-linecap:butt;stroke-miterlimit:4;stroke-dasharray:none;stroke-dashoffset:0;stroke-opacity:1;marker:none;enable-background:accumulate"
       id="path5697"
       d="m 322.0409,482.63984 c -0.43549,3.26269 -0.64085,6.54894 -0.78507,9.83545 -0.0954,2.39289 -0.10782,4.78785 -0.1122,7.18229 -3.8e-4,1.49276 0.003,2.98552 0.0152,4.47824 1.3e-4,0.44213 0.002,0.88425 0.005,1.32637 0,0 -3.02265,3.4e-4 -3.02265,3.4e-4 l 0,0 c 0.002,-0.44201 0.003,-0.88404 10e-4,-1.32606 0.005,-1.49319 0.004,-2.9864 0.006,-4.4796 0.007,-2.3988 0.0248,-4.79811 0.12852,-7.19506 0.15366,-3.29349 0.37021,-6.58484 0.76627,-9.85925 0,0 2.99722,0.0373 2.99722,0.0373 z"
       inkscape:connector-curvature="0" />
    <path
       style="color:#000000;display:inline;overflow:visible;visibility:visible;fill:#000000;fill-opacity:1;fill-rule:nonzero;stroke:#000000;stroke-width:0.66000003;stroke-linecap:butt;stroke-miterlimit:4;stroke-dasharray:none;stroke-dashoffset:0;stroke-opacity:1;marker:none;enable-background:accumulate"
       id="path5699"
       d="m 327.98212,520.92791 c -0.79926,2.75575 -1.25949,5.5885 -1.55831,8.43718 -0.39139,2.12661 -0.81335,4.24442 -1.06019,6.39397 -0.13548,1.35544 -0.16541,2.71776 -0.17263,4.07891 -0.004,0.97717 -4.8e-4,1.95436 0.004,2.93152 0,0 -3.01173,8.3e-4 -3.01173,8.3e-4 l 0,0 c -9.5e-4,-0.97822 -0.006,-1.95643 -0.004,-2.93465 0.0137,-1.37207 0.0448,-2.74495 0.18389,-4.11116 0.25026,-2.14877 0.67474,-4.26637 1.07539,-6.39087 0.30529,-2.86438 0.77859,-5.70846 1.54438,-8.48922 0,0 2.99949,0.0835 2.99949,0.0835 z"
       inkscape:connector-curvature="0" />
    <path
       style="color:#000000;display:inline;overflow:visible;visibility:visible;fill:#000000;fill-opacity:1;fill-rule:nonzero;stroke:#000000;stroke-width:0.66000003;stroke-linecap:butt;stroke-miterlimit:4;stroke-dasharray:none;stroke-dashoffset:0;stroke-opacity:1;marker:none;enable-background:accumulate"
       id="path5701"
       d="m 327.85996,559.33266 c -1.16486,2.69318 -1.8762,5.53661 -2.33291,8.42598 -0.4874,2.11295 -0.92651,4.23213 -1.1803,6.38665 -0.0909,1.09052 -0.0534,0.56283 -0.11493,1.5829 0,0 -3.00525,-0.0188 -3.00525,-0.0188 l 0,0 c 0.0668,-1.02962 0.0277,-0.49639 0.11944,-1.59951 0.25751,-2.15857 0.6991,-4.28285 1.19599,-6.3982 0.46337,-2.91132 1.18655,-5.77164 2.32113,-8.50042 0,0 2.99683,0.1214 2.99683,0.1214 z"
       inkscape:connector-curvature="0" />
    <path
       style="color:#000000;display:inline;overflow:visible;visibility:visible;fill:#000000;fill-opacity:1;fill-rule:nonzero;stroke:#000000;stroke-width:0.66000003;stroke-linecap:butt;stroke-miterlimit:4;stroke-dasharray:none;stroke-dashoffset:0;stroke-opacity:1;marker:none;enable-background:accumulate"
       id="path5703"
       d="m 230.29734,428.01953 c 2.44392,0.33384 4.91385,0.39001 7.3672,0.60626 0.33387,0.0294 -1.3368,0.0137 -1.00492,-0.0331 0.62532,-0.088 1.26148,-0.0613 1.89223,-0.0919 3.37013,-0.14413 6.73229,-0.5189 10.02831,-1.24206 2.10353,-0.47412 4.18114,-0.96929 6.21666,-1.68267 0.22186,0.0714 1.89738,-1.12784 1.13057,-1.14175 -1.6955,-0.15553 -3.40339,-0.13366 -5.10459,-0.13862 -0.41069,-2e-5 -1.63318,-0.0884 -1.23209,-8e-5 0.56131,0.12362 1.24871,-0.21995 1.7209,0.10773 0.36657,0.25438 -0.88544,0.11099 -1.32839,0.16466 -1.49409,0.18105 -2.98199,0.33649 -4.46975,0.5662 -3.16276,0.43917 -6.304,0.97969 -9.45156,1.51244 -2.03412,0.21772 -4.03164,0.56333 -5.96743,1.23085 0.36438,-0.71387 -0.49541,0.36338 -0.47645,0.19308 0.0509,-0.45697 1.49408,-0.19511 1.75444,-0.18991 0.27354,0.003 1.09324,0.0305 0.82062,0.008 -0.6465,-0.0536 -1.3253,0.0955 -1.94354,-0.10101 -0.35958,-0.11431 0.74676,-0.10878 1.12049,-0.16064 1.34339,-0.18639 2.68413,-0.33473 4.03484,-0.45649 3.03424,-0.22606 6.07795,-0.26511 9.11916,-0.29395 2.96886,-0.0174 5.93781,-0.0137 8.9067,-0.01 0.17239,0.004 1.47109,-0.18334 0.77367,0.47447 -0.24043,0.22678 -0.66101,4.5e-4 -0.99152,3.5e-4 -2.36087,-0.0768 -4.69571,0.3489 -7.03761,0.59135 -3.46026,0.17736 -6.89122,0.6588 -10.33728,0.99674 -2.91672,0.2729 -5.84606,0.36622 -8.77376,0.42049 -1.28761,-0.0418 -2.57738,-0.04 -3.86283,-0.12548 -0.1967,-0.0131 -1.69618,-0.3167 -1.67516,-0.71401 0.007,-0.12753 0.0986,-0.23561 0.14791,-0.35342 1.28455,-0.41438 2.64947,-0.65317 3.98719,-0.8648 2.79304,-0.35179 5.61343,-0.37171 8.42413,-0.40708 4.12628,-0.0292 8.25275,-0.021 12.3791,-0.0179 2.00897,0.002 0.55585,5.5e-4 2.37404,0.002 0.32471,2e-4 1.29775,0.0272 0.97413,6.5e-4 -2.10925,-0.17331 -2.94597,0.0917 -1.55188,-0.24833 0,0 2.98302,0.39257 2.98302,0.39257 l 0,0 c -2.47085,0.72325 -5.17942,0.17682 -7.72615,0.31988 -0.46125,-5e-4 -1.84463,0.0174 -1.38376,-10e-4 0.48192,-0.0198 1.9293,0.003 1.44699,-0.001 -2.18475,-0.0198 -4.37001,0.0136 -6.55475,0.0162 -2.80209,0.0316 -5.61226,0.0485 -8.39973,0.36845 -1.33047,0.19707 -2.62642,0.53108 -3.94232,0.73766 -0.047,-0.0535 -0.11401,-0.0945 -0.1409,-0.16037 -0.0612,-0.14994 0.29107,0.14398 0.444,0.19726 0.38409,0.13381 1.58306,0.23081 1.18245,0.30107 -0.67788,0.11888 -1.37497,0.0636 -2.06246,0.0954 2.93372,-0.0459 5.86925,-0.13033 8.79272,-0.3937 3.4441,-0.32797 6.8691,-0.83385 10.32729,-0.99659 2.336,-0.23523 4.66065,-0.67856 7.01244,-0.6259 0.325,-3.9e-4 0.73957,-0.22515 0.97499,-0.001 0.69351,0.65999 -0.58124,0.4631 -0.75781,0.46743 -0.92272,-0.003 -3.3941,1.9e-4 0.64091,-0.004 0.38017,-4.1e-4 -0.76035,-2.4e-4 -1.14052,1.1e-4 -1.24772,10e-4 -1.21036,0.002 -2.48566,0.008 -3.0405,0.0242 -6.08326,0.0585 -9.11764,0.27044 -3.31965,0.28262 -6.59881,0.95215 -9.95203,0.73232 -0.37211,-0.0115 -2.97913,-0.0486 -1.29626,-0.83619 1.94481,-0.69676 3.94879,-1.08992 6.00669,-1.27775 3.15038,-0.52017 6.28685,-1.0917 9.45313,-1.51439 3.70278,-0.61151 7.45499,-0.95932 11.21114,-0.88617 1.70475,0.007 3.49781,-0.12047 5.15668,0.29411 0.73457,0.831 -0.53029,1.43108 -1.15545,1.8224 -2.04691,0.72225 -4.12092,1.25406 -6.2431,1.71415 -3.29519,0.76767 -6.67433,1.12938 -10.05088,1.29021 -4.73052,0.25679 -9.44796,0.0953 -14.1481,-0.49476 0,0 2.96154,-0.43553 2.96154,-0.43553 z"
       inkscape:connector-curvature="0" />
    <path
       style="color:#000000;display:inline;overflow:visible;visibility:visible;fill:#000000;fill-opacity:1;fill-rule:nonzero;stroke:#000000;stroke-width:0.66000003;stroke-linecap:butt;stroke-miterlimit:4;stroke-dasharray:none;stroke-dashoffset:0;stroke-opacity:1;marker:none;enable-background:accumulate"
       id="path5707"
       d="m 238.26004,515.90454 c 3.30666,0.40596 6.63333,0.61687 9.96024,0.76544 1.92577,0.0779 3.85291,0.10704 5.78009,0.11184 0.165,-1.2e-4 0.66002,-2.8e-4 0.49502,-3.7e-4 -0.87152,-5e-4 -1.74303,-1.7e-4 -2.61455,-8.5e-4 -0.14171,-1.1e-4 0.44281,-0.14263 0.42513,-0.002 -0.075,0.59667 -0.23063,0.4693 -0.65291,0.46832 -1.69859,-0.003 -3.39719,-0.002 -5.09578,-0.003 0.59578,-5e-5 1.19155,4.4e-4 1.78733,-1.6e-4 0.43488,-4.4e-4 -0.87013,-0.018 -1.30465,-3.3e-4 -1.71208,0.0695 -3.41981,0.37632 -5.11769,0.59044 -2.64224,0.29137 -5.41538,0.61516 -7.97619,-0.24522 -0.84358,-0.25538 -0.63809,-0.72971 0.1822,-0.78867 1.99579,-0.44439 4.01694,-0.68787 6.05318,-0.8447 2.59078,-0.14552 5.17295,-0.1024 7.74623,-0.46063 1.79444,-0.28627 3.59686,-0.5128 5.40734,-0.6662 0.14666,-0.0374 1.4804,-0.23703 0.59048,0.38911 -0.26412,0.18583 -0.64589,1.1e-4 -0.96883,1.4e-4 0.71636,0 1.43545,-0.0625 2.14908,10e-6 0.32397,0.0284 -0.64773,0.0607 -0.97016,0.10319 -1.59482,0.20997 -3.17677,0.45615 -4.7785,0.61848 -1.66503,0.28522 -3.3281,0.57897 -4.9962,0.84611 0,0 -2.96098,-0.42138 -2.96098,-0.42138 l 0,0 c 1.67174,-0.26209 3.34096,-0.53797 5.00185,-0.86301 3.18523,-0.30683 6.30424,-1.05016 9.5291,-0.75431 0.32706,3.6e-4 0.71458,-0.18417 0.98116,0.005 0.86658,0.61593 -0.39993,0.50463 -0.59973,0.5233 -1.81687,0.14012 -3.62666,0.35191 -5.42568,0.64473 -2.57539,0.38116 -5.15322,0.36967 -7.75134,0.48062 -2.02441,0.14412 -4.06173,0.31879 -6.02661,0.85687 -0.80526,0.0177 -1.07369,-0.4553 -0.17107,-0.0498 0.39597,0.11586 0.55375,0.17226 0.98807,0.24705 0.25298,0.0436 1.01762,0.0711 0.76305,0.10416 -4.53569,0.58873 -0.61362,-0.27774 0.27564,-0.15611 3.51357,-0.43375 6.98492,-0.93927 10.54918,-0.62726 1.70617,-6e-4 3.41234,-9.8e-4 5.11851,2.6e-4 0.42494,10e-4 0.58831,-0.12696 0.66165,0.47378 0.0174,0.14289 -0.28788,0.003 -0.43182,0.003 -1.1144,5e-4 -2.2288,6.6e-4 -3.3432,4.1e-4 -0.1635,-3e-5 -0.32701,-8.4e-4 -0.49051,-10e-4 -1.91815,-0.0104 -3.83618,-0.0458 -5.75271,-0.12886 -3.33414,-0.15851 -6.66717,-0.38122 -9.98158,-0.78591 0,0 2.96616,-0.43205 2.96616,-0.43205 z"
       inkscape:connector-curvature="0" />
  </g>
</svg>
