<?xml version="1.0" encoding="UTF-8" standalone="no"?>
<!-- Created with Inkscape (http://www.inkscape.org/) -->

<svg
   xmlns:dc="http://purl.org/dc/elements/1.1/"
   xmlns:cc="http://creativecommons.org/ns#"
   xmlns:rdf="http://www.w3.org/1999/02/22-rdf-syntax-ns#"
   xmlns:svg="http://www.w3.org/2000/svg"
   xmlns="http://www.w3.org/2000/svg"
   xmlns:sodipodi="http://sodipodi.sourceforge.net/DTD/sodipodi-0.dtd"
   xmlns:inkscape="http://www.inkscape.org/namespaces/inkscape"
   width="136.95268mm"
   height="116.64367mm"
   viewBox="0 0 485.26541 413.30434"
   id="svg2"
   version="1.1"
   inkscape:version="0.91 r13725"
   sodipodi:docname="rates.svg">
  <defs
     id="defs4" />
  <sodipodi:namedview
     id="base"
     pagecolor="#ffffff"
     bordercolor="#666666"
     borderopacity="1.0"
     inkscape:pageopacity="0.0"
     inkscape:pageshadow="2"
     inkscape:zoom="1.4"
     inkscape:cx="26.202626"
     inkscape:cy="108.52562"
     inkscape:document-units="px"
     inkscape:current-layer="layer1"
     showgrid="false"
     fit-margin-top="0"
     fit-margin-left="0"
     fit-margin-right="0"
     fit-margin-bottom="0"
     inkscape:window-width="1855"
     inkscape:window-height="1056"
     inkscape:window-x="65"
     inkscape:window-y="24"
     inkscape:window-maximized="1" />
  <metadata
     id="metadata7">
    <rdf:RDF>
      <cc:Work
         rdf:about="">
        <dc:format>image/svg+xml</dc:format>
        <dc:type
           rdf:resource="http://purl.org/dc/dcmitype/StillImage" />
        <dc:title></dc:title>
      </cc:Work>
    </rdf:RDF>
  </metadata>
  <g
     inkscape:label="Layer 1"
     inkscape:groupmode="layer"
     id="layer1"
     transform="translate(-71.759442,-161.52118)">
    <path
       style="color:#000000;display:inline;overflow:visible;visibility:visible;fill:#000000;fill-opacity:1;fill-rule:nonzero;stroke:#000000;stroke-width:0.66000003;stroke-linecap:butt;stroke-miterlimit:4;stroke-dasharray:none;stroke-dashoffset:22.20000076;stroke-opacity:1;marker:none;enable-background:accumulate"
       id="path4138"
       d="m 149.56918,543.12043 c -0.25956,-2.86489 -0.9906,-5.65107 -1.57358,-8.45896 -1.15099,-5.27466 -1.76069,-10.65075 -2.30253,-16.01638 -0.87469,-9.29679 -1.60951,-18.60682 -2.34393,-27.91579 -0.8834,-11.88278 -1.55574,-23.77932 -2.28768,-35.67195 -0.63577,-12.05415 -1.43178,-24.09703 -2.27627,-36.13784 -0.82499,-10.97638 -1.85896,-21.93513 -2.56504,-32.92035 -0.79429,-9.64054 -1.04974,-19.30941 -1.44957,-28.97023 -0.41429,-8.61764 -0.60035,-17.24302 -0.70553,-25.86918 -0.10465,-7.62769 0.24924,-15.25222 0.4335,-22.87652 0.10252,-6.47587 0.27351,-12.95505 0.10759,-19.43078 -0.21897,-5.28762 -0.43814,-10.57462 -0.55444,-15.86565 0.02,-3.81231 -0.14053,-7.60925 -0.42278,-11.40937 -0.21909,-2.74831 -0.32168,-5.50299 -0.37174,-8.25891 -0.0326,-2.06058 -0.0311,-4.12147 -0.0322,-6.18225 0.11871,-1.56866 -0.20297,-3.09833 -0.42905,-4.63987 -0.20068,-1.42312 -0.24596,-2.86063 -0.27435,-4.29548 -0.17428,-1.32021 -0.45254,-2.6225 -0.60005,-3.94653 -0.2035,-1.11743 -0.0389,-2.18794 0.19387,-3.28224 0.19794,-0.86728 0.3104,-1.74757 0.3651,-2.63436 0.14889,-0.64553 0.43362,-1.24299 0.61342,-1.88023 0.11626,-0.27535 0.34661,-0.28351 1.96152,0.20752 0.13611,0.0414 -0.14622,0.24409 -0.22065,0.36532 -0.38258,0.62312 -0.2552,0.41867 -0.70524,1.07371 -1.33269,1.91938 -2.56543,3.90143 -3.94911,5.78503 -2.03373,3.03114 -4.27602,5.91286 -6.45691,8.83753 -1.7839,2.49189 -3.67118,4.90636 -5.4628,7.39317 -0.16752,0.24265 -0.32689,0.49113 -0.50256,0.72795 -0.0472,0.0636 -0.98714,1.17481 -1.03354,1.16665 -2.39886,-0.42166 -2.31412,0.0305 -1.94569,-1.21033 0.81758,-2.24918 1.7813,-4.44785 2.80083,-6.61236 1.84323,-3.65583 3.75741,-7.27676 5.65738,-10.90382 1.96381,-3.68681 3.95717,-7.36024 6.00906,-10.99902 1.15352,-1.80946 2.25589,-3.999 4.26125,-4.98663 3.8772,-0.66586 4.16412,0.89892 5.29149,3.83332 1.05359,3.82151 1.76089,7.73345 2.47614,11.63034 0.78368,4.24301 1.79879,8.43864 2.56563,12.68465 0.56195,2.75044 1.24933,5.49674 0.95481,8.31809 0,0 -2.10977,-0.023 -2.10977,-0.023 l 0,0 c 0.32091,-2.79762 -0.38345,-5.52734 -0.92279,-8.25816 -0.75845,-4.24649 -1.76705,-8.44252 -2.55311,-12.68394 -0.71818,-3.88494 -1.4259,-7.78774 -2.50695,-11.5903 -0.24502,-0.62418 -0.62592,-1.67459 -0.97511,-2.27756 -0.15435,-0.26651 -0.34151,-0.51485 -0.54465,-0.74633 -0.15553,-0.17723 -0.72388,-0.34558 -0.52569,-0.47332 0.44126,-0.28441 1.04605,-0.10247 1.56278,-0.19512 0.19906,-0.0357 -0.40416,0.0157 -0.60625,0.0236 -2.04615,0.8479 -3.13534,3.09288 -4.2886,4.85161 -2.06586,3.63119 -4.05841,7.30584 -6.02523,10.99131 -1.89464,3.62346 -3.79755,7.24388 -5.63577,10.89589 -1.00954,2.15464 -1.95735,4.34549 -2.76387,6.58458 -0.38423,1.18223 -0.0466,0.67696 -2.30185,0.96933 -0.0919,0.0119 0.14469,-0.11635 0.21126,-0.18086 0.51571,-0.49973 0.96657,-1.0608 1.35002,-1.66816 1.80084,-2.48666 3.70485,-4.89575 5.48817,-7.39472 2.17873,-2.92303 4.42721,-5.79777 6.445,-8.83684 1.38057,-1.87826 2.60291,-3.85872 3.92111,-5.78035 0.26492,-0.38342 2.68466,-4.61897 3.21341,-1.4599 -0.17727,0.6243 -0.44078,1.21158 -0.61685,1.83485 -0.0586,0.89734 -0.16948,1.78832 -0.37172,2.66592 -0.23388,1.07223 -0.39195,2.11726 -0.19509,3.21354 0.14941,1.33001 0.42601,2.63901 0.59629,3.96597 0.0283,1.42598 0.0733,2.8546 0.27342,4.26884 0.22752,1.55154 0.545,3.09232 0.42345,4.67084 -0.003,2.05947 -0.006,4.11903 0.0211,6.17837 0.0481,2.75183 0.14347,5.50273 0.35687,8.24738 0.27561,3.80393 0.43065,7.60465 0.39992,11.42025 0.10901,5.29064 0.31472,10.5777 0.5309,15.86492 0.16039,6.47922 -0.0163,12.96175 -0.12485,19.44087 -0.19031,7.62183 -0.55504,15.24365 -0.45467,22.86915 0.10218,8.6242 0.28311,17.24758 0.6934,25.86344 0.39215,9.65924 0.63724,19.32648 1.42331,28.96583 0.70034,10.98478 1.72974,21.94323 2.54809,32.91934 0.8374,12.04154 1.62394,24.08537 2.26335,36.13949 0.73525,11.89177 1.41292,23.78737 2.31381,35.66826 0.75131,9.30771 1.50125,18.61683 2.40855,27.91064 0.56172,5.35914 1.19045,10.72777 2.35923,15.99408 0.59702,2.81332 1.321,5.6066 1.61233,8.47565 0,0 -2.11933,0.0264 -2.11933,0.0264 z"
       inkscape:connector-curvature="0" />
    <path
       style="color:#000000;display:inline;overflow:visible;visibility:visible;fill:#000000;fill-opacity:1;fill-rule:nonzero;stroke:#000000;stroke-width:0.66000003;stroke-linecap:butt;stroke-miterlimit:4;stroke-dasharray:none;stroke-dashoffset:22.20000076;stroke-opacity:1;marker:none;enable-background:accumulate"
       id="path4140"
       d="m 74.230155,205.40119 c -1.862428,-2.87745 -2.25988,-5.55637 -2.113664,-8.91856 0.289046,-3.47109 1.570969,-6.65022 3.524553,-9.50042 1.577254,-1.74454 3.160536,-1.66765 5.518081,-0.97127 0.449956,0.13291 1.644558,1.56319 1.87673,1.82133 1.521172,1.77239 2.835395,3.73277 4.562755,5.32149 1.225136,1.1268 1.49953,1.21711 2.876627,2.09081 2.163081,0.8368 0.926251,0.47227 3.167169,0.8939 0.154452,0.0291 -0.61085,-0.0145 -0.465566,-0.0745 0.499668,-0.20613 1.068205,-0.19705 1.575567,-0.38344 1.392546,-0.5116 1.874342,-1.00454 3.069887,-1.88601 3.033136,-2.60405 5.116926,-5.98504 6.912296,-9.50464 0.92552,-1.82683 1.56215,-3.80161 2.52106,-5.61108 0.0412,-0.0434 0.0825,-0.0868 0.12375,-0.13021 0,0 2.12673,0.21884 2.12673,0.21884 l 0,0 c -0.0411,0.007 -0.0823,0.0132 -0.12338,0.0198 -1.03844,1.76602 -1.60863,3.7936 -2.56872,5.60086 -1.80693,3.54255 -3.89732,6.94937 -6.922277,9.59896 -0.506528,0.38606 -0.983428,0.81445 -1.519583,1.15818 -2.973721,1.90645 -6.844843,1.76119 -9.970435,0.30723 -1.383632,-0.90255 -1.642559,-0.98859 -2.875434,-2.13855 -1.719225,-1.60359 -3.041719,-3.5615 -4.580255,-5.32635 -0.314523,-0.33703 -0.60359,-0.69976 -0.943568,-1.0111 -0.289854,-0.26544 -1.041499,-0.33353 -0.939105,-0.71299 0.10877,-0.40308 0.913892,-0.017 1.214319,-0.30692 0.688523,-0.66443 -3.785606,0.91341 -2.544546,1.15285 -1.970546,2.79924 -3.245085,5.94523 -3.535729,9.38215 -0.136413,3.24205 0.274343,6.03991 2.14659,8.77839 0,0 -2.113852,0.13128 -2.113852,0.13128 z"
       inkscape:connector-curvature="0" />
    <path
       style="color:#000000;display:inline;overflow:visible;visibility:visible;fill:#000000;fill-opacity:1;fill-rule:nonzero;stroke:#000000;stroke-width:0.66000003;stroke-linecap:butt;stroke-miterlimit:4;stroke-dasharray:none;stroke-dashoffset:22.20000076;stroke-opacity:1;marker:none;enable-background:accumulate"
       id="path4142"
       d="m 88.831365,201.63034 c -0.62076,3.10531 -0.961447,6.257 -1.357023,9.39671 -0.442564,3.1909 -0.408191,6.42461 0.255,9.57749 0.497317,1.89011 1.446005,3.36718 3.294463,4.0713 1.24472,0.35339 2.542886,0.39743 3.827783,0.42244 0,0 -2.09492,0.32659 -2.09492,0.32659 l 0,0 c -1.290364,-0.0376 -2.595604,-0.0961 -3.833425,-0.49967 -1.843653,-0.80952 -2.802355,-2.34481 -3.293972,-4.27785 -0.645543,-3.17806 -0.677383,-6.43372 -0.233609,-9.64617 0.38981,-3.1388 0.732874,-6.28696 1.316377,-9.3972 0,0 2.119326,0.0264 2.119326,0.0264 z"
       inkscape:connector-curvature="0" />
    <path
       style="color:#000000;display:inline;overflow:visible;visibility:visible;fill:#000000;fill-opacity:1;fill-rule:nonzero;stroke:#000000;stroke-width:0.66000003;stroke-linecap:butt;stroke-miterlimit:4;stroke-dasharray:none;stroke-dashoffset:22.20000076;stroke-opacity:1;marker:none;enable-background:accumulate"
       id="path4144"
       d="m 120.38575,173.62521 c 0.0954,8e-5 2.41516,0.002 2.42242,10e-4 0.23364,-0.0316 -0.9283,-0.009 -0.70295,-0.0787 0.60023,-0.18474 2.93224,-0.26873 3.70612,-0.34212 0.75482,-0.0888 1.48509,-0.28677 2.20949,-0.50669 0,0 2.10648,0.26875 2.10648,0.26875 l 0,0 c -0.73201,0.23344 -1.4705,0.44372 -2.23464,0.54758 -3.19299,0.29889 -6.38581,0.54349 -9.59763,0.441 0,0 2.09071,-0.33113 2.09071,-0.33113 z"
       inkscape:connector-curvature="0" />
    <path
       style="color:#000000;display:inline;overflow:visible;visibility:visible;fill:#000000;fill-opacity:1;fill-rule:nonzero;stroke:#000000;stroke-width:0.66000003;stroke-linecap:butt;stroke-miterlimit:4;stroke-dasharray:none;stroke-dashoffset:22.20000076;stroke-opacity:1;marker:none;enable-background:accumulate"
       id="path4146"
       d="m 141.16864,171.6655 c 0.28667,-2.36085 0.44657,-4.73451 0.55446,-7.10948 0.03,-0.72276 0.0497,-1.44589 0.0622,-2.16915 0.0175,-1.01584 -0.12554,-0.32859 2.14328,-0.0122 -0.42565,2.37335 -0.51682,4.78625 -0.61333,7.19015 -0.36952,3.5628 -0.51048,7.11727 -0.39149,10.69522 0.0689,1.08953 0.25783,2.14074 0.57343,3.18128 0,0 -2.11192,0.0605 -2.11192,0.0605 l 0,0 c -0.30353,-1.0603 -0.49194,-2.12945 -0.55201,-3.23524 -0.10643,-3.58286 0.037,-7.14185 0.39915,-10.70979 0.0879,-2.39943 0.16702,-4.80776 0.56272,-7.1808 2.40938,-0.28957 2.15213,-0.96219 2.11485,0.0165 -0.0276,0.72445 -0.0401,1.44945 -0.0796,2.17345 -0.11552,2.37987 -0.29033,4.75638 -0.5425,7.12593 0,0 -2.11932,-0.0263 -2.11932,-0.0263 z"
       inkscape:connector-curvature="0" />
    <path
       style="color:#000000;display:inline;overflow:visible;visibility:visible;fill:#000000;fill-opacity:1;fill-rule:nonzero;stroke:#000000;stroke-width:0.66000003;stroke-linecap:butt;stroke-miterlimit:4;stroke-dasharray:none;stroke-dashoffset:22.20000076;stroke-opacity:1;marker:none;enable-background:accumulate"
       id="path4148"
       d="m 125.74195,541.19762 c -1.37796,-1.86862 -3.14939,-3.26533 -5.23467,-4.25061 -1.2636,-0.6122 -2.58852,-1.09227 -3.93575,-1.48417 -0.0517,-0.14349 -0.28449,0.005 -0.36242,-0.0922 -0.60988,-0.76148 3.01453,-0.0856 3.59849,0.005 2.9418,0.3565 5.66156,0.0538 9.28609,-0.0561 7.35599,-0.47644 14.72529,-0.63064 22.08967,-0.90856 10.84684,-0.37489 21.68082,-1.01458 32.5035,-1.81989 14.34364,-1.12009 28.65839,-2.57017 42.99997,-3.71271 16.26307,-1.38835 32.56248,-2.21466 48.86757,-2.90492 16.62857,-0.6352 33.26035,-1.12433 49.89881,-1.39423 15.42425,-0.22671 30.84901,-0.28001 46.27291,-0.0298 12.34411,0.41244 24.6857,0.20841 37.02634,-0.16219 12.37603,-0.42579 24.73231,-1.23356 37.08347,-2.10463 11.0904,-0.92047 22.19306,-1.70262 33.30542,-2.30335 9.39255,-0.57264 18.79947,-0.49061 28.19083,0.0108 5.59429,0.26919 11.16406,0.87361 16.75198,1.24072 2.4378,0.22835 4.85708,0.61304 7.29342,0.85391 -0.79795,-0.0108 2.18385,0.15219 1.34808,0.10398 -4.70674,-0.27152 -1.66355,0.39734 -1.69415,-0.34519 -0.49031,-0.67254 -1.39682,-1.10712 -2.09629,-1.55917 -1.58538,-1.33009 -3.1912,-2.63423 -4.63136,-4.12303 -1.56975,-1.74334 -3.32138,-3.31165 -5.02243,-4.92422 -1.54324,-1.46884 -3.11822,-2.89807 -4.40643,-4.60114 -0.70512,-1.04999 -2.04962,-2.36384 -1.47194,-3.73326 2.44446,-1.62538 5.81187,0.33783 8.08681,1.4027 4.14842,2.03412 8.05253,4.51768 11.94036,7.00231 3.67261,2.22829 7.25093,4.58847 10.37063,7.55241 2.15045,2.66923 2.0409,4.18345 0.0623,6.85611 -3.00782,3.06121 -6.92304,4.92123 -10.70165,6.83268 -3.75352,1.92313 -7.69927,3.41673 -11.69821,4.73702 -0.40023,0.0912 -0.80047,0.18232 -1.2007,0.27347 0,0 -2.08175,-0.2841 -2.08175,-0.2841 l 0,0 c 0.40262,-0.0837 0.80524,-0.16737 1.20786,-0.25105 4.01002,-1.29921 7.96503,-2.78168 11.72454,-4.7021 3.75463,-1.89811 7.64051,-3.73303 10.66002,-6.74065 1.95873,-2.57435 2.0616,-3.96882 -0.0511,-6.55228 -3.11204,-2.9482 -6.68538,-5.28869 -10.33878,-7.51558 -3.89188,-2.48129 -7.80168,-4.96057 -11.96341,-6.97219 -0.62406,-0.28835 -2.26954,-1.06762 -2.9719,-1.32474 -0.3659,-0.13395 -1.22272,0.0493 -1.12222,-0.32713 0.10662,-0.39942 0.82539,-0.0535 1.23619,-0.0998 0.21069,-0.0238 -0.42748,-0.0101 -0.63527,0.0321 -0.14164,0.0287 -0.26382,0.11811 -0.39573,0.17716 -0.67196,1.17379 0.89674,2.59867 1.44677,3.49971 1.29559,1.68362 2.87049,3.10174 4.40159,4.56768 1.7017,1.61471 3.44767,3.19052 5.02198,4.93239 1.44707,1.46885 3.03604,2.78361 4.64271,4.07419 0.72952,0.46756 1.77901,0.93353 2.12333,1.76965 -0.015,1.46164 -2.81557,0.53316 -3.88462,0.55209 -2.41953,-0.25421 -4.82395,-0.63522 -7.24755,-0.85335 -5.5686,-0.37683 -11.11995,-0.98076 -16.69597,-1.24649 -8.08312,-0.42981 -16.16769,-0.5932 -24.25301,-0.0182 -11.1224,0.59434 -22.23509,1.37421 -33.33513,2.29552 -12.35397,0.87247 -24.71307,1.6811 -37.09183,2.11125 -13.6033,0.40966 -27.21075,0.56344 -40.81738,0.16135 -14.18035,-0.22984 -28.36035,-0.20071 -42.54138,0.024 -16.64244,0.26636 -33.27817,0.75223 -49.91067,1.38746 -16.29711,0.68838 -32.58859,1.51288 -48.84358,2.90154 -14.32517,1.13975 -28.62281,2.59402 -42.94923,3.72127 -10.80232,0.81111 -21.61597,1.45742 -32.4428,1.83639 -7.34564,0.28381 -14.69708,0.4282 -22.03383,0.91878 -4.46094,0.13703 -8.96001,0.50186 -13.40905,0.0389 -2.90133,-0.49283 -0.043,-0.62219 0.97422,-0.48234 1.3386,0.41327 2.65615,0.90283 3.91483,1.52071 2.08939,1.03442 3.86603,2.47572 5.25981,4.36137 0,0 -2.11829,0.1247 -2.11829,0.1247 z"
       inkscape:connector-curvature="0" />
    <path
       style="color:#000000;display:inline;overflow:visible;visibility:visible;fill:#000000;fill-opacity:1;fill-rule:nonzero;stroke:#000000;stroke-width:0.66000003;stroke-linecap:butt;stroke-miterlimit:4;stroke-dasharray:none;stroke-dashoffset:22.20000076;stroke-opacity:1;marker:none;enable-background:accumulate"
       id="path4154"
       d="m 515.26034,550.62601 c 2.02592,-0.58129 4.10385,-0.91222 6.19767,-1.1153 2.45915,-0.42003 4.94784,-0.57537 7.42499,-0.83796 3.29246,-0.32156 6.56659,-0.7915 9.85991,-1.10567 3.20034,-0.41072 6.41342,-0.68801 9.60806,-1.13987 1.78147,-0.35492 3.64145,-0.28227 5.38943,-0.79391 0.32368,-0.10238 0.62805,-0.24654 0.91078,-0.43207 0,0 2.13275,0.18006 2.13275,0.18006 l 0,0 c -0.24758,0.26445 -0.61169,0.38349 -0.93564,0.52149 -1.74961,0.56709 -3.6271,0.4689 -5.42421,0.82292 -3.19845,0.45444 -6.41454,0.73197 -9.61846,1.14825 -3.29147,0.3061 -6.56165,0.78007 -9.85104,1.1039 -2.47137,0.27636 -4.96046,0.39847 -7.41231,0.84301 -2.08648,0.18916 -4.15965,0.4992 -6.17787,1.07863 0,0 -2.10406,-0.27348 -2.10406,-0.27348 z"
       inkscape:connector-curvature="0" />
    <path
       style="color:#000000;display:inline;overflow:visible;visibility:visible;fill:#000000;fill-opacity:1;fill-rule:nonzero;stroke:#000000;stroke-width:0.66000003;stroke-linecap:butt;stroke-miterlimit:4;stroke-dasharray:none;stroke-dashoffset:22.20000076;stroke-opacity:1;marker:none;enable-background:accumulate"
       id="path4156"
       d="m 534.71511,551.69089 c 0.3107,2.87396 0.44343,5.76205 0.53546,8.64991 0.0789,2.93491 0.0809,5.87108 0.0882,8.80681 -0.0615,1.77931 0.12107,3.57286 -0.0774,5.34441 0,0 -2.11785,-0.025 -2.11785,-0.025 l 0,0 c 0.22048,-1.76078 0.0324,-3.54895 0.0986,-5.31916 -3.3e-4,-2.9336 -0.006,-5.86763 -0.082,-8.80043 -0.0914,-2.88274 -0.21781,-5.76752 -0.56151,-8.63314 0,0 2.11648,-0.0234 2.11648,-0.0234 z"
       inkscape:connector-curvature="0" />
    <path
       style="color:#000000;display:inline;overflow:visible;visibility:visible;fill:#000000;fill-opacity:1;fill-rule:nonzero;stroke:#000000;stroke-width:0.66000003;stroke-linecap:butt;stroke-miterlimit:4;stroke-dasharray:none;stroke-dashoffset:22.20000076;stroke-opacity:1;marker:none;enable-background:accumulate"
       id="path4158"
       d="m 145.34913,457.12401 c 2.60692,-0.3056 5.22752,-0.45833 7.84936,-0.55599 3.03636,-0.12449 6.0734,-0.38151 9.09823,-0.68054 4.57118,-0.42003 9.11633,-1.05581 13.63469,-1.86054 5.9314,-1.14099 11.84849,-2.38212 17.69921,-3.88533 6.4019,-1.72858 12.74685,-3.66534 19.1028,-5.55583 6.61588,-2.04716 13.17293,-4.28528 19.71886,-6.54561 6.2992,-2.17095 12.51931,-4.55348 18.71481,-7.00203 5.80958,-2.05575 11.38948,-4.65409 16.99812,-7.18713 5.50808,-2.64938 10.90483,-5.53644 16.24631,-8.50651 5.60222,-3.04339 11.09535,-6.27009 16.59225,-9.49735 5.12058,-3.00108 10.23778,-6.00761 15.34602,-9.02973 4.75286,-2.84931 9.3021,-6.03149 13.85225,-9.1916 4.52186,-3.14359 9.0064,-6.33548 13.35678,-9.71325 4.63206,-3.42794 9.11355,-7.05457 13.48537,-10.80724 4.48896,-3.95539 8.80993,-8.10019 12.98638,-12.38311 4.34696,-4.48248 8.62355,-9.023 12.65254,-13.79432 4.14374,-4.81848 8.05077,-9.83112 11.87502,-14.9046 3.86702,-5.20273 7.74036,-10.40301 11.46851,-15.7065 3.87719,-5.33751 7.15782,-11.06437 10.58165,-16.69333 3.23156,-5.26663 6.19312,-10.68754 9.02698,-16.17572 2.29588,-4.69798 4.40614,-9.48179 6.70751,-14.17682 1.41833,-3.39966 2.86781,-6.78188 4.36,-10.14961 0.90246,-2.18641 1.90021,-4.326 2.91184,-6.46326 1.03264,-1.89919 2.1287,-3.76337 3.2093,-5.63606 1.11251,-1.75134 2.04703,-3.61296 2.93734,-5.4854 0.60146,-1.20921 1.00317,-2.52162 1.6056,-3.72651 0.28043,-0.49338 0.49929,-1.02235 0.78935,-1.51025 2.34158,0.5885 2.26415,-0.19611 2.11875,1.05138 0,0 -2.12635,-0.0256 -2.12635,-0.0256 l 0,0 c 0.14424,-1.14675 -0.0936,-0.43083 2.1319,-0.75957 -0.12013,-0.15515 -0.67068,1.20392 -0.78968,1.34583 -0.63813,1.1819 -1.00072,2.52205 -1.62042,3.7183 -0.89119,1.87812 -1.82978,3.74578 -2.94381,5.50212 -1.08092,1.86643 -2.16427,3.73145 -3.20706,5.61909 -1.01623,2.1352 -2.01813,4.27303 -2.92581,6.4575 -1.50496,3.36851 -2.97121,6.74954 -4.38815,10.15636 -2.31433,4.69321 -4.43495,9.47677 -6.72923,14.17993 -2.84063,5.49105 -5.80248,10.91835 -9.0378,16.18943 -3.43086,5.62952 -6.70698,11.36386 -10.58423,16.7065 -3.72518,5.30724 -7.60046,10.50772 -11.46557,15.71353 -3.82614,5.07548 -7.72818,10.09556 -11.87428,14.91582 -4.02589,4.77862 -8.30379,9.32231 -12.6515,13.80896 -4.17177,4.29213 -8.49692,8.43745 -12.98232,12.40166 -4.36851,3.75792 -8.84895,7.38809 -13.4809,10.8177 -4.34797,3.38575 -8.83512,6.57871 -13.35942,9.72394 -4.54874,3.16814 -9.10465,6.34771 -13.85548,9.20641 -5.11116,3.023 -10.23219,6.02888 -15.35657,9.02933 -5.49855,3.22586 -10.98861,6.45908 -16.59199,9.50199 -5.33868,2.97904 -10.74028,5.86085 -16.24355,8.52414 -5.61376,2.52966 -11.1894,5.14768 -17.00585,7.19591 -6.19812,2.45187 -12.42222,4.834 -18.72349,7.00994 -6.546,2.26348 -13.10564,4.49707 -19.71938,6.55446 -6.35453,1.88926 -12.69681,3.82833 -19.09484,5.56436 -5.84449,1.51378 -11.75925,2.7498 -17.68471,3.90282 -4.50843,0.81281 -9.04381,1.4573 -13.60629,1.88065 -3.01997,0.31166 -6.05588,0.55746 -9.08747,0.6958 -2.6133,0.092 -5.22589,0.23609 -7.82422,0.54098 0,0 -2.09736,-0.30551 -2.09736,-0.30551 z"
       inkscape:connector-curvature="0" />
    <path
       style="color:#000000;display:inline;overflow:visible;visibility:visible;fill:#000000;fill-opacity:1;fill-rule:nonzero;stroke:#000000;stroke-width:0.66000003;stroke-linecap:butt;stroke-miterlimit:4;stroke-dasharray:none;stroke-dashoffset:22.20000076;stroke-opacity:1;marker:none;enable-background:accumulate"
       id="path4162"
       d="m 293.20478,364.19412 c 3.38105,-0.97456 6.86679,-1.54959 10.34998,-2.01362 4.79392,-0.45098 9.60647,-0.70951 14.41326,-0.99976 4.59622,-0.26733 9.20002,-0.3469 13.80282,-0.39467 3.69166,-0.0293 7.38349,-0.0243 11.07524,-0.0225 0.88395,-0.22905 3.36329,0.41591 0.11308,-0.0677 -0.12024,-0.0179 0.62888,0.007 0.52996,-0.38217 -0.71529,-0.69381 -1.70496,-1.16035 -2.62651,-1.53746 -0.9055,-0.50787 -1.86982,-0.98552 -2.63453,-1.69867 -1.28217,-1.44277 1.55824,-1.01894 2.616,-0.68805 1.80351,0.53865 3.61301,1.06255 5.39647,1.66696 1.94541,0.53035 3.81417,1.19399 5.51158,2.28845 1.00805,0.92458 0.7596,1.73865 -0.18947,2.55874 -1.28759,0.77678 -2.77142,1.14139 -4.23425,1.42571 -1.18268,0.35273 -2.47434,0.51031 -3.48267,1.26737 -0.4346,0.35849 -0.22563,0.18469 -0.62718,0.52107 0,0 -2.12186,-0.18598 -2.12186,-0.18598 l 0,0 c 0.40423,-0.33758 0.19431,-0.16286 0.6299,-0.52401 0.9778,-0.85136 2.30745,-0.98908 3.50803,-1.3703 1.45226,-0.2638 2.90247,-0.62339 4.21264,-1.32186 0.99651,-0.76439 1.20798,-1.23972 0.19834,-2.15873 -1.69513,-1.06918 -3.57163,-1.69239 -5.49352,-2.2386 -1.79171,-0.59406 -3.60267,-1.13043 -5.41636,-1.65197 -1.78423,-0.41125 2.19674,0.41192 1.27457,-0.27886 -0.0683,-0.0512 0.39385,0.71351 0.33842,0.51033 0.78908,0.66266 1.70673,1.16543 2.62185,1.63092 0.94404,0.4166 2.06535,0.88188 2.65354,1.75644 0.12852,1.52886 -3.6003,0.64154 -4.8584,0.80767 -0.35833,-5.5e-4 -0.71668,10e-4 -1.075,-0.002 -0.25467,-0.002 1.0187,-6.4e-4 0.76403,-9.8e-4 -2.21164,-0.003 -4.42331,0.003 -6.6349,0.0183 -4.6076,0.0436 -9.21626,0.11875 -13.81749,0.38192 -4.80242,0.2873 -9.6092,0.55611 -14.40023,0.98688 -3.46489,0.45195 -6.93963,1.01072 -10.29698,1.99692 0,0 -2.10036,-0.28012 -2.10036,-0.28012 z"
       inkscape:connector-curvature="0" />
    <path
       style="color:#000000;display:inline;overflow:visible;visibility:visible;fill:#000000;fill-opacity:1;fill-rule:nonzero;stroke:#000000;stroke-width:0.66000003;stroke-linecap:butt;stroke-miterlimit:4;stroke-dasharray:none;stroke-dashoffset:22.20000076;stroke-opacity:1;marker:none;enable-background:accumulate"
       id="path4158-8"
       d="m 150.2533,517.0737 c 2.60692,-0.3056 5.22752,-0.45833 7.84936,-0.55599 3.03636,-0.12449 6.0734,-0.38151 9.09823,-0.68054 4.57118,-0.42003 9.11633,-1.05581 13.63469,-1.86054 5.9314,-1.14099 11.84849,-2.38212 17.69921,-3.88533 6.4019,-1.72858 12.74685,-3.66534 19.1028,-5.55583 6.61588,-2.04716 13.17293,-4.28528 19.71886,-6.54561 6.2992,-2.17095 12.51931,-4.55348 18.71482,-7.00203 5.80958,-2.05575 11.38948,-4.65409 16.99812,-7.18713 5.50808,-2.64938 10.90483,-5.53644 16.24631,-8.50651 5.60222,-3.04339 11.09535,-6.27009 16.59225,-9.49735 5.12058,-3.00108 10.23778,-6.00761 15.34602,-9.02973 4.75286,-2.84931 9.3021,-6.03149 13.85225,-9.1916 4.52186,-3.14359 9.0064,-6.33548 13.35678,-9.71325 4.63206,-3.42794 9.11355,-7.05457 13.48537,-10.80724 4.48896,-3.95539 8.80993,-8.10019 12.98638,-12.38311 4.34696,-4.48248 8.62355,-9.023 12.65254,-13.79432 4.14374,-4.81848 8.05077,-9.83112 11.87502,-14.90461 3.86702,-5.20273 7.74036,-10.40301 11.46851,-15.7065 3.87719,-5.33751 7.15782,-11.06437 10.58165,-16.69333 3.23156,-5.26663 6.19312,-10.68754 9.02698,-16.17572 2.29588,-4.69798 4.40614,-9.48179 6.70751,-14.17682 1.41833,-3.39966 2.86781,-6.78188 4.36,-10.14961 0.90246,-2.18641 1.90021,-4.326 2.91184,-6.46326 1.03264,-1.89919 2.1287,-3.76337 3.2093,-5.63606 1.11251,-1.75134 2.04703,-3.61296 2.93734,-5.4854 0.60146,-1.20921 1.00317,-2.52162 1.6056,-3.72651 0.28043,-0.49338 0.49929,-1.02235 0.78935,-1.51025 2.34158,0.5885 2.26415,-0.19611 2.11875,1.05138 0,0 -2.12635,-0.0256 -2.12635,-0.0256 l 0,0 c 0.14424,-1.14675 -0.0936,-0.43083 2.1319,-0.75957 -0.12013,-0.15515 -0.67068,1.20392 -0.78968,1.34583 -0.63813,1.1819 -1.00072,2.52205 -1.62042,3.7183 -0.89119,1.87812 -1.82978,3.74578 -2.94381,5.50212 -1.08092,1.86643 -2.16427,3.73145 -3.20706,5.61909 -1.01623,2.1352 -2.01813,4.27303 -2.92581,6.4575 -1.50496,3.36851 -2.97121,6.74954 -4.38815,10.15636 -2.31433,4.69321 -4.43495,9.47677 -6.72923,14.17993 -2.84063,5.49105 -5.80248,10.91835 -9.0378,16.18943 -3.43086,5.62952 -6.70698,11.36386 -10.58423,16.7065 -3.72518,5.30724 -7.60046,10.50772 -11.46557,15.71353 -3.82614,5.07549 -7.72818,10.09557 -11.87428,14.91583 -4.02589,4.77862 -8.30379,9.32231 -12.6515,13.80896 -4.17177,4.29213 -8.49692,8.43745 -12.98232,12.40166 -4.36851,3.75792 -8.84895,7.38809 -13.4809,10.8177 -4.34797,3.38575 -8.83512,6.57871 -13.35942,9.72394 -4.54874,3.16814 -9.10465,6.34771 -13.85548,9.20641 -5.11116,3.023 -10.23219,6.02888 -15.35657,9.02933 -5.49855,3.22586 -10.98861,6.45908 -16.59199,9.50199 -5.33868,2.97904 -10.74028,5.86085 -16.24355,8.52414 -5.61376,2.52966 -11.1894,5.14768 -17.00585,7.19591 -6.19812,2.45187 -12.42223,4.834 -18.7235,7.00994 -6.546,2.26348 -13.10564,4.49707 -19.71938,6.55446 -6.35453,1.88926 -12.69681,3.82833 -19.09484,5.56436 -5.84449,1.51378 -11.75925,2.7498 -17.68471,3.90282 -4.50843,0.81281 -9.04381,1.4573 -13.60629,1.88065 -3.01997,0.31166 -6.05588,0.55746 -9.08747,0.6958 -2.6133,0.092 -5.22589,0.23609 -7.82422,0.54098 0,0 -2.09736,-0.30551 -2.09736,-0.30551 z"
       inkscape:connector-curvature="0" />
    <path
       style="color:#000000;display:inline;overflow:visible;visibility:visible;fill:#000000;fill-opacity:1;fill-rule:nonzero;stroke:#000000;stroke-width:0.66000003;stroke-linecap:butt;stroke-miterlimit:4;stroke-dasharray:none;stroke-dashoffset:22.20000076;stroke-opacity:1;marker:none;enable-background:accumulate"
       id="path4162-9"
       d="m 457.30407,424.14381 c -3.38105,-0.97456 -6.86679,-1.54959 -10.34998,-2.01362 -4.79392,-0.45098 -9.60647,-0.70951 -14.41326,-0.99976 -4.59622,-0.26733 -9.20002,-0.3469 -13.80282,-0.39467 -3.69166,-0.0293 -7.38349,-0.0243 -11.07524,-0.0225 -0.88395,-0.22905 -3.36329,0.41591 -0.11308,-0.0677 0.12024,-0.0179 -0.62888,0.007 -0.52996,-0.38217 0.71529,-0.69381 1.70496,-1.16035 2.62651,-1.53746 0.9055,-0.50787 1.86982,-0.98552 2.63453,-1.69867 1.28217,-1.44277 -1.55824,-1.01894 -2.616,-0.68805 -1.80351,0.53865 -3.61301,1.06255 -5.39647,1.66696 -1.94541,0.53035 -3.81417,1.19399 -5.51158,2.28845 -1.00805,0.92458 -0.7596,1.73865 0.18947,2.55874 1.28759,0.77678 2.77142,1.14139 4.23425,1.42571 1.18268,0.35273 2.47434,0.51031 3.48267,1.26737 0.4346,0.35849 0.22563,0.18469 0.62718,0.52107 0,0 2.12186,-0.18598 2.12186,-0.18598 l 0,0 c -0.40423,-0.33758 -0.19431,-0.16286 -0.6299,-0.52401 -0.9778,-0.85136 -2.30745,-0.98908 -3.50803,-1.3703 -1.45226,-0.2638 -2.90247,-0.62339 -4.21264,-1.32186 -0.99651,-0.76439 -1.20798,-1.23972 -0.19834,-2.15873 1.69513,-1.06918 3.57163,-1.69239 5.49352,-2.2386 1.79171,-0.59406 3.60267,-1.13043 5.41636,-1.65197 1.78423,-0.41125 -2.19674,0.41192 -1.27457,-0.27886 0.0683,-0.0512 -0.39385,0.71351 -0.33842,0.51033 -0.78908,0.66266 -1.70673,1.16543 -2.62185,1.63092 -0.94404,0.4166 -2.06535,0.88188 -2.65354,1.75644 -0.12852,1.52886 3.6003,0.64154 4.8584,0.80767 0.35833,-5.5e-4 0.71668,0.001 1.075,-0.002 0.25467,-0.002 -1.0187,-6.4e-4 -0.76403,-9.8e-4 2.21164,-0.003 4.42331,0.003 6.6349,0.0183 4.6076,0.0436 9.21626,0.11875 13.81749,0.38192 4.80242,0.2873 9.6092,0.55611 14.40023,0.98688 3.46489,0.45195 6.93963,1.01072 10.29698,1.99692 0,0 2.10036,-0.28012 2.10036,-0.28012 z"
       inkscape:connector-curvature="0" />
    <text
       xml:space="preserve"
       style="font-style:italic;font-variant:normal;font-weight:normal;font-stretch:normal;font-size:80px;line-height:125%;font-family:'Times New Roman';-inkscape-font-specification:'Sans Italic';text-align:start;letter-spacing:0px;word-spacing:0px;text-anchor:start;fill:#000000;fill-opacity:1;stroke:none;stroke-width:1px;stroke-linecap:butt;stroke-linejoin:miter;stroke-opacity:1"
       x="229.28571"
       y="370.93365"
       id="text4184"
       sodipodi:linespacing="125%"><tspan
         sodipodi:role="line"
         id="tspan4186"
         x="229.28571"
         y="370.93365"
         style="font-size:25px">Dirty</tspan></text>
    <text
       xml:space="preserve"
       style="font-style:italic;font-variant:normal;font-weight:normal;font-stretch:normal;font-size:80px;line-height:125%;font-family:'Times New Roman';-inkscape-font-specification:'Sans Italic';text-align:start;letter-spacing:0px;word-spacing:0px;text-anchor:start;fill:#000000;fill-opacity:1;stroke:none;stroke-width:1px;stroke-linecap:butt;stroke-linejoin:miter;stroke-opacity:1"
       x="461.42856"
       y="432.36218"
       id="text4188"
       sodipodi:linespacing="125%"><tspan
         sodipodi:role="line"
         id="tspan4190"
         x="461.42856"
         y="432.36218"
         style="font-size:25px">Clean</tspan></text>
  </g>
</svg>
